<?xml version="1.0" encoding="UTF-8"?>
<svg width="360px" height="640px" viewBox="0 0 360 640" version="1.1" xmlns="http://www.w3.org/2000/svg" xmlns:xlink="http://www.w3.org/1999/xlink">
    <!-- Generator: Sketch 52.3 (67297) - http://www.bohemiancoding.com/sketch -->
    <title>04 The emperor</title>
    <desc>Created with Sketch.</desc>
    <defs>
        <rect id="path-1" x="0" y="0" width="113" height="87"></rect>
    </defs>
    <g id="04-The-emperor" stroke="none" stroke-width="1" fill="none" fill-rule="evenodd">
        <rect id="Rectangle-9" stroke="#000000" stroke-width="10" fill="#FCD116" x="15" y="26" width="330" height="589" rx="25"></rect>
        <path d="M16.5,538 L340.5,538" id="Line" stroke="#000000" stroke-width="10" stroke-linecap="square"></path>
        <g id="flame" transform="translate(101.500000, 339.000000) scale(-1, 1) translate(-101.500000, -339.000000) translate(65.000000, 285.000000)">
            <path d="M41.3484278,102.39746 C58.7665449,102.39746 72.8867187,87.6170972 72.8867187,69.3845957 C72.8867187,61.1340323 65.2152211,47.8033506 65.2152211,47.8033506 C65.2152211,47.8033506 61.3483177,37.1394736 45.1945618,15.6427233 C29.0408059,-5.85402707 57.3563891,3.97123439 55.1945048,2.59112604 C52.3758018,0.791716335 22.117762,-5.08628545 23.6562153,14.1072411 C25.1946685,33.3007677 33.2912397,31.5501294 30.5792539,30.9975435 C8.3820605,26.4747112 -4.31057165,37.1394727 2.11787067,37.1394727 C24.8400789,37.1394727 20.2247191,47.8033508 20.2247186,44.870205 C20.2247191,50.1910698 9.81013676,59.6569746 9.81013676,69.3845957 C9.81013676,87.6170972 23.9303106,102.39746 41.3484278,102.39746 Z" id="Oval-69" fill="#000000"></path>
            <path d="M40.5792011,107.003906 C50.7751722,107.003906 59.8098664,98.5587549 58.2714132,83.2039343 C61.3483196,74.7587829 48.2714672,88.5781215 48.2714672,83.2039343 C55.1945067,74.7587829 52.8868269,70.9200778 50.5791471,64.7781495 C48.10294,56.9836557 38.2715213,51.726552 38.2715213,51.726552 C38.2715213,51.726552 45.9637874,64.7781495 34.4253883,70.1523367 C26.7331222,74.7587829 22.1177625,78.4018416 22.1177625,88.5781215 C22.1177625,98.7544014 30.3832301,107.003906 40.5792011,107.003906 Z" id="Oval-70" fill="#FCD116"></path>
        </g>
        <g id="Group-2" transform="translate(125.000000, 31.000000)">
            <g id="flame">
                <mask id="mask-2" fill="white">
                    <use xlink:href="#path-1"></use>
                </mask>
                <g id="Mask"></g>
                <g mask="url(#mask-2)">
                    <g transform="translate(55.500000, 33.000000) scale(-1, 1) translate(-55.500000, -33.000000) translate(19.000000, -21.000000)">
                        <path d="M41.3484278,102.39746 C58.7665449,102.39746 72.8867187,87.6170972 72.8867187,69.3845957 C72.8867187,61.1340323 65.2152211,47.8033506 65.2152211,47.8033506 C65.2152211,47.8033506 61.3483177,37.1394736 45.1945618,15.6427233 C29.0408059,-5.85402707 57.3563891,3.97123439 55.1945048,2.59112604 C52.3758018,0.791716335 22.117762,-5.08628545 23.6562153,14.1072411 C25.1946685,33.3007677 33.2912397,31.5501294 30.5792539,30.9975435 C8.3820605,26.4747112 -4.31057165,37.1394727 2.11787067,37.1394727 C24.8400789,37.1394727 20.2247191,47.8033508 20.2247186,44.870205 C20.2247191,50.1910698 9.81013676,59.6569746 9.81013676,69.3845957 C9.81013676,87.6170972 23.9303106,102.39746 41.3484278,102.39746 Z" id="Oval-69" fill="#000000"></path>
                        <path d="M40.5792011,107.003906 C50.7751722,107.003906 59.8098664,98.5587549 58.2714132,83.2039343 C61.3483196,74.7587829 48.2714672,88.5781215 48.2714672,83.2039343 C55.1945067,74.7587829 52.8868269,70.9200778 50.5791471,64.7781495 C48.10294,56.9836557 38.2715213,51.726552 38.2715213,51.726552 C38.2715213,51.726552 45.9637874,64.7781495 34.4253883,70.1523367 C26.7331222,74.7587829 22.1177625,78.4018416 22.1177625,88.5781215 C22.1177625,98.7544014 30.3832301,107.003906 40.5792011,107.003906 Z" id="Oval-70" fill="#FCD116"></path>
                    </g>
                </g>
            </g>
        </g>
        <g id="flame" transform="translate(243.500000, 302.000000) scale(-1, 1) translate(-243.500000, -302.000000) translate(207.000000, 248.000000)">
            <path d="M41.3484278,102.39746 C58.7665449,102.39746 72.8867187,87.6170972 72.8867187,69.3845957 C72.8867187,61.1340323 65.2152211,47.8033506 65.2152211,47.8033506 C65.2152211,47.8033506 61.3483177,37.1394736 45.1945618,15.6427233 C29.0408059,-5.85402707 57.3563891,3.97123439 55.1945048,2.59112604 C52.3758018,0.791716335 22.117762,-5.08628545 23.6562153,14.1072411 C25.1946685,33.3007677 33.2912397,31.5501294 30.5792539,30.9975435 C8.3820605,26.4747112 -4.31057165,37.1394727 2.11787067,37.1394727 C24.8400789,37.1394727 20.2247191,47.8033508 20.2247186,44.870205 C20.2247191,50.1910698 9.81013676,59.6569746 9.81013676,69.3845957 C9.81013676,87.6170972 23.9303106,102.39746 41.3484278,102.39746 Z" id="Oval-69" fill="#000000"></path>
            <path d="M40.5792011,107.003906 C50.7751722,107.003906 59.8098664,98.5587549 58.2714132,83.2039343 C61.3483196,74.7587829 48.2714672,88.5781215 48.2714672,83.2039343 C55.1945067,74.7587829 52.8868269,70.9200778 50.5791471,64.7781495 C48.10294,56.9836557 38.2715213,51.726552 38.2715213,51.726552 C38.2715213,51.726552 45.9637874,64.7781495 34.4253883,70.1523367 C26.7331222,74.7587829 22.1177625,78.4018416 22.1177625,88.5781215 C22.1177625,98.7544014 30.3832301,107.003906 40.5792011,107.003906 Z" id="Oval-70" fill="#FCD116"></path>
        </g>
        <g id="flame" transform="translate(247.000000, 329.000000)">
            <path d="M41.3484278,102.39746 C58.7665449,102.39746 72.8867187,87.6170972 72.8867187,69.3845957 C72.8867187,61.1340323 65.2152211,47.8033506 65.2152211,47.8033506 C65.2152211,47.8033506 61.3483177,37.1394736 45.1945618,15.6427233 C29.0408059,-5.85402707 57.3563891,3.97123439 55.1945048,2.59112604 C52.3758018,0.791716335 22.117762,-5.08628545 23.6562153,14.1072411 C25.1946685,33.3007677 33.2912397,31.5501294 30.5792539,30.9975435 C8.3820605,26.4747112 -4.31057165,37.1394727 2.11787067,37.1394727 C24.8400789,37.1394727 20.2247191,47.8033508 20.2247186,44.870205 C20.2247191,50.1910698 9.81013676,59.6569746 9.81013676,69.3845957 C9.81013676,87.6170972 23.9303106,102.39746 41.3484278,102.39746 Z" id="Oval-69" fill="#000000"></path>
            <path d="M40.5792011,107.003906 C50.7751722,107.003906 59.8098664,98.5587549 58.2714132,83.2039343 C61.3483196,74.7587829 48.2714672,88.5781215 48.2714672,83.2039343 C55.1945067,74.7587829 52.8868269,70.9200778 50.5791471,64.7781495 C48.10294,56.9836557 38.2715213,51.726552 38.2715213,51.726552 C38.2715213,51.726552 45.9637874,64.7781495 34.4253883,70.1523367 C26.7331222,74.7587829 22.1177625,78.4018416 22.1177625,88.5781215 C22.1177625,98.7544014 30.3832301,107.003906 40.5792011,107.003906 Z" id="Oval-70" fill="#FCD116"></path>
        </g>
        <g id="THE-EMPEROR--+-IV" transform="translate(79.000000, 42.000000)" fill="#000000" font-family="HighwayGothicExpanded, Highway Gothic Expanded" font-size="24" font-style="expanded" font-weight="normal" line-spacing="20">
            <text id="THE-EMPEROR-">
                <tspan x="3.288" y="542.239868">THE EMPEROR </tspan>
            </text>
            <text id="IV">
                <tspan x="88.5" y="21">IV</tspan>
            </text>
        </g>
        <g id="tower-version" transform="translate(78.000000, 181.000000)">
            <rect id="Rectangle-147" fill="#000000" x="120" y="231" width="107" height="84"></rect>
            <rect id="Rectangle-147" fill="#000000" x="0" y="193" width="63" height="122"></rect>
            <rect id="Rectangle-147" stroke="#FCD116" fill="#000000" x="120.5" y="158.5" width="62" height="157"></rect>
            <rect id="Rectangle-125" stroke="#FCD116" fill="#000000" x="53.5" y="-0.5" width="97" height="316"></rect>
            <g id="Group" transform="translate(56.865672, 3.841463)" fill="#FCD116">
                <rect id="Rectangle-126" x="0" y="0" width="91.2229478" height="7.68292683"></rect>
                <rect id="Rectangle-126" x="0" y="13.0609756" width="91.2229478" height="7.68292683"></rect>
                <rect id="Rectangle-126" x="0" y="26.1219512" width="91.2229478" height="7.68292683"></rect>
                <rect id="Rectangle-126" x="0" y="39.1829268" width="91.2229478" height="7.68292683"></rect>
                <rect id="Rectangle-126" x="0" y="76.8292683" width="91.2229478" height="7.68292683"></rect>
                <rect id="Rectangle-126" x="0" y="89.8902439" width="91.2229478" height="7.68292683"></rect>
                <rect id="Rectangle-126" x="0" y="102.95122" width="91.2229478" height="7.68292683"></rect>
                <rect id="Rectangle-126" x="0" y="116.012195" width="91.2229478" height="7.68292683"></rect>
                <rect id="Rectangle-126" x="0" y="130.22561" width="91.2229478" height="7.68292683"></rect>
                <rect id="Rectangle-126" x="0" y="143.286585" width="91.2229478" height="7.68292683"></rect>
                <rect id="Rectangle-126" x="0" y="156.347561" width="91.2229478" height="7.68292683"></rect>
                <rect id="Rectangle-126" x="0" y="169.408537" width="91.2229478" height="7.68292683"></rect>
                <rect id="Rectangle-126" x="0" y="181.317073" width="91.2229478" height="7.68292683"></rect>
                <rect id="Rectangle-126" x="0" y="194.378049" width="91.2229478" height="7.68292683"></rect>
                <rect id="Rectangle-126" x="0" y="207.439024" width="91.2229478" height="7.68292683"></rect>
                <rect id="Rectangle-126" x="0" y="220.5" width="91.2229478" height="7.68292683"></rect>
            </g>
            <path d="M100.925194,54.7840817 L102.000179,54.7840817 C103.033379,58.6720578 105.115796,61.3287971 107.516418,61.3287971 C110.266517,61.3287971 112.599019,57.8422317 113.414925,53.0121951 L113.414925,61.9832687 C113.072014,61.9832687 112.79403,63.5948616 112.79403,65.5828621 C112.79403,67.5708627 113.072014,69.1824556 113.414925,69.1824556 L113.414925,72.4548134 L89.8208955,72.4548134 L89.8208955,69.1824556 C90.1638067,69.1824556 90.441791,67.5708627 90.441791,65.5828621 C90.441791,63.5948616 90.1638067,61.9832687 89.8208955,61.9832687 L89.8208955,54.5050358 C90.8271938,58.5443811 92.9513255,61.3287971 95.4089552,61.3287971 C97.8095776,61.3287971 99.8919942,58.6720578 100.925194,54.7840817 Z M101.61791,69.1824556 C101.960822,69.1824556 102.238806,67.5708627 102.238806,65.5828621 C102.238806,63.5948616 101.960822,61.9832687 101.61791,61.9832687 C101.274999,61.9832687 100.997015,63.5948616 100.997015,65.5828621 C100.997015,67.5708627 101.274999,69.1824556 101.61791,69.1824556 Z" id="crown" fill="#FCD116"></path>
        </g>
        <polygon id="Triangle-17" fill="#000000" points="180.5 81 187 154 174 154"></polygon>
        <g id="Rectangle-144-+-Rectangle-144-+-Rectangle-144" transform="translate(132.000000, 154.000000)" fill="#000000">
            <rect id="Rectangle-144" x="0" y="17.7096774" width="96" height="9.29032258"></rect>
            <rect id="Rectangle-144" x="12.8" y="8.85483871" width="74.0571429" height="9.29032258"></rect>
            <rect id="Rectangle-144" x="33" y="0" width="30" height="9.29032258"></rect>
        </g>
    </g>
</svg>