<?xml version="1.0" encoding="UTF-8"?>
<svg width="360px" height="640px" viewBox="0 0 360 640" version="1.1" xmlns="http://www.w3.org/2000/svg" xmlns:xlink="http://www.w3.org/1999/xlink">
    <!-- Generator: Sketch 52.3 (67297) - http://www.bohemiancoding.com/sketch -->
    <title>05 Hierophant</title>
    <desc>Created with Sketch.</desc>
    <g id="05-Hierophant" stroke="none" stroke-width="1" fill="none" fill-rule="evenodd">
        <rect id="Rectangle-9" stroke="#000000" stroke-width="10" fill="#FCD116" x="15" y="26" width="330" height="589" rx="25"></rect>
        <path d="M16.5,538 L340.5,538" id="Line" stroke="#000000" stroke-width="10" stroke-linecap="square"></path>
        <text id="THE-POPE-" font-family="HighwayGothicExpanded, Highway Gothic Expanded" font-size="24" font-style="expanded" font-weight="normal" line-spacing="20" fill="#000000">
            <tspan x="111.148" y="584.239868">THE POPE </tspan>
        </text>
        <text id="V-" font-family="HighwayGothicExpanded, Highway Gothic Expanded" font-size="24" font-style="expanded" font-weight="normal" line-spacing="20" fill="#000000">
            <tspan x="170.528" y="56.2398682">V </tspan>
        </text>
        <g id="Group" transform="translate(62.000000, 193.000000)" fill="#000000">
            <rect id="Rectangle-15" x="77.7029703" y="68.9039813" width="80.5940594" height="142.93911"></rect>
            <path d="M25.2084449,27.668785 C25.2084449,20.7908465 30.7834253,15.2151757 37.6638904,15.2151757 L37.6638904,15.2151757 C44.5428431,15.2151757 50.119336,20.7998961 50.119336,27.668785 L50.119336,98.303006 C50.119336,105.180944 44.5443556,110.756615 37.6638904,110.756615 L37.6638904,110.756615 C30.7849378,110.756615 25.2084449,105.171895 25.2084449,98.303006 L25.2084449,27.668785 Z" id="Rectangle-15" transform="translate(37.663890, 62.985895) scale(-1, 1) rotate(-326.000000) translate(-37.663890, -62.985895) "></path>
            <rect id="Rectangle-15" x="44" y="68.9039813" width="147.267327" height="40.3161593" rx="20.1580796"></rect>
            <rect id="Rectangle-15" x="77.7029703" y="196.449649" width="29.3069307" height="116.550351" rx="14.6534653"></rect>
            <rect id="Rectangle-15" x="128.990099" y="196.449649" width="29.3069307" height="116.550351" rx="14.6534653"></rect>
            <ellipse id="Oval-7" cx="118.366337" cy="31.1533958" rx="31.1386139" ry="31.1533958"></ellipse>
            <path d="M186.583634,27.2516079 C186.583634,20.3736694 192.158615,14.7979985 199.03908,14.7979985 L199.03908,14.7979985 C205.918032,14.7979985 211.494525,20.382719 211.494525,27.2516079 L211.494525,97.8858288 C211.494525,104.763767 205.919545,110.339438 199.03908,110.339438 L199.03908,110.339438 C192.160127,110.339438 186.583634,104.754718 186.583634,97.8858288 L186.583634,27.2516079 Z" id="Rectangle-15" transform="translate(199.039080, 62.568718) rotate(-326.000000) translate(-199.039080, -62.568718) "></path>
        </g>
        <g id="pope-hat" transform="translate(142.000000, 99.000000)">
            <path d="M14.1158106,86.3721866 L34,86.3721866 L34,5.4396256 C30.3867705,6.97848741 26.7557206,9.30423713 23.3471709,12.5811517 C22.3412341,13.5482401 21.3677363,14.5877062 20.4302289,15.7025036 C12.1935432,25.4968105 4,41.2014952 4,45.1860949 C4,46.5422699 5.93273107,54.9412281 8.91103204,66.581617 C9.07136205,67.2082507 9.23441076,67.8433336 9.40003342,68.4863623 C10.6057006,73.1673557 11.8980754,78.0786705 13.1905207,82.9193692 C13.5171701,84.1427956 13.8269561,85.2984425 14.1158106,86.3721866 Z" id="Path-73" stroke="#000000" stroke-width="8" fill="#FCD116"></path>
            <path d="M52.1158416,86.3757015 L72,86.3757015 L72,5.43969403 C68.3867926,6.97861371 64.7557631,9.30444605 61.347227,12.581475 C60.341288,13.548603 59.3677881,14.588112 58.4302783,15.7029555 C50.1935637,25.4976777 42,41.2030124 42,45.1878524 C42,46.5441209 43.932726,54.9433839 46.9110413,66.5842814 C47.0713713,67.2109396 47.2344201,67.8460474 47.4000428,68.4891012 C48.6057102,73.1702775 49.8980852,78.0817842 51.1905307,82.9226719 C51.517188,84.1461754 51.8269811,85.3018937 52.1158416,86.3757015 Z" id="Path-73" stroke="#000000" stroke-width="8" fill="#FCD116"></path>
            <rect id="Rectangle-122" fill="#000000" x="11.0833333" y="61.372093" width="53.0416667" height="22.2209302"></rect>
        </g>
        <path d="M274.5,194.471764 L269.9696,194.385667 C268.046244,194.349115 266.5,192.774887 266.5,190.845639 L266.5,184.002326 C266.5,182.066932 268.05937,180.5 269.998101,180.5 L274.5,180.5 L274.5,163.990795 C274.5,162.059608 276.062284,160.5 277.999615,160.5 L284.000385,160.5 C285.9301,160.5 287.5,162.066719 287.5,163.990795 L287.5,180.5 L292.001899,180.5 C293.936563,180.5 295.5,182.06202 295.5,184.002326 L295.5,190.845639 C295.5,192.781033 293.94063,194.347965 292.001899,194.347965 L287.5,194.347965 L287.5,260.004991 C287.5,261.9378 285.938426,263.5 284.000385,263.5 L277.999615,263.5 C276.069818,263.5 274.5,261.93376 274.5,260.009377 L274.5,194.471764 Z" id="Rectangle-123" stroke="#000000" stroke-width="3" fill="#FCD116"></path>
    </g>
</svg>