<?xml version="1.0" encoding="UTF-8"?>
<svg width="360px" height="640px" viewBox="0 0 360 640" version="1.1" xmlns="http://www.w3.org/2000/svg" xmlns:xlink="http://www.w3.org/1999/xlink">
    <!-- Generator: Sketch 52.3 (67297) - http://www.bohemiancoding.com/sketch -->
    <title>10 Cups</title>
    <desc>Created with Sketch.</desc>
    <defs>
        <rect id="path-1" x="0" y="0" width="319" height="129"></rect>
    </defs>
    <g id="10-Cups" stroke="none" stroke-width="1" fill="none" fill-rule="evenodd">
        <rect id="Rectangle-9" stroke="#000000" stroke-width="10" fill="#DD7500" x="15" y="26" width="330" height="589" rx="25"></rect>
        <path d="M18,533 L342,533" id="Line" stroke="#000000" stroke-width="10" stroke-linecap="square"></path>
        <g id="Label" transform="translate(33.000000, 40.000000)" fill="#000000" font-weight="normal" line-spacing="20">
            <text id="CUPS" font-family="HighwayGothicCondensed, Highway Gothic Condensed" font-size="14.3661972" font-style="condensed">
                <tspan x="136.438028" y="12.6785714">CUPS</tspan>
            </text>
            <text id="ACE" font-family="HighwayGothicExpanded, Highway Gothic Expanded" font-size="24" font-style="expanded">
                <tspan x="0" y="547.830952">PERFECTED SUCCESS</tspan>
            </text>
            <text id="2" font-family="HighwayGothicExpanded, Highway Gothic Expanded" font-size="34.4788732" font-style="expanded">
                <tspan x="125.759259" y="62.0535714">10</tspan>
            </text>
        </g>
        <g id="rainbow" transform="translate(26.000000, 192.000000)">
            <mask id="mask-2" fill="white">
                <use xlink:href="#path-1"></use>
            </mask>
            <g id="Mask"></g>
            <circle id="Oval-135" stroke="#000000" stroke-width="8" mask="url(#mask-2)" cx="151.5" cy="225.5" r="137.5"></circle>
            <circle id="Oval-135" stroke="#000000" stroke-width="8" mask="url(#mask-2)" cx="152.5" cy="217.5" r="146.5"></circle>
            <circle id="Oval-135" stroke="#000000" stroke-width="8" mask="url(#mask-2)" cx="153" cy="209" r="155"></circle>
            <circle id="Oval-135" stroke="#000000" stroke-width="8" mask="url(#mask-2)" cx="153" cy="203" r="166"></circle>
        </g>
        <g id="cups" transform="translate(26.000000, 321.000000)" fill="#000000" stroke="#000000">
            <g id="cup" transform="translate(243.000000, 0.000000)">
                <path d="M31.5725658,3.45025387e-08 C31.5725658,3.45025387e-08 28.4785656,16.8533679 37.439769,30.392366 C46.4009725,43.9313642 62.8643153,47.2770154 62.8643153,47.2770154 L62.8643153,0 L31.5725658,3.45025387e-08 Z" id="Path-95" transform="translate(46.960327, 23.638508) scale(-1, 1) translate(-46.960327, -23.638508) "></path>
                <path d="M0.516227796,3.45025387e-08 C0.516227796,3.45025387e-08 -2.5777724,16.8533679 6.38343102,30.392366 C15.3446344,43.9313642 31.8079772,47.2770154 31.8079772,47.2770154 L31.8079772,0 L0.516227796,3.45025387e-08 Z" id="Path-95"></path>
                <path d="M10.6478873,71.1131971 C10.6478873,71.1131971 16.0556643,70.0733832 24.3380282,61.657794 C32.620392,53.2422048 31.5090543,36.6685144 31.5090543,36.6685144 L31.5090543,71.1131971 L10.6478873,71.1131971 Z" id="Path-97"></path>
                <path d="M31.056338,71.1131971 C31.056338,71.1131971 36.464115,70.0733832 44.7464789,61.657794 C53.0288427,53.2422048 51.917505,36.6685144 51.917505,36.6685144 L51.917505,71.1131971 L31.056338,71.1131971 Z" id="Path-97" transform="translate(41.511797, 53.890856) scale(-1, 1) translate(-41.511797, -53.890856) "></path>
            </g>
            <g id="cup">
                <path d="M31.5725658,3.45025387e-08 C31.5725658,3.45025387e-08 28.4785656,16.8533679 37.439769,30.392366 C46.4009725,43.9313642 62.8643153,47.2770154 62.8643153,47.2770154 L62.8643153,0 L31.5725658,3.45025387e-08 Z" id="Path-95" transform="translate(46.960327, 23.638508) scale(-1, 1) translate(-46.960327, -23.638508) "></path>
                <path d="M0.516227796,3.45025387e-08 C0.516227796,3.45025387e-08 -2.5777724,16.8533679 6.38343102,30.392366 C15.3446344,43.9313642 31.8079772,47.2770154 31.8079772,47.2770154 L31.8079772,0 L0.516227796,3.45025387e-08 Z" id="Path-95"></path>
                <path d="M10.6478873,71.1131971 C10.6478873,71.1131971 16.0556643,70.0733832 24.3380282,61.657794 C32.620392,53.2422048 31.5090543,36.6685144 31.5090543,36.6685144 L31.5090543,71.1131971 L10.6478873,71.1131971 Z" id="Path-97"></path>
                <path d="M31.056338,71.1131971 C31.056338,71.1131971 36.464115,70.0733832 44.7464789,61.657794 C53.0288427,53.2422048 51.917505,36.6685144 51.917505,36.6685144 L51.917505,71.1131971 L31.056338,71.1131971 Z" id="Path-97" transform="translate(41.511797, 53.890856) scale(-1, 1) translate(-41.511797, -53.890856) "></path>
            </g>
            <g id="cup" transform="translate(57.000000, 30.000000)">
                <path d="M18.542618,2.02633958e-08 C18.542618,2.02633958e-08 16.7255068,9.8980097 21.9884358,17.8494848 C27.2513648,25.8009599 36.9203121,27.7658662 36.9203121,27.7658662 L36.9203121,0 L18.542618,2.02633958e-08 Z" id="Path-95" transform="translate(27.579874, 13.882933) scale(-1, 1) translate(-27.579874, -13.882933) "></path>
                <path d="M0.303181404,2.02633958e-08 C0.303181404,2.02633958e-08 -1.51392982,9.8980097 3.74899917,17.8494848 C9.01192816,25.8009599 18.6808755,27.7658662 18.6808755,27.7658662 L18.6808755,0 L0.303181404,2.02633958e-08 Z" id="Path-95"></path>
                <path d="M6.25352113,41.7648935 C6.25352113,41.7648935 9.42951713,41.1542092 14.2937626,36.2117203 C19.158008,31.2692314 18.5053176,21.5354767 18.5053176,21.5354767 L18.5053176,41.7648935 L6.25352113,41.7648935 Z" id="Path-97"></path>
                <path d="M18.2394366,41.7648935 C18.2394366,41.7648935 21.4154326,41.1542092 26.2796781,36.2117203 C31.1439235,31.2692314 30.4912331,21.5354767 30.4912331,21.5354767 L30.4912331,41.7648935 L18.2394366,41.7648935 Z" id="Path-97" transform="translate(24.379944, 31.650185) scale(-1, 1) translate(-24.379944, -31.650185) "></path>
            </g>
            <g id="cup" transform="translate(212.000000, 30.000000)">
                <path d="M18.542618,2.02633958e-08 C18.542618,2.02633958e-08 16.7255068,9.8980097 21.9884358,17.8494848 C27.2513648,25.8009599 36.9203121,27.7658662 36.9203121,27.7658662 L36.9203121,0 L18.542618,2.02633958e-08 Z" id="Path-95" transform="translate(27.579874, 13.882933) scale(-1, 1) translate(-27.579874, -13.882933) "></path>
                <path d="M0.303181404,2.02633958e-08 C0.303181404,2.02633958e-08 -1.51392982,9.8980097 3.74899917,17.8494848 C9.01192816,25.8009599 18.6808755,27.7658662 18.6808755,27.7658662 L18.6808755,0 L0.303181404,2.02633958e-08 Z" id="Path-95"></path>
                <path d="M6.25352113,41.7648935 C6.25352113,41.7648935 9.42951713,41.1542092 14.2937626,36.2117203 C19.158008,31.2692314 18.5053176,21.5354767 18.5053176,21.5354767 L18.5053176,41.7648935 L6.25352113,41.7648935 Z" id="Path-97"></path>
                <path d="M18.2394366,41.7648935 C18.2394366,41.7648935 21.4154326,41.1542092 26.2796781,36.2117203 C31.1439235,31.2692314 30.4912331,21.5354767 30.4912331,21.5354767 L30.4912331,41.7648935 L18.2394366,41.7648935 Z" id="Path-97" transform="translate(24.379944, 31.650185) scale(-1, 1) translate(-24.379944, -31.650185) "></path>
            </g>
            <g id="cup" transform="translate(91.000000, 47.000000)">
                <path d="M11.0253404,1.20485056e-08 C11.0253404,1.20485056e-08 9.94489593,5.88530307 13.0742051,10.6132072 C16.2035142,15.3411113 21.952618,16.509434 21.952618,16.509434 L21.952618,0 L11.0253404,1.20485056e-08 Z" id="Path-95" transform="translate(16.398844, 8.254717) scale(-1, 1) translate(-16.398844, -8.254717) "></path>
                <path d="M0.180270024,1.20485056e-08 C0.180270024,1.20485056e-08 -0.900174489,5.88530307 2.22913464,10.6132072 C5.35844377,15.3411113 11.1075476,16.509434 11.1075476,16.509434 L11.1075476,0 L0.180270024,1.20485056e-08 Z" id="Path-95"></path>
                <path d="M3.71830986,24.8331799 C3.71830986,24.8331799 5.60673991,24.4700703 8.49899396,21.5312931 C11.391248,18.5925159 11.0031618,12.804878 11.0031618,12.804878 L11.0031618,24.8331799 L3.71830986,24.8331799 Z" id="Path-97"></path>
                <path d="M10.8450704,24.8331799 C10.8450704,24.8331799 12.7335005,24.4700703 15.6257545,21.5312931 C18.5180086,18.5925159 18.1299224,12.804878 18.1299224,12.804878 L18.1299224,24.8331799 L10.8450704,24.8331799 Z" id="Path-97" transform="translate(14.496183, 18.819029) scale(-1, 1) translate(-14.496183, -18.819029) "></path>
            </g>
            <g id="cup" transform="translate(193.000000, 47.000000)">
                <path d="M11.0253404,1.20485056e-08 C11.0253404,1.20485056e-08 9.94489593,5.88530307 13.0742051,10.6132072 C16.2035142,15.3411113 21.952618,16.509434 21.952618,16.509434 L21.952618,0 L11.0253404,1.20485056e-08 Z" id="Path-95" transform="translate(16.398844, 8.254717) scale(-1, 1) translate(-16.398844, -8.254717) "></path>
                <path d="M0.180270024,1.20485056e-08 C0.180270024,1.20485056e-08 -0.900174489,5.88530307 2.22913464,10.6132072 C5.35844377,15.3411113 11.1075476,16.509434 11.1075476,16.509434 L11.1075476,0 L0.180270024,1.20485056e-08 Z" id="Path-95"></path>
                <path d="M3.71830986,24.8331799 C3.71830986,24.8331799 5.60673991,24.4700703 8.49899396,21.5312931 C11.391248,18.5925159 11.0031618,12.804878 11.0031618,12.804878 L11.0031618,24.8331799 L3.71830986,24.8331799 Z" id="Path-97"></path>
                <path d="M10.8450704,24.8331799 C10.8450704,24.8331799 12.7335005,24.4700703 15.6257545,21.5312931 C18.5180086,18.5925159 18.1299224,12.804878 18.1299224,12.804878 L18.1299224,24.8331799 L10.8450704,24.8331799 Z" id="Path-97" transform="translate(14.496183, 18.819029) scale(-1, 1) translate(-14.496183, -18.819029) "></path>
            </g>
            <g id="cup" transform="translate(112.000000, 56.090909)">
                <path d="M7.01612574,7.66723083e-09 C7.01612574,7.66723083e-09 6.32857014,3.74519286 8.31994868,6.75385912 C10.3113272,9.76252537 13.9698478,10.5060034 13.9698478,10.5060034 L13.9698478,0 L7.01612574,7.66723083e-09 Z" id="Path-95" transform="translate(10.435628, 5.253002) scale(-1, 1) translate(-10.435628, -5.253002) "></path>
                <path d="M0.114717288,7.66723083e-09 C0.114717288,7.66723083e-09 -0.572838311,3.74519286 1.41854023,6.75385912 C3.40991876,9.76252537 7.06843938,10.5060034 7.06843938,10.5060034 L7.06843938,0 L0.114717288,7.66723083e-09 Z" id="Path-95"></path>
                <path d="M2.36619718,15.8029327 C2.36619718,15.8029327 3.5679254,15.5718629 5.4084507,13.701732 C7.24897601,11.8316011 7.00201207,8.14855876 7.00201207,8.14855876 L7.00201207,15.8029327 L2.36619718,15.8029327 Z" id="Path-97"></path>
                <path d="M6.90140845,15.8029327 C6.90140845,15.8029327 8.10313667,15.5718629 9.94366197,13.701732 C11.7841873,11.8316011 11.5372233,8.14855876 11.5372233,8.14855876 L11.5372233,15.8029327 L6.90140845,15.8029327 Z" id="Path-97" transform="translate(9.224844, 11.975746) scale(-1, 1) translate(-9.224844, -11.975746) "></path>
            </g>
            <g id="cup" transform="translate(179.000000, 56.090909)">
                <path d="M7.01612574,7.66723083e-09 C7.01612574,7.66723083e-09 6.32857014,3.74519286 8.31994868,6.75385912 C10.3113272,9.76252537 13.9698478,10.5060034 13.9698478,10.5060034 L13.9698478,0 L7.01612574,7.66723083e-09 Z" id="Path-95" transform="translate(10.435628, 5.253002) scale(-1, 1) translate(-10.435628, -5.253002) "></path>
                <path d="M0.114717288,7.66723083e-09 C0.114717288,7.66723083e-09 -0.572838311,3.74519286 1.41854023,6.75385912 C3.40991876,9.76252537 7.06843938,10.5060034 7.06843938,10.5060034 L7.06843938,0 L0.114717288,7.66723083e-09 Z" id="Path-95"></path>
                <path d="M2.36619718,15.8029327 C2.36619718,15.8029327 3.5679254,15.5718629 5.4084507,13.701732 C7.24897601,11.8316011 7.00201207,8.14855876 7.00201207,8.14855876 L7.00201207,15.8029327 L2.36619718,15.8029327 Z" id="Path-97"></path>
                <path d="M6.90140845,15.8029327 C6.90140845,15.8029327 8.10313667,15.5718629 9.94366197,13.701732 C11.7841873,11.8316011 11.5372233,8.14855876 11.5372233,8.14855876 L11.5372233,15.8029327 L6.90140845,15.8029327 Z" id="Path-97" transform="translate(9.224844, 11.975746) scale(-1, 1) translate(-9.224844, -11.975746) "></path>
            </g>
            <g id="cup" transform="translate(126.000000, 61.000000)">
                <path d="M4.7709655,5.21371696e-09 C4.7709655,5.21371696e-09 4.30342769,2.54673114 5.6575651,4.5926242 C7.01170251,6.63851725 9.49949653,7.14408233 9.49949653,7.14408233 L9.49949653,0 L4.7709655,5.21371696e-09 Z" id="Path-95" transform="translate(7.096227, 3.572041) scale(-1, 1) translate(-7.096227, -3.572041) "></path>
                <path d="M0.0780077559,5.21371696e-09 C0.0780077559,5.21371696e-09 -0.389530052,2.54673114 0.964607353,4.5926242 C2.31874476,6.63851725 4.80653878,7.14408233 4.80653878,7.14408233 L4.80653878,0 L0.0780077559,5.21371696e-09 Z" id="Path-95"></path>
                <path d="M1.60901408,10.7459942 C1.60901408,10.7459942 2.42618927,10.5888668 3.67774648,9.31717776 C4.92930369,8.04548872 4.76136821,5.54101996 4.76136821,5.54101996 L4.76136821,10.7459942 L1.60901408,10.7459942 Z" id="Path-97"></path>
                <path d="M4.69295775,10.7459942 C4.69295775,10.7459942 5.51013293,10.5888668 6.76169014,9.31717776 C8.01324735,8.04548872 7.84531187,5.54101996 7.84531187,5.54101996 L7.84531187,10.7459942 L4.69295775,10.7459942 Z" id="Path-97" transform="translate(6.272894, 8.143507) scale(-1, 1) translate(-6.272894, -8.143507) "></path>
            </g>
            <g id="cup" transform="translate(169.000000, 61.000000)">
                <path d="M4.7709655,5.21371696e-09 C4.7709655,5.21371696e-09 4.30342769,2.54673114 5.6575651,4.5926242 C7.01170251,6.63851725 9.49949653,7.14408233 9.49949653,7.14408233 L9.49949653,0 L4.7709655,5.21371696e-09 Z" id="Path-95" transform="translate(7.096227, 3.572041) scale(-1, 1) translate(-7.096227, -3.572041) "></path>
                <path d="M0.0780077559,5.21371696e-09 C0.0780077559,5.21371696e-09 -0.389530052,2.54673114 0.964607353,4.5926242 C2.31874476,6.63851725 4.80653878,7.14408233 4.80653878,7.14408233 L4.80653878,0 L0.0780077559,5.21371696e-09 Z" id="Path-95"></path>
                <path d="M1.60901408,10.7459942 C1.60901408,10.7459942 2.42618927,10.5888668 3.67774648,9.31717776 C4.92930369,8.04548872 4.76136821,5.54101996 4.76136821,5.54101996 L4.76136821,10.7459942 L1.60901408,10.7459942 Z" id="Path-97"></path>
                <path d="M4.69295775,10.7459942 C4.69295775,10.7459942 5.51013293,10.5888668 6.76169014,9.31717776 C8.01324735,8.04548872 7.84531187,5.54101996 7.84531187,5.54101996 L7.84531187,10.7459942 L4.69295775,10.7459942 Z" id="Path-97" transform="translate(6.272894, 8.143507) scale(-1, 1) translate(-6.272894, -8.143507) "></path>
            </g>
        </g>
    </g>
</svg>