<?xml version="1.0" encoding="UTF-8"?>
<svg width="360px" height="640px" viewBox="0 0 360 640" version="1.1" xmlns="http://www.w3.org/2000/svg" xmlns:xlink="http://www.w3.org/1999/xlink">
    <!-- Generator: Sketch 52.3 (67297) - http://www.bohemiancoding.com/sketch -->
    <title>10 Wands</title>
    <desc>Created with Sketch.</desc>
    <g id="10-Wands" stroke="none" stroke-width="1" fill="none" fill-rule="evenodd">
        <rect id="Rectangle-9" stroke="#000000" stroke-width="10" fill="#AF1E2D" x="15" y="26" width="330" height="589" rx="25"></rect>
        <path d="M18,533 L342,533" id="Line" stroke="#000000" stroke-width="10" stroke-linecap="square"></path>
        <text id="ACE" font-family="HighwayGothicExpanded, Highway Gothic Expanded" font-size="24" font-style="expanded" font-weight="normal" line-spacing="20" fill="#FFFFFF">
            <tspan x="92" y="587.830952">OPPRESSION</tspan>
        </text>
        <g id="WANDS-+-2" transform="translate(158.000000, 40.000000)" fill="#FFFFFF" font-weight="normal" line-spacing="20">
            <text id="WANDS" font-family="HighwayGothicCondensed, Highway Gothic Condensed" font-size="14.3661972" font-style="condensed">
                <tspan x="8.02605634" y="12.6785714">WANDS</tspan>
            </text>
            <text id="2" font-family="HighwayGothicExpanded, Highway Gothic Expanded" font-size="34.4788732" font-style="expanded">
                <tspan x="0.759259259" y="62.0535714">10</tspan>
            </text>
        </g>
        <g id="Group" transform="translate(162.000000, 262.000000)" fill="#000000">
            <rect id="Rectangle-15" x="8.1980198" y="16.7306792" width="19.6039604" height="34.70726"></rect>
            <rect id="Rectangle-15" x="29.9405941" y="19.4004684" width="6.05940594" height="28.2997658" rx="3.02970297"></rect>
            <rect id="Rectangle-15" x="0" y="16.7306792" width="35.8217822" height="9.78922717" rx="4.89461358"></rect>
            <rect id="Rectangle-15" x="8.1980198" y="47.7002342" width="7.12871287" height="28.2997658" rx="3.56435644"></rect>
            <rect id="Rectangle-15" x="20.6732673" y="47.7002342" width="7.12871287" height="28.2997658" rx="3.56435644"></rect>
            <ellipse id="Oval-7" cx="18.0891089" cy="7.56440281" rx="7.57425743" ry="7.56440281"></ellipse>
            <rect id="Rectangle-15" x="0" y="19.4249201" width="6.05940594" height="28.2997658" rx="3.02970297"></rect>
        </g>
        <path d="M188.152778,155.069444 L180.5,149 L171,157.708333 L176.277778,162.722222 L172.055556,175.652778 L177.465278,177.236111 L172.583333,188.319444 L177.465278,195.444444 L174.166667,204.680556 L177.465278,222.888889 L172.583333,235.291667 L177.465278,241.097222 L177.465278,249.541667 L184.722222,244 C184.722222,244 185.44647,234.743972 184.722222,230.277778 C184.390914,228.234712 181.555556,216.291667 181.555556,216.291667 L190,204.680556 L181.555556,197.027778 L186.305556,184.888889 L181.555556,171.958333 L184.722222,164.041667 L188.152778,155.069444 Z" id="Path-115" fill="#000000" transform="translate(180.500000, 200.230500) scale(1, -1) translate(-180.500000, -200.230500) "></path>
        <path d="M188.152778,353.069444 L180.5,347 L171,355.708333 L176.277778,360.722222 L172.055556,373.652778 L177.465278,375.236111 L172.583333,386.319444 L177.465278,393.444444 L174.166667,402.680556 L177.465278,420.888889 L172.583333,433.291667 L177.465278,439.097222 L177.465278,447.541667 L184.722222,442 C184.722222,442 185.44647,432.743972 184.722222,428.277778 C184.390914,426.234712 181.555556,414.291667 181.555556,414.291667 L190,402.680556 L181.555556,395.027778 L186.305556,382.888889 L181.555556,369.958333 L184.722222,362.041667 L188.152778,353.069444 Z" id="Path-115" fill="#000000" transform="translate(180.500000, 398.230500) scale(1, -1) translate(-180.500000, -398.230500) "></path>
        <path d="M247.450972,169.869249 L239.798194,163.799805 L230.298194,172.508138 L235.575972,177.522027 L231.35375,190.452583 L236.763472,192.035916 L231.881527,203.119249 L236.763472,210.244249 L233.464861,219.480361 L236.763472,237.688694 L231.881527,250.091472 L236.763472,255.897027 L236.763472,264.341472 L244.020416,258.799805 C244.020416,258.799805 244.744664,249.543776 244.020416,245.077583 C243.689108,243.034517 240.85375,231.091472 240.85375,231.091472 L249.298194,219.480361 L240.85375,211.827583 L245.60375,199.688694 L240.85375,186.758138 L244.020416,178.841472 L247.450972,169.869249 Z" id="Path-115" fill="#000000" transform="translate(239.798194, 215.030305) scale(-1, -1) rotate(-324.000000) translate(-239.798194, -215.030305) "></path>
        <path d="M286.185065,222.50039 L278.532287,216.430946 L269.032287,225.139279 L274.310065,230.153168 L270.087843,243.083723 L275.497565,244.667057 L270.615621,255.75039 L275.497565,262.87539 L272.198954,272.111501 L275.497565,290.319834 L270.615621,302.722612 L275.497565,308.528168 L275.497565,316.972612 L282.754509,311.430946 C282.754509,311.430946 283.478757,302.174917 282.754509,297.708723 C282.423201,295.665658 279.587843,283.722612 279.587843,283.722612 L288.032287,272.111501 L279.587843,264.458723 L284.337843,252.319834 L279.587843,239.389279 L282.754509,231.472612 L286.185065,222.50039 Z" id="Path-115" fill="#000000" transform="translate(278.532287, 267.661446) scale(-1, -1) rotate(-288.000000) translate(-278.532287, -267.661446) "></path>
        <path d="M280.31154,280.705076 L272.658763,274.635632 L263.158763,283.343965 L268.43654,288.357854 L264.214318,301.28841 L269.62404,302.871743 L264.742096,313.955076 L269.62404,321.080076 L266.325429,330.316187 L269.62404,348.524521 L264.742096,360.927298 L269.62404,366.732854 L269.62404,375.177298 L276.880985,369.635632 C276.880985,369.635632 277.605232,360.379603 276.880985,355.91341 C276.549677,353.870344 273.714318,341.927298 273.714318,341.927298 L282.158763,330.316187 L273.714318,322.66341 L278.464318,310.524521 L273.714318,297.593965 L276.880985,289.677298 L280.31154,280.705076 Z" id="Path-115" fill="#000000" transform="translate(272.658763, 325.866132) scale(-1, -1) rotate(-252.000000) translate(-272.658763, -325.866132) "></path>
        <path d="M248.450972,329.869249 L240.798194,323.799805 L231.298194,332.508138 L236.575972,337.522027 L232.35375,350.452583 L237.763472,352.035916 L232.881527,363.119249 L237.763472,370.244249 L234.464861,379.480361 L237.763472,397.688694 L232.881527,410.091472 L237.763472,415.897027 L237.763472,424.341472 L245.020416,418.799805 C245.020416,418.799805 245.744664,409.543776 245.020416,405.077583 C244.689108,403.034517 241.85375,391.091472 241.85375,391.091472 L250.298194,379.480361 L241.85375,371.827583 L246.60375,359.688694 L241.85375,346.758138 L245.020416,338.841472 L248.450972,329.869249 Z" id="Path-115" fill="#000000" transform="translate(240.798194, 375.030305) rotate(-216.000000) translate(-240.798194, -375.030305) "></path>
        <path d="M93.3115404,280.705076 L85.6587626,274.635632 L76.1587626,283.343965 L81.4365404,288.357854 L77.2143182,301.28841 L82.6240404,302.871743 L77.742096,313.955076 L82.6240404,321.080076 L79.3254293,330.316187 L82.6240404,348.524521 L77.742096,360.927298 L82.6240404,366.732854 L82.6240404,375.177298 L89.8809849,369.635632 C89.8809849,369.635632 90.6052325,360.379603 89.8809849,355.91341 C89.5496769,353.870344 86.7143182,341.927298 86.7143182,341.927298 L95.1587626,330.316187 L86.7143182,322.66341 L91.4643182,310.524521 L86.7143182,297.593965 L89.8809849,289.677298 L93.3115404,280.705076 Z" id="Path-115" fill="#000000" transform="translate(85.658763, 325.866132) scale(1, -1) rotate(-252.000000) translate(-85.658763, -325.866132) "></path>
        <path d="M95.3115404,225.705076 L87.6587626,219.635632 L78.1587626,228.343965 L83.4365404,233.357854 L79.2143182,246.28841 L84.6240404,247.871743 L79.742096,258.955076 L84.6240404,266.080076 L81.3254293,275.316187 L84.6240404,293.524521 L79.742096,305.927298 L84.6240404,311.732854 L84.6240404,320.177298 L91.8809849,314.635632 C91.8809849,314.635632 92.6052325,305.379603 91.8809849,300.91341 C91.5496769,298.870344 88.7143182,286.927298 88.7143182,286.927298 L97.1587626,275.316187 L88.7143182,267.66341 L93.4643182,255.524521 L88.7143182,242.593965 L91.8809849,234.677298 L95.3115404,225.705076 Z" id="Path-115" fill="#000000" transform="translate(87.658763, 270.866132) scale(1, -1) rotate(-288.000000) translate(-87.658763, -270.866132) "></path>
        <path d="M131.854584,175.470085 L124.201806,169.40064 L114.701806,178.108974 L119.979584,183.122862 L115.757362,196.053418 L121.167084,197.636751 L116.285139,208.720085 L121.167084,215.845085 L117.868473,225.081196 L121.167084,243.289529 L116.285139,255.692307 L121.167084,261.497862 L121.167084,269.942307 L128.424028,264.40064 C128.424028,264.40064 129.148276,255.144612 128.424028,250.678418 C128.09272,248.635353 125.257362,236.692307 125.257362,236.692307 L133.701806,225.081196 L125.257362,217.428418 L130.007362,205.289529 L125.257362,192.358974 L128.424028,184.442307 L131.854584,175.470085 Z" id="Path-115" fill="#000000" transform="translate(124.201806, 220.631141) scale(1, -1) rotate(-324.000000) translate(-124.201806, -220.631141) "></path>
        <path d="M131.450972,329.869249 L123.798194,323.799805 L114.298194,332.508138 L119.575972,337.522027 L115.35375,350.452583 L120.763472,352.035916 L115.881527,363.119249 L120.763472,370.244249 L117.464861,379.480361 L120.763472,397.688694 L115.881527,410.091472 L120.763472,415.897027 L120.763472,424.341472 L128.020416,418.799805 C128.020416,418.799805 128.744664,409.543776 128.020416,405.077583 C127.689108,403.034517 124.85375,391.091472 124.85375,391.091472 L133.298194,379.480361 L124.85375,371.827583 L129.60375,359.688694 L124.85375,346.758138 L128.020416,338.841472 L131.450972,329.869249 Z" id="Path-115" fill="#000000" transform="translate(123.798194, 375.030305) scale(1, -1) rotate(-216.000000) translate(-123.798194, -375.030305) "></path>
    </g>
</svg>