<?xml version="1.0" encoding="UTF-8"?>
<svg width="360px" height="640px" viewBox="0 0 360 640" version="1.1" xmlns="http://www.w3.org/2000/svg" xmlns:xlink="http://www.w3.org/1999/xlink">
    <!-- Generator: Sketch 52.3 (67297) - http://www.bohemiancoding.com/sketch -->
    <title>11 Justice</title>
    <desc>Created with Sketch.</desc>
    <g id="11-Justice" stroke="none" stroke-width="1" fill="none" fill-rule="evenodd">
        <rect id="Rectangle-9" stroke="#000000" stroke-width="10" fill="#AF1E2D" x="15" y="26" width="330" height="589" rx="25"></rect>
        <path d="M16.5,538 L340.5,538" id="Line" stroke="#000000" stroke-width="10" stroke-linecap="square"></path>
        <text id="JUSTICE" font-family="HighwayGothicExpanded, Highway Gothic Expanded" font-size="24" font-style="expanded" font-weight="normal" line-spacing="20" fill="#FFFFFF">
            <tspan x="122.5" y="591">JUSTICE</tspan>
        </text>
        <text id="XI" font-family="HighwayGothicExpanded, Highway Gothic Expanded" font-size="24" font-style="expanded" font-weight="normal" line-spacing="20" fill="#FFFFFF">
            <tspan x="168.5" y="63">XI</tspan>
        </text>
        <g id="bb" transform="translate(128.500000, 250.500000)" fill="#000000">
            <circle id="Oval-71" cx="55" cy="21.0294118" r="21.0294118"></circle>
            <g id="torso" transform="translate(0.000000, 45.294118)">
                <rect id="Rectangle-128" x="35.0181159" y="1.01123101" width="41.2137681" height="46.702906"></rect>
                <path d="M70.2291106,3.88347787 C73.2871564,0.0331026835 78.2468302,0.0351198851 81.3032438,3.88343999 L106.948735,36.1735919 C110.006764,40.0239462 110.007423,46.2657742 106.948705,50.116996 L106.948705,50.116996 C103.890659,53.9673712 98.930985,53.965354 95.8745714,50.1170339 L70.2290805,17.826882 C67.1710514,13.9765277 67.1703925,7.73469964 70.2291106,3.88347787 L70.2291106,3.88347787 L70.2291106,3.88347787 Z" id="Rectangle-129"></path>
                <path d="M39.7838495,3.91008921 C36.7258038,0.0597140259 31.7661299,0.0617312276 28.7097164,3.91005133 L3.06422546,36.2002032 C0.00619633373,40.0505575 0.00553742169,46.2923856 3.06425555,50.1436073 L3.06425555,50.1436073 C6.12230129,53.9939825 11.0819752,53.9919653 14.1383887,50.1436452 L39.7838796,17.8534933 C42.8419087,14.003139 42.8425677,7.76131098 39.7838495,3.91008921 L39.7838495,3.91008921 L39.7838495,3.91008921 Z" id="Rectangle-129"></path>
            </g>
            <g id="Rectangle-129-+-Rectangle-129" transform="translate(59.852941, 97.058824)">
                <path d="M17.019785,24.038228 L39.6629571,49.7947308 C43.1869679,53.8032766 43.1884592,60.3007171 39.6645579,64.3091385 C36.1414312,68.3166787 30.4329896,68.3208593 26.9045868,64.3073175 L4.26141464,38.5508148 C0.737403847,34.542269 0.735912496,28.0448284 4.25981382,24.0364071 C7.7829405,20.0288669 13.4913822,20.0246863 17.019785,24.038228 Z" id="Rectangle-129" transform="translate(21.962186, 44.172773) scale(-1, 1) translate(-21.962186, -44.172773) "></path>
                <polygon id="Rectangle-129" points="15.6526699 1.73456021e-14 39.1085522 23.4558824 23.5852971 38.9791375 0.129414727 15.5232551"></polygon>
            </g>
            <g id="Rectangle-129-+-Rectangle-129" transform="translate(28.308824, 131.029412) scale(-1, 1) translate(-28.308824, -131.029412) translate(6.470588, 97.058824)">
                <path d="M17.019785,24.038228 L39.6629571,49.7947308 C43.1869679,53.8032766 43.1884592,60.3007171 39.6645579,64.3091385 C36.1414312,68.3166787 30.4329896,68.3208593 26.9045868,64.3073175 L4.26141464,38.5508148 C0.737403847,34.542269 0.735912496,28.0448284 4.25981382,24.0364071 C7.7829405,20.0288669 13.4913822,20.0246863 17.019785,24.038228 Z" id="Rectangle-129" transform="translate(21.962186, 44.172773) scale(-1, 1) translate(-21.962186, -44.172773) "></path>
                <polygon id="Rectangle-129" points="15.6526699 1.73456021e-14 39.1085522 23.4558824 23.5852971 38.9791375 0.129414727 15.5232551"></polygon>
            </g>
        </g>
        <g id="sword" transform="translate(171.000000, 186.000000)">
            <rect id="Rectangle-65" fill="#AF1E2D" x="4" y="50.8986486" width="17.1000004" height="192.100006"></rect>
            <rect id="Rectangle-63" fill="#000000" x="0" y="39.4054054" width="26" height="11.4932432" rx="4"></rect>
            <g id="Rectangle-61-+-Triangle-7" transform="translate(7.000000, 50.898649)" fill="#000000">
                <rect id="Rectangle-61" x="0" y="0" width="5" height="175.682432"></rect>
                <polygon id="Triangle-7" transform="translate(2.500000, 183.891892) scale(1, -1) translate(-2.500000, -183.891892) " points="5 175.682432 5 192.101351 0 192.101351"></polygon>
            </g>
            <g id="Rectangle-61-+-Triangle-7" transform="translate(15.500000, 146.949324) scale(-1, 1) translate(-15.500000, -146.949324) translate(13.000000, 50.898649)" fill="#000000">
                <rect id="Rectangle-61" x="0" y="0" width="5" height="175.682432"></rect>
                <polygon id="Triangle-7" transform="translate(2.500000, 183.891892) scale(1, -1) translate(-2.500000, -183.891892) " points="5 175.682432 5 192.101351 0 192.101351"></polygon>
            </g>
            <rect id="Rectangle-63" fill="#000000" x="7" y="0" width="11" height="45.972973" rx="4"></rect>
        </g>
    </g>
</svg>