<?xml version="1.0" encoding="UTF-8"?>
<svg width="360px" height="640px" viewBox="0 0 360 640" version="1.1" xmlns="http://www.w3.org/2000/svg" xmlns:xlink="http://www.w3.org/1999/xlink">
    <!-- Generator: Sketch 52.3 (67297) - http://www.bohemiancoding.com/sketch -->
    <title>14 Temperance</title>
    <desc>Created with Sketch.</desc>
    <g id="14-Temperance" stroke="none" stroke-width="1" fill="none" fill-rule="evenodd">
        <rect id="Rectangle-9" stroke="#000000" stroke-width="10" fill="#AF1E2D" x="15" y="25" width="330" height="589" rx="25"></rect>
        <path d="M16.5,538 L340.5,538" id="Line" stroke="#000000" stroke-width="10" stroke-linecap="square"></path>
        <text id="TEMPERANCE" font-family="HighwayGothicExpanded, Highway Gothic Expanded" font-size="24" font-style="expanded" font-weight="normal" line-spacing="20" fill="#FFFFFF">
            <tspan x="87.5" y="591">TEMPERANCE</tspan>
        </text>
        <text id="XIV" font-family="HighwayGothicExpanded, Highway Gothic Expanded" font-size="24" font-style="expanded" font-weight="normal" line-spacing="20" fill="#FFFFFF">
            <tspan x="159.5" y="63">XIV</tspan>
        </text>
        <g id="Oval-19-+-Line" transform="translate(63.000000, 200.000000)" stroke="#000000">
            <ellipse id="Oval-19" stroke-width="11" cx="117" cy="119.5" rx="117" ry="119.5"></ellipse>
            <path d="M26.5,185.5 L207.5,54.5" id="Line" stroke-width="10" stroke-linecap="square"></path>
        </g>
        <g id="impossible-triangle" transform="translate(198.000000, 367.500000) scale(1, -1) translate(-198.000000, -367.500000) translate(153.000000, 320.000000)" fill="#000000">
            <polygon id="Path-170" points="0.277668534 89.0627928 4.03460795 93.2164086 39.4289319 56.4272398 65.1343068 83.6037548 73.0436529 83.6037548 39.4289319 48.1200082"></polygon>
            <polygon id="Path-170" points="84.0409367 94.5090766 88.1559499 90.4795372 17.3736542 90.4773361 43.7354687 63.5282847 39.7807957 59.4172712 5.38668847 94.630952"></polygon>
            <polygon id="Path-170" points="42.2960699 48.4112933 77.6840416 85.2026631 25.6168521 84.9751996 21.6621791 89.0862131 89.6710073 89.356279 49.8202619 48.4112933"></polygon>
            <path d="M42.3797743,1.69807479 C42.3797743,1.69807479 49.8446181,1.55964128 49.8446181,1.69807479 L49.8446181,48.4743929 L42.3797743,48.4743925 L42.3797743,1.69807479 Z" id="Rectangle-264"></path>
            <polygon id="Rectangle-264" points="65.2059301 0.503901059 65.2059301 3.75105057 64.9705574 3.75105057 28.5733851 3.75105057 28.5733851 0.587940477"></polygon>
        </g>
        <g id="impossible-triangle" transform="translate(129.407377, 295.407377) scale(-1, -1) rotate(-315.000000) translate(-129.407377, -295.407377) translate(84.407377, 247.907377)" fill="#000000">
            <polygon id="Path-170" points="0.277668534 89.0627928 4.03460795 93.2164086 39.4289319 56.4272398 65.1343068 83.6037548 73.0436529 83.6037548 39.4289319 48.1200082"></polygon>
            <polygon id="Path-170" points="84.0409367 94.5090766 88.1559499 90.4795372 17.3736542 90.4773361 43.7354687 63.5282847 39.7807957 59.4172712 5.38668847 94.630952"></polygon>
            <polygon id="Path-170" points="42.2960699 48.4112933 77.6840416 85.2026631 25.6168521 84.9751996 21.6621791 89.0862131 89.6710073 89.356279 49.8202619 48.4112933"></polygon>
            <path d="M42.3797743,1.69807479 C42.3797743,1.69807479 49.8446181,1.55964128 49.8446181,1.69807479 L49.8446181,48.4743929 L42.3797743,48.4743925 L42.3797743,1.69807479 Z" id="Rectangle-264"></path>
            <polygon id="Rectangle-264" points="65.2059301 0.503901059 65.2059301 3.75105057 64.9705574 3.75105057 28.5733851 3.75105057 28.5733851 0.587940477"></polygon>
        </g>
    </g>
</svg>