<?xml version="1.0" encoding="UTF-8"?>
<svg width="360px" height="640px" viewBox="0 0 360 640" version="1.1" xmlns="http://www.w3.org/2000/svg" xmlns:xlink="http://www.w3.org/1999/xlink">
    <!-- Generator: Sketch 52.3 (67297) - http://www.bohemiancoding.com/sketch -->
    <title>15 The Devil</title>
    <desc>Created with Sketch.</desc>
    <g id="15-The-Devil" stroke="none" stroke-width="1" fill="none" fill-rule="evenodd">
        <rect id="Rectangle-9" stroke="#000000" stroke-width="10" fill="#AF1E2D" x="15" y="26" width="330" height="589" rx="25"></rect>
        <path d="M16.5,538 L340.5,538" id="Line" stroke="#000000" stroke-width="10" stroke-linecap="square"></path>
        <text id="THE-DEVIL" font-family="HighwayGothicExpanded, Highway Gothic Expanded" font-size="24" font-style="expanded" font-weight="normal" line-spacing="20" fill="#FFFFFF">
            <tspan x="109.5" y="591">THE DEVIL</tspan>
        </text>
        <text id="XV" font-family="HighwayGothicExpanded, Highway Gothic Expanded" font-size="24" font-style="expanded" font-weight="normal" line-spacing="20" fill="#FFFFFF">
            <tspan x="163.5" y="63">XV</tspan>
        </text>
        <g id="Path-159-+-Oval-75-+-Oval-76" transform="translate(78.000000, 172.000000)">
            <path d="M89.528381,17.3982036 C89.528381,17.3982036 84.6902872,22.1654749 69.4847129,38.8113772 C54.2791386,55.4572796 52.5138197,58.3171226 46.3231442,67.3622754 C40.1324687,76.4074283 30.2377193,105.13752 61.4672456,101.266467 C92.696772,97.3954138 110.013137,79.6110255 122.934498,80.2994012 C135.855859,80.9877769 143.138439,89.413819 144.759822,99.4820359 C146.381205,109.550253 141.1965,116.88024 129.615717,121.787425 C118.034934,126.694611 61.4672489,115.988024 61.4672489,115.988024 C61.4672489,115.988024 17.9656725,102.755413 7.12663755,114.649701 C-3.7123974,126.543988 -1.30141914,144.641023 10.2445415,172.197605 C21.7905021,199.754187 34.0391975,202.76713 61.4672456,210.562874 C88.8952938,218.358619 153.652015,182.076183 161.240171,188.257485 C168.828328,194.438787 176.146057,195.444899 144.759818,218.000003 C113.373579,240.555107 83.737988,240.898204 82.4017434,244.913174 C81.0654989,248.928144 79.2838395,259.634731 96.2096037,264.988024 C113.135368,270.341317 139.209199,256.240448 138.969432,266.326347 C138.729666,276.412247 99.7729258,297.553892 99.7729258,297.553892 C99.7729258,297.553892 109.662306,295.674438 126.497813,287.739521 C143.333321,279.804604 152.777293,272.571856 152.777293,272.571856 C152.777293,272.571856 161.225123,265.118063 155.004367,257.404192 C148.78361,249.690321 126.49781,251.000003 126.49781,251.000003 C126.49781,251.000003 94.3730305,254.241956 126.49781,244.91318 C158.622588,235.584405 168.686313,239.275376 181.28384,227.51497 C193.881366,215.754564 192.212519,187.287428 187.074236,171.751497 C187.074233,171.751497 176.829688,154.353293 157.676853,156.137725 C138.524017,157.922156 81.37298,181.358072 66.8122271,180.673653 C52.2514742,179.989233 4.64159865,165.76952 46.3231442,147.215569 C88.0046898,128.661618 141.641918,144.092814 175.493446,131.601796 C191.307998,125.766318 200.691252,116.114013 203.109167,105.727545 C205.866873,93.8814623 189.065966,49.9223216 161.240171,46.8413174 C133.414377,43.7603131 110.908297,59.3323353 110.908297,59.3323353 C110.908297,59.3323353 90.2190699,72.6550541 80.6200873,73.6077844 C71.0211048,74.5605148 59.9948687,79.1974106 66.8122245,67.3622771 C73.6295803,55.5271436 95.8773108,43.2018575 99.7729225,36.5808377 C103.668534,29.959818 100.783996,20.75 100.783996,20.75 L89.528381,17.3982036 Z" id="Path-159" fill="#000000"></path>
            <g id="Oval-75-+-Oval-76" transform="translate(36.524017, 0.000000)">
                <path d="M0.680763265,7.16001342 C-2.83656923,14.250316 8.41336115,23.7638094 25.808186,28.4089957 C43.2030109,33.0541821 60.1556641,31.0720237 63.6729965,23.9817212 C67.190329,16.8914187 55.9403987,7.37792524 38.5455738,2.7327389 C21.1507489,-1.91244744 4.19809576,0.0697108833 0.680763265,7.16001342 L0.680763265,7.16001342 Z" id="Oval-75" fill="#000000"></path>
                <ellipse id="Oval-76" fill="#AF1E2D" transform="translate(28.197234, 10.929641) scale(1, -1) translate(-28.197234, -10.929641) " cx="28.1972344" cy="10.9296407" rx="2.66011645" ry="2.34206587"></ellipse>
            </g>
        </g>
    </g>
</svg>