<?xml version="1.0" encoding="UTF-8"?>
<svg width="360px" height="640px" viewBox="0 0 360 640" version="1.1" xmlns="http://www.w3.org/2000/svg" xmlns:xlink="http://www.w3.org/1999/xlink">
    <!-- Generator: Sketch 52.3 (67297) - http://www.bohemiancoding.com/sketch -->
    <title>2 Coins</title>
    <desc>Created with Sketch.</desc>
    <g id="2-Coins" stroke="none" stroke-width="1" fill="none" fill-rule="evenodd">
        <rect id="Rectangle-9" stroke="#000000" stroke-width="10" fill="#FCD116" x="15" y="26" width="330" height="589" rx="25"></rect>
        <path d="M18,533 L342,533" id="Line" stroke="#000000" stroke-width="10" stroke-linecap="square"></path>
        <text id="ACE" font-family="HighwayGothicExpanded, Highway Gothic Expanded" font-size="24" font-style="expanded" font-weight="normal" line-spacing="20" fill="#000000">
            <tspan x="28.5" y="587.830952">HARMONIOUS CHANGE</tspan>
        </text>
        <g id="Label" transform="translate(161.000000, 40.000000)" fill="#000000" font-weight="normal" line-spacing="20">
            <text id="COINS" font-family="HighwayGothicCondensed, Highway Gothic Condensed" font-size="14.3661972" font-style="condensed">
                <tspan x="6.75" y="12.6785714">COINS</tspan>
            </text>
            <text id="2" font-family="HighwayGothicExpanded, Highway Gothic Expanded" font-size="34.4788732" font-style="expanded">
                <tspan x="5.75925926" y="62.0535714">2</tspan>
            </text>
        </g>
        <g id="interchange" transform="translate(40.000000, 180.000000)" stroke="#000000">
            <g id="Line-+-Line" transform="translate(140.500000, 140.500000) rotate(-270.000000) translate(-140.500000, -140.500000) translate(0.000000, 122.814685)" stroke-linecap="square" stroke-width="13">
                <path d="M0.491258741,6.38636364 L280.570778,6.38636364" id="Line"></path>
                <path d="M0.491258741,28.9842657 L280.570778,28.9842657" id="Line"></path>
            </g>
            <g id="Line-+-Line" transform="translate(0.000000, 122.814685)" stroke-linecap="square" stroke-width="13">
                <path d="M0.491258741,6.38636364 L280.570778,6.38636364" id="Line"></path>
                <path d="M0.491258741,28.9842657 L280.570778,28.9842657" id="Line"></path>
            </g>
            <g id="Group" transform="translate(5.895105, 5.895105)">
                <path d="M0,120.84965 C0,120.84965 46.2310617,103.363542 76.1451049,73.6888112 C106.059148,44.0140803 121.340909,0 121.340909,0" id="Line" stroke-width="7" stroke-linecap="square"></path>
                <path d="M148.36014,120.84965 C148.36014,120.84965 194.591202,103.363542 224.505245,73.6888112 C254.419288,44.0140803 269.701049,0 269.701049,0" id="Line" stroke-width="7" stroke-linecap="square" transform="translate(209.030594, 60.424825) scale(-1, 1) translate(-209.030594, -60.424825) "></path>
                <path d="M148.36014,269.20979 C148.36014,269.20979 194.591202,251.723682 224.505245,222.048951 C254.419288,192.37422 269.701049,148.36014 269.701049,148.36014" id="Line" stroke-width="7" stroke-linecap="square" transform="translate(209.030594, 208.784965) scale(-1, -1) translate(-209.030594, -208.784965) "></path>
                <path d="M0,273.13986 C0,273.13986 46.2310617,255.653752 76.1451049,225.979021 C106.059148,196.30429 121.340909,152.29021 121.340909,152.29021" id="Line" stroke-width="5" stroke-linecap="square" transform="translate(60.670455, 212.715035) scale(1, -1) translate(-60.670455, -212.715035) "></path>
                <ellipse id="Oval-27" stroke-width="4" transform="translate(96.777972, 171.940559) scale(-1, -1) translate(-96.777972, -171.940559) " cx="96.777972" cy="171.940559" rx="22.1066434" ry="21.6153846"></ellipse>
                <ellipse id="Oval-27" stroke-width="4" transform="translate(171.449301, 169.975524) scale(1, -1) translate(-171.449301, -169.975524) " cx="171.449301" cy="169.975524" rx="22.1066434" ry="21.6153846"></ellipse>
                <ellipse id="Oval-27" stroke-width="4" cx="170.466783" cy="97.2692308" rx="22.1066434" ry="21.6153846"></ellipse>
                <ellipse id="Oval-27" stroke-width="4" transform="translate(97.760490, 98.251748) scale(-1, 1) translate(-97.760490, -98.251748) " cx="97.7604895" cy="98.2517483" rx="22.1066434" ry="21.6153846"></ellipse>
            </g>
        </g>
        <g id="coin" transform="translate(129.000000, 269.000000)" stroke="#000000">
            <circle id="Oval-31" stroke-width="3" cx="15" cy="15" r="15"></circle>
            <circle id="Oval-31" stroke-width="2" cx="15" cy="15" r="10.3333333"></circle>
            <circle id="Oval-31" stroke-width="1" cx="15" cy="15" r="5.66666667"></circle>
            <path d="M15,17.3333333 C16.2886644,17.3333333 17.3333333,16.2886644 17.3333333,15 C17.3333333,13.7113356 16.2886644,12.6666667 15,12.6666667 C13.7113356,12.6666667 12.6666667,13.7113356 12.6666667,15 C12.6666667,16.2886644 13.7113356,17.3333333 15,17.3333333 Z" id="Oval-31" stroke-width="0.5"></path>
        </g>
        <g id="coin" transform="translate(202.000000, 341.000000)" stroke="#000000">
            <circle id="Oval-31" stroke-width="3" cx="15" cy="15" r="15"></circle>
            <circle id="Oval-31" stroke-width="2" cx="15" cy="15" r="10.3333333"></circle>
            <circle id="Oval-31" stroke-width="1" cx="15" cy="15" r="5.66666667"></circle>
            <path d="M15,17.3333333 C16.2886644,17.3333333 17.3333333,16.2886644 17.3333333,15 C17.3333333,13.7113356 16.2886644,12.6666667 15,12.6666667 C13.7113356,12.6666667 12.6666667,13.7113356 12.6666667,15 C12.6666667,16.2886644 13.7113356,17.3333333 15,17.3333333 Z" id="Oval-31" stroke-width="0.5"></path>
        </g>
    </g>
</svg>