<?xml version="1.0" encoding="UTF-8"?>
<svg width="360px" height="640px" viewBox="0 0 360 640" version="1.1" xmlns="http://www.w3.org/2000/svg" xmlns:xlink="http://www.w3.org/1999/xlink">
    <!-- Generator: Sketch 52.3 (67297) - http://www.bohemiancoding.com/sketch -->
    <title>2 Cups</title>
    <desc>Created with Sketch.</desc>
    <g id="2-Cups" stroke="none" stroke-width="1" fill="none" fill-rule="evenodd">
        <rect id="Rectangle-9" stroke="#000000" stroke-width="10" fill="#FCD116" x="15" y="26" width="330" height="589" rx="25"></rect>
        <path d="M18,533 L342,533" id="Line" stroke="#000000" stroke-width="10" stroke-linecap="square"></path>
        <text id="ACE" font-family="HighwayGothicExpanded, Highway Gothic Expanded" font-size="24" font-style="expanded" font-weight="normal" line-spacing="20" fill="#000000">
            <tspan x="144" y="587.830952">LOVE</tspan>
        </text>
        <g id="WANDS-+-2" transform="translate(161.000000, 40.000000)" fill="#000000" font-weight="normal" line-spacing="20">
            <text id="CUPS" font-family="HighwayGothicCondensed, Highway Gothic Condensed" font-size="14.3661972" font-style="condensed">
                <tspan x="8.43802817" y="12.6785714">CUPS</tspan>
            </text>
            <text id="2" font-family="HighwayGothicExpanded, Highway Gothic Expanded" font-size="34.4788732" font-style="expanded">
                <tspan x="5.75925926" y="62.0535714">2</tspan>
            </text>
        </g>
        <g id="cup" transform="translate(141.000000, 430.000000)" fill="#000000" stroke="#000000">
            <path d="M17.0134265,1.85922934e-08 C17.0134265,1.85922934e-08 15.3461707,9.08173055 20.1750711,16.3774553 C25.0039714,23.67318 33.8755302,25.4760425 33.8755302,25.4760425 L33.8755302,0 L17.0134265,1.85922934e-08 Z" id="Path-95" transform="translate(25.305389, 12.738021) scale(-1, 1) translate(-25.305389, -12.738021) "></path>
            <path d="M0.278178331,1.85922934e-08 C0.278178331,1.85922934e-08 -1.38907751,9.08173055 3.43982288,16.3774553 C8.26872328,23.67318 17.140282,25.4760425 17.140282,25.4760425 L17.140282,0 L0.278178331,1.85922934e-08 Z" id="Path-95"></path>
            <path d="M5.73779937,38.3205837 C5.73779937,38.3205837 8.6518741,37.7602619 13.11497,33.2253752 C17.5780659,28.6904885 16.9792022,19.7594671 16.9792022,19.7594671 L16.9792022,38.3205837 L5.73779937,38.3205837 Z" id="Path-97"></path>
            <path d="M16.7352482,38.3205837 C16.7352482,38.3205837 19.6493229,37.7602619 24.1124188,33.2253752 C28.5755147,28.6904885 27.976651,19.7594671 27.976651,19.7594671 L27.976651,38.3205837 L16.7352482,38.3205837 Z" id="Path-97" transform="translate(22.369354, 29.040025) scale(-1, 1) translate(-22.369354, -29.040025) "></path>
        </g>
        <g id="Group" transform="translate(175.000000, 145.000000)" fill="#000000">
            <rect id="Rectangle-15" x="70.9835331" y="220.736408" width="31.4735425" height="103.318852" rx="15.7367712"></rect>
            <path d="M88.6644831,47.7665216 C101.838369,47.7665216 112.517914,37.0736215 112.517914,23.8832608 C112.517914,10.6929001 101.838369,0 88.6644831,0 C75.4905969,0 64.811052,10.6929001 64.811052,23.8832608 C64.811052,37.0736215 75.4905969,47.7665216 88.6644831,47.7665216 Z" id="Oval-7"></path>
            <rect id="Rectangle-182" x="64.811052" y="58.6385709" width="44.7504883" height="148.139547" rx="22.3752441"></rect>
            <rect id="Rectangle-15" transform="translate(49.100676, 114.685300) rotate(-322.000000) translate(-49.100676, -114.685300) " x="35.7244204" y="52.0534083" width="26.7525111" height="125.263783" rx="13.3762555"></rect>
        </g>
        <g id="Group" transform="translate(129.323890, 307.027630) scale(-1, 1) translate(-129.323890, -307.027630) translate(73.000000, 145.000000)" fill="#000000">
            <rect id="Rectangle-15" x="70.9835331" y="220.736408" width="31.4735425" height="103.318852" rx="15.7367712"></rect>
            <path d="M88.6644831,47.7665216 C101.838369,47.7665216 112.517914,37.0736215 112.517914,23.8832608 C112.517914,10.6929001 101.838369,0 88.6644831,0 C75.4905969,0 64.811052,10.6929001 64.811052,23.8832608 C64.811052,37.0736215 75.4905969,47.7665216 88.6644831,47.7665216 Z" id="Oval-7"></path>
            <rect id="Rectangle-182" x="64.811052" y="58.6385709" width="44.7504883" height="148.139547" rx="22.3752441"></rect>
            <rect id="Rectangle-15" transform="translate(49.100676, 114.685300) rotate(-322.000000) translate(-49.100676, -114.685300) " x="35.7244204" y="52.0534083" width="26.7525111" height="125.263783" rx="13.3762555"></rect>
        </g>
        <g id="cup" transform="translate(189.000000, 430.000000)" fill="#000000" stroke="#000000">
            <path d="M17.0134265,1.85922934e-08 C17.0134265,1.85922934e-08 15.3461707,9.08173055 20.1750711,16.3774553 C25.0039714,23.67318 33.8755302,25.4760425 33.8755302,25.4760425 L33.8755302,0 L17.0134265,1.85922934e-08 Z" id="Path-95" transform="translate(25.305389, 12.738021) scale(-1, 1) translate(-25.305389, -12.738021) "></path>
            <path d="M0.278178331,1.85922934e-08 C0.278178331,1.85922934e-08 -1.38907751,9.08173055 3.43982288,16.3774553 C8.26872328,23.67318 17.140282,25.4760425 17.140282,25.4760425 L17.140282,0 L0.278178331,1.85922934e-08 Z" id="Path-95"></path>
            <path d="M5.73779937,38.3205837 C5.73779937,38.3205837 8.6518741,37.7602619 13.11497,33.2253752 C17.5780659,28.6904885 16.9792022,19.7594671 16.9792022,19.7594671 L16.9792022,38.3205837 L5.73779937,38.3205837 Z" id="Path-97"></path>
            <path d="M16.7352482,38.3205837 C16.7352482,38.3205837 19.6493229,37.7602619 24.1124188,33.2253752 C28.5755147,28.6904885 27.976651,19.7594671 27.976651,19.7594671 L27.976651,38.3205837 L16.7352482,38.3205837 Z" id="Path-97" transform="translate(22.369354, 29.040025) scale(-1, 1) translate(-22.369354, -29.040025) "></path>
        </g>
        <g id="Path-75-+-Path-75" transform="translate(146.000000, 111.000000)" fill="#000000">
            <path d="M33.7953906,15.7831426 C33.7953906,15.7831426 28.247043,-4.76472239 10.5120285,1.78677079 C-7.22298605,8.33826396 0.774416464,28.7040391 10.5120284,40.2023444 C13.5135228,43.7465499 33.7953913,67.4350966 33.7953913,67.4350966 L33.7953906,15.7831426 Z" id="Path-75"></path>
            <path d="M67.4436064,15.8812755 C67.4436064,15.8812755 61.8952588,-4.66658951 44.1602443,1.88490367 C26.4252297,8.43639685 34.4226322,28.802172 44.1602442,40.3004772 C47.1617386,43.8446828 67.4436071,67.5332295 67.4436071,67.5332295 L67.4436064,15.8812755 Z" id="Path-75" transform="translate(50.545911, 34.064410) scale(-1, 1) translate(-50.545911, -34.064410) "></path>
        </g>
    </g>
</svg>