<?xml version="1.0" encoding="UTF-8"?>
<svg width="360px" height="640px" viewBox="0 0 360 640" version="1.1" xmlns="http://www.w3.org/2000/svg" xmlns:xlink="http://www.w3.org/1999/xlink">
    <!-- Generator: Sketch 52.3 (67297) - http://www.bohemiancoding.com/sketch -->
    <title>2 Swords</title>
    <desc>Created with Sketch.</desc>
    <defs>
        <ellipse id="path-1" cx="26.07019" cy="25.4397927" rx="26.0393997" ry="25.4397927"></ellipse>
    </defs>
    <g id="2-Swords" stroke="none" stroke-width="1" fill="none" fill-rule="evenodd">
        <rect id="Rectangle-9" stroke="#000000" stroke-width="10" fill="#003F87" x="15" y="26" width="330" height="589" rx="25"></rect>
        <path d="M18,533 L342,533" id="Line" stroke="#000000" stroke-width="10" stroke-linecap="square"></path>
        <text id="ACE" font-family="HighwayGothicExpanded, Highway Gothic Expanded" font-size="24" font-style="expanded" font-weight="normal" line-spacing="20" fill="#FFFFFF">
            <tspan x="58.5" y="587.830952">PEACE RESTORED</tspan>
        </text>
        <g id="Labelz" transform="translate(163.000000, 40.000000)" fill="#FFFFFF" font-weight="normal" line-spacing="20">
            <text id="SWORDS" font-family="HighwayGothicCondensed, Highway Gothic Condensed" font-size="14.3661972" font-style="condensed">
                <tspan x="0.547887324" y="12.6785714">SWORDS</tspan>
            </text>
            <text id="2" font-family="HighwayGothicExpanded, Highway Gothic Expanded" font-size="34.4788732" font-style="expanded">
                <tspan x="3.75925926" y="62.0535714">2</tspan>
            </text>
        </g>
        <g id="Group" transform="translate(20.000000, 154.000000)">
            <g id="bathroom-woman" transform="translate(104.000000, 69.078062)">
                <rect id="Rectangle-15" fill="#000000" x="19.1138926" y="59.6279932" width="70.6164391" height="119.424768"></rect>
                <rect id="Rectangle-15" fill="#000000" x="0.500827836" y="58.7924992" width="108.245626" height="33.6839088" rx="16.8419544"></rect>
                <path d="M19.1138926,179.022124 C19.1138926,171.936039 24.8607074,166.191632 31.9532451,166.191632 L31.9532451,166.191632 C39.0442237,166.191632 44.7925977,171.937415 44.7925977,179.022124 L44.7925977,250.738259 C44.7925977,257.824344 39.0457828,263.56875 31.9532451,263.56875 L31.9532451,263.56875 C24.8622665,263.56875 19.1138926,257.822968 19.1138926,250.738259 L19.1138926,179.022124 Z" id="Rectangle-15" fill="#000000"></path>
                <rect id="Rectangle-15" fill="#000000" x="64.0516265" y="166.191632" width="25.6787051" height="97.3771183" rx="12.8393526"></rect>
                <polygon id="Path-42" fill="#000000" points="7.10736286 196.729231 57.0814436 196.729231 57.0814436 73.8415821 21.1265478 98.9764339"></polygon>
                <polygon id="Path-42" fill="#000000" transform="translate(77.656754, 135.355439) scale(-1, 1) translate(-77.656754, -135.355439) " points="52.669714 196.799263 102.643795 196.799263 102.643795 73.9116142 66.6888989 99.0464661"></polygon>
                <g id="Mask-+-Rectangle-100" transform="translate(27.804124, 0.751583)">
                    <mask id="mask-2" fill="white">
                        <use xlink:href="#path-1"></use>
                    </mask>
                    <use id="Mask" fill="#000000" xlink:href="#path-1"></use>
                    <rect id="Rectangle-100" stroke="#003F87" fill="#000000" mask="url(#mask-2)" x="-9.03515819" y="15.0981952" width="73.7643086" height="7.11010845"></rect>
                </g>
            </g>
            <g id="sword" transform="translate(82.906448, 83.796884) scale(1, -1) rotate(-315.000000) translate(-82.906448, -83.796884) translate(71.339437, -21.743868)">
                <rect id="Rectangle-65" x="3.54790012" y="44.0337045" width="15.1672733" height="166.19056"></rect>
                <rect id="Rectangle-63" stroke="#003F87" fill="#000000" x="6.7088252" y="0.5" width="8.75672532" height="38.7723782" rx="4"></rect>
                <rect id="Rectangle-63" stroke="#003F87" fill="#000000" x="0.5" y="34.5906099" width="22.0613508" height="8.94309456" rx="4"></rect>
                <g id="Rectangle-61-+-Triangle-7" transform="translate(6.108929, 41.687603)" fill="#000000">
                    <rect id="Rectangle-61" x="0" y="0" width="4.43487515" height="151.987303"></rect>
                    <polygon id="Triangle-7" transform="translate(2.217438, 159.089513) scale(1, -1) translate(-2.217438, -159.089513) " points="4.43487515 151.987303 4.43487515 166.191723 1.49607257e-14 166.191723"></polygon>
                </g>
                <g id="Rectangle-61-+-Triangle-7" transform="translate(13.648217, 124.783464) scale(-1, 1) translate(-13.648217, -124.783464) translate(11.430779, 41.687603)" fill="#000000">
                    <rect id="Rectangle-61" x="0" y="0" width="4.43487515" height="151.987303"></rect>
                    <polygon id="Triangle-7" transform="translate(2.217438, 159.089513) scale(1, -1) translate(-2.217438, -159.089513) " points="4.43487515 151.987303 4.43487515 166.191723 0 166.191723"></polygon>
                </g>
            </g>
            <g id="arm" transform="translate(141.855670, 134.187780)" fill="#000000">
                <path d="M5.41728953,26.8356407 L66.4390799,56.5726348 C70.6873133,58.6428739 75.8177959,56.8780321 77.8908592,52.6312405 C79.9648123,48.3826259 78.2001993,43.2606853 73.9492569,41.1891262 L12.9274666,11.452132 C8.67923312,9.38189297 3.5487505,11.1467347 1.47568725,15.3935264 C-0.598265861,19.6421409 1.16634717,24.7640815 5.41728953,26.8356407 Z" id="Rectangle-15" stroke="#003F87"></path>
                <path d="M73.7899434,0.0759942019 C79.7428558,0.603132974 83.8030224,3.73308362 82.8604601,7.06029614 L70.064449,52.2297717 C69.1210447,55.5599563 63.5317842,57.8323899 57.577563,57.3051352 C51.6246506,56.7779965 47.5644839,53.6480458 48.5070463,50.3208333 L61.3030574,5.15135778 C62.2464617,1.8211731 67.8357221,-0.451260473 73.7899434,0.0759942019 Z" id="Rectangle-15" transform="translate(65.683753, 28.690565) scale(-1, 1) translate(-65.683753, -28.690565) "></path>
            </g>
            <g id="sword" transform="translate(236.807693, 83.807693) scale(-1, -1) rotate(-315.000000) translate(-236.807693, -83.807693) translate(225.240683, -21.733059)">
                <rect id="Rectangle-65" x="3.54790012" y="44.0337045" width="15.1672733" height="166.19056"></rect>
                <rect id="Rectangle-63" stroke="#003F87" fill="#000000" x="6.7088252" y="0.5" width="8.75672532" height="38.7723782" rx="4"></rect>
                <rect id="Rectangle-63" stroke="#003F87" fill="#000000" x="0.5" y="34.5906099" width="22.0613508" height="8.94309456" rx="4"></rect>
                <g id="Rectangle-61-+-Triangle-7" transform="translate(6.108929, 41.687603)" fill="#000000">
                    <rect id="Rectangle-61" x="0" y="0" width="4.43487515" height="151.987303"></rect>
                    <polygon id="Triangle-7" transform="translate(2.217438, 159.089513) scale(1, -1) translate(-2.217438, -159.089513) " points="4.43487515 151.987303 4.43487515 166.191723 1.49607257e-14 166.191723"></polygon>
                </g>
                <g id="Rectangle-61-+-Triangle-7" transform="translate(13.648217, 124.783464) scale(-1, 1) translate(-13.648217, -124.783464) translate(11.430779, 41.687603)" fill="#000000">
                    <rect id="Rectangle-61" x="0" y="0" width="4.43487515" height="151.987303"></rect>
                    <polygon id="Triangle-7" transform="translate(2.217438, 159.089513) scale(1, -1) translate(-2.217438, -159.089513) " points="4.43487515 151.987303 4.43487515 166.191723 0 166.191723"></polygon>
                </g>
            </g>
            <g id="arm" transform="translate(133.500000, 165.000000) scale(-1, 1) translate(-133.500000, -165.000000) translate(92.000000, 136.000000)" fill="#000000">
                <path d="M5.41728953,26.8356407 L66.4390799,56.5726348 C70.6873133,58.6428739 75.8177959,56.8780321 77.8908592,52.6312405 C79.9648123,48.3826259 78.2001993,43.2606853 73.9492569,41.1891262 L12.9274666,11.452132 C8.67923312,9.38189297 3.5487505,11.1467347 1.47568725,15.3935264 C-0.598265861,19.6421409 1.16634717,24.7640815 5.41728953,26.8356407 Z" id="Rectangle-15" stroke="#003F87"></path>
                <path d="M73.7899434,0.0759942019 C79.7428558,0.603132974 83.8030224,3.73308362 82.8604601,7.06029614 L70.064449,52.2297717 C69.1210447,55.5599563 63.5317842,57.8323899 57.577563,57.3051352 C51.6246506,56.7779965 47.5644839,53.6480458 48.5070463,50.3208333 L61.3030574,5.15135778 C62.2464617,1.8211731 67.8357221,-0.451260473 73.7899434,0.0759942019 Z" id="Rectangle-15" transform="translate(65.683753, 28.690565) scale(-1, 1) translate(-65.683753, -28.690565) "></path>
            </g>
        </g>
    </g>
</svg>