<?xml version="1.0" encoding="UTF-8"?>
<svg width="360px" height="640px" viewBox="0 0 360 640" version="1.1" xmlns="http://www.w3.org/2000/svg" xmlns:xlink="http://www.w3.org/1999/xlink">
    <!-- Generator: Sketch 52.3 (67297) - http://www.bohemiancoding.com/sketch -->
    <title>2 Wands</title>
    <desc>Created with Sketch.</desc>
    <g id="2-Wands" stroke="none" stroke-width="1" fill="none" fill-rule="evenodd">
        <rect id="Rectangle-9" stroke="#000000" stroke-width="10" fill="#FCD116" x="15" y="26" width="330" height="589" rx="25"></rect>
        <path d="M18,533 L342,533" id="Line" stroke="#000000" stroke-width="10" stroke-linecap="square"></path>
        <text id="ACE" font-family="HighwayGothicExpanded, Highway Gothic Expanded" font-size="24" font-style="expanded" font-weight="normal" line-spacing="20" fill="#000000">
            <tspan x="113" y="587.830952">DOMINION</tspan>
        </text>
        <g id="WANDS-+-2" transform="translate(161.000000, 40.000000)" fill="#000000" font-weight="normal" line-spacing="20">
            <text id="WANDS" font-family="HighwayGothicCondensed, Highway Gothic Condensed" font-size="14.3661972" font-style="condensed">
                <tspan x="5.02605634" y="12.6785714">WANDS</tspan>
            </text>
            <text id="2" font-family="HighwayGothicExpanded, Highway Gothic Expanded" font-size="34.4788732" font-style="expanded">
                <tspan x="5.75925926" y="62.0535714">2</tspan>
            </text>
        </g>
        <g id="Group" transform="translate(129.000000, 262.000000)" fill="#000000">
            <rect id="Rectangle-15" x="23.4554455" y="47.9906323" width="56.0891089" height="99.5550351"></rect>
            <rect id="Rectangle-15" x="85.6633663" y="55.6487119" width="17.3366337" height="81.175644" rx="8.66831683"></rect>
            <rect id="Rectangle-15" x="0" y="47.9906323" width="102.490099" height="28.0796253" rx="14.0398126"></rect>
            <rect id="Rectangle-15" x="23.4554455" y="136.824356" width="20.3960396" height="81.175644" rx="10.1980198"></rect>
            <rect id="Rectangle-15" x="59.1485149" y="136.824356" width="20.3960396" height="81.175644" rx="10.1980198"></rect>
            <ellipse id="Oval-7" cx="51.7549505" cy="21.6978923" rx="21.6707921" ry="21.6978923"></ellipse>
            <rect id="Rectangle-15" x="0" y="55.7188498" width="17.3366337" height="81.175644" rx="8.66831683"></rect>
        </g>
        <path d="M178.825607,235.867421 L180.648077,235.867421 C182.399706,239.965025 185.930119,242.765007 190,242.765007 C194.662364,242.765007 198.616758,239.090457 200,234 L200,243.454765 C199.418648,243.454765 198.947368,245.15325 198.947368,247.248438 C198.947368,249.343625 199.418648,251.04211 200,251.04211 L200,254.490903 L160,254.490903 L160,251.04211 C160.581352,251.04211 161.052632,249.343625 161.052632,247.248438 C161.052632,245.15325 160.581352,243.454765 160,243.454765 L160,235.57333 C161.706022,239.830464 165.307156,242.765007 169.473684,242.765007 C173.543565,242.765007 177.073978,239.965025 178.825607,235.867421 Z M180,251.04211 C180.581352,251.04211 181.052632,249.343625 181.052632,247.248438 C181.052632,245.15325 180.581352,243.454765 180,243.454765 C179.418648,243.454765 178.947368,245.15325 178.947368,247.248438 C178.947368,249.343625 179.418648,251.04211 180,251.04211 Z" id="crown" fill="#000000"></path>
        <path d="M95.5660709,95.600302 L72.1135162,77 L43,103.68739 L59.1741756,119.052857 L46.2348351,158.679587 L62.8133652,163.53184 L47.8522527,197.497609 L62.8133652,219.332746 L52.7045054,247.637553 L62.8133652,303.438459 L47.8522527,341.447772 L62.8133652,359.239365 L62.8133652,385.118046 L85.0528567,368.135162 C85.0528567,368.135162 87.272372,339.769316 85.0528567,326.082305 C84.0375368,319.821166 75.3483513,283.22074 75.3483513,283.22074 L101.227032,247.637553 L75.3483513,224.184998 L89.9051094,186.984394 L75.3483513,147.357664 L85.0528567,123.096401 L95.5660709,95.600302 Z" id="Path-115" fill="#000000" transform="translate(72.113516, 234.000000) scale(-1, 1) translate(-72.113516, -234.000000) "></path>
        <path d="M315.566071,95.600302 L292.113516,77 L263,103.68739 L279.174176,119.052857 L266.234835,158.679587 L282.813365,163.53184 L267.852253,197.497609 L282.813365,219.332746 L272.704505,247.637553 L282.813365,303.438459 L267.852253,341.447772 L282.813365,359.239365 L282.813365,385.118046 L305.052857,368.135162 C305.052857,368.135162 307.272372,339.769316 305.052857,326.082305 C304.037537,319.821166 295.348351,283.22074 295.348351,283.22074 L321.227032,247.637553 L295.348351,224.184998 L309.905109,186.984394 L295.348351,147.357664 L305.052857,123.096401 L315.566071,95.600302 Z" id="Path-115" fill="#000000"></path>
    </g>
</svg>