<?xml version="1.0" encoding="UTF-8"?>
<svg width="360px" height="640px" viewBox="0 0 360 640" version="1.1" xmlns="http://www.w3.org/2000/svg" xmlns:xlink="http://www.w3.org/1999/xlink">
    <!-- Generator: Sketch 52.3 (67297) - http://www.bohemiancoding.com/sketch -->
    <title>3 Cups</title>
    <desc>Created with Sketch.</desc>
    <g id="3-Cups" stroke="none" stroke-width="1" fill="none" fill-rule="evenodd">
        <rect id="Rectangle-9" stroke="#000000" stroke-width="10" fill="#AF1E2D" x="16" y="18" width="330" height="589" rx="25"></rect>
        <g id="cup" transform="translate(249.000000, 276.000000)" fill="#000000" stroke="#000000">
            <path d="M17.0134265,1.85922934e-08 C17.0134265,1.85922934e-08 15.3461707,9.08173055 20.1750711,16.3774553 C25.0039714,23.67318 33.8755302,25.4760425 33.8755302,25.4760425 L33.8755302,0 L17.0134265,1.85922934e-08 Z" id="Path-95" transform="translate(25.305389, 12.738021) scale(-1, 1) translate(-25.305389, -12.738021) "></path>
            <path d="M0.278178331,1.85922934e-08 C0.278178331,1.85922934e-08 -1.38907751,9.08173055 3.43982288,16.3774553 C8.26872328,23.67318 17.140282,25.4760425 17.140282,25.4760425 L17.140282,0 L0.278178331,1.85922934e-08 Z" id="Path-95"></path>
            <path d="M5.73779937,38.3205837 C5.73779937,38.3205837 8.6518741,37.7602619 13.11497,33.2253752 C17.5780659,28.6904885 16.9792022,19.7594671 16.9792022,19.7594671 L16.9792022,38.3205837 L5.73779937,38.3205837 Z" id="Path-97"></path>
            <path d="M16.7352482,38.3205837 C16.7352482,38.3205837 19.6493229,37.7602619 24.1124188,33.2253752 C28.5755147,28.6904885 27.976651,19.7594671 27.976651,19.7594671 L27.976651,38.3205837 L16.7352482,38.3205837 Z" id="Path-97" transform="translate(22.369354, 29.040025) scale(-1, 1) translate(-22.369354, -29.040025) "></path>
        </g>
        <g id="cup" transform="translate(249.000000, 325.000000)" fill="#000000" stroke="#000000">
            <path d="M17.0134265,1.85922934e-08 C17.0134265,1.85922934e-08 15.3461707,9.08173055 20.1750711,16.3774553 C25.0039714,23.67318 33.8755302,25.4760425 33.8755302,25.4760425 L33.8755302,0 L17.0134265,1.85922934e-08 Z" id="Path-95" transform="translate(25.305389, 12.738021) scale(-1, 1) translate(-25.305389, -12.738021) "></path>
            <path d="M0.278178331,1.85922934e-08 C0.278178331,1.85922934e-08 -1.38907751,9.08173055 3.43982288,16.3774553 C8.26872328,23.67318 17.140282,25.4760425 17.140282,25.4760425 L17.140282,0 L0.278178331,1.85922934e-08 Z" id="Path-95"></path>
            <path d="M5.73779937,38.3205837 C5.73779937,38.3205837 8.6518741,37.7602619 13.11497,33.2253752 C17.5780659,28.6904885 16.9792022,19.7594671 16.9792022,19.7594671 L16.9792022,38.3205837 L5.73779937,38.3205837 Z" id="Path-97"></path>
            <path d="M16.7352482,38.3205837 C16.7352482,38.3205837 19.6493229,37.7602619 24.1124188,33.2253752 C28.5755147,28.6904885 27.976651,19.7594671 27.976651,19.7594671 L27.976651,38.3205837 L16.7352482,38.3205837 Z" id="Path-97" transform="translate(22.369354, 29.040025) scale(-1, 1) translate(-22.369354, -29.040025) "></path>
        </g>
        <g id="cup" transform="translate(295.000000, 305.000000)" fill="#000000" stroke="#000000">
            <path d="M17.0134265,1.85922934e-08 C17.0134265,1.85922934e-08 15.3461707,9.08173055 20.1750711,16.3774553 C25.0039714,23.67318 33.8755302,25.4760425 33.8755302,25.4760425 L33.8755302,0 L17.0134265,1.85922934e-08 Z" id="Path-95" transform="translate(25.305389, 12.738021) scale(-1, 1) translate(-25.305389, -12.738021) "></path>
            <path d="M0.278178331,1.85922934e-08 C0.278178331,1.85922934e-08 -1.38907751,9.08173055 3.43982288,16.3774553 C8.26872328,23.67318 17.140282,25.4760425 17.140282,25.4760425 L17.140282,0 L0.278178331,1.85922934e-08 Z" id="Path-95"></path>
            <path d="M5.73779937,38.3205837 C5.73779937,38.3205837 8.6518741,37.7602619 13.11497,33.2253752 C17.5780659,28.6904885 16.9792022,19.7594671 16.9792022,19.7594671 L16.9792022,38.3205837 L5.73779937,38.3205837 Z" id="Path-97"></path>
            <path d="M16.7352482,38.3205837 C16.7352482,38.3205837 19.6493229,37.7602619 24.1124188,33.2253752 C28.5755147,28.6904885 27.976651,19.7594671 27.976651,19.7594671 L27.976651,38.3205837 L16.7352482,38.3205837 Z" id="Path-97" transform="translate(22.369354, 29.040025) scale(-1, 1) translate(-22.369354, -29.040025) "></path>
        </g>
        <path d="M18,533 L342,533" id="Line" stroke="#000000" stroke-width="10" stroke-linecap="square"></path>
        <text id="ACE" font-family="HighwayGothicExpanded, Highway Gothic Expanded" font-size="24" font-style="expanded" font-weight="normal" line-spacing="20" fill="#FFFFFF">
            <tspan x="94.5" y="587.830952">ABUNDANCE</tspan>
        </text>
        <g id="Label" transform="translate(166.000000, 40.000000)" fill="#FFFFFF" font-weight="normal" line-spacing="20">
            <text id="CUPS" font-family="HighwayGothicCondensed, Highway Gothic Condensed" font-size="14.3661972" font-style="condensed">
                <tspan x="3.43802817" y="12.6785714">CUPS</tspan>
            </text>
            <text id="2" font-family="HighwayGothicExpanded, Highway Gothic Expanded" font-size="34.4788732" font-style="expanded">
                <tspan x="0.759259259" y="62.0535714">3</tspan>
            </text>
        </g>
        <path d="M181.379608,279.701418 C156.379608,279.701418 142.316612,279.701419 128.816612,279.701419 C115.316612,279.701419 92.0666084,269.881837 83.3166084,262.381837 C76.3524538,256.412562 72.9548931,244.131837 74.8166103,236.131837 C75.9343976,231.328584 81.5666084,216.631838 81.5666084,216.631838 C81.5666084,216.631838 92.3166084,207.381837 91.3166084,206.131837 C90.3166084,204.881837 78.8058436,198.896193 66.8166103,214.881838 C54.8273771,230.867482 49.7603675,238.381837 47.3166102,264.381837 C44.8728529,290.381837 56.8166091,312.381836 74.81661,333.881837 C92.816611,355.381838 125.879606,366.701417 151.879606,368.701417 C177.879606,370.701417 198.379608,368.701418 198.379608,368.701418 C198.379608,368.701418 206.379608,279.701418 181.379608,279.701418 Z" id="Path-382" stroke="#000000" stroke-width="3" fill="#000000"></path>
        <ellipse id="Oval-222" stroke="#AF1E2D" stroke-width="3" fill="#000000" cx="202.5" cy="324.5" rx="29.5" ry="53.5"></ellipse>
        <ellipse id="Oval-222" stroke="#AF1E2D" stroke-width="3" fill="#000000" cx="202.5" cy="325.5" rx="20.5" ry="42.5"></ellipse>
    </g>
</svg>