<?xml version="1.0" encoding="UTF-8"?>
<svg width="360px" height="640px" viewBox="0 0 360 640" version="1.1" xmlns="http://www.w3.org/2000/svg" xmlns:xlink="http://www.w3.org/1999/xlink">
    <!-- Generator: Sketch 52.3 (67297) - http://www.bohemiancoding.com/sketch -->
    <title>3 Wands</title>
    <desc>Created with Sketch.</desc>
    <g id="3-Wands" stroke="none" stroke-width="1" fill="none" fill-rule="evenodd">
        <rect id="Rectangle-9" stroke="#000000" stroke-width="10" fill="#DD7500" x="15" y="26" width="330" height="589" rx="25"></rect>
        <path d="M18,533 L342,533" id="Line" stroke="#000000" stroke-width="10" stroke-linecap="square"></path>
        <text id="ACE" font-family="HighwayGothicExpanded, Highway Gothic Expanded" font-size="24" font-style="expanded" font-weight="normal" line-spacing="28" fill="#000000">
            <tspan x="131.54" y="582">VIRTUE</tspan>
        </text>
        <g id="Label" transform="translate(166.000000, 40.000000)" fill="#000000" font-weight="normal" line-spacing="20">
            <text id="WANDS" font-family="HighwayGothicCondensed, Highway Gothic Condensed" font-size="14.3661972" font-style="condensed">
                <tspan x="0.026056338" y="12.6785714">WANDS</tspan>
            </text>
            <text id="2" font-family="HighwayGothicExpanded, Highway Gothic Expanded" font-size="34.4788732" font-style="expanded">
                <tspan x="0.759259259" y="62.0535714">3</tspan>
            </text>
        </g>
        <g id="Group" transform="translate(65.000000, 214.000000)" fill="#000000">
            <path d="M88.0107101,8.80128761 L71.6362127,-4.17572548 L51.3092503,14.4434672 L62.6020072,25.1636085 L53.5678017,52.8102885 L65.1428775,56.1955963 L54.6970774,79.8927506 L65.1428775,95.1266356 L58.0849044,114.874264 L65.1428775,153.805303 L54.6970774,180.323548 L65.1428775,192.736343 L65.1428775,210.791317 L80.6704182,198.94274 C80.6704182,198.94274 82.2200765,179.152527 80.6704182,169.603406 C79.9615252,165.23515 73.8947641,139.699854 73.8947641,139.699854 L91.963175,114.874264 L73.8947641,98.5119433 L84.0582452,72.5579171 L73.8947641,44.9112371 L80.6704182,27.9846983 L88.0107101,8.80128761 Z" id="Path-115" transform="translate(71.636213, 103.307796) scale(1, -1) rotate(-30.000000) translate(-71.636213, -103.307796) "></path>
            <path d="M174.879918,8.80128761 L158.50542,-4.17572548 L138.178458,14.4434672 L149.471215,25.1636085 L140.437009,52.8102885 L152.012085,56.1955963 L141.566285,79.8927506 L152.012085,95.1266356 L144.954112,114.874264 L152.012085,153.805303 L141.566285,180.323548 L152.012085,192.736343 L152.012085,210.791317 L167.539626,198.94274 C167.539626,198.94274 169.089284,179.152527 167.539626,169.603406 C166.830733,165.23515 160.763972,139.699854 160.763972,139.699854 L178.832383,114.874264 L160.763972,98.5119433 L170.927453,72.5579171 L160.763972,44.9112371 L167.539626,27.9846983 L174.879918,8.80128761 Z" id="Path-115" transform="translate(158.505420, 103.307796) scale(-1, 1) rotate(-330.000000) translate(-158.505420, -103.307796) "></path>
            <path d="M123.938007,98.9157676 L107.563509,85.9387546 L87.2365468,104.557947 L98.5293037,115.278088 L89.4950982,142.924769 L101.070174,146.310076 L90.6243739,170.007231 L101.070174,185.241116 L94.012201,204.988744 L101.070174,243.919783 L90.6243739,270.438028 L101.070174,282.850823 L101.070174,300.905797 L116.597715,289.05722 C116.597715,289.05722 118.147373,269.267007 116.597715,259.717886 C115.888822,255.34963 109.822061,229.814334 109.822061,229.814334 L127.890472,204.988744 L109.822061,188.626423 L119.985542,162.672397 L109.822061,135.025717 L116.597715,118.099178 L123.938007,98.9157676 Z" id="Path-115" transform="translate(107.563509, 193.422276) scale(-1, 1) rotate(-270.000000) translate(-107.563509, -193.422276) "></path>
        </g>
    </g>
</svg>