<?xml version="1.0" encoding="UTF-8"?>
<svg width="360px" height="640px" viewBox="0 0 360 640" version="1.1" xmlns="http://www.w3.org/2000/svg" xmlns:xlink="http://www.w3.org/1999/xlink">
    <!-- Generator: Sketch 52.3 (67297) - http://www.bohemiancoding.com/sketch -->
    <title>4 Coins</title>
    <desc>Created with Sketch.</desc>
    <defs>
        <path d="M60.8476562,136.453125 L90.1640625,156.363281 C90.1640625,156.363281 102.800007,136.818663 105.628906,134.333984 C108.630213,131.697876 113.083984,117.941406 113.083984,117.941406 C113.083984,117.941406 102.720912,110.241601 102.40625,105.095703 C101.725378,93.9608916 98.3504865,85.6309866 97.8847656,71.8261719 C97.6753109,65.6175529 112.017423,83.3556257 113.083984,75.1875 C116.115184,51.9734338 119.798828,0.2578125 119.798828,0.2578125 L211.175781,239.929688 L225.886719,271.835938 L173.488281,324.234375 L0.28125,275.964844 L60.8476562,136.453125 Z" id="path-1"></path>
    </defs>
    <g id="4-Coins" stroke="none" stroke-width="1" fill="none" fill-rule="evenodd">
        <rect id="Rectangle-9" stroke="#000000" stroke-width="10" fill="#AF1E2D" x="15" y="26" width="330" height="589" rx="25"></rect>
        <path d="M18,533 L342,533" id="Line" stroke="#000000" stroke-width="10" stroke-linecap="square"></path>
        <g id="Label" transform="translate(64.000000, 40.000000)" fill="#FFFFFF" font-weight="normal" line-spacing="20">
            <text id="COINS" font-family="HighwayGothicCondensed, Highway Gothic Condensed" font-size="14.3661972" font-style="condensed">
                <tspan x="103.75" y="12.6785714">COINS</tspan>
            </text>
            <text id="ACE" font-family="HighwayGothicExpanded, Highway Gothic Expanded" font-size="24" font-style="expanded">
                <tspan x="0.5" y="547.830952">EARTHLY POWER</tspan>
            </text>
            <text id="2" font-family="HighwayGothicExpanded, Highway Gothic Expanded" font-size="34.4788732" font-style="expanded">
                <tspan x="100.898921" y="44.2291567">4  </tspan>
            </text>
        </g>
        <g id="man" transform="translate(61.000000, 416.000000)" fill="#000000">
            <rect id="Rectangle-15" x="9.79207921" y="20.0327869" width="23.4158416" height="41.557377"></rect>
            <rect id="Rectangle-15" x="35.7623762" y="23.2295082" width="7.23762376" height="33.8852459" rx="3.61881188"></rect>
            <rect id="Rectangle-15" x="0" y="20.0327869" width="42.7871287" height="11.7213115" rx="5.86065574"></rect>
            <rect id="Rectangle-15" x="9.79207921" y="57.1147541" width="8.51485149" height="33.8852459" rx="4.25742574"></rect>
            <rect id="Rectangle-15" x="24.6930693" y="57.1147541" width="8.51485149" height="33.8852459" rx="4.25742574"></rect>
            <ellipse id="Oval-7" cx="21.6064356" cy="9.05737705" rx="9.0470297" ry="9.05737705"></ellipse>
            <rect id="Rectangle-15" x="0" y="23.2587859" width="7.23762376" height="33.8852459" rx="3.61881188"></rect>
        </g>
        <g id="mtn" transform="translate(119.000000, 153.000000)">
            <mask id="mask-2" fill="white">
                <use xlink:href="#path-1"></use>
            </mask>
            <g id="Mask"></g>
            <polygon id="Triangle-18" stroke="#000000" stroke-width="4" fill="#000000" mask="url(#mask-2)" points="118.329004 32 222.658009 270.91342 14 270.91342"></polygon>
            <polygon id="Triangle-18" fill="#FFFFFF" mask="url(#mask-2)" points="117.520252 43.299959 148.252827 114.328273 86.7876774 114.328273"></polygon>
        </g>
        <g id="plunger" transform="translate(76.000000, 477.000000)">
            <rect id="Rectangle-472" stroke="#AF1E2D" fill="#000000" x="0.5" y="10.5" width="22" height="22" rx="2"></rect>
            <rect id="Rectangle-473" stroke="#AF1E2D" stroke-width="0.5" fill="#000000" x="4.25" y="0.25" width="15.5" height="3.5" rx="1.75"></rect>
            <rect id="Rectangle-474" fill="#000000" x="11" y="2.91503906" width="4" height="8.08496094"></rect>
            <path d="M10.5,3.66683581 L10.5,10.4953068" id="Path-486" stroke="#AF1E2D"></path>
            <path d="M14.5,3.49743652 L14.5,11.012085" id="Path-486" stroke="#AF1E2D"></path>
        </g>
        <g id="Group-3" transform="translate(31.000000, 506.000000)">
            <g id="coin" transform="translate(9.000000, 0.000000)">
                <ellipse id="Oval-224" fill="#000000" cx="3.7907664" cy="3.82467785" rx="3.7907664" ry="3.82467785"></ellipse>
                <ellipse id="Oval-224" fill="#AF1E2D" cx="3.91304919" cy="3.94805456" rx="2.93478689" ry="2.96104092"></ellipse>
                <ellipse id="Oval-224" fill="#000000" cx="3.91304919" cy="3.94805456" rx="2.20109017" ry="2.22078069"></ellipse>
                <ellipse id="Oval-224" fill="#AF1E2D" cx="3.91304919" cy="3.94805456" rx="1.46739345" ry="1.48052046"></ellipse>
                <ellipse id="Oval-224" fill="#000000" cx="3.91304919" cy="3.94805456" rx="1" ry="1"></ellipse>
            </g>
            <g id="coin" transform="translate(18.000000, 0.000000)">
                <ellipse id="Oval-224" fill="#000000" cx="3.7907664" cy="3.82467785" rx="3.7907664" ry="3.82467785"></ellipse>
                <ellipse id="Oval-224" fill="#AF1E2D" cx="3.91304919" cy="3.94805456" rx="2.93478689" ry="2.96104092"></ellipse>
                <ellipse id="Oval-224" fill="#000000" cx="3.91304919" cy="3.94805456" rx="2.20109017" ry="2.22078069"></ellipse>
                <ellipse id="Oval-224" fill="#AF1E2D" cx="3.91304919" cy="3.94805456" rx="1.46739345" ry="1.48052046"></ellipse>
                <ellipse id="Oval-224" fill="#000000" cx="3.91304919" cy="3.94805456" rx="1" ry="1"></ellipse>
            </g>
            <g id="coin" transform="translate(27.000000, 0.000000)">
                <ellipse id="Oval-224" fill="#000000" cx="3.7907664" cy="3.82467785" rx="3.7907664" ry="3.82467785"></ellipse>
                <ellipse id="Oval-224" fill="#AF1E2D" cx="3.91304919" cy="3.94805456" rx="2.93478689" ry="2.96104092"></ellipse>
                <ellipse id="Oval-224" fill="#000000" cx="3.91304919" cy="3.94805456" rx="2.20109017" ry="2.22078069"></ellipse>
                <ellipse id="Oval-224" fill="#AF1E2D" cx="3.91304919" cy="3.94805456" rx="1.46739345" ry="1.48052046"></ellipse>
                <ellipse id="Oval-224" fill="#000000" cx="3.91304919" cy="3.94805456" rx="1" ry="1"></ellipse>
            </g>
            <g id="coin">
                <ellipse id="Oval-224" fill="#000000" cx="3.7907664" cy="3.82467785" rx="3.7907664" ry="3.82467785"></ellipse>
                <ellipse id="Oval-224" fill="#AF1E2D" cx="3.91304919" cy="3.94805456" rx="2.93478689" ry="2.96104092"></ellipse>
                <ellipse id="Oval-224" fill="#000000" cx="3.91304919" cy="3.94805456" rx="2.20109017" ry="2.22078069"></ellipse>
                <ellipse id="Oval-224" fill="#AF1E2D" cx="3.91304919" cy="3.94805456" rx="1.46739345" ry="1.48052046"></ellipse>
                <ellipse id="Oval-224" fill="#000000" cx="3.91304919" cy="3.94805456" rx="1" ry="1"></ellipse>
            </g>
        </g>
        <g id="explosion" transform="translate(14.000000, 21.000000)" fill="#000000">
            <path d="M42.6938293,134.575511 C38.7424682,139.424056 39.4805549,139.555055 42.6938295,146.550002 C45.9071041,153.544948 47.6439356,164.781439 53.3520412,157.777269 C59.0601468,150.773098 60.6710204,130.829867 58.2477671,125.554711 C55.8245138,120.279554 46.6451903,129.726966 42.6938293,134.575511 Z" id="Path-492"></path>
            <path d="M122.693829,228.575511 C118.742468,233.424056 119.480555,233.555055 122.693829,240.550002 C125.907104,247.544948 127.643936,258.781439 133.352041,251.777269 C139.060147,244.773098 140.67102,224.829867 138.247767,219.554711 C135.824514,214.279554 126.64519,223.726966 122.693829,228.575511 Z" id="Path-492"></path>
            <path d="M44.3930397,37.2890605 C42.3497021,39.7139313 42.7313833,39.7794473 44.3930398,43.2777836 C46.0546963,46.77612 46.9528509,52.3957523 49.9046407,48.8928028 C52.8564304,45.3898533 53.6894493,35.4157765 52.4363306,32.7775472 C51.1832118,30.139318 46.4363773,34.8641898 44.3930397,37.2890605 Z" id="Path-492"></path>
            <path d="M129.39304,147.289061 C127.349702,149.713931 127.731383,149.779447 129.39304,153.277784 C131.054696,156.77612 131.952851,162.395752 134.904641,158.892803 C137.85643,155.389853 138.689449,145.415777 137.436331,142.777547 C136.183212,140.139318 131.436377,144.86419 129.39304,147.289061 Z" id="Path-492"></path>
            <path d="M152.39304,241.289061 C150.349702,243.713931 150.731383,243.779447 152.39304,247.277784 C154.054696,250.77612 154.952851,256.395752 157.904641,252.892803 C160.85643,249.389853 161.689449,239.415777 160.436331,236.777547 C159.183212,234.139318 154.436377,238.86419 152.39304,241.289061 Z" id="Path-492"></path>
            <path d="M194.39304,259.289061 C192.349702,261.713931 192.731383,261.779447 194.39304,265.277784 C196.054696,268.77612 196.952851,274.395752 199.904641,270.892803 C202.85643,267.389853 203.689449,257.415777 202.436331,254.777547 C201.183212,252.139318 196.436377,256.86419 194.39304,259.289061 Z" id="Path-492"></path>
            <path d="M18.3930397,99.2890605 C16.3497021,101.713931 16.7313833,101.779447 18.3930398,105.277784 C20.0546963,108.77612 20.9528509,114.395752 23.9046407,110.892803 C26.8564304,107.389853 27.6894493,97.4157765 26.4363306,94.7775472 C25.1832118,92.139318 20.4363773,96.8641898 18.3930397,99.2890605 Z" id="Path-492"></path>
            <path d="M184.39304,108.289061 C182.349702,110.713931 182.731383,110.779447 184.39304,114.277784 C186.054696,117.77612 186.952851,123.395752 189.904641,119.892803 C192.85643,116.389853 193.689449,106.415777 192.436331,103.777547 C191.183212,101.139318 186.436377,105.86419 184.39304,108.289061 Z" id="Path-492"></path>
            <path d="M13.3930397,24.2890605 C11.3497021,26.7139313 11.7313833,26.7794473 13.3930398,30.2777836 C15.0546963,33.77612 15.9528509,39.3957523 18.9046407,35.8928028 C21.8564304,32.3898533 22.6894493,22.4157765 21.4363306,19.7775472 C20.1832118,17.139318 15.4363773,21.8641898 13.3930397,24.2890605 Z" id="Path-492"></path>
            <path d="M101.867943,85.2890605 C99.8246054,87.7139313 97.9831687,98.554398 99.6448252,102.052734 C101.306482,105.551071 104.427754,100.395752 107.379544,96.8928028 C110.331334,93.3898533 111.164353,83.4157765 109.911234,80.7775472 C108.658115,78.139318 103.911281,82.8641898 101.867943,85.2890605 Z" id="Path-492"></path>
            <path d="M190.693829,170.575511 C186.742468,175.424056 187.480555,175.555055 190.693829,182.550002 C193.907104,189.544948 195.643936,200.781439 201.352041,193.777269 C207.060147,186.773098 208.67102,166.829867 206.247767,161.554711 C203.824514,156.279554 194.64519,165.726966 190.693829,170.575511 Z" id="Path-492"></path>
            <polygon id="Path-489" points="195.765625 246.964844 132.605469 0.06640625 70.21875 3.984375"></polygon>
            <path d="M207.242188,293.988281 L72.2070313,78.3710938 C72.2070313,78.3710938 -8.10730589,-1.79566343 52.7578125,95.390625 C113.622931,192.576913 207.242188,293.988281 207.242188,293.988281 Z" id="Path-491"></path>
            <polygon id="Path-496" points="190.917969 10.5410156 215.291016 214.789062 214.095703 8.2421875"></polygon>
            <polygon id="Path-488" points="0.6875 220.6875 187.828125 286.40625 3.203125 127.007812 3.203125 227.246094"></polygon>
        </g>
    </g>
</svg>