<?xml version="1.0" encoding="UTF-8"?>
<svg width="360px" height="640px" viewBox="0 0 360 640" version="1.1" xmlns="http://www.w3.org/2000/svg" xmlns:xlink="http://www.w3.org/1999/xlink">
    <!-- Generator: Sketch 52.3 (67297) - http://www.bohemiancoding.com/sketch -->
    <title>4 Cups</title>
    <desc>Created with Sketch.</desc>
    <defs>
        <path d="M4.07405428,0.72741168 C4.07405428,0.72741168 0.91773731,1.95344642 0.607648026,5.52904213 C0.297558743,9.10463784 3.52006574,11.4847147 3.52006574,11.4847147 L74.9165028,12.0883791 C74.9165028,12.0883791 74.0416648,7.98169497 71.392577,5.52904198 C68.7434892,3.076389 67.4855674,2.02156923 63.8259868,1.26902174 C60.1664063,0.516474246 4.07405428,0.72741168 4.07405428,0.72741168 Z" id="path-1"></path>
    </defs>
    <g id="4-Cups" stroke="none" stroke-width="1" fill="none" fill-rule="evenodd">
        <rect id="Rectangle-9" stroke="#000000" stroke-width="10" fill="#DD7500" x="15" y="26" width="330" height="589" rx="25"></rect>
        <path d="M18,533 L342,533" id="Line" stroke="#000000" stroke-width="10" stroke-linecap="square"></path>
        <g id="Label" transform="translate(123.000000, 40.000000)" fill="#000000" font-weight="normal" line-spacing="20">
            <text id="CUPS" font-family="HighwayGothicCondensed, Highway Gothic Condensed" font-size="14.3661972" font-style="condensed">
                <tspan x="46.4380282" y="12.6785714">CUPS</tspan>
            </text>
            <text id="title" font-family="HighwayGothicExpanded, Highway Gothic Expanded" font-size="24" font-style="expanded">
                <tspan x="0.5" y="547.830952">LUXURY</tspan>
            </text>
            <text id="2" font-family="HighwayGothicExpanded, Highway Gothic Expanded" font-size="34.4788732" font-style="expanded">
                <tspan x="42.7592593" y="62.0535714">4</tspan>
            </text>
        </g>
        <g id="yacht" transform="translate(47.000000, 252.000000)">
            <path d="M0.97265625,95.9570313 C0.497157972,108.614343 13.171875,121.390625 13.171875,121.390625 L200.226562,123.433594 C200.226562,123.433594 215.703125,121.390625 230.664062,110.582031 C245.625,99.7734375 273.267429,83.657365 264.427744,72.6699218 C255.588059,61.6824787 231.244135,56.9628907 204.917963,56.9628906 C178.591791,56.9628906 13.171875,56.9628906 13.171875,56.9628906 C13.171875,56.9628906 0.66406249,66.3945313 7.73828125,66.3945313 C14.8125,66.3945313 58.3177812,65.9554835 69.399416,68.3183594 C80.4810508,70.6812352 67.4798137,75.1531128 54.4589825,77.7983398 C51.216148,78.4571329 47.0020659,78.8289251 42.5016534,79.0158092 C28.9317294,79.5793137 12.7585449,78.4616699 12.7585449,78.4616699 C12.7585449,78.4616699 1.44815453,83.2997199 0.97265625,95.9570313 Z" id="Path-395" fill="#000000"></path>
            <path d="M61.8242187,57.5175781 C61.8242187,57.5175781 80.99903,55.0588215 93.1933607,48.2534176 C99.0646043,44.976798 93.7115871,40.3889239 82.0380875,39.8647458 C69.46621,39.3002275 49.2330786,40.4261116 44.9492187,38.8886715 C36.6876205,35.9236558 38.9399415,32.0961911 45.8378906,30.2207031 C52.7358398,28.3452152 95.7734375,33.9960937 105.886719,30.2207031 C116,26.4453125 117.435547,10.0605469 117.435547,10.0605469 C117.435547,10.0605469 103.962891,9.92968726 102.023437,8.671875 C100.083984,7.41406274 97.8125,2.09765625 102.023437,0.65625 C106.234375,-0.785156248 138.747397,2.15141197 143.844727,4.05664073 C148.942056,5.9618695 126.833984,9.9296875 126.833984,9.9296875 L126.833984,22.3427731 C126.833984,22.3427731 135.35676,18.6473534 142.09082,17.6113278 C148.824881,16.5753021 155.05957,16.8740238 157.587891,17.6113281 C160.116211,18.3486325 162.380717,24.296645 167.991211,28.0039059 C173.601705,31.7111668 175.155273,34.6015622 182.800781,38.8886715 C190.446289,43.1757809 196.584473,58.1362301 196.584473,58.1362301 L61.8242187,57.5175781 Z" id="Path-396" fill="#000000"></path>
            <g id="windows" transform="translate(79.000000, 62.000000)">
                <path d="M5.37548828,5.48876953 C5.37548828,5.48876953 1.21090339,6.66371949 0.801757813,10.090332 C0.39261223,13.5169446 4.64453119,15.7978516 4.64453119,15.7978516 C4.64453119,15.7978516 74.6392187,16.6279297 81.3310538,15.7978516 C88.022889,14.9677734 93.4500319,12.9477097 94.2226563,10.6542969 C94.9952806,8.36088408 89.043457,6.72900385 84.2148438,6.0078125 C79.3862305,5.28662115 5.37548828,5.48876953 5.37548828,5.48876953 Z" id="Path-397" fill="#DD7500"></path>
                <path d="M16,3.68439924 C18.4213867,6.95302704 18.4892578,15.5419109 16,19.5107014 C13.5107422,23.4794919 22.8820803,23.4802241 20.6923826,19.5107016 C18.5026849,15.5411792 18.5283227,6.62329103 20.6923826,3.00000002 C22.8564425,-0.623290998 13.5786133,0.415771439 16,3.68439924 Z" id="Path-398" fill="#000000"></path>
                <path d="M41.5055074,3.96649851 C43.9268941,7.23512631 43.9947651,15.8240102 41.5055074,19.7928007 C39.0162496,23.7615912 48.3875877,23.7623234 46.19789,19.7928009 C44.0081923,15.8232784 44.0338301,6.9053903 46.19789,3.28209929 C48.3619499,-0.341191728 39.0841207,0.697870708 41.5055074,3.96649851 Z" id="Path-398" fill="#000000"></path>
                <path d="M82.0293775,2.96649851 C84.4507642,6.23512631 84.5186353,14.8240102 82.0293775,18.7928007 C79.5401198,22.7615912 88.9114578,22.7623234 86.7217601,18.7928009 C84.5320625,14.8232784 84.5577003,5.9053903 86.7217601,2.28209929 C88.88582,-1.34119173 79.6079909,-0.302129292 82.0293775,2.96649851 Z" id="Path-398" fill="#000000"></path>
                <path d="M60.4242608,3.96649851 C62.8456475,7.23512631 62.9135186,15.8240102 60.4242608,19.7928007 C57.935003,23.7615912 67.3063411,23.7623234 65.1166434,19.7928009 C62.9269457,15.8232784 62.9525835,6.9053903 65.1166434,3.28209929 C67.2807033,-0.341191728 58.0028741,0.697870708 60.4242608,3.96649851 Z" id="Path-398" fill="#000000"></path>
            </g>
            <g id="windows" transform="translate(184.000000, 67.000000)">
                <path d="M2.48969984,3.10234799 C2.48969984,3.10234799 0.560839467,3.76645014 0.371340461,5.70323115 C0.181841454,7.64001216 2.15115129,8.92922045 2.15115129,8.92922045 C2.15115129,8.92922045 34.5697434,9.39839505 37.6691197,8.92922045 C40.768496,8.46004586 43.28212,7.31827068 43.6399671,6.02199389 C43.9978142,4.72571709 41.2411801,3.80335 39.0047697,3.39572011 C36.7683594,2.98809022 2.48969984,3.10234799 2.48969984,3.10234799 Z" id="Path-397" fill="#DD7500"></path>
                <path d="M7.41052632,2.08248653 C8.53201068,3.92997181 8.56344571,8.78455833 7.41052632,11.0277877 C6.25760693,13.2710172 10.5980161,13.271431 9.58384036,11.0277879 C8.56966459,8.78414474 8.58153895,3.74359928 9.58384036,1.69565218 C10.5861418,-0.352294912 6.28904196,0.235001248 7.41052632,2.08248653 Z" id="Path-398" fill="#000000"></path>
                <path d="M19.2236034,2.24193394 C20.3450878,4.08941922 20.3765228,8.94400574 19.2236034,11.1872352 C18.070684,13.4304646 22.4110932,13.4308784 21.3969175,11.1872353 C20.3827417,8.94359215 20.394616,3.90304669 21.3969175,1.8550996 C22.3992189,-0.192847499 18.1021191,0.394448661 19.2236034,2.24193394 Z" id="Path-398" fill="#000000"></path>
                <path d="M37.9925538,1.67671655 C39.1140382,3.52420183 39.1454732,8.37878835 37.9925538,10.6220178 C36.8396344,12.8652472 41.1800436,12.865661 40.1658679,10.6220179 C39.1516921,8.37837476 39.1635664,3.3378293 40.1658679,1.28988221 C41.1681693,-0.75806489 36.8710694,-0.17076873 37.9925538,1.67671655 Z" id="Path-398" fill="#000000"></path>
                <path d="M27.9859734,2.24193394 C29.1074578,4.08941922 29.1388928,8.94400574 27.9859734,11.1872352 C26.833054,13.4304646 31.1734632,13.4308784 30.1592875,11.1872353 C29.1451117,8.94359215 29.1569861,3.90304669 30.1592875,1.8550996 C31.1615889,-0.192847499 26.8644891,0.394448661 27.9859734,2.24193394 Z" id="Path-398" fill="#000000"></path>
            </g>
            <g id="windows" transform="translate(116.000000, 39.000000)">
                <mask id="mask-2" fill="white">
                    <use xlink:href="#path-1"></use>
                </mask>
                <use id="Mask" fill="#DD7500" xlink:href="#path-1"></use>
                <path d="M12.1263158,-1.15540949 C13.961472,2.25533257 14.0129112,11.2176461 12.1263158,15.3589928 C10.2397204,19.5003394 17.3422082,19.5011034 15.6826479,15.358993 C14.0230875,11.2168826 14.0425183,1.91126021 15.6826479,-1.8695652 C17.3227775,-5.65039061 10.2911596,-4.56615154 12.1263158,-1.15540949 Z" id="Path-398" fill="#000000" mask="url(#mask-2)"></path>
                <path d="M31.4568056,-0.861045033 C33.2919618,2.54969702 33.3434009,11.5120106 31.4568056,15.6533572 C29.5702102,19.7947038 36.672698,19.7954679 35.0131377,15.6533575 C33.3535773,11.5112471 33.3730081,2.20562466 35.0131377,-1.57520074 C36.6532673,-5.35602615 29.6216494,-4.27178709 31.4568056,-0.861045033 Z" id="Path-398" fill="#000000" mask="url(#mask-2)"></path>
                <path d="M62.1696335,-1.90452329 C64.0047897,1.50621876 64.0562289,10.4685323 62.1696335,14.609879 C60.2830381,18.7512256 67.3855259,18.7519896 65.7259656,14.6098792 C64.0664052,10.4677688 64.085836,1.1621464 65.7259656,-2.61867901 C67.3660952,-6.39950441 60.3344773,-5.31526535 62.1696335,-1.90452329 Z" id="Path-398" fill="#000000" mask="url(#mask-2)"></path>
                <path d="M45.7952292,-0.861045033 C47.6303855,2.54969702 47.6818246,11.5120106 45.7952292,15.6533572 C43.9086339,19.7947038 51.0111217,19.7954679 49.3515613,15.6533575 C47.692001,11.5112471 47.7114317,2.20562466 49.3515613,-1.57520074 C50.9916909,-5.35602615 43.960073,-4.27178709 45.7952292,-0.861045033 Z" id="Path-398" fill="#000000" mask="url(#mask-2)"></path>
            </g>
            <polygon id="Path-408" fill="#000000" points="136.608887 6.99609375 140.173828 21.0556641 142.768066 20.3227539 138.600586 5.62255859"></polygon>
            <g id="handrails" transform="translate(177.000000, 52.000000)">
                <path d="M0.333007812,0.14453125 C0.333007812,0.14453125 31.2822493,0.0341715331 41.8964844,1.14453126 C52.5107195,2.25489098 55.9775391,4.05468728 59.0732422,6.99999989 C62.1689453,9.9453125 54.4794922,17.1953125 54.4794922,17.1953125 L0.18359375,5.28027344 L0.333007812,0.14453125 Z" id="Path-402" stroke="#000000"></path>
                <polygon id="Path-414" fill="#000000" points="24.5668945 0.0888671875 24.5668945 6.71484375 26.5966797 6.71484375"></polygon>
                <polygon id="Path-414" fill="#000000" points="33 0 33 6.62597656 35.0297852 6.62597656"></polygon>
                <polygon id="Path-414" fill="#000000" points="41.4331055 1 41.4331055 7.62597656 43.4628906 7.62597656"></polygon>
                <polygon id="Path-414" fill="#000000" points="50 2 50 8.62597656 52.0297852 8.62597656"></polygon>
            </g>
            <g id="handrails" transform="translate(37.500000, 84.000000) scale(-1, 1) translate(-37.500000, -84.000000) translate(7.500000, 75.000000)">
                <path d="M0.333007812,0.14453125 C0.333007812,0.14453125 31.2822493,0.0341715331 41.8964844,1.14453126 C52.5107195,2.25489098 55.9775391,4.05468728 59.0732422,6.99999989 C62.1689453,9.9453125 54.4794922,17.1953125 54.4794922,17.1953125 L0.18359375,5.28027344 L0.333007812,0.14453125 Z" id="Path-402" stroke="#000000"></path>
                <polygon id="Path-414" fill="#000000" points="24.5668945 0.0888671875 24.5668945 6.71484375 26.5966797 6.71484375"></polygon>
                <polygon id="Path-414" fill="#000000" points="14 0 14 6.62597656 16.0297852 6.62597656"></polygon>
                <polygon id="Path-414" fill="#000000" points="33 0 33 6.62597656 35.0297852 6.62597656"></polygon>
                <polygon id="Path-414" fill="#000000" points="41.4331055 1 41.4331055 7.62597656 43.4628906 7.62597656"></polygon>
                <polygon id="Path-414" fill="#000000" points="50 2 50 8.62597656 52.0297852 8.62597656"></polygon>
            </g>
            <g id="handrails" transform="translate(93.000000, 31.000000) scale(-1, 1) translate(-93.000000, -31.000000) translate(63.000000, 24.000000)">
                <path d="M0.333007812,0.14453125 C0.333007812,0.14453125 31.2822493,0.0341715331 41.8964844,1.14453126 C52.5107195,2.25489098 55.9775391,4.05468728 59.0732422,6.99999989 C62.1689453,9.9453125 54.0229492,13.4409181 54.0229492,13.4409181 L0.18359375,5.28027344 L0.333007812,0.14453125 Z" id="Path-402" stroke="#000000"></path>
                <polygon id="Path-414" fill="#000000" points="24.5668945 0.0888671875 24.5668945 8.75727182 26.5966797 8.75727182"></polygon>
                <polygon id="Path-414" fill="#000000" points="16.1337891 0 16.1337891 8.66840464 18.1635742 8.66840464"></polygon>
                <polygon id="Path-414" fill="#000000" points="33 0 33 8.66840464 35.0297852 8.66840464"></polygon>
                <polygon id="Path-414" fill="#000000" points="41.4331055 1 41.4331055 7.62597656 43.4628906 7.62597656"></polygon>
                <polygon id="Path-414" fill="#000000" points="50 2 50 8.62597656 52.0297852 8.62597656"></polygon>
            </g>
            <g id="handrails" transform="translate(55.500000, 57.000000) scale(-1, 1) translate(-55.500000, -57.000000) translate(13.000000, 50.000000)">
                <path d="M0.125,1.14453124 C0.125,1.14453124 56.2822493,0.0341715331 66.8964844,1.14453126 C77.5107195,2.25489098 80.9775391,4.05468728 84.0732422,6.99999989 C87.1689453,9.9453125 79.0229492,13.4409181 79.0229492,13.4409181 L25.1835937,5.28027344 L0.125,1.14453124 Z" id="Path-402" stroke="#000000"></path>
                <polygon id="Path-414" fill="#000000" points="49.5668945 0.0888671875 49.5668945 8.75727182 51.5966797 8.75727182"></polygon>
                <polygon id="Path-414" fill="#000000" points="31.7006836 0 31.7006836 8.66840464 33.7304688 8.66840464"></polygon>
                <polygon id="Path-414" fill="#000000" points="23.1337891 0 23.1337891 8.66840464 25.1635742 8.66840464"></polygon>
                <polygon id="Path-414" fill="#000000" points="41.1337891 0 41.1337891 8.66840464 43.1635742 8.66840464"></polygon>
                <polygon id="Path-414" fill="#000000" points="58 0 58 8.66840464 60.0297852 8.66840464"></polygon>
                <polygon id="Path-414" fill="#000000" points="66.4331055 1 66.4331055 7.62597656 68.4628906 7.62597656"></polygon>
                <polygon id="Path-414" fill="#000000" points="75 2 75 8.62597656 77.0297852 8.62597656"></polygon>
            </g>
        </g>
        <g id="cup" transform="translate(92.000000, 278.000000)" fill="#000000" stroke="#000000">
            <path d="M2.03117758,2.0837808e-09 C2.03117758,2.0837808e-09 1.84431544,1.01785914 2.38552731,1.83554692 C2.92673918,2.65323471 3.92104276,2.85529531 3.92104276,2.85529531 L3.92104276,0 L2.03117758,2.0837808e-09 Z" id="Path-95"></path>
            <path d="M0.0311775774,2.0837808e-09 C0.0311775774,2.0837808e-09 -0.155684562,1.01785914 0.385527311,1.83554692 C0.926739185,2.65323471 1.92104276,2.85529531 1.92104276,2.85529531 L1.92104276,0 L0.0311775774,2.0837808e-09 Z" id="Path-95"></path>
            <path d="M1,4.08028658 C1,4.08028658 1.32660269,4.01748703 1.82681605,3.50922752 C2.32702941,3.00096802 2.25991017,2 2.25991017,2 L2.25991017,4.08028658 L1,4.08028658 Z" id="Path-97"></path>
            <path d="M2,4.08028658 C2,4.08028658 2.32660269,4.01748703 2.82681605,3.50922752 C3.32702941,3.00096802 3.25991017,2 3.25991017,2 L3.25991017,4.08028658 L2,4.08028658 Z" id="Path-97"></path>
        </g>
        <g id="cup" transform="translate(97.000000, 278.000000)" fill="#000000" stroke="#000000">
            <path d="M2.03117758,2.0837808e-09 C2.03117758,2.0837808e-09 1.84431544,1.01785914 2.38552731,1.83554692 C2.92673918,2.65323471 3.92104276,2.85529531 3.92104276,2.85529531 L3.92104276,0 L2.03117758,2.0837808e-09 Z" id="Path-95"></path>
            <path d="M0.0311775774,2.0837808e-09 C0.0311775774,2.0837808e-09 -0.155684562,1.01785914 0.385527311,1.83554692 C0.926739185,2.65323471 1.92104276,2.85529531 1.92104276,2.85529531 L1.92104276,0 L0.0311775774,2.0837808e-09 Z" id="Path-95"></path>
            <path d="M1,4.08028658 C1,4.08028658 1.32660269,4.01748703 1.82681605,3.50922752 C2.32702941,3.00096802 2.25991017,2 2.25991017,2 L2.25991017,4.08028658 L1,4.08028658 Z" id="Path-97"></path>
            <path d="M2,4.08028658 C2,4.08028658 2.32660269,4.01748703 2.82681605,3.50922752 C3.32702941,3.00096802 3.25991017,2 3.25991017,2 L3.25991017,4.08028658 L2,4.08028658 Z" id="Path-97"></path>
        </g>
        <g id="cup" transform="translate(102.000000, 278.000000)" fill="#000000" stroke="#000000">
            <path d="M2.03117758,2.0837808e-09 C2.03117758,2.0837808e-09 1.84431544,1.01785914 2.38552731,1.83554692 C2.92673918,2.65323471 3.92104276,2.85529531 3.92104276,2.85529531 L3.92104276,0 L2.03117758,2.0837808e-09 Z" id="Path-95"></path>
            <path d="M0.0311775774,2.0837808e-09 C0.0311775774,2.0837808e-09 -0.155684562,1.01785914 0.385527311,1.83554692 C0.926739185,2.65323471 1.92104276,2.85529531 1.92104276,2.85529531 L1.92104276,0 L0.0311775774,2.0837808e-09 Z" id="Path-95"></path>
            <path d="M1,4.08028658 C1,4.08028658 1.32660269,4.01748703 1.82681605,3.50922752 C2.32702941,3.00096802 2.25991017,2 2.25991017,2 L2.25991017,4.08028658 L1,4.08028658 Z" id="Path-97"></path>
            <path d="M2,4.08028658 C2,4.08028658 2.32660269,4.01748703 2.82681605,3.50922752 C3.32702941,3.00096802 3.25991017,2 3.25991017,2 L3.25991017,4.08028658 L2,4.08028658 Z" id="Path-97"></path>
        </g>
        <g id="cup" transform="translate(107.000000, 278.000000)" fill="#000000" stroke="#000000">
            <path d="M2.03117758,2.0837808e-09 C2.03117758,2.0837808e-09 1.84431544,1.01785914 2.38552731,1.83554692 C2.92673918,2.65323471 3.92104276,2.85529531 3.92104276,2.85529531 L3.92104276,0 L2.03117758,2.0837808e-09 Z" id="Path-95"></path>
            <path d="M0.0311775774,2.0837808e-09 C0.0311775774,2.0837808e-09 -0.155684562,1.01785914 0.385527311,1.83554692 C0.926739185,2.65323471 1.92104276,2.85529531 1.92104276,2.85529531 L1.92104276,0 L0.0311775774,2.0837808e-09 Z" id="Path-95"></path>
            <path d="M1,4.08028658 C1,4.08028658 1.32660269,4.01748703 1.82681605,3.50922752 C2.32702941,3.00096802 2.25991017,2 2.25991017,2 L2.25991017,4.08028658 L1,4.08028658 Z" id="Path-97"></path>
            <path d="M2,4.08028658 C2,4.08028658 2.32660269,4.01748703 2.82681605,3.50922752 C3.32702941,3.00096802 3.25991017,2 3.25991017,2 L3.25991017,4.08028658 L2,4.08028658 Z" id="Path-97"></path>
        </g>
    </g>
</svg>