<?xml version="1.0" encoding="UTF-8"?>
<svg width="360px" height="640px" viewBox="0 0 360 640" version="1.1" xmlns="http://www.w3.org/2000/svg" xmlns:xlink="http://www.w3.org/1999/xlink">
    <!-- Generator: Sketch 52.3 (67297) - http://www.bohemiancoding.com/sketch -->
    <title>4 Wands</title>
    <desc>Created with Sketch.</desc>
    <defs>
        <rect id="path-1" x="0" y="0" width="319" height="129"></rect>
    </defs>
    <g id="4-Wands" stroke="none" stroke-width="1" fill="none" fill-rule="evenodd">
        <rect id="Rectangle-9" stroke="#000000" stroke-width="10" fill="#AF1E2D" x="15" y="26" width="330" height="589" rx="25"></rect>
        <path d="M18,533 L342,533" id="Line" stroke="#000000" stroke-width="10" stroke-linecap="square"></path>
        <g id="Label" transform="translate(58.000000, 40.000000)" fill="#FFFFFF" font-weight="normal" line-spacing="20">
            <text id="ACE" font-family="HighwayGothicExpanded, Highway Gothic Expanded" font-size="24" font-style="expanded">
                <tspan x="0.5" y="547.830952">PERFECTED WORK</tspan>
            </text>
            <text id="WANDS" font-family="HighwayGothicCondensed, Highway Gothic Condensed" font-size="14.3661972" font-style="condensed">
                <tspan x="108.026056" y="12.6785714">WANDS</tspan>
            </text>
            <text id="2" font-family="HighwayGothicExpanded, Highway Gothic Expanded" font-size="34.4788732" font-style="expanded">
                <tspan x="107.759259" y="62.0535714">4</tspan>
            </text>
        </g>
        <g id="rainbow" transform="translate(29.000000, 160.000000)">
            <mask id="mask-2" fill="white">
                <use xlink:href="#path-1"></use>
            </mask>
            <g id="Mask"></g>
            <circle id="Oval-135" stroke="#000000" stroke-width="8" mask="url(#mask-2)" cx="151.5" cy="225.5" r="137.5"></circle>
            <circle id="Oval-135" stroke="#000000" stroke-width="8" mask="url(#mask-2)" cx="152.5" cy="217.5" r="146.5"></circle>
            <circle id="Oval-135" stroke="#000000" stroke-width="8" mask="url(#mask-2)" cx="153" cy="209" r="155"></circle>
            <circle id="Oval-135" stroke="#000000" stroke-width="8" mask="url(#mask-2)" cx="153" cy="203" r="166"></circle>
        </g>
        <g id="Group" transform="translate(27.000000, 116.000000)" fill="#000000">
            <path d="M304.566071,18.600302 L281.113516,0 L252,26.6873898 L268.174176,42.0528567 L255.234835,81.679587 L271.813365,86.5318397 L256.852253,120.497609 L271.813365,142.332746 L261.704505,170.637553 L271.813365,226.438459 L256.852253,264.447772 L271.813365,282.239365 L271.813365,308.118046 L294.052857,291.135162 C294.052857,291.135162 296.272372,262.769316 294.052857,249.082305 C293.037537,242.821166 284.348351,206.22074 284.348351,206.22074 L310.227032,170.637553 L284.348351,147.184998 L298.905109,109.984394 L284.348351,70.3576641 L294.052857,46.0964006 L304.566071,18.600302 Z" id="Path-115" transform="translate(281.113516, 157.000000) scale(-1, 1) translate(-281.113516, -157.000000) "></path>
            <path d="M52.5660709,23.600302 L29.1135162,5 L0,31.6873898 L16.1741756,47.0528567 L3.23483513,86.679587 L19.8133652,91.5318397 L4.85225269,125.497609 L19.8133652,147.332746 L9.70450539,175.637553 L19.8133652,231.438459 L4.85225269,269.447772 L19.8133652,287.239365 L19.8133652,313.118046 L42.0528567,296.135162 C42.0528567,296.135162 44.272372,267.769316 42.0528567,254.082305 C41.0375368,247.821166 32.3483513,211.22074 32.3483513,211.22074 L58.2270323,175.637553 L32.3483513,152.184998 L46.9051094,114.984394 L32.3483513,75.3576641 L42.0528567,51.0964006 L52.5660709,23.600302 Z" id="Path-115"></path>
            <path d="M88.6944444,165.861111 L75,155 L58,170.583333 L67.4444444,179.555556 L59.8888889,202.694444 L69.5694444,205.527778 L60.8333333,225.361111 L69.5694444,238.111111 L63.6666667,254.638889 L69.5694444,287.222222 L60.8333333,309.416667 L69.5694444,319.805556 L69.5694444,334.916667 L82.5555556,325 C82.5555556,325 83.8515776,308.436581 82.5555556,300.444444 C81.9626887,296.788432 76.8888889,275.416667 76.8888889,275.416667 L92,254.638889 L76.8888889,240.944444 L85.3888889,219.222222 L76.8888889,196.083333 L82.5555556,181.916667 L88.6944444,165.861111 Z" id="Path-115"></path>
            <path d="M265.694444,165.861111 L252,155 L235,170.583333 L244.444444,179.555556 L236.888889,202.694444 L246.569444,205.527778 L237.833333,225.361111 L246.569444,238.111111 L240.666667,254.638889 L246.569444,287.222222 L237.833333,309.416667 L246.569444,319.805556 L246.569444,334.916667 L259.555556,325 C259.555556,325 260.851578,308.436581 259.555556,300.444444 C258.962689,296.788432 253.888889,275.416667 253.888889,275.416667 L269,254.638889 L253.888889,240.944444 L262.388889,219.222222 L253.888889,196.083333 L259.555556,181.916667 L265.694444,165.861111 Z" id="Path-115"></path>
        </g>
        <g id="bathroom-woman" transform="translate(137.000000, 332.120484)" fill="#000000">
            <rect id="Rectangle-15" x="29.0686894" y="31.4059967" width="35.3248813" height="28.3990396"></rect>
            <rect id="Rectangle-15" x="19.7577653" y="30.950203" width="54.1483533" height="18.3758491" rx="9.18792456"></rect>
            <path d="M29.0686894,95.9615836 C29.0686894,92.4153177 31.9514505,89.5405012 35.4913951,89.5405012 L35.4913951,89.5405012 C39.0385575,89.5405012 41.9141008,92.4154551 41.9141008,95.9615836 L41.9141008,136.242328 C41.9141008,139.788594 39.0313398,142.66341 35.4913951,142.66341 L35.4913951,142.66341 C31.9442327,142.66341 29.0686894,139.788457 29.0686894,136.242328 L29.0686894,95.9615836 Z" id="Rectangle-15"></path>
            <rect id="Rectangle-15" x="51.5481594" y="89.5405012" width="12.8454114" height="53.1229093" rx="6.4227057"></rect>
            <rect id="Rectangle-15" transform="translate(17.115543, 28.958584) scale(-1, 1) rotate(-325.000000) translate(-17.115543, -28.958584) " x="10.6928376" y="9.02624009" width="12.8454114" height="39.864687" rx="6.4227057"></rect>
            <rect id="Rectangle-15" transform="translate(74.693895, 30.958584) rotate(-325.000000) translate(-74.693895, -30.958584) " x="68.2711893" y="11.0262401" width="12.8454114" height="39.864687" rx="6.4227057"></rect>
            <polygon id="Path-42" points="23.0625917 109.240489 48.0614233 109.240489 48.0614233 39.1600482 30.0754919 53.4939663"></polygon>
            <polygon id="Path-42" points="45.8545176 109.280427 70.8533492 109.280427 70.8533492 39.1999861 52.8674178 53.5339043"></polygon>
        </g>
        <g id="hand" transform="translate(161.000000, 300.000000)">
            <rect id="Rectangle-156" fill="#000000" x="10.1562092" y="13.209575" width="6.46606091" height="33.9674787" rx="3.23303045"></rect>
            <rect id="Rectangle-156" fill="#000000" transform="translate(11.710473, 46.147900) scale(-1, 1) rotate(-325.000000) translate(-11.710473, -46.147900) " x="7.42812056" y="32.3267604" width="8.56470588" height="27.6422793" rx="4.28235294"></rect>
            <rect id="Rectangle-160" fill="#000000" x="10.1562092" y="33.1543385" width="28.6371898" height="27.9871232" rx="13.9935616"></rect>
            <rect id="Rectangle-156" fill="#000000" x="32.327338" y="13.209575" width="6.46606091" height="33.9674787" rx="3.23303045"></rect>
            <rect id="Rectangle-156" fill="#000000" x="17.5465854" y="0" width="6.46606091" height="47.1770537" rx="3.23303045"></rect>
            <rect id="Rectangle-156" fill="#000000" x="24.9369617" y="0" width="6.46606091" height="47.1770537" rx="3.23303045"></rect>
            <g id="eye" transform="translate(14.973856, 39.925574)" stroke="#000000">
                <ellipse id="Oval-80" fill="#AF1E2D" cx="8.83209157" cy="6.57377246" rx="8.83209157" ry="4.57377246"></ellipse>
                <ellipse id="Oval-81" stroke-width="3" fill="#FFFFFF" cx="9.57745098" cy="3.36724726" rx="2.40882353" ry="2.62034836"></ellipse>
            </g>
        </g>
    </g>
</svg>