<?xml version="1.0" encoding="UTF-8"?>
<svg width="360px" height="640px" viewBox="0 0 360 640" version="1.1" xmlns="http://www.w3.org/2000/svg" xmlns:xlink="http://www.w3.org/1999/xlink">
    <!-- Generator: Sketch 52.3 (67297) - http://www.bohemiancoding.com/sketch -->
    <title>5 Cups</title>
    <desc>Created with Sketch.</desc>
    <g id="5-Cups" stroke="none" stroke-width="1" fill="none" fill-rule="evenodd">
        <rect id="Rectangle-9" stroke="#000000" stroke-width="10" fill="#AF1E2D" x="15" y="26" width="330" height="589" rx="25"></rect>
        <g id="man" transform="translate(127.000000, 215.578007)" fill="#000000">
            <rect id="Rectangle-15" x="24.6885265" y="44.3302108" width="55.3523588" height="98.1850117"></rect>
            <ellipse id="Oval-7" cx="52.6163075" cy="21.3992974" rx="21.3861386" ry="21.3992974"></ellipse>
            <path d="M72.4920488,22.2856483 C68.7619848,18.5508839 62.7003442,18.5548019 58.9705282,22.2893179 C55.2333948,26.0311606 55.2303432,32.0884311 58.9668632,35.8296596 L85.0450811,61.9407396 C88.7751451,65.675504 94.8367857,65.671586 98.5666017,61.93707 C102.303735,58.1952273 102.306787,52.1379568 98.5702667,48.3967283 L72.4920488,22.2856483 Z" id="Rectangle-15" stroke="#AF1E2D"></path>
            <path d="M30.0035211,22.2856483 L3.92530321,48.3967283 C0.188783197,52.1379568 0.191834873,58.1952273 3.92896824,61.93707 C7.65878421,65.671586 13.7204249,65.675504 17.4504889,61.9407396 L43.5287068,35.8296596 C47.2652268,32.0884311 47.2621751,26.0311606 43.5250417,22.2893179 C39.7952258,18.5548019 33.7335851,18.5508839 30.0035211,22.2856483 Z" id="Rectangle-15" stroke="#AF1E2D"></path>
            <rect id="Rectangle-15" x="1.54117647" y="44.3302108" width="101.143856" height="27.6932084" rx="13.8466042"></rect>
            <rect id="Rectangle-15" x="24.6885265" y="131.941452" width="20.1281305" height="80.058548" rx="10.0640652"></rect>
            <rect id="Rectangle-15" x="59.9127548" y="131.941452" width="20.1281305" height="80.058548" rx="10.0640652"></rect>
        </g>
        <g id="cup" transform="translate(230.000000, 382.000000)" fill="#000000" stroke="#000000">
            <path d="M17.0134265,1.85922934e-08 C17.0134265,1.85922934e-08 15.3461707,9.08173055 20.1750711,16.3774553 C25.0039714,23.67318 33.8755302,25.4760425 33.8755302,25.4760425 L33.8755302,0 L17.0134265,1.85922934e-08 Z" id="Path-95" transform="translate(25.305389, 12.738021) scale(-1, 1) translate(-25.305389, -12.738021) "></path>
            <path d="M0.278178331,1.85922934e-08 C0.278178331,1.85922934e-08 -1.38907751,9.08173055 3.43982288,16.3774553 C8.26872328,23.67318 17.140282,25.4760425 17.140282,25.4760425 L17.140282,0 L0.278178331,1.85922934e-08 Z" id="Path-95"></path>
            <path d="M5.73779937,38.3205837 C5.73779937,38.3205837 8.6518741,37.7602619 13.11497,33.2253752 C17.5780659,28.6904885 16.9792022,19.7594671 16.9792022,19.7594671 L16.9792022,38.3205837 L5.73779937,38.3205837 Z" id="Path-97"></path>
            <path d="M16.7352482,38.3205837 C16.7352482,38.3205837 19.6493229,37.7602619 24.1124188,33.2253752 C28.5755147,28.6904885 27.976651,19.7594671 27.976651,19.7594671 L27.976651,38.3205837 L16.7352482,38.3205837 Z" id="Path-97" transform="translate(22.369354, 29.040025) scale(-1, 1) translate(-22.369354, -29.040025) "></path>
        </g>
        <g id="cup" transform="translate(119.289004, 391.974323) scale(-1, 1) rotate(-270.000000) translate(-119.289004, -391.974323) translate(102.314680, 372.685320)" fill="#000000" stroke="#000000">
            <path d="M17.0134265,1.85922934e-08 C17.0134265,1.85922934e-08 15.3461707,9.08173055 20.1750711,16.3774553 C25.0039714,23.67318 33.8755302,25.4760425 33.8755302,25.4760425 L33.8755302,0 L17.0134265,1.85922934e-08 Z" id="Path-95" transform="translate(25.305389, 12.738021) scale(-1, 1) translate(-25.305389, -12.738021) "></path>
            <path d="M0.278178331,1.85922934e-08 C0.278178331,1.85922934e-08 -1.38907751,9.08173055 3.43982288,16.3774553 C8.26872328,23.67318 17.140282,25.4760425 17.140282,25.4760425 L17.140282,0 L0.278178331,1.85922934e-08 Z" id="Path-95"></path>
            <path d="M5.73779937,38.3205837 C5.73779937,38.3205837 8.6518741,37.7602619 13.11497,33.2253752 C17.5780659,28.6904885 16.9792022,19.7594671 16.9792022,19.7594671 L16.9792022,38.3205837 L5.73779937,38.3205837 Z" id="Path-97"></path>
            <path d="M16.7352482,38.3205837 C16.7352482,38.3205837 19.6493229,37.7602619 24.1124188,33.2253752 C28.5755147,28.6904885 27.976651,19.7594671 27.976651,19.7594671 L27.976651,38.3205837 L16.7352482,38.3205837 Z" id="Path-97" transform="translate(22.369354, 29.040025) scale(-1, 1) translate(-22.369354, -29.040025) "></path>
        </g>
        <g id="cup" transform="translate(91.289004, 420.974323) scale(-1, 1) rotate(-270.000000) translate(-91.289004, -420.974323) translate(74.314680, 401.685320)" fill="#000000" stroke="#000000">
            <path d="M17.0134265,1.85922934e-08 C17.0134265,1.85922934e-08 15.3461707,9.08173055 20.1750711,16.3774553 C25.0039714,23.67318 33.8755302,25.4760425 33.8755302,25.4760425 L33.8755302,0 L17.0134265,1.85922934e-08 Z" id="Path-95" transform="translate(25.305389, 12.738021) scale(-1, 1) translate(-25.305389, -12.738021) "></path>
            <path d="M0.278178331,1.85922934e-08 C0.278178331,1.85922934e-08 -1.38907751,9.08173055 3.43982288,16.3774553 C8.26872328,23.67318 17.140282,25.4760425 17.140282,25.4760425 L17.140282,0 L0.278178331,1.85922934e-08 Z" id="Path-95"></path>
            <path d="M5.73779937,38.3205837 C5.73779937,38.3205837 8.6518741,37.7602619 13.11497,33.2253752 C17.5780659,28.6904885 16.9792022,19.7594671 16.9792022,19.7594671 L16.9792022,38.3205837 L5.73779937,38.3205837 Z" id="Path-97"></path>
            <path d="M16.7352482,38.3205837 C16.7352482,38.3205837 19.6493229,37.7602619 24.1124188,33.2253752 C28.5755147,28.6904885 27.976651,19.7594671 27.976651,19.7594671 L27.976651,38.3205837 L16.7352482,38.3205837 Z" id="Path-97" transform="translate(22.369354, 29.040025) scale(-1, 1) translate(-22.369354, -29.040025) "></path>
        </g>
        <g id="cup" transform="translate(119.289004, 454.974323) scale(-1, 1) rotate(-270.000000) translate(-119.289004, -454.974323) translate(102.314680, 435.685320)" fill="#000000" stroke="#000000">
            <path d="M17.0134265,1.85922934e-08 C17.0134265,1.85922934e-08 15.3461707,9.08173055 20.1750711,16.3774553 C25.0039714,23.67318 33.8755302,25.4760425 33.8755302,25.4760425 L33.8755302,0 L17.0134265,1.85922934e-08 Z" id="Path-95" transform="translate(25.305389, 12.738021) scale(-1, 1) translate(-25.305389, -12.738021) "></path>
            <path d="M0.278178331,1.85922934e-08 C0.278178331,1.85922934e-08 -1.38907751,9.08173055 3.43982288,16.3774553 C8.26872328,23.67318 17.140282,25.4760425 17.140282,25.4760425 L17.140282,0 L0.278178331,1.85922934e-08 Z" id="Path-95"></path>
            <path d="M5.73779937,38.3205837 C5.73779937,38.3205837 8.6518741,37.7602619 13.11497,33.2253752 C17.5780659,28.6904885 16.9792022,19.7594671 16.9792022,19.7594671 L16.9792022,38.3205837 L5.73779937,38.3205837 Z" id="Path-97"></path>
            <path d="M16.7352482,38.3205837 C16.7352482,38.3205837 19.6493229,37.7602619 24.1124188,33.2253752 C28.5755147,28.6904885 27.976651,19.7594671 27.976651,19.7594671 L27.976651,38.3205837 L16.7352482,38.3205837 Z" id="Path-97" transform="translate(22.369354, 29.040025) scale(-1, 1) translate(-22.369354, -29.040025) "></path>
        </g>
        <g id="cup" transform="translate(213.000000, 433.000000)" fill="#000000" stroke="#000000">
            <path d="M17.0134265,1.85922934e-08 C17.0134265,1.85922934e-08 15.3461707,9.08173055 20.1750711,16.3774553 C25.0039714,23.67318 33.8755302,25.4760425 33.8755302,25.4760425 L33.8755302,0 L17.0134265,1.85922934e-08 Z" id="Path-95" transform="translate(25.305389, 12.738021) scale(-1, 1) translate(-25.305389, -12.738021) "></path>
            <path d="M0.278178331,1.85922934e-08 C0.278178331,1.85922934e-08 -1.38907751,9.08173055 3.43982288,16.3774553 C8.26872328,23.67318 17.140282,25.4760425 17.140282,25.4760425 L17.140282,0 L0.278178331,1.85922934e-08 Z" id="Path-95"></path>
            <path d="M5.73779937,38.3205837 C5.73779937,38.3205837 8.6518741,37.7602619 13.11497,33.2253752 C17.5780659,28.6904885 16.9792022,19.7594671 16.9792022,19.7594671 L16.9792022,38.3205837 L5.73779937,38.3205837 Z" id="Path-97"></path>
            <path d="M16.7352482,38.3205837 C16.7352482,38.3205837 19.6493229,37.7602619 24.1124188,33.2253752 C28.5755147,28.6904885 27.976651,19.7594671 27.976651,19.7594671 L27.976651,38.3205837 L16.7352482,38.3205837 Z" id="Path-97" transform="translate(22.369354, 29.040025) scale(-1, 1) translate(-22.369354, -29.040025) "></path>
        </g>
        <path d="M18,533 L342,533" id="Line" stroke="#000000" stroke-width="10" stroke-linecap="square"></path>
        <g id="Label" transform="translate(60.000000, 40.000000)" fill="#FFFFFF" font-weight="normal" line-spacing="20">
            <text id="ACE" font-family="HighwayGothicExpanded, Highway Gothic Expanded" font-size="24" font-style="expanded">
                <tspan x="0" y="547.830952">DISAPPOINTMENT</tspan>
            </text>
            <text id="CUPS" font-family="HighwayGothicCondensed, Highway Gothic Condensed" font-size="14.3661972" font-style="condensed">
                <tspan x="109.438028" y="12.6785714">CUPS</tspan>
            </text>
            <text id="2" font-family="HighwayGothicExpanded, Highway Gothic Expanded" font-size="34.4788732" font-style="expanded">
                <tspan x="106.759259" y="62.0535714">5</tspan>
            </text>
        </g>
    </g>
</svg>