<?xml version="1.0" encoding="UTF-8"?>
<svg width="360px" height="640px" viewBox="0 0 360 640" version="1.1" xmlns="http://www.w3.org/2000/svg" xmlns:xlink="http://www.w3.org/1999/xlink">
    <!-- Generator: Sketch 52.3 (67297) - http://www.bohemiancoding.com/sketch -->
    <title>5 Wands</title>
    <desc>Created with Sketch.</desc>
    <g id="5-Wands" stroke="none" stroke-width="1" fill="none" fill-rule="evenodd">
        <rect id="Rectangle-9" stroke="#000000" stroke-width="10" fill="#AF1E2D" x="15" y="26" width="330" height="589" rx="25"></rect>
        <path d="M18,533 L342,533" id="Line" stroke="#000000" stroke-width="10" stroke-linecap="square"></path>
        <g id="Label" transform="translate(132.000000, 40.000000)" fill="#FFFFFF" font-weight="normal" line-spacing="20">
            <text id="ACE" font-family="HighwayGothicExpanded, Highway Gothic Expanded" font-size="24" font-style="expanded">
                <tspan x="0" y="547.830952">STRIFE</tspan>
            </text>
            <text id="WANDS" font-family="HighwayGothicCondensed, Highway Gothic Condensed" font-size="14.3661972" font-style="condensed">
                <tspan x="34.0260563" y="12.6785714">WANDS</tspan>
            </text>
            <text id="2" font-family="HighwayGothicExpanded, Highway Gothic Expanded" font-size="34.4788732" font-style="expanded">
                <tspan x="34.7592593" y="62.0535714">5</tspan>
            </text>
        </g>
        <circle id="Oval-249" stroke="#000000" stroke-width="13" cx="179.5" cy="320.5" r="119.5"></circle>
        <g id="Group" transform="translate(81.000000, 220.000000)" fill="#000000">
            <path d="M80.902293,3.98674608 L72.8467374,-8.32221663 L62.8467374,9.338469 L68.402293,19.5067425 L63.9578485,45.7301848 L69.652293,48.9412186 L64.5134041,71.4184548 L69.652293,85.8681067 L66.1800707,104.599137 L69.652293,141.526025 L64.5134041,166.679123 L69.652293,178.452913 L69.652293,195.578426 L77.2911818,184.339808 C77.2911818,184.339808 78.0535478,165.568385 77.2911818,156.510849 C76.9424367,152.367469 73.9578485,128.146718 73.9578485,128.146718 L82.8467374,104.599137 L73.9578485,89.0791405 L78.9578485,64.461215 L73.9578485,38.2377727 L77.2911818,22.182604 L80.902293,3.98674608 Z" id="Path-115" transform="translate(72.846737, 93.628105) scale(-1, -1) rotate(-330.000000) translate(-72.846737, -93.628105) "></path>
            <path d="M137.902293,3.98674608 L129.846737,-8.32221663 L119.846737,9.338469 L125.402293,19.5067425 L120.957849,45.7301848 L126.652293,48.9412186 L121.513404,71.4184548 L126.652293,85.8681067 L123.180071,104.599137 L126.652293,141.526025 L121.513404,166.679123 L126.652293,178.452913 L126.652293,195.578426 L134.291182,184.339808 C134.291182,184.339808 135.053548,165.568385 134.291182,156.510849 C133.942437,152.367469 130.957849,128.146718 130.957849,128.146718 L139.846737,104.599137 L130.957849,89.0791405 L135.957849,64.461215 L130.957849,38.2377727 L134.291182,22.182604 L137.902293,3.98674608 Z" id="Path-115" transform="translate(129.846737, 93.628105) scale(-1, 1) rotate(-330.000000) translate(-129.846737, -93.628105) "></path>
            <path d="M102.268282,45.1915741 L94.2127261,32.8826114 L84.2127261,50.543297 L89.7682817,60.7115706 L85.3238372,86.9350129 L91.0182817,90.1460466 L85.8793928,112.623283 L91.0182817,127.072935 L87.5460595,145.803965 L91.0182817,182.730853 L85.8793928,207.883951 L91.0182817,219.657741 L91.0182817,236.783255 L98.6571706,225.544636 C98.6571706,225.544636 99.4195365,206.773213 98.6571706,197.715677 C98.3084254,193.572297 95.3238372,169.351546 95.3238372,169.351546 L104.212726,145.803965 L95.3238372,130.283968 L100.323837,105.666043 L95.3238372,79.4426008 L98.6571706,63.387432 L102.268282,45.1915741 Z" id="Path-115" transform="translate(94.212726, 134.832933) scale(-1, 1) rotate(-300.000000) translate(-94.212726, -134.832933) "></path>
            <path d="M116.338312,44.9916125 L108.282757,32.6826498 L98.2827569,50.3433354 L103.838312,60.511609 L99.393868,86.7350513 L105.088312,89.946085 L99.9494236,112.423321 L105.088312,126.872973 L101.61609,145.604003 L105.088312,182.530891 L99.9494236,207.683989 L105.088312,219.45778 L105.088312,236.583293 L112.727201,225.344675 C112.727201,225.344675 113.489567,206.573252 112.727201,197.515716 C112.378456,193.372335 109.393868,169.151584 109.393868,169.151584 L118.282757,145.604003 L109.393868,130.084007 L114.393868,105.466081 L109.393868,79.2426392 L112.727201,63.1874704 L116.338312,44.9916125 Z" id="Path-115" transform="translate(108.282757, 134.632971) rotate(-300.000000) translate(-108.282757, -134.632971) "></path>
            <path d="M104.428522,-17.2057232 L96.3729667,-29.5146859 L86.3729667,-11.8540003 L91.9285223,-1.68572676 L87.4840778,24.5377155 L93.1785223,27.7487493 L88.0396334,50.2259855 L93.1785223,64.6756374 L89.7063001,83.4066676 L93.1785223,120.333556 L88.0396334,145.486653 L93.1785223,157.260444 L93.1785223,174.385957 L100.817411,163.147339 C100.817411,163.147339 101.579777,144.375916 100.817411,135.31838 C100.468666,131.174999 97.4840778,106.954248 97.4840778,106.954248 L106.372967,83.4066676 L97.4840778,67.8866712 L102.484078,43.2687457 L97.4840778,17.0453034 L100.817411,0.9901347 L104.428522,-17.2057232 Z" id="Path-115" transform="translate(96.372967, 72.435636) rotate(-270.000000) translate(-96.372967, -72.435636) "></path>
        </g>
    </g>
</svg>