<?xml version="1.0" encoding="UTF-8"?>
<svg width="360px" height="640px" viewBox="0 0 360 640" version="1.1" xmlns="http://www.w3.org/2000/svg" xmlns:xlink="http://www.w3.org/1999/xlink">
    <!-- Generator: Sketch 52.3 (67297) - http://www.bohemiancoding.com/sketch -->
    <title>6 Cups</title>
    <desc>Created with Sketch.</desc>
    <defs>
        <rect id="path-1" x="3.64285714" y="117.680921" width="33.5142857" height="54.7697368"></rect>
    </defs>
    <g id="6-Cups" stroke="none" stroke-width="1" fill="none" fill-rule="evenodd">
        <rect id="Rectangle-9" stroke="#000000" stroke-width="10" fill="#DD7500" x="15" y="26" width="330" height="589" rx="25"></rect>
        <path d="M18,533 L342,533" id="Line" stroke="#000000" stroke-width="10" stroke-linecap="square"></path>
        <g id="Label" transform="translate(107.000000, 40.000000)" fill="#000000" font-weight="normal" line-spacing="20">
            <text id="ACE" font-family="HighwayGothicExpanded, Highway Gothic Expanded" font-size="24" font-style="expanded">
                <tspan x="0" y="547.830952">PLEASURE</tspan>
            </text>
            <text id="CUPS" font-family="HighwayGothicCondensed, Highway Gothic Condensed" font-size="14.3661972" font-style="condensed">
                <tspan x="62.4380282" y="12.6785714">CUPS</tspan>
            </text>
            <text id="2" font-family="HighwayGothicExpanded, Highway Gothic Expanded" font-size="34.4788732" font-style="expanded">
                <tspan x="59.7592593" y="62.0535714">6</tspan>
            </text>
        </g>
        <g id="Group-3" transform="translate(205.000000, 283.000000)" fill="#000000" stroke="#000000">
            <g id="cup" transform="translate(29.176136, 46.335766)">
                <path d="M24.2603049,2.20662743e-08 C24.2603049,2.20662743e-08 21.8828805,10.7786572 28.7686537,19.4375924 C35.6544269,28.0965277 48.304831,30.236256 48.304831,30.236256 L48.304831,0 L24.2603049,2.20662743e-08 Z" id="Path-95" transform="translate(36.084234, 15.118128) scale(-1, 1) translate(-36.084234, -15.118128) "></path>
                <path d="M0.396668545,2.20662743e-08 C0.396668545,2.20662743e-08 -1.98075585,10.7786572 4.90501734,19.4375924 C11.7907905,28.0965277 24.4411946,30.236256 24.4411946,30.236256 L24.4411946,0 L0.396668545,2.20662743e-08 Z" id="Path-95"></path>
                <path d="M8.18181818,45.4808073 C8.18181818,45.4808073 12.3371446,44.8157891 18.7012987,39.4335561 C25.0654528,34.0513232 24.2115028,23.4515351 24.2115028,23.4515351 L24.2115028,45.4808073 L8.18181818,45.4808073 Z" id="Path-97"></path>
                <path d="M23.8636364,45.4808073 C23.8636364,45.4808073 28.0189628,44.8157891 34.3831169,39.4335561 C40.7472709,34.0513232 39.893321,23.4515351 39.893321,23.4515351 L39.893321,45.4808073 L23.8636364,45.4808073 Z" id="Path-97" transform="translate(31.897593, 34.466171) scale(-1, 1) translate(-31.897593, -34.466171) "></path>
            </g>
            <g id="cup" transform="translate(0.130682, 0.000000)">
                <path d="M24.2603049,2.20662743e-08 C24.2603049,2.20662743e-08 21.8828805,10.7786572 28.7686537,19.4375924 C35.6544269,28.0965277 48.304831,30.236256 48.304831,30.236256 L48.304831,0 L24.2603049,2.20662743e-08 Z" id="Path-95" transform="translate(36.084234, 15.118128) scale(-1, 1) translate(-36.084234, -15.118128) "></path>
                <path d="M0.396668545,2.20662743e-08 C0.396668545,2.20662743e-08 -1.98075585,10.7786572 4.90501734,19.4375924 C11.7907905,28.0965277 24.4411946,30.236256 24.4411946,30.236256 L24.4411946,0 L0.396668545,2.20662743e-08 Z" id="Path-95"></path>
                <path d="M8.18181818,45.4808073 C8.18181818,45.4808073 12.3371446,44.8157891 18.7012987,39.4335561 C25.0654528,34.0513232 24.2115028,23.4515351 24.2115028,23.4515351 L24.2115028,45.4808073 L8.18181818,45.4808073 Z" id="Path-97"></path>
                <path d="M23.8636364,45.4808073 C23.8636364,45.4808073 28.0189628,44.8157891 34.3831169,39.4335561 C40.7472709,34.0513232 39.893321,23.4515351 39.893321,23.4515351 L39.893321,45.4808073 L23.8636364,45.4808073 Z" id="Path-97" transform="translate(31.897593, 34.466171) scale(-1, 1) translate(-31.897593, -34.466171) "></path>
            </g>
            <g id="cup" transform="translate(54.590909, 90.656934)">
                <path d="M24.2603049,2.20662743e-08 C24.2603049,2.20662743e-08 21.8828805,10.7786572 28.7686537,19.4375924 C35.6544269,28.0965277 48.304831,30.236256 48.304831,30.236256 L48.304831,0 L24.2603049,2.20662743e-08 Z" id="Path-95" transform="translate(36.084234, 15.118128) scale(-1, 1) translate(-36.084234, -15.118128) "></path>
                <path d="M0.396668545,2.20662743e-08 C0.396668545,2.20662743e-08 -1.98075585,10.7786572 4.90501734,19.4375924 C11.7907905,28.0965277 24.4411946,30.236256 24.4411946,30.236256 L24.4411946,0 L0.396668545,2.20662743e-08 Z" id="Path-95"></path>
                <path d="M8.18181818,45.4808073 C8.18181818,45.4808073 12.3371446,44.8157891 18.7012987,39.4335561 C25.0654528,34.0513232 24.2115028,23.4515351 24.2115028,23.4515351 L24.2115028,45.4808073 L8.18181818,45.4808073 Z" id="Path-97"></path>
                <path d="M23.8636364,45.4808073 C23.8636364,45.4808073 28.0189628,44.8157891 34.3831169,39.4335561 C40.7472709,34.0513232 39.893321,23.4515351 39.893321,23.4515351 L39.893321,45.4808073 L23.8636364,45.4808073 Z" id="Path-97" transform="translate(31.897593, 34.466171) scale(-1, 1) translate(-31.897593, -34.466171) "></path>
            </g>
        </g>
        <g id="Group-2" transform="translate(47.000000, 283.000000)" fill="#000000" stroke="#000000">
            <g id="cup" transform="translate(61.721591, 0.000000)">
                <path d="M24.2603049,2.20662743e-08 C24.2603049,2.20662743e-08 21.8828805,10.7786572 28.7686537,19.4375924 C35.6544269,28.0965277 48.304831,30.236256 48.304831,30.236256 L48.304831,0 L24.2603049,2.20662743e-08 Z" id="Path-95" transform="translate(36.084234, 15.118128) scale(-1, 1) translate(-36.084234, -15.118128) "></path>
                <path d="M0.396668545,2.20662743e-08 C0.396668545,2.20662743e-08 -1.98075585,10.7786572 4.90501734,19.4375924 C11.7907905,28.0965277 24.4411946,30.236256 24.4411946,30.236256 L24.4411946,0 L0.396668545,2.20662743e-08 Z" id="Path-95"></path>
                <path d="M8.18181818,45.4808073 C8.18181818,45.4808073 12.3371446,44.8157891 18.7012987,39.4335561 C25.0654528,34.0513232 24.2115028,23.4515351 24.2115028,23.4515351 L24.2115028,45.4808073 L8.18181818,45.4808073 Z" id="Path-97"></path>
                <path d="M23.8636364,45.4808073 C23.8636364,45.4808073 28.0189628,44.8157891 34.3831169,39.4335561 C40.7472709,34.0513232 39.893321,23.4515351 39.893321,23.4515351 L39.893321,45.4808073 L23.8636364,45.4808073 Z" id="Path-97" transform="translate(31.897593, 34.466171) scale(-1, 1) translate(-31.897593, -34.466171) "></path>
            </g>
            <g id="cup" transform="translate(0.000000, 91.664234)">
                <path d="M24.2603049,2.20662743e-08 C24.2603049,2.20662743e-08 21.8828805,10.7786572 28.7686537,19.4375924 C35.6544269,28.0965277 48.304831,30.236256 48.304831,30.236256 L48.304831,0 L24.2603049,2.20662743e-08 Z" id="Path-95" transform="translate(36.084234, 15.118128) scale(-1, 1) translate(-36.084234, -15.118128) "></path>
                <path d="M0.396668545,2.20662743e-08 C0.396668545,2.20662743e-08 -1.98075585,10.7786572 4.90501734,19.4375924 C11.7907905,28.0965277 24.4411946,30.236256 24.4411946,30.236256 L24.4411946,0 L0.396668545,2.20662743e-08 Z" id="Path-95"></path>
                <path d="M8.18181818,45.4808073 C8.18181818,45.4808073 12.3371446,44.8157891 18.7012987,39.4335561 C25.0654528,34.0513232 24.2115028,23.4515351 24.2115028,23.4515351 L24.2115028,45.4808073 L8.18181818,45.4808073 Z" id="Path-97"></path>
                <path d="M23.8636364,45.4808073 C23.8636364,45.4808073 28.0189628,44.8157891 34.3831169,39.4335561 C40.7472709,34.0513232 39.893321,23.4515351 39.893321,23.4515351 L39.893321,45.4808073 L23.8636364,45.4808073 Z" id="Path-97" transform="translate(31.897593, 34.466171) scale(-1, 1) translate(-31.897593, -34.466171) "></path>
            </g>
            <g id="cup" transform="translate(30.255682, 45.328467)">
                <path d="M24.2603049,2.20662743e-08 C24.2603049,2.20662743e-08 21.8828805,10.7786572 28.7686537,19.4375924 C35.6544269,28.0965277 48.304831,30.236256 48.304831,30.236256 L48.304831,0 L24.2603049,2.20662743e-08 Z" id="Path-95" transform="translate(36.084234, 15.118128) scale(-1, 1) translate(-36.084234, -15.118128) "></path>
                <path d="M0.396668545,2.20662743e-08 C0.396668545,2.20662743e-08 -1.98075585,10.7786572 4.90501734,19.4375924 C11.7907905,28.0965277 24.4411946,30.236256 24.4411946,30.236256 L24.4411946,0 L0.396668545,2.20662743e-08 Z" id="Path-95"></path>
                <path d="M8.18181818,45.4808073 C8.18181818,45.4808073 12.3371446,44.8157891 18.7012987,39.4335561 C25.0654528,34.0513232 24.2115028,23.4515351 24.2115028,23.4515351 L24.2115028,45.4808073 L8.18181818,45.4808073 Z" id="Path-97"></path>
                <path d="M23.8636364,45.4808073 C23.8636364,45.4808073 28.0189628,44.8157891 34.3831169,39.4335561 C40.7472709,34.0513232 39.893321,23.4515351 39.893321,23.4515351 L39.893321,45.4808073 L23.8636364,45.4808073 Z" id="Path-97" transform="translate(31.897593, 34.466171) scale(-1, 1) translate(-31.897593, -34.466171) "></path>
            </g>
        </g>
        <g id="Group" transform="translate(180.500000, 308.500000) scale(1, -1) rotate(-180.000000) translate(-180.500000, -308.500000) translate(155.000000, 196.000000)">
            <g id="black" fill="#000000">
                <rect id="Rectangle-317" x="13.8428571" y="0" width="23.3142857" height="64.3914474"></rect>
                <path d="M0.0227678587,58.4703947 C0.0227678587,58.4703947 0.0227678625,58.3431846 0.0227678571,58.1350226 C-0.0281792429,57.3923316 1.96603161,52.0264813 4.09821446,49.8201069 C5.8877635,47.9682886 7.37678551,46.535773 9.83571408,45.1480263 C12.2946427,43.7602796 14.7535714,43.4827303 14.7535714,43.4827303 L17.6678571,60.8758224 L0.0227678587,58.4703947 Z" id="Triangle-60"></path>
                <path d="M33.5153346,58.5050884 C33.5153346,58.5050884 33.5153346,58.1928454 33.5153346,57.9846834 C33.4643875,57.2419924 35.2764111,52.2115142 37.4085939,50.0051398 C39.198143,48.1533215 40.687165,46.7208059 43.1460935,45.3330592 C45.6050221,43.9453125 48.0639509,43.6677632 48.0639509,43.6677632 L50.9782366,61.0608553 L33.5153346,58.5050884 Z" id="Triangle-60" transform="translate(42.246261, 52.364309) scale(-1, 1) translate(-42.246261, -52.364309) "></path>
                <path d="M1.40729452e-13,58.4703947 L51,58.4703947 L51,221.299342 C49.5499721,224.074113 37.1567265,224.814967 24.7707171,224.814967 C12.3847077,224.814967 1.27855745,222.87176 1.40729452e-13,221.299342 C-5.77617938e-08,219.078586 1.40729452e-13,58.4703947 1.40729452e-13,58.4703947 Z" id="Rectangle-317"></path>
            </g>
            <g id="white" transform="translate(2.684211, 43.636364)" fill="#DD7500">
                <rect id="Rectangle-317" x="13.3443609" y="2.25179426" width="18.2142857" height="48.1481583"></rect>
                <path d="M0.977836669,16.6905484 C0.977836669,16.6905484 0.977836672,16.570571 0.977836668,16.3742443 C0.93489554,15.6737799 2.6157304,10.6130114 4.41285594,8.53208299 C5.92119014,6.78555201 7.17622298,5.43448382 9.24874849,4.12563909 C11.321274,2.81679437 13.3897184,2.25179426 13.3897184,2.25179426 L15.8501262,18.9592126 L0.977836669,16.6905484 Z" id="Triangle-60"></path>
                <path d="M29.2072858,16.7232696 C29.2072858,16.7232696 29.2072858,16.4287795 29.2072858,16.2324528 C29.1643447,15.5319884 30.6916217,10.787524 32.4887472,8.70659562 C33.9970814,6.96006464 35.3795475,5.67791399 37.3246397,4.30015172 C39.269732,2.92238945 41.5851567,2.26335881 41.5851567,2.26335881 L43.9260175,19.1337253 L29.2072858,16.7232696 Z" id="Triangle-60" transform="translate(36.566210, 10.698542) scale(-1, 1) translate(-36.566210, -10.698542) "></path>
                <path d="M0.958646617,16.6905484 L43.9443609,16.6905484 L43.9443609,170.261663 C43.9443609,170.261663 32.1046647,173.592254 21.7222208,173.592254 C11.3397769,173.592254 0.958646617,170.261663 0.958646617,170.261663 L0.958646617,16.6905484 Z" id="Rectangle-317"></path>
                <path d="M1.04954017,16.5455858 C0.593827326,15.6204218 2.45426444,11.4708723 3.87293233,9.19052781 C5.29160022,6.91018332 10.0659678,3.36199163 13.2532895,2.34431071 C16.4406112,1.32662979 18.1522403,1.37145386 22.5425752,1.32662978 C26.9329101,1.28180571 28.3246088,1.45852079 31.3765038,2.15927781 C34.4283987,2.86003483 37.6549992,4.32427219 40.3015038,8.26536334 C42.9480083,12.2064545 43.8532895,14.0013835 43.8532895,16.3142943 C43.8532895,18.627205 1.50525302,17.4707499 1.04954017,16.5455858 Z" id="Path-261"></path>
            </g>
            <mask id="mask-2" fill="white">
                <use xlink:href="#path-1"></use>
            </mask>
            <g id="Mask"></g>
            <path d="M3.64285714,117.680921 C3.64285714,117.680921 14.3892857,121.196546 25.1357143,121.196546 C35.8821429,121.196546 46.6285714,117.680921 46.6285714,117.680921 L46.6285714,163.569079 C46.6285714,163.569079 35.8821429,166.529605 25.1357143,166.529605 C14.3892857,166.529605 3.64285714,163.569079 3.64285714,163.569079 L3.64285714,117.680921 Z" id="Mask" fill="#000000" mask="url(#mask-2)" transform="translate(25.135714, 142.105263) scale(-1, 1) translate(-25.135714, -142.105263) "></path>
        </g>
    </g>
</svg>