<?xml version="1.0" encoding="UTF-8"?>
<svg width="360px" height="640px" viewBox="0 0 360 640" version="1.1" xmlns="http://www.w3.org/2000/svg" xmlns:xlink="http://www.w3.org/1999/xlink">
    <!-- Generator: Sketch 52.3 (67297) - http://www.bohemiancoding.com/sketch -->
    <title>6 Wands</title>
    <desc>Created with Sketch.</desc>
    <g id="6-Wands" stroke="none" stroke-width="1" fill="none" fill-rule="evenodd">
        <rect id="Rectangle-9" stroke="#000000" stroke-width="10" fill="#FCD116" x="15" y="26" width="330" height="589" rx="25"></rect>
        <path d="M18,533 L342,533" id="Line" stroke="#000000" stroke-width="10" stroke-linecap="square"></path>
        <text id="ACE" font-family="HighwayGothicExpanded, Highway Gothic Expanded" font-size="24" font-style="expanded" font-weight="normal" line-spacing="20" fill="#000000">
            <tspan x="120.5" y="587.830952">VICTORY</tspan>
        </text>
        <g id="WANDS-+-2" transform="translate(161.000000, 40.000000)" fill="#000000" font-weight="normal" line-spacing="20">
            <text id="WANDS" font-family="HighwayGothicCondensed, Highway Gothic Condensed" font-size="14.3661972" font-style="condensed">
                <tspan x="5.02605634" y="12.6785714">WANDS</tspan>
            </text>
            <text id="2" font-family="HighwayGothicExpanded, Highway Gothic Expanded" font-size="34.4788732" font-style="expanded">
                <tspan x="5.75925926" y="62.0535714">6</tspan>
            </text>
        </g>
        <path d="M177.183223,290.069118 L183.106251,290.069118 C188.799045,303.38633 200.272886,312.486272 213.5,312.486272 C228.652682,312.486272 241.504462,300.543985 246,284 L246,314.727988 C244.110605,314.727988 242.578947,320.248064 242.578947,327.057423 C242.578947,333.866781 244.110605,339.386857 246,339.386857 L246,350.595434 L116,350.595434 L116,339.386857 C117.889395,339.386857 119.421053,333.866781 119.421053,327.057423 C119.421053,320.248064 117.889395,314.727988 116,314.727988 L116,289.113322 C121.544571,302.949008 133.248257,312.486272 146.789474,312.486272 C160.016587,312.486272 171.490429,303.38633 177.183223,290.069118 Z M181,339.386857 C182.889395,339.386857 184.421053,333.866781 184.421053,327.057423 C184.421053,320.248064 182.889395,314.727988 181,314.727988 C179.110605,314.727988 177.578947,320.248064 177.578947,327.057423 C177.578947,333.866781 179.110605,339.386857 181,339.386857 Z" id="crown" fill="#000000"></path>
        <g id="Group" transform="translate(66.000000, 194.000000)" fill="#000000">
            <path d="M18.0555556,79.3888889 L10,73 L0,82.1666667 L5.55555556,87.4444444 L1.11111111,101.055556 L6.80555556,102.722222 L1.66666667,114.388889 L6.80555556,121.888889 L3.33333333,131.611111 L6.80555556,150.777778 L1.66666667,163.833333 L6.80555556,169.944444 L6.80555556,178.833333 L14.4444444,173 C14.4444444,173 15.2068104,163.256812 14.4444444,158.555556 C14.0956993,156.40496 11.1111111,143.833333 11.1111111,143.833333 L20,131.611111 L11.1111111,123.555556 L16.1111111,110.777778 L11.1111111,97.1666667 L14.4444444,88.8333333 L18.0555556,79.3888889 Z" id="Path-115"></path>
            <path d="M226.055556,79.3888889 L218,73 L208,82.1666667 L213.555556,87.4444444 L209.111111,101.055556 L214.805556,102.722222 L209.666667,114.388889 L214.805556,121.888889 L211.333333,131.611111 L214.805556,150.777778 L209.666667,163.833333 L214.805556,169.944444 L214.805556,178.833333 L222.444444,173 C222.444444,173 223.20681,163.256812 222.444444,158.555556 C222.095699,156.40496 219.111111,143.833333 219.111111,143.833333 L228,131.611111 L219.111111,123.555556 L224.111111,110.777778 L219.111111,97.1666667 L222.444444,88.8333333 L226.055556,79.3888889 Z" id="Path-115"></path>
            <path d="M174.430262,169.808097 L166.374707,163.419208 L156.374707,172.585874 L161.930262,177.863652 L157.485818,191.474763 L163.180262,193.14143 L158.041373,204.808097 L163.180262,212.308097 L159.70804,222.030319 L163.180262,241.196985 L158.041373,254.252541 L163.180262,260.363652 L163.180262,269.252541 L170.819151,263.419208 C170.819151,263.419208 171.581517,253.67602 170.819151,248.974763 C170.470406,246.824168 167.485818,234.252541 167.485818,234.252541 L176.374707,222.030319 L167.485818,213.974763 L172.485818,201.196985 L167.485818,187.585874 L170.819151,179.252541 L174.430262,169.808097 Z" id="Path-115" transform="translate(166.374707, 217.346050) rotate(-301.000000) translate(-166.374707, -217.346050) "></path>
            <path d="M71.4302623,169.808097 L63.3747067,163.419208 L53.3747067,172.585874 L58.9302623,177.863652 L54.4858179,191.474763 L60.1802623,193.14143 L55.0413734,204.808097 L60.1802623,212.308097 L56.7080401,222.030319 L60.1802623,241.196985 L55.0413734,254.252541 L60.1802623,260.363652 L60.1802623,269.252541 L67.8191512,263.419208 C67.8191512,263.419208 68.5815171,253.67602 67.8191512,248.974763 C67.470406,246.824168 64.4858179,234.252541 64.4858179,234.252541 L73.3747067,222.030319 L64.4858179,213.974763 L69.4858179,201.196985 L64.4858179,187.585874 L67.8191512,179.252541 L71.4302623,169.808097 Z" id="Path-115" transform="translate(63.374707, 217.346050) scale(-1, 1) rotate(-301.000000) translate(-63.374707, -217.346050) "></path>
            <path d="M69.4302623,-10.8840037 L61.3747067,-17.2728926 L51.3747067,-8.10622594 L56.9302623,-2.82844816 L52.4858179,10.7826629 L58.1802623,12.4493296 L53.0413734,24.1159963 L58.1802623,31.6159963 L54.7080401,41.3382185 L58.1802623,60.5048852 L53.0413734,73.5604407 L58.1802623,79.6715518 L58.1802623,88.5604407 L65.8191512,82.7271074 C65.8191512,82.7271074 66.5815171,72.9839195 65.8191512,68.2826629 C65.470406,66.1320677 62.4858179,53.5604407 62.4858179,53.5604407 L71.3747067,41.3382185 L62.4858179,33.2826629 L67.4858179,20.5048852 L62.4858179,6.89377406 L65.8191512,-1.43955928 L69.4302623,-10.8840037 Z" id="Path-115" transform="translate(61.374707, 36.653950) rotate(-301.000000) translate(-61.374707, -36.653950) "></path>
            <path d="M178.430262,-10.8840037 L170.374707,-17.2728926 L160.374707,-8.10622594 L165.930262,-2.82844816 L161.485818,10.7826629 L167.180262,12.4493296 L162.041373,24.1159963 L167.180262,31.6159963 L163.70804,41.3382185 L167.180262,60.5048852 L162.041373,73.5604407 L167.180262,79.6715518 L167.180262,88.5604407 L174.819151,82.7271074 C174.819151,82.7271074 175.581517,72.9839195 174.819151,68.2826629 C174.470406,66.1320677 171.485818,53.5604407 171.485818,53.5604407 L180.374707,41.3382185 L171.485818,33.2826629 L176.485818,20.5048852 L171.485818,6.89377406 L174.819151,-1.43955928 L178.430262,-10.8840037 Z" id="Path-115" transform="translate(170.374707, 36.653950) scale(-1, 1) rotate(-301.000000) translate(-170.374707, -36.653950) "></path>
        </g>
    </g>
</svg>