<?xml version="1.0" encoding="UTF-8"?>
<svg width="360px" height="640px" viewBox="0 0 360 640" version="1.1" xmlns="http://www.w3.org/2000/svg" xmlns:xlink="http://www.w3.org/1999/xlink">
    <!-- Generator: Sketch 52.3 (67297) - http://www.bohemiancoding.com/sketch -->
    <title>7 Cups</title>
    <desc>Created with Sketch.</desc>
    <defs>
        <ellipse id="path-1" cx="21.7549505" cy="21.6978923" rx="21.6707921" ry="21.6978923"></ellipse>
    </defs>
    <g id="7-Cups" stroke="none" stroke-width="1" fill="none" fill-rule="evenodd">
        <rect id="Rectangle-9" stroke="#000000" stroke-width="10" fill="#DD7500" x="15" y="26" width="330" height="589" rx="25"></rect>
        <path d="M18,533 L342,533" id="Line" stroke="#000000" stroke-width="10" stroke-linecap="square"></path>
        <g id="Label" transform="translate(88.000000, 40.000000)" fill="#000000" font-weight="normal" line-spacing="20">
            <text id="CUPS" font-family="HighwayGothicCondensed, Highway Gothic Condensed" font-size="14.3661972" font-style="condensed">
                <tspan x="81.4380282" y="12.6785714">CUPS</tspan>
            </text>
            <text id="2" font-family="HighwayGothicExpanded, Highway Gothic Expanded" font-size="34.4788732" font-style="expanded">
                <tspan x="78.7592593" y="62.0535714">7</tspan>
            </text>
            <text id="ACE" font-family="HighwayGothicExpanded, Highway Gothic Expanded" font-size="24" font-style="expanded">
                <tspan x="0" y="538">ILLUSIONARY</tspan>
                <tspan x="28.56" y="558">SUCCESS</tspan>
            </text>
        </g>
        <g id="dude" transform="translate(101.000000, 215.000000)">
            <rect id="Rectangle-15" fill="#000000" x="51.4554455" y="71.9906323" width="56.0891089" height="99.5550351"></rect>
            <path d="M138.435539,40.8857291 C140.829442,36.7393676 146.139511,35.323417 150.277067,37.7122359 L150.277067,37.7122359 C154.423059,40.1059255 155.841307,45.4113233 153.449505,49.554046 L128.030772,93.5805823 C125.636869,97.7269438 120.3268,99.1428945 116.189245,96.7540755 L116.189245,96.7540755 C112.043253,94.3603859 110.625005,89.0549881 113.016807,84.9122655 L138.435539,40.8857291 L138.435539,40.8857291 Z" id="Rectangle-15" fill="#000000"></path>
            <rect id="Rectangle-15" fill="#000000" x="28" y="71.9906323" width="102.490099" height="28.0796253" rx="14.0398126"></rect>
            <rect id="Rectangle-15" fill="#000000" x="51.4554455" y="160.824356" width="20.3960396" height="81.175644" rx="10.1980198"></rect>
            <rect id="Rectangle-15" fill="#000000" x="87.1485149" y="160.824356" width="20.3960396" height="81.175644" rx="10.1980198"></rect>
            <g id="Oval-7-+-Rectangle-263" transform="translate(58.000000, 24.000000)">
                <mask id="mask-2" fill="white">
                    <use xlink:href="#path-1"></use>
                </mask>
                <use id="Mask" fill="#000000" xlink:href="#path-1"></use>
            </g>
            <path d="M19.7021682,39.5076516 C17.3082653,35.3612901 11.9981967,33.9453395 7.86064095,36.3341584 L7.86064095,36.3341584 C3.71464895,38.727848 2.29640103,44.0332458 4.68820306,48.1759685 L30.1069357,92.2025048 C32.5008386,96.3488663 37.8109072,97.764817 41.948463,95.3759981 L41.948463,95.3759981 C46.094455,92.9823085 47.5127029,87.6769106 45.1209008,83.534188 L19.7021682,39.5076516 L19.7021682,39.5076516 Z" id="Rectangle-15" fill="#000000"></path>
            <g id="infinity" transform="translate(61.000000, 0.000000)" stroke="#FFFFFF" stroke-width="4">
                <ellipse id="Oval-8" cx="9.25" cy="6" rx="9.25" ry="6"></ellipse>
                <ellipse id="Oval-8" cx="27.75" cy="6" rx="9.25" ry="6"></ellipse>
            </g>
        </g>
        <g id="impossible-triangle-+-impossible-triangle-+-impossible-triangle-+-impossible-triangle-+-impossible-triangle-+-impossible-triangle-+-impossible-triangle" transform="translate(38.000000, 140.000000)" fill="#FFFFFF">
            <g id="impossible-triangle" transform="translate(142.000000, 19.000000) scale(1, -1) translate(-142.000000, -19.000000) translate(124.000000, 0.000000)">
                <polygon id="Path-170" points="0.109846893 35.2540221 1.59610864 36.8981617 15.5982588 22.3357824 25.7674181 33.093153 28.8963902 33.093153 15.5982588 19.0475032"></polygon>
                <polygon id="Path-170" points="33.246964 37.4098428 34.8748813 35.8148168 6.87309395 35.8139456 17.3019437 25.1466127 15.7374576 23.5193365 2.13099764 37.4580852"></polygon>
                <polygon id="Path-170" points="16.7325112 19.1628036 30.7321483 33.7260542 10.1341393 33.6360165 8.56965326 35.2632927 35.4742446 35.3701938 19.7091146 19.1628036"></polygon>
                <path d="M16.765625,0.672154605 C16.765625,0.672154605 19.71875,0.617358006 19.71875,0.672154606 L19.71875,19.1877805 L16.765625,19.1877804 L16.765625,0.672154605 Z" id="Rectangle-264"></path>
                <polygon id="Rectangle-264" points="25.7957526 0.199460836 25.7957526 1.48479085 25.7026381 1.48479085 11.3037567 1.48479085 11.3037567 0.232726439"></polygon>
            </g>
            <g id="impossible-triangle-+-impossible-triangle-+-impossible-triangle" transform="translate(0.000000, 1.000000)">
                <g id="impossible-triangle" transform="translate(25.088457, 47.454483) scale(1, -1) rotate(-330.000000) translate(-25.088457, -47.454483) translate(7.088457, 28.454483)">
                    <polygon id="Path-170" points="0.109846893 35.2540221 1.59610864 36.8981617 15.5982588 22.3357824 25.7674181 33.093153 28.8963902 33.093153 15.5982588 19.0475032"></polygon>
                    <polygon id="Path-170" points="33.246964 37.4098428 34.8748813 35.8148168 6.87309395 35.8139456 17.3019437 25.1466127 15.7374576 23.5193365 2.13099764 37.4580852"></polygon>
                    <polygon id="Path-170" points="16.7325112 19.1628036 30.7321483 33.7260542 10.1341393 33.6360165 8.56965326 35.2632927 35.4742446 35.3701938 19.7091146 19.1628036"></polygon>
                    <path d="M16.765625,0.672154605 C16.765625,0.672154605 19.71875,0.617358006 19.71875,0.672154606 L19.71875,19.1877805 L16.765625,19.1877804 L16.765625,0.672154605 Z" id="Rectangle-264"></path>
                    <polygon id="Rectangle-264" points="25.7957526 0.199460836 25.7957526 1.48479085 25.7026381 1.48479085 11.3037567 1.48479085 11.3037567 0.232726439"></polygon>
                </g>
                <g id="impossible-triangle" transform="translate(63.412850, 31.010522) scale(1, -1) rotate(-340.000000) translate(-63.412850, -31.010522) translate(45.412850, 12.010522)">
                    <polygon id="Path-170" points="0.109846893 35.2540221 1.59610864 36.8981617 15.5982588 22.3357824 25.7674181 33.093153 28.8963902 33.093153 15.5982588 19.0475032"></polygon>
                    <polygon id="Path-170" points="33.246964 37.4098428 34.8748813 35.8148168 6.87309395 35.8139456 17.3019437 25.1466127 15.7374576 23.5193365 2.13099764 37.4580852"></polygon>
                    <polygon id="Path-170" points="16.7325112 19.1628036 30.7321483 33.7260542 10.1341393 33.6360165 8.56965326 35.2632927 35.4742446 35.3701938 19.7091146 19.1628036"></polygon>
                    <path d="M16.765625,0.672154605 C16.765625,0.672154605 19.71875,0.617358006 19.71875,0.672154606 L19.71875,19.1877805 L16.765625,19.1877804 L16.765625,0.672154605 Z" id="Rectangle-264"></path>
                    <polygon id="Rectangle-264" points="25.7957526 0.199460836 25.7957526 1.48479085 25.7026381 1.48479085 11.3037567 1.48479085 11.3037567 0.232726439"></polygon>
                </g>
                <g id="impossible-triangle" transform="translate(103.025855, 21.837015) scale(1, -1) rotate(-350.000000) translate(-103.025855, -21.837015) translate(85.025855, 2.837015)">
                    <polygon id="Path-170" points="0.109846893 35.2540221 1.59610864 36.8981617 15.5982588 22.3357824 25.7674181 33.093153 28.8963902 33.093153 15.5982588 19.0475032"></polygon>
                    <polygon id="Path-170" points="33.246964 37.4098428 34.8748813 35.8148168 6.87309395 35.8139456 17.3019437 25.1466127 15.7374576 23.5193365 2.13099764 37.4580852"></polygon>
                    <polygon id="Path-170" points="16.7325112 19.1628036 30.7321483 33.7260542 10.1341393 33.6360165 8.56965326 35.2632927 35.4742446 35.3701938 19.7091146 19.1628036"></polygon>
                    <path d="M16.765625,0.672154605 C16.765625,0.672154605 19.71875,0.617358006 19.71875,0.672154606 L19.71875,19.1877805 L16.765625,19.1877804 L16.765625,0.672154605 Z" id="Rectangle-264"></path>
                    <polygon id="Rectangle-264" points="25.7957526 0.199460836 25.7957526 1.48479085 25.7026381 1.48479085 11.3037567 1.48479085 11.3037567 0.232726439"></polygon>
                </g>
            </g>
            <g id="impossible-triangle-+-impossible-triangle-+-impossible-triangle" transform="translate(222.500000, 37.000000) scale(-1, 1) translate(-222.500000, -37.000000) translate(160.000000, 0.000000)">
                <g id="impossible-triangle" transform="translate(26.000000, 47.617468) scale(1, -1) rotate(-330.000000) translate(-26.000000, -47.617468) translate(8.000000, 28.617468)">
                    <polygon id="Path-170" points="0.109846893 35.2540221 1.59610864 36.8981617 15.5982588 22.3357824 25.7674181 33.093153 28.8963902 33.093153 15.5982588 19.0475032"></polygon>
                    <polygon id="Path-170" points="33.246964 37.4098428 34.8748813 35.8148168 6.87309395 35.8139456 17.3019437 25.1466127 15.7374576 23.5193365 2.13099764 37.4580852"></polygon>
                    <polygon id="Path-170" points="16.7325112 19.1628036 30.7321483 33.7260542 10.1341393 33.6360165 8.56965326 35.2632927 35.4742446 35.3701938 19.7091146 19.1628036"></polygon>
                    <path d="M16.765625,0.672154605 C16.765625,0.672154605 19.71875,0.617358006 19.71875,0.672154606 L19.71875,19.1877805 L16.765625,19.1877804 L16.765625,0.672154605 Z" id="Rectangle-264"></path>
                    <polygon id="Rectangle-264" points="25.7957526 0.199460836 25.7957526 1.48479085 25.7026381 1.48479085 11.3037567 1.48479085 11.3037567 0.232726439"></polygon>
                </g>
                <g id="impossible-triangle" transform="translate(64.324393, 31.173508) scale(1, -1) rotate(-340.000000) translate(-64.324393, -31.173508) translate(46.324393, 12.173508)">
                    <polygon id="Path-170" points="0.109846893 35.2540221 1.59610864 36.8981617 15.5982588 22.3357824 25.7674181 33.093153 28.8963902 33.093153 15.5982588 19.0475032"></polygon>
                    <polygon id="Path-170" points="33.246964 37.4098428 34.8748813 35.8148168 6.87309395 35.8139456 17.3019437 25.1466127 15.7374576 23.5193365 2.13099764 37.4580852"></polygon>
                    <polygon id="Path-170" points="16.7325112 19.1628036 30.7321483 33.7260542 10.1341393 33.6360165 8.56965326 35.2632927 35.4742446 35.3701938 19.7091146 19.1628036"></polygon>
                    <path d="M16.765625,0.672154605 C16.765625,0.672154605 19.71875,0.617358006 19.71875,0.672154606 L19.71875,19.1877805 L16.765625,19.1877804 L16.765625,0.672154605 Z" id="Rectangle-264"></path>
                    <polygon id="Rectangle-264" points="25.7957526 0.199460836 25.7957526 1.48479085 25.7026381 1.48479085 11.3037567 1.48479085 11.3037567 0.232726439"></polygon>
                </g>
                <g id="impossible-triangle" transform="translate(103.937398, 22.000000) scale(1, -1) rotate(-350.000000) translate(-103.937398, -22.000000) translate(85.937398, 3.000000)">
                    <polygon id="Path-170" points="0.109846893 35.2540221 1.59610864 36.8981617 15.5982588 22.3357824 25.7674181 33.093153 28.8963902 33.093153 15.5982588 19.0475032"></polygon>
                    <polygon id="Path-170" points="33.246964 37.4098428 34.8748813 35.8148168 6.87309395 35.8139456 17.3019437 25.1466127 15.7374576 23.5193365 2.13099764 37.4580852"></polygon>
                    <polygon id="Path-170" points="16.7325112 19.1628036 30.7321483 33.7260542 10.1341393 33.6360165 8.56965326 35.2632927 35.4742446 35.3701938 19.7091146 19.1628036"></polygon>
                    <path d="M16.765625,0.672154605 C16.765625,0.672154605 19.71875,0.617358006 19.71875,0.672154606 L19.71875,19.1877805 L16.765625,19.1877804 L16.765625,0.672154605 Z" id="Rectangle-264"></path>
                    <polygon id="Rectangle-264" points="25.7957526 0.199460836 25.7957526 1.48479085 25.7026381 1.48479085 11.3037567 1.48479085 11.3037567 0.232726439"></polygon>
                </g>
            </g>
        </g>
    </g>
</svg>