<?xml version="1.0" encoding="UTF-8"?>
<svg width="360px" height="640px" viewBox="0 0 360 640" version="1.1" xmlns="http://www.w3.org/2000/svg" xmlns:xlink="http://www.w3.org/1999/xlink">
    <!-- Generator: Sketch 52.3 (67297) - http://www.bohemiancoding.com/sketch -->
    <title>7 Wands</title>
    <desc>Created with Sketch.</desc>
    <defs>
        <ellipse id="path-1" cx="27.361776" cy="26.8668715" rx="27.2559277" ry="26.8668715"></ellipse>
    </defs>
    <g id="7-Wands" stroke="none" stroke-width="1" fill="none" fill-rule="evenodd">
        <rect id="Rectangle-9" stroke="#000000" stroke-width="10" fill="#003F87" x="15" y="26" width="330" height="589" rx="25"></rect>
        <path d="M18,533 L342,533" id="Line" stroke="#000000" stroke-width="10" stroke-linecap="square"></path>
        <g id="Label" transform="translate(123.000000, 40.000000)" fill="#FFFFFF" font-weight="normal" line-spacing="20">
            <text id="WANDS" font-family="HighwayGothicCondensed, Highway Gothic Condensed" font-size="14.3661972" font-style="condensed">
                <tspan x="43.0260563" y="12.6785714">WANDS</tspan>
            </text>
            <text id="ACE" font-family="HighwayGothicExpanded, Highway Gothic Expanded" font-size="24" font-style="expanded">
                <tspan x="0.5" y="547.830952">VALOUR</tspan>
            </text>
            <text id="2" font-family="HighwayGothicExpanded, Highway Gothic Expanded" font-size="34.4788732" font-style="expanded">
                <tspan x="43.7592593" y="62.0535714">7</tspan>
            </text>
        </g>
        <g id="dude" transform="translate(99.000000, 185.000000)">
            <rect id="Rectangle-15" fill="#000000" x="43.9547125" y="59.423198" width="70.544754" height="123.271528"></rect>
            <rect id="Rectangle-15" fill="#000000" x="24.9396119" y="59.423198" width="118.419072" height="34.7688925" rx="17.3844462"></rect>
            <rect id="Rectangle-15" fill="#000000" x="43.9547125" y="169.419331" width="25.6526378" height="100.513707" rx="12.8263189"></rect>
            <rect id="Rectangle-15" fill="#000000" x="88.8468287" y="169.419331" width="25.6526378" height="100.513707" rx="12.8263189"></rect>
            <rect id="Rectangle-15" fill="#000000" x="117.587745" y="63.1494722" width="25.6526378" height="100.513707" rx="12.8263189"></rect>
            <rect id="Rectangle-15" fill="#000000" transform="translate(28.347694, 63.251426) rotate(-30.000000) translate(-28.347694, -63.251426) " x="15.5213754" y="32.2832436" width="25.6526378" height="61.9363641" rx="12.8263189"></rect>
            <g id="Oval-7-+-Rectangle-263" transform="translate(52.185972, 0.000000)">
                <mask id="mask-2" fill="white">
                    <use xlink:href="#path-1"></use>
                </mask>
                <use id="Mask" fill="#000000" xlink:href="#path-1"></use>
            </g>
            <rect id="Rectangle-15" stroke="#003F87" stroke-width="2" fill="#000000" transform="translate(49.707917, 26.783731) rotate(-304.000000) translate(-49.707917, -26.783731) " x="35.8815978" y="10.29964" width="27.6526378" height="32.968182" rx="13.8263189"></rect>
            <rect id="Rectangle-15" fill="#000000" transform="translate(35.562563, 35.442325) rotate(-304.000000) translate(-35.562563, -35.442325) " x="22.7362438" y="4.47414276" width="25.6526378" height="61.9363641" rx="12.8263189"></rect>
        </g>
        <g id="mdeal" transform="translate(188.000000, 263.000000)">
            <path d="M3.09062148,1.75988229 L2.2728683,1.23822494 L1.25772642,1.98668983 L1.82169413,2.41762415 L1.37051996,3.5289811 L1.94858686,3.66506563 L1.42691673,4.61765729 L1.94858686,5.23003765 L1.59610704,6.02386404 L1.94858686,7.58883607 L1.42691673,8.65483151 L1.94858686,9.1538081 L1.94858686,9.87959223 L2.72404247,9.40329639 C2.72404247,9.40329639 2.80143342,8.60775814 2.72404247,8.22389719 C2.68863988,8.04829954 2.38566184,7.02181722 2.38566184,7.02181722 L3.28801018,6.02386404 L2.38566184,5.36612218 L2.89323278,4.32280749 L2.38566184,3.21145055 L2.72404247,2.53102792 L3.09062148,1.75988229 Z" id="Path-115" fill="#FFFFFF"></path>
            <rect id="Rectangle-390" fill="#FFFFFF" x="1.25772642" y="0" width="14.7195573" height="2.12291858" rx="1.06145929"></rect>
            <rect id="Rectangle-390" fill="#FFFFFF" x="1.25772642" y="8.66757461" width="14.7195573" height="2.12291858" rx="1.06145929"></rect>
            <rect id="Rectangle-390" fill="#FFFFFF" x="6.28863209" y="9.90579956" width="5.0757094" height="2.12291858" rx="1.06145929"></rect>
            <ellipse id="Oval-204" stroke="#FFFFFF" stroke-width="2" cx="8.80408492" cy="17.3351492" rx="6.6972627" ry="5.19112472"></ellipse>
            <path d="M4.76759004,1.75988229 L3.94983685,1.23822494 L2.93469497,1.98668983 L3.49866269,2.41762415 L3.04748852,3.5289811 L3.62555542,3.66506563 L3.10388529,4.61765729 L3.62555542,5.23003765 L3.2730756,6.02386404 L3.62555542,7.58883607 L3.10388529,8.65483151 L3.62555542,9.1538081 L3.62555542,9.87959223 L4.40101102,9.40329639 C4.40101102,9.40329639 4.47840198,8.60775814 4.40101102,8.22389719 C4.36560844,8.04829954 4.0626304,7.02181722 4.0626304,7.02181722 L4.96497873,6.02386404 L4.0626304,5.36612218 L4.57020134,4.32280749 L4.0626304,3.21145055 L4.40101102,2.53102792 L4.76759004,1.75988229 Z" id="Path-115" fill="#FFFFFF"></path>
            <path d="M6.44455859,1.75988229 L5.62680541,1.23822494 L4.61166353,1.98668983 L5.17563124,2.41762415 L4.72445707,3.5289811 L5.30252398,3.66506563 L4.78085384,4.61765729 L5.30252398,5.23003765 L4.95004416,6.02386404 L5.30252398,7.58883607 L4.78085384,8.65483151 L5.30252398,9.1538081 L5.30252398,9.87959223 L6.07797958,9.40329639 C6.07797958,9.40329639 6.15537054,8.60775814 6.07797958,8.22389719 C6.042577,8.04829954 5.73959895,7.02181722 5.73959895,7.02181722 L6.64194729,6.02386404 L5.73959895,5.36612218 L6.24716989,4.32280749 L5.73959895,3.21145055 L6.07797958,2.53102792 L6.44455859,1.75988229 Z" id="Path-115" fill="#FFFFFF"></path>
            <path d="M8.12152715,1.75988229 L8.98074252,1.23822494 L7.96560064,1.98668983 L8.52956836,2.41762415 L8.07839419,3.5289811 L8.65646109,3.66506563 L8.13479096,4.61765729 L8.65646109,5.23003765 L8.30398127,6.02386404 L8.65646109,7.58883607 L8.13479096,8.65483151 L8.65646109,9.1538081 L8.65646109,9.87959223 L9.43191669,9.40329639 C9.43191669,9.40329639 9.50930765,8.60775814 9.43191669,8.22389719 C9.39651411,8.04829954 9.09353607,7.02181722 9.09353607,7.02181722 L9.9958844,6.02386404 L9.09353607,5.36612218 L9.60110701,4.32280749 L9.09353607,3.21145055 L9.43191669,2.53102792 L8.12152715,1.75988229 Z" id="Path-115" fill="#FFFFFF"></path>
            <path d="M11.4754643,1.75988229 L10.6577111,1.23822494 L9.6425692,1.98668983 L10.2065369,2.41762415 L9.75536274,3.5289811 L10.3334296,3.66506563 L9.81175952,4.61765729 L10.3334296,5.23003765 L9.98094983,6.02386404 L10.3334296,7.58883607 L9.81175952,8.65483151 L10.3334296,9.1538081 L10.3334296,9.87959223 L11.1088853,9.40329639 C11.1088853,9.40329639 11.1862762,8.60775814 11.1088853,8.22389719 C11.0734827,8.04829954 10.7705046,7.02181722 10.7705046,7.02181722 L11.672853,6.02386404 L10.7705046,5.36612218 L11.2780756,4.32280749 L10.7705046,3.21145055 L11.1088853,2.53102792 L11.4754643,1.75988229 Z" id="Path-115" fill="#FFFFFF"></path>
            <path d="M13.1524328,1.75988229 L12.3346796,1.23822494 L11.3195378,1.98668983 L11.8835055,2.41762415 L11.4323313,3.5289811 L12.0103982,3.66506563 L11.4887281,4.61765729 L12.0103982,5.23003765 L11.6579184,6.02386404 L12.0103982,7.58883607 L11.4887281,8.65483151 L12.0103982,9.1538081 L12.0103982,9.87959223 L12.7858538,9.40329639 C12.7858538,9.40329639 12.8632448,8.60775814 12.7858538,8.22389719 C12.7504512,8.04829954 12.4474732,7.02181722 12.4474732,7.02181722 L13.3498215,6.02386404 L12.4474732,5.36612218 L12.9550441,4.32280749 L12.4474732,3.21145055 L12.7858538,2.53102792 L13.1524328,1.75988229 Z" id="Path-115" fill="#FFFFFF"></path>
            <path d="M14.8294014,1.75988229 L14.0116482,1.23822494 L12.9965063,1.98668983 L13.560474,2.41762415 L13.1092999,3.5289811 L13.6873668,3.66506563 L13.1656966,4.61765729 L13.6873668,5.23003765 L13.3348869,6.02386404 L13.6873668,7.58883607 L13.1656966,8.65483151 L13.6873668,9.1538081 L13.6873668,9.87959223 L14.4628224,9.40329639 C14.4628224,9.40329639 14.5402133,8.60775814 14.4628224,8.22389719 C14.4274198,8.04829954 14.1244417,7.02181722 14.1244417,7.02181722 L15.0267901,6.02386404 L14.1244417,5.36612218 L14.6320127,4.32280749 L14.1244417,3.21145055 L14.4628224,2.53102792 L14.8294014,1.75988229 Z" id="Path-115" fill="#FFFFFF"></path>
        </g>
    </g>
</svg>