<?xml version="1.0" encoding="UTF-8"?>
<svg width="360px" height="640px" viewBox="0 0 360 640" version="1.1" xmlns="http://www.w3.org/2000/svg" xmlns:xlink="http://www.w3.org/1999/xlink">
    <!-- Generator: Sketch 52.3 (67297) - http://www.bohemiancoding.com/sketch -->
    <title>8 Coins</title>
    <desc>Created with Sketch.</desc>
    <defs>
        <path d="M0,3.18897065 C0,3.18897065 11.9878418,16.8529821 29.4109194,16.200967 C46.8339971,15.5489519 46.6341275,0.739845073 64.2570747,0.784310418 C81.8800218,0.828775764 81.2743192,16.5140711 99.502969,16.3778198 C117.731619,16.2415685 119.758298,0.670292737 135.960268,0.248359825 C152.162239,-0.173573087 152.125336,14.5927028 168.364209,14.5845303 C184.603081,14.5763578 186.424333,0.594652129 200.841954,0.215706969 C215.259575,-0.163238191 215.015795,13.0273908 229.677197,12.973012 C244.338598,12.9186332 259,0 259,0 L0,3.18897065 Z" id="path-1"></path>
        <path d="M0,3.18897065 C0,3.18897065 11.9878418,16.8529821 29.4109194,16.200967 C46.8339971,15.5489519 46.6341275,0.739845073 64.2570747,0.784310418 C81.8800218,0.828775764 81.2743192,16.5140711 99.502969,16.3778198 C117.731619,16.2415685 119.758298,0.670292737 135.960268,0.248359825 C152.162239,-0.173573087 152.125336,14.5927028 168.364209,14.5845303 C184.603081,14.5763578 186.424333,0.594652129 200.841954,0.215706969 C215.259575,-0.163238191 215.015795,13.0273908 229.677197,12.973012 C244.338598,12.9186332 259,0 259,0 L0,3.18897065 Z" id="path-3"></path>
    </defs>
    <g id="8-Coins" stroke="none" stroke-width="1" fill="none" fill-rule="evenodd">
        <rect id="Rectangle-9" stroke="#000000" stroke-width="10" fill="#DD7500" x="15" y="22" width="330" height="589" rx="25"></rect>
        <path d="M18,533 L342,533" id="Line" stroke="#000000" stroke-width="10" stroke-linecap="square"></path>
        <g id="Label" transform="translate(106.000000, 40.000000)" fill="#000000" font-weight="normal" line-spacing="20">
            <text id="COINS" font-family="HighwayGothicCondensed, Highway Gothic Condensed" font-size="14.3661972" font-style="condensed">
                <tspan x="61.75" y="12.6785714">COINS</tspan>
            </text>
            <text id="ACE" font-family="HighwayGothicExpanded, Highway Gothic Expanded" font-size="24" font-style="expanded">
                <tspan x="0" y="547.830952">PRUDENCE</tspan>
            </text>
            <text id="2" font-family="HighwayGothicExpanded, Highway Gothic Expanded" font-size="34.4788732" font-style="expanded">
                <tspan x="60.7592593" y="62.0535714">8</tspan>
            </text>
        </g>
        <g id="running-man" transform="translate(55.000000, 187.000000)" fill="#000000">
            <polygon id="Rectangle-15" transform="translate(74.620963, 71.280580) rotate(-347.000000) translate(-74.620963, -71.280580) " points="77.752287 26.2722743 112.077264 46.0676529 71.4896398 116.288885 37.1646632 96.4935063"></polygon>
            <path d="M42.1016546,128.703639 C44.8217568,124.823273 50.1800271,123.883036 54.0520526,126.591226 L54.0520526,126.591226 C57.9319731,129.304938 58.8749052,134.646623 56.1520895,138.53086 L25.8361197,181.778147 C23.1160176,185.658513 17.7577473,186.59875 13.8857217,183.89056 L13.8857217,183.89056 C10.0058013,181.176848 9.06286918,175.835163 11.7856849,171.950926 L42.1016546,128.703639 L42.1016546,128.703639 Z" id="Rectangle-15" transform="translate(33.968887, 155.240893) rotate(-24.000000) translate(-33.968887, -155.240893) "></path>
            <ellipse id="Mask" cx="122.843478" cy="22.0373975" rx="17.8434783" ry="18.0373975"></ellipse>
            <g id="Rectangle-15-+-Rectangle-15-+-Rectangle-15" transform="translate(68.500000, 44.000000) rotate(-343.000000) translate(-68.500000, -44.000000) translate(17.000000, 14.000000)">
                <path d="M49.6675309,23.1615673 C53.0165469,19.8162955 53.0095689,14.3855679 49.6671667,11.0469026 L49.6671667,11.0469026 C46.3179496,7.70142985 40.8834552,7.70576556 37.5389427,11.0465388 L10.9936997,37.5621045 C7.64468371,40.9073764 7.65166172,46.3381039 10.9940639,49.6767692 L10.9940639,49.6767692 C14.343281,53.022242 19.7777754,53.0179063 23.1222878,49.677133 L49.6675309,23.1615673 L49.6675309,23.1615673 Z" id="Rectangle-15" transform="translate(30.330615, 30.361836) rotate(-27.000000) translate(-30.330615, -30.361836) "></path>
                <path d="M71.3846023,11.4387135 C71.6458386,7.18306759 66.3383302,3.55215472 61.357943,3.32931809 L37.2138475,2.2490429 C32.2287025,2.0259934 27.9751385,5.30371808 27.7144337,9.5507046 C27.4531974,13.8063505 31.28744,17.4372634 36.2678271,17.6601 L60.4119227,18.7403752 C65.3970677,18.9634247 71.1238975,15.6857 71.3846023,11.4387135 Z" id="Rectangle-15" transform="translate(49.547855, 10.494709) rotate(-6.000000) translate(-49.547855, -10.494709) "></path>
                <path d="M101.386815,33.2799495 C103.826297,29.2245085 102.516689,23.963984 98.4408667,21.5177209 L67.9652993,3.22662477 C63.8988152,0.78596628 58.6197236,2.10325815 56.1852054,6.15044714 C53.7457233,10.2058881 55.0553309,15.4664126 59.1311532,17.9126758 L89.6067205,36.2037719 C93.6732047,38.6444304 98.9522963,37.3271385 101.386815,33.2799495 Z" id="Rectangle-15"></path>
            </g>
            <path d="M72.660506,117.843887 C72.660506,122.5751 66.4513802,126.410506 58.7483444,126.410506 L18.6348932,126.410506 C10.9514185,126.410506 4.47273158,122.565473 4.47273158,117.843887 C4.47273158,113.112674 10.9318574,109.277268 18.6348932,109.277268 L49.3477316,109.277268 C57.0312063,109.277268 72.660506,113.122301 72.660506,117.843887 Z" id="Rectangle-15" transform="translate(38.566619, 117.843887) rotate(-270.000000) translate(-38.566619, -117.843887) "></path>
            <path d="M92.3632151,168.713936 C95.9383327,171.818263 96.3111461,177.236701 93.2100401,180.800127 L93.2100401,180.800127 C90.102611,184.370819 84.6823667,184.746303 81.1102192,181.644554 L44.73492,150.05934 C41.1598025,146.955013 40.786989,141.536575 43.8880951,137.973148 L43.8880951,137.973148 C46.9955241,134.402457 52.4157684,134.026973 55.9879159,137.128722 L92.3632151,168.713936 L92.3632151,168.713936 Z" id="Rectangle-15" transform="translate(68.549068, 159.386638) scale(-1, 1) rotate(-335.000000) translate(-68.549068, -159.386638) "></path>
            <path d="M88.1293101,108.595593 C95.2298738,108.595593 100.986018,112.440626 100.986018,117.162212 L100.986018,117.162212 C100.986018,121.893424 95.2479509,125.72883 88.1293101,125.72883 L51.0590876,125.72883 C43.9585239,125.72883 38.2023796,121.883797 38.2023796,117.162212 L38.2023796,117.162212 C38.2023796,112.430999 43.9404468,108.595593 51.0590876,108.595593 L88.1293101,108.595593 L88.1293101,108.595593 Z" id="Rectangle-15" transform="translate(69.594199, 117.162212) rotate(-294.000000) translate(-69.594199, -117.162212) "></path>
        </g>
        <g id="coin-+-coin-+-coin" transform="translate(47.000000, 389.000000)">
            <g id="Group">
                <mask id="mask-2" fill="white">
                    <use xlink:href="#path-1"></use>
                </mask>
                <g id="Mask"></g>
                <g id="coin" mask="url(#mask-2)" stroke="#000000">
                    <g transform="translate(15.000000, 5.000000)" id="Oval-31">
                        <circle stroke-width="3" cx="11.5" cy="11.5" r="11.5"></circle>
                        <circle stroke-width="2" cx="11.5" cy="11.5" r="7.92222222"></circle>
                        <circle stroke-width="1" cx="11.5" cy="11.5" r="4.34444444"></circle>
                        <circle stroke-width="0.5" cx="11.5" cy="11.5" r="1.78888889"></circle>
                    </g>
                </g>
                <g id="coin" mask="url(#mask-2)" stroke="#000000">
                    <g transform="translate(90.000000, 4.000000)" id="Oval-31">
                        <circle stroke-width="3" cx="11.5" cy="11.5" r="11.5"></circle>
                        <circle stroke-width="2" cx="11.5" cy="11.5" r="7.92222222"></circle>
                        <circle stroke-width="1" cx="11.5" cy="11.5" r="4.34444444"></circle>
                        <circle stroke-width="0.5" cx="11.5" cy="11.5" r="1.78888889"></circle>
                    </g>
                </g>
                <g id="coin" mask="url(#mask-2)" stroke="#000000">
                    <g transform="translate(158.000000, 3.000000)" id="Oval-31">
                        <circle stroke-width="3" cx="11.5" cy="11.5" r="11.5"></circle>
                        <circle stroke-width="2" cx="11.5" cy="11.5" r="7.92222222"></circle>
                        <circle stroke-width="1" cx="11.5" cy="11.5" r="4.34444444"></circle>
                        <circle stroke-width="0.5" cx="11.5" cy="11.5" r="1.78888889"></circle>
                    </g>
                </g>
                <g id="coin" mask="url(#mask-2)" stroke="#000000">
                    <g transform="translate(220.000000, 3.000000)" id="Oval-31">
                        <circle stroke-width="3" cx="11.5" cy="11.5" r="11.5"></circle>
                        <circle stroke-width="2" cx="11.5" cy="11.5" r="7.92222222"></circle>
                        <circle stroke-width="1" cx="11.5" cy="11.5" r="4.34444444"></circle>
                        <circle stroke-width="0.5" cx="11.5" cy="11.5" r="1.78888889"></circle>
                    </g>
                </g>
            </g>
            <path d="M0,3.18897065 C0,3.18897065 11.9878418,16.8529821 29.4109194,16.200967 C46.8339971,15.5489519 46.6341275,0.739845073 64.2570747,0.784310418 C81.8800218,0.828775764 81.2743192,16.5140711 99.502969,16.3778198 C117.731619,16.2415685 119.758298,0.670292737 135.960268,0.248359825 C152.162239,-0.173573087 152.125336,14.5927028 168.364209,14.5845303 C184.603081,14.5763578 186.424333,0.594652129 200.841954,0.215706969 C215.259575,-0.163238191 215.015795,13.0273908 229.677197,12.973012 C244.338598,12.9186332 259,0 259,0" id="Path-207" stroke="#000000" stroke-width="4"></path>
        </g>
        <g id="coin-+-coin-+-coin" transform="translate(47.000000, 437.000000)">
            <g id="Group">
                <mask id="mask-4" fill="white">
                    <use xlink:href="#path-3"></use>
                </mask>
                <g id="Mask"></g>
                <g id="coin" mask="url(#mask-4)" stroke="#000000">
                    <g transform="translate(15.000000, 5.000000)" id="Oval-31">
                        <circle stroke-width="3" cx="11.5" cy="11.5" r="11.5"></circle>
                        <circle stroke-width="2" cx="11.5" cy="11.5" r="7.92222222"></circle>
                        <circle stroke-width="1" cx="11.5" cy="11.5" r="4.34444444"></circle>
                        <circle stroke-width="0.5" cx="11.5" cy="11.5" r="1.78888889"></circle>
                    </g>
                </g>
                <g id="coin" mask="url(#mask-4)" stroke="#000000">
                    <g transform="translate(90.000000, 4.000000)" id="Oval-31">
                        <circle stroke-width="3" cx="11.5" cy="11.5" r="11.5"></circle>
                        <circle stroke-width="2" cx="11.5" cy="11.5" r="7.92222222"></circle>
                        <circle stroke-width="1" cx="11.5" cy="11.5" r="4.34444444"></circle>
                        <circle stroke-width="0.5" cx="11.5" cy="11.5" r="1.78888889"></circle>
                    </g>
                </g>
                <g id="coin" mask="url(#mask-4)" stroke="#000000">
                    <g transform="translate(158.000000, 3.000000)" id="Oval-31">
                        <circle stroke-width="3" cx="11.5" cy="11.5" r="11.5"></circle>
                        <circle stroke-width="2" cx="11.5" cy="11.5" r="7.92222222"></circle>
                        <circle stroke-width="1" cx="11.5" cy="11.5" r="4.34444444"></circle>
                        <circle stroke-width="0.5" cx="11.5" cy="11.5" r="1.78888889"></circle>
                    </g>
                </g>
                <g id="coin" mask="url(#mask-4)" stroke="#000000">
                    <g transform="translate(216.000000, 4.000000)" id="Oval-31">
                        <circle stroke-width="3" cx="11.5" cy="11.5" r="11.5"></circle>
                        <circle stroke-width="2" cx="11.5" cy="11.5" r="7.92222222"></circle>
                        <circle stroke-width="1" cx="11.5" cy="11.5" r="4.34444444"></circle>
                        <circle stroke-width="0.5" cx="11.5" cy="11.5" r="1.78888889"></circle>
                    </g>
                </g>
            </g>
            <path d="M0,4.18897065 C0,4.18897065 11.9878418,17.8529821 29.4109194,17.200967 C46.8339971,16.5489519 46.6341275,1.73984507 64.2570747,1.78431042 C81.8800218,1.82877576 81.2743192,17.5140711 99.502969,17.3778198 C117.731619,17.2415685 119.758298,1.67029274 135.960268,1.24835982 C152.162239,0.826426913 152.125336,15.5927028 168.364209,15.5845303 C184.603081,15.5763578 186.424333,1.59465213 200.841954,1.21570697 C215.259575,0.836761809 215.015795,14.0273908 229.677197,13.973012 C244.338598,13.9186332 259,1 259,1" id="Path-207" stroke="#000000" stroke-width="4"></path>
        </g>
        <g id="pitchfork" transform="translate(89.000000, 234.000000)">
            <rect id="Rectangle-276" fill="#000000" x="70" y="5" width="14" height="68" rx="7"></rect>
            <rect id="Rectangle-276" fill="#000000" transform="translate(81.682406, 73.052877) rotate(-48.000000) translate(-81.682406, -73.052877) " x="79.1320348" y="-33.2904603" width="5.10074222" height="212.686674" rx="2.55037111"></rect>
            <path d="M159.498047,142 C159.498047,142 152.467468,145.449713 154.749023,154.25 C157.030579,163.050287 166.498047,169 166.498047,169" id="Path-210" stroke="#000000" stroke-width="4" stroke-linecap="round"></path>
            <path d="M159.498047,143 L175.498047,159.5" id="Path-211" stroke="#000000" stroke-width="4" fill="#D8D8D8" stroke-linecap="round"></path>
            <path d="M170.027003,133.107821 C170.027003,133.107821 165.546888,137.807534 167.828444,146.607821 C170.11,155.408107 177.027003,160.107821 177.027003,160.107821" id="Path-210" stroke="#000000" stroke-width="4" stroke-linecap="round" transform="translate(172.103931, 146.607821) scale(-1, 1) rotate(-279.000000) translate(-172.103931, -146.607821) "></path>
        </g>
    </g>
</svg>