<?xml version="1.0" encoding="UTF-8"?>
<svg width="360px" height="640px" viewBox="0 0 360 640" version="1.1" xmlns="http://www.w3.org/2000/svg" xmlns:xlink="http://www.w3.org/1999/xlink">
    <!-- Generator: Sketch 52.3 (67297) - http://www.bohemiancoding.com/sketch -->
    <title>8 Cups</title>
    <desc>Created with Sketch.</desc>
    <g id="8-Cups" stroke="none" stroke-width="1" fill="none" fill-rule="evenodd">
        <rect id="Rectangle-9" stroke="#000000" stroke-width="10" fill="#003F87" x="15" y="26" width="330" height="589" rx="25"></rect>
        <g id="cup" transform="translate(37.000000, 445.821633)" fill="#000000" stroke="#000000">
            <path d="M25.3752793,2.98632802e-08 C25.3752793,2.98632802e-08 22.8885913,14.587241 30.0908264,26.3057669 C37.2930614,38.0242928 50.5248628,40.9200832 50.5248628,40.9200832 L50.5248628,0 L25.3752793,2.98632802e-08 Z" id="Path-95" transform="translate(37.742622, 20.460042) scale(-1, 1) translate(-37.742622, -20.460042) "></path>
            <path d="M0.414898953,2.98632802e-08 C0.414898953,2.98632802e-08 -2.071789,14.587241 5.13044603,26.3057669 C12.3326811,38.0242928 25.5644825,40.9200832 25.5644825,40.9200832 L25.5644825,0 L0.414898953,2.98632802e-08 Z" id="Path-95"></path>
            <path d="M8.55784469,61.5512193 C8.55784469,61.5512193 12.904145,60.6512202 19.5607879,53.3672026 C26.2174308,46.0831851 25.3242343,31.7380158 25.3242343,31.7380158 L25.3242343,61.5512193 L8.55784469,61.5512193 Z" id="Path-97"></path>
            <path d="M24.9603803,61.5512193 C24.9603803,61.5512193 29.3066806,60.6512202 35.9633235,53.3672026 C42.6199664,46.0831851 41.7267699,31.7380158 41.7267699,31.7380158 L41.7267699,61.5512193 L24.9603803,61.5512193 Z" id="Path-97" transform="translate(33.363568, 46.644618) scale(-1, 1) translate(-33.363568, -46.644618) "></path>
        </g>
        <g id="cup" transform="translate(87.206022, 445.821633)" fill="#000000" stroke="#000000">
            <path d="M25.3752793,2.98632802e-08 C25.3752793,2.98632802e-08 22.8885913,14.587241 30.0908264,26.3057669 C37.2930614,38.0242928 50.5248628,40.9200832 50.5248628,40.9200832 L50.5248628,0 L25.3752793,2.98632802e-08 Z" id="Path-95" transform="translate(37.742622, 20.460042) scale(-1, 1) translate(-37.742622, -20.460042) "></path>
            <path d="M0.414898953,2.98632802e-08 C0.414898953,2.98632802e-08 -2.071789,14.587241 5.13044603,26.3057669 C12.3326811,38.0242928 25.5644825,40.9200832 25.5644825,40.9200832 L25.5644825,0 L0.414898953,2.98632802e-08 Z" id="Path-95"></path>
            <path d="M8.55784469,61.5512193 C8.55784469,61.5512193 12.904145,60.6512202 19.5607879,53.3672026 C26.2174308,46.0831851 25.3242343,31.7380158 25.3242343,31.7380158 L25.3242343,61.5512193 L8.55784469,61.5512193 Z" id="Path-97"></path>
            <path d="M24.9603803,61.5512193 C24.9603803,61.5512193 29.3066806,60.6512202 35.9633235,53.3672026 C42.6199664,46.0831851 41.7267699,31.7380158 41.7267699,31.7380158 L41.7267699,61.5512193 L24.9603803,61.5512193 Z" id="Path-97" transform="translate(33.363568, 46.644618) scale(-1, 1) translate(-33.363568, -46.644618) "></path>
        </g>
        <g id="cup" transform="translate(136.366086, 445.821633)" fill="#000000" stroke="#000000">
            <path d="M25.3752793,2.98632802e-08 C25.3752793,2.98632802e-08 22.8885913,14.587241 30.0908264,26.3057669 C37.2930614,38.0242928 50.5248628,40.9200832 50.5248628,40.9200832 L50.5248628,0 L25.3752793,2.98632802e-08 Z" id="Path-95" transform="translate(37.742622, 20.460042) scale(-1, 1) translate(-37.742622, -20.460042) "></path>
            <path d="M0.414898953,2.98632802e-08 C0.414898953,2.98632802e-08 -2.071789,14.587241 5.13044603,26.3057669 C12.3326811,38.0242928 25.5644825,40.9200832 25.5644825,40.9200832 L25.5644825,0 L0.414898953,2.98632802e-08 Z" id="Path-95"></path>
            <path d="M8.55784469,61.5512193 C8.55784469,61.5512193 12.904145,60.6512202 19.5607879,53.3672026 C26.2174308,46.0831851 25.3242343,31.7380158 25.3242343,31.7380158 L25.3242343,61.5512193 L8.55784469,61.5512193 Z" id="Path-97"></path>
            <path d="M24.9603803,61.5512193 C24.9603803,61.5512193 29.3066806,60.6512202 35.9633235,53.3672026 C42.6199664,46.0831851 41.7267699,31.7380158 41.7267699,31.7380158 L41.7267699,61.5512193 L24.9603803,61.5512193 Z" id="Path-97" transform="translate(33.363568, 46.644618) scale(-1, 1) translate(-33.363568, -46.644618) "></path>
        </g>
        <g id="cup" transform="translate(58.965135, 382.214422)" fill="#000000" stroke="#000000">
            <path d="M25.3752793,2.98632802e-08 C25.3752793,2.98632802e-08 22.8885913,14.587241 30.0908264,26.3057669 C37.2930614,38.0242928 50.5248628,40.9200832 50.5248628,40.9200832 L50.5248628,0 L25.3752793,2.98632802e-08 Z" id="Path-95" transform="translate(37.742622, 20.460042) scale(-1, 1) translate(-37.742622, -20.460042) "></path>
            <path d="M0.414898953,2.98632802e-08 C0.414898953,2.98632802e-08 -2.071789,14.587241 5.13044603,26.3057669 C12.3326811,38.0242928 25.5644825,40.9200832 25.5644825,40.9200832 L25.5644825,0 L0.414898953,2.98632802e-08 Z" id="Path-95"></path>
            <path d="M8.55784469,61.5512193 C8.55784469,61.5512193 12.904145,60.6512202 19.5607879,53.3672026 C26.2174308,46.0831851 25.3242343,31.7380158 25.3242343,31.7380158 L25.3242343,61.5512193 L8.55784469,61.5512193 Z" id="Path-97"></path>
            <path d="M24.9603803,61.5512193 C24.9603803,61.5512193 29.3066806,60.6512202 35.9633235,53.3672026 C42.6199664,46.0831851 41.7267699,31.7380158 41.7267699,31.7380158 L41.7267699,61.5512193 L24.9603803,61.5512193 Z" id="Path-97" transform="translate(33.363568, 46.644618) scale(-1, 1) translate(-33.363568, -46.644618) "></path>
        </g>
        <g id="cup" transform="translate(110.217116, 382.214422)" fill="#000000" stroke="#000000">
            <path d="M25.3752793,2.98632802e-08 C25.3752793,2.98632802e-08 22.8885913,14.587241 30.0908264,26.3057669 C37.2930614,38.0242928 50.5248628,40.9200832 50.5248628,40.9200832 L50.5248628,0 L25.3752793,2.98632802e-08 Z" id="Path-95" transform="translate(37.742622, 20.460042) scale(-1, 1) translate(-37.742622, -20.460042) "></path>
            <path d="M0.414898953,2.98632802e-08 C0.414898953,2.98632802e-08 -2.071789,14.587241 5.13044603,26.3057669 C12.3326811,38.0242928 25.5644825,40.9200832 25.5644825,40.9200832 L25.5644825,0 L0.414898953,2.98632802e-08 Z" id="Path-95"></path>
            <path d="M8.55784469,61.5512193 C8.55784469,61.5512193 12.904145,60.6512202 19.5607879,53.3672026 C26.2174308,46.0831851 25.3242343,31.7380158 25.3242343,31.7380158 L25.3242343,61.5512193 L8.55784469,61.5512193 Z" id="Path-97"></path>
            <path d="M24.9603803,61.5512193 C24.9603803,61.5512193 29.3066806,60.6512202 35.9633235,53.3672026 C42.6199664,46.0831851 41.7267699,31.7380158 41.7267699,31.7380158 L41.7267699,61.5512193 L24.9603803,61.5512193 Z" id="Path-97" transform="translate(33.363568, 46.644618) scale(-1, 1) translate(-33.363568, -46.644618) "></path>
        </g>
        <g id="cup" transform="translate(60.000000, 255.035303)" fill="#000000" stroke="#000000">
            <path d="M25.3752793,2.98632802e-08 C25.3752793,2.98632802e-08 22.8885913,14.587241 30.0908264,26.3057669 C37.2930614,38.0242928 50.5248628,40.9200832 50.5248628,40.9200832 L50.5248628,0 L25.3752793,2.98632802e-08 Z" id="Path-95" transform="translate(37.742622, 20.460042) scale(-1, 1) translate(-37.742622, -20.460042) "></path>
            <path d="M0.414898953,2.98632802e-08 C0.414898953,2.98632802e-08 -2.071789,14.587241 5.13044603,26.3057669 C12.3326811,38.0242928 25.5644825,40.9200832 25.5644825,40.9200832 L25.5644825,0 L0.414898953,2.98632802e-08 Z" id="Path-95"></path>
            <path d="M8.55784469,61.5512193 C8.55784469,61.5512193 12.904145,60.6512202 19.5607879,53.3672026 C26.2174308,46.0831851 25.3242343,31.7380158 25.3242343,31.7380158 L25.3242343,61.5512193 L8.55784469,61.5512193 Z" id="Path-97"></path>
            <path d="M24.9603803,61.5512193 C24.9603803,61.5512193 29.3066806,60.6512202 35.9633235,53.3672026 C42.6199664,46.0831851 41.7267699,31.7380158 41.7267699,31.7380158 L41.7267699,61.5512193 L24.9603803,61.5512193 Z" id="Path-97" transform="translate(33.363568, 46.644618) scale(-1, 1) translate(-33.363568, -46.644618) "></path>
        </g>
        <g id="cup" transform="translate(85.000000, 319.000000)" fill="#000000" stroke="#000000">
            <path d="M25.3752793,2.98632802e-08 C25.3752793,2.98632802e-08 22.8885913,14.587241 30.0908264,26.3057669 C37.2930614,38.0242928 50.5248628,40.9200832 50.5248628,40.9200832 L50.5248628,0 L25.3752793,2.98632802e-08 Z" id="Path-95" transform="translate(37.742622, 20.460042) scale(-1, 1) translate(-37.742622, -20.460042) "></path>
            <path d="M0.414898953,2.98632802e-08 C0.414898953,2.98632802e-08 -2.071789,14.587241 5.13044603,26.3057669 C12.3326811,38.0242928 25.5644825,40.9200832 25.5644825,40.9200832 L25.5644825,0 L0.414898953,2.98632802e-08 Z" id="Path-95"></path>
            <path d="M8.55784469,61.5512193 C8.55784469,61.5512193 12.904145,60.6512202 19.5607879,53.3672026 C26.2174308,46.0831851 25.3242343,31.7380158 25.3242343,31.7380158 L25.3242343,61.5512193 L8.55784469,61.5512193 Z" id="Path-97"></path>
            <path d="M24.9603803,61.5512193 C24.9603803,61.5512193 29.3066806,60.6512202 35.9633235,53.3672026 C42.6199664,46.0831851 41.7267699,31.7380158 41.7267699,31.7380158 L41.7267699,61.5512193 L24.9603803,61.5512193 Z" id="Path-97" transform="translate(33.363568, 46.644618) scale(-1, 1) translate(-33.363568, -46.644618) "></path>
        </g>
        <g id="cup" transform="translate(110.000000, 255.035303)" fill="#000000" stroke="#000000">
            <path d="M25.3752793,2.98632802e-08 C25.3752793,2.98632802e-08 22.8885913,14.587241 30.0908264,26.3057669 C37.2930614,38.0242928 50.5248628,40.9200832 50.5248628,40.9200832 L50.5248628,0 L25.3752793,2.98632802e-08 Z" id="Path-95" transform="translate(37.742622, 20.460042) scale(-1, 1) translate(-37.742622, -20.460042) "></path>
            <path d="M0.414898953,2.98632802e-08 C0.414898953,2.98632802e-08 -2.071789,14.587241 5.13044603,26.3057669 C12.3326811,38.0242928 25.5644825,40.9200832 25.5644825,40.9200832 L25.5644825,0 L0.414898953,2.98632802e-08 Z" id="Path-95"></path>
            <path d="M8.55784469,61.5512193 C8.55784469,61.5512193 12.904145,60.6512202 19.5607879,53.3672026 C26.2174308,46.0831851 25.3242343,31.7380158 25.3242343,31.7380158 L25.3242343,61.5512193 L8.55784469,61.5512193 Z" id="Path-97"></path>
            <path d="M24.9603803,61.5512193 C24.9603803,61.5512193 29.3066806,60.6512202 35.9633235,53.3672026 C42.6199664,46.0831851 41.7267699,31.7380158 41.7267699,31.7380158 L41.7267699,61.5512193 L24.9603803,61.5512193 Z" id="Path-97" transform="translate(33.363568, 46.644618) scale(-1, 1) translate(-33.363568, -46.644618) "></path>
        </g>
        <g id="running-man" transform="translate(266.000000, 242.237749) rotate(-17.000000) translate(-266.000000, -242.237749) translate(223.260871, 190.222911)" fill="#000000">
            <polygon id="Rectangle-15" points="47.0324495 18.1781961 64.4969686 28.2728375 43.8460199 64.0821124 26.3815008 53.987471"></polygon>
            <path d="M33.3387047,29.5919784 C35.0426812,27.886059 35.0391308,25.1166628 33.3385194,23.4141124 L33.3385194,23.4141124 C31.6344406,21.7080906 28.8693744,21.7103016 27.1676894,23.4139269 L13.6614922,36.9355236 C11.9575156,38.641443 11.961066,41.4108392 13.6616774,43.1133896 L13.6616774,43.1133896 C15.3657563,44.8194114 18.1308224,44.8172004 19.8325075,43.1135751 L33.3387047,29.5919784 L33.3387047,29.5919784 Z" id="Rectangle-15"></path>
            <path d="M49.7254083,12.9351406 C48.0213294,11.2291188 45.2562632,11.2313297 43.5545782,12.9349551 L30.048381,26.4565518 C28.3444044,28.1624711 28.3479549,30.9318673 30.0485662,32.6344177 C31.7526451,34.3404395 34.5177112,34.3382285 36.2193963,32.6346032 L49.7255935,19.1130065 C51.42957,17.4070872 51.4260196,14.6376909 49.7254083,12.9351406 Z" id="Rectangle-15" transform="translate(39.886987, 22.784779) rotate(-335.000000) translate(-39.886987, -22.784779) "></path>
            <path d="M75.2715176,35.6668064 C76.9754941,33.960887 76.9719437,31.1914908 75.2713323,29.4889404 L75.2713323,29.4889404 C73.5672535,27.7829186 70.8021873,27.7851296 69.1005022,29.4887549 L55.594305,43.0103516 C53.8903285,44.716271 53.8938789,47.4856672 55.5944903,49.1882176 L55.5944903,49.1882176 C57.2985691,50.8942394 60.0636353,50.8920284 61.7653204,49.1884031 L75.2715176,35.6668064 L75.2715176,35.6668064 Z" id="Rectangle-15" transform="translate(65.432911, 39.338579) rotate(-50.000000) translate(-65.432911, -39.338579) "></path>
            <path d="M30.472948,48.6215561 C31.8569336,46.6427661 34.583217,46.1632926 36.5533004,47.5443327 L36.5533004,47.5443327 C38.5274006,48.9281886 39.0071637,51.6521776 37.6217973,53.6329417 L22.1970576,75.6868698 C20.8130719,77.6656598 18.0867885,78.1451333 16.1167052,76.7640932 L16.1167052,76.7640932 C14.1426049,75.3802373 13.6628419,72.6562483 15.0482082,70.6754842 L30.472948,48.6215561 L30.472948,48.6215561 Z" id="Rectangle-15" transform="translate(26.335003, 62.154213) rotate(-4.000000) translate(-26.335003, -62.154213) "></path>
            <path d="M79.9636427,47.271395 C82.3728328,47.271395 84.3258672,49.2321672 84.3258672,51.6399371 L84.3258672,51.6399371 C84.3258672,54.0526163 82.3664473,56.0084792 79.9636427,56.0084792 L66.6084611,56.0084792 C64.199271,56.0084792 62.2462366,54.0477069 62.2462366,51.6399371 L62.2462366,51.6399371 C62.2462366,49.2272579 64.2056565,47.271395 66.6084611,47.271395 L79.9636427,47.271395 L79.9636427,47.271395 Z" id="Rectangle-15" transform="translate(73.286052, 51.639937) rotate(-341.000000) translate(-73.286052, -51.639937) "></path>
            <ellipse id="Mask" cx="65.5554528" cy="9.19815997" rx="9.07874665" ry="9.19815997"></ellipse>
            <path d="M62.1417982,32.7038933 C64.2108219,33.9485056 66.8968193,33.2767534 68.1355001,31.2128919 L68.1355001,31.2128919 C69.3767065,29.1448222 68.7103793,26.4622209 66.6366043,25.2147505 L51.1306614,15.8872171 C49.0616377,14.6426047 46.3756404,15.3143569 45.1369596,17.3782185 L45.1369596,17.3782185 C43.8957531,19.4462882 44.5620804,22.1288895 46.6358553,23.3763599 L62.1417982,32.7038933 L62.1417982,32.7038933 Z" id="Rectangle-15"></path>
            <path d="M52.2767835,67.4903107 C54.0958002,69.0733608 54.2854874,71.83649 52.7076473,73.653657 L52.7076473,73.653657 C51.12659,75.4745291 48.3687743,75.6660068 46.5512687,74.0842718 L28.0435472,57.9774112 C26.2245304,56.3943611 26.0348432,53.6312319 27.6126834,51.814065 L27.6126834,51.814065 C29.1937406,49.9931929 31.9515564,49.8017152 33.769062,51.3834501 L52.2767835,67.4903107 L52.2767835,67.4903107 Z" id="Rectangle-15" transform="translate(40.160165, 62.733861) rotate(-333.000000) translate(-40.160165, -62.733861) "></path>
            <rect id="Rectangle-15" transform="translate(41.190035, 86.457823) rotate(-344.000000) translate(-41.190035, -86.457823) " x="36.8264678" y="69.7784776" width="8.72713363" height="33.3586907" rx="4.36356682"></rect>
            <rect id="Rectangle-15" transform="translate(12.900992, 81.418915) rotate(-320.000000) translate(-12.900992, -81.418915) " x="8.53742527" y="67.2321231" width="8.72713363" height="28.3735841" rx="4.36356682"></rect>
        </g>
        <rect id="Rectangle-335" fill="#000000" x="302.920701" y="222" width="2.03583222" height="70.2362116" rx="1.01791611"></rect>
        <path d="M18,533 L342,533" id="Line" stroke="#000000" stroke-width="10" stroke-linecap="square"></path>
        <g id="Label" transform="translate(166.000000, 40.000000)" fill="#FFFFFF" font-weight="normal" line-spacing="20">
            <text id="CUPS" font-family="HighwayGothicCondensed, Highway Gothic Condensed" font-size="14.3661972" font-style="condensed">
                <tspan x="3.43802817" y="12.6785714">CUPS</tspan>
            </text>
            <text id="2" font-family="HighwayGothicExpanded, Highway Gothic Expanded" font-size="34.4788732" font-style="expanded">
                <tspan x="0.759259259" y="62.0535714">8</tspan>
            </text>
        </g>
        <text id="ACE" font-family="HighwayGothicExpanded, Highway Gothic Expanded" font-size="24" font-style="expanded" font-weight="normal" line-spacing="20" fill="#FFFFFF">
            <tspan x="94.5" y="576">ABANDONED</tspan>
            <tspan x="116.7" y="596">SUCCESS</tspan>
        </text>
        <path d="M234.061322,286.354232 C234.061322,286.354232 171.138557,282.198615 181.061322,302.354232 C190.984087,322.509848 237.561321,329.854233 257.061325,345.854233 C261.748825,349.291733 291.112265,379.503703 262.061322,433.354232 C233.010378,487.204761 184.061322,503.354232 184.061322,503.354232" id="Path-324" stroke="#000000" stroke-width="5" stroke-linecap="round"></path>
    </g>
</svg>