<?xml version="1.0" encoding="UTF-8"?>
<svg width="360px" height="640px" viewBox="0 0 360 640" version="1.1" xmlns="http://www.w3.org/2000/svg" xmlns:xlink="http://www.w3.org/1999/xlink">
    <!-- Generator: Sketch 52.3 (67297) - http://www.bohemiancoding.com/sketch -->
    <title>8 Wands</title>
    <desc>Created with Sketch.</desc>
    <g id="8-Wands" stroke="none" stroke-width="1" fill="none" fill-rule="evenodd">
        <rect id="Rectangle-9" stroke="#000000" stroke-width="10" fill="#DD7500" x="15" y="36" width="330" height="589" rx="25"></rect>
        <path d="M18,533 L342,533" id="Line" stroke="#000000" stroke-width="10" stroke-linecap="square"></path>
        <g id="Label" transform="translate(103.000000, 40.000000)" fill="#000000" font-weight="normal" line-spacing="20">
            <text id="WANDS" font-family="HighwayGothicCondensed, Highway Gothic Condensed" font-size="14.3661972" font-style="condensed">
                <tspan x="63.0260563" y="12.6785714">WANDS</tspan>
            </text>
            <text id="ACE" font-family="HighwayGothicExpanded, Highway Gothic Expanded" font-size="24" font-style="expanded">
                <tspan x="0.5" y="547.830952">SWIFTNESS</tspan>
            </text>
            <text id="2" font-family="HighwayGothicExpanded, Highway Gothic Expanded" font-size="34.4788732" font-style="expanded">
                <tspan x="63.7592593" y="62.0535714">8</tspan>
            </text>
        </g>
        <g id="running-man" transform="translate(138.000000, 228.000000)" fill="#000000">
            <polygon id="Rectangle-15" points="88.438144 35.6470588 122.763121 55.4424375 82.1754969 125.66367 47.8505202 105.868291"></polygon>
            <path d="M82.1829316,44.6221891 C85.5319476,41.2769172 85.5249696,35.8461897 82.1825675,32.5075243 L82.1825675,32.5075243 C78.8333504,29.1620516 73.3988559,29.1663873 70.0543435,32.5071606 L43.5091005,59.0227263 C40.1600845,62.3679981 40.1670625,67.7987256 43.5094646,71.137391 L43.5094646,71.137391 C46.8586818,74.4828637 52.2931762,74.478528 55.6376886,71.1377547 L82.1829316,44.6221891 L82.1829316,44.6221891 Z" id="Rectangle-15"></path>
            <path d="M59.0266698,88.7171995 C61.7467719,84.8368341 67.1050422,83.8965968 70.9770678,86.6047871 L70.9770678,86.6047871 C74.8569882,89.3184994 75.7999203,94.6601844 73.0771046,98.5444208 L42.7611349,141.791708 C40.0410327,145.672074 34.6827624,146.612311 30.8107369,143.904121 L30.8107369,143.904121 C26.9308164,141.190408 25.9878843,135.848724 28.7107,131.964487 L59.0266698,88.7171995 L59.0266698,88.7171995 Z" id="Rectangle-15"></path>
            <path d="M161.213308,72.7794118 C165.94836,72.7794118 169.786877,76.6244447 169.786877,81.3460305 L169.786877,81.3460305 C169.786877,86.0772434 165.935809,89.9126493 161.213308,89.9126493 L134.964873,89.9126493 C130.229822,89.9126493 126.391304,86.0676164 126.391304,81.3460305 L126.391304,81.3460305 C126.391304,76.6148176 130.242372,72.7794118 134.964873,72.7794118 L161.213308,72.7794118 L161.213308,72.7794118 Z" id="Rectangle-15"></path>
            <path d="M115.280144,61.3657511 C113.204434,57.1146732 114.9815,51.9829422 119.229983,49.9131352 L119.229983,49.9131352 C123.487128,47.8391079 128.626423,49.6152236 130.696632,53.8550341 L142.203188,77.4205958 C144.278898,81.6716737 142.501833,86.8034047 138.25335,88.8732117 L138.25335,88.8732117 C133.996204,90.9472389 128.856909,89.1711233 126.786701,84.9313128 L115.280144,61.3657511 L115.280144,61.3657511 Z" id="Rectangle-15"></path>
            <ellipse id="Mask" cx="124.904348" cy="18.0373975" rx="17.8434783" ry="18.0373975"></ellipse>
            <path d="M99.2203606,38.0735877 C99.3976784,33.8179418 95.7951321,30.1870289 92.4146241,29.9641923 L76.0264784,28.8839171 C72.6427408,28.6608676 69.7555742,31.9385923 69.5786172,36.1855788 C69.4012994,40.4412247 72.0038456,44.0721376 75.3843537,44.2949742 L91.7724994,45.3752494 C95.156237,45.5982989 99.0434035,42.3205742 99.2203606,38.0735877 Z" id="Rectangle-15" transform="translate(84.398360, 37.129583) rotate(-6.000000) translate(-84.398360, -37.129583) "></path>
            <path d="M118.13424,64.1316443 C122.200725,66.5723028 127.479816,65.255011 129.914334,61.207822 L129.914334,61.207822 C132.353817,57.152381 131.044209,51.8918565 126.968387,49.4455934 L96.4928192,31.1544972 C92.4263351,28.7138387 87.1472435,30.0311306 84.7127253,34.0783196 L84.7127253,34.0783196 C82.2732432,38.1337606 83.5828508,43.3942851 87.6586731,45.8405482 L118.13424,64.1316443 L118.13424,64.1316443 Z" id="Rectangle-15"></path>
            <path d="M33.2898657,129.220588 C38.0243209,129.220588 41.8623551,133.065621 41.8623551,137.787207 L41.8623551,137.787207 C41.8623551,142.51842 38.0363741,146.353826 33.2898657,146.353826 L8.57248938,146.353826 C3.83803423,146.353826 0,142.508793 0,137.787207 L0,137.787207 C0,133.055994 3.82598094,129.220588 8.57248938,129.220588 L33.2898657,129.220588 L33.2898657,129.220588 Z" id="Rectangle-15"></path>
            <path d="M106.395859,134.686048 C109.970977,137.790376 110.34379,143.208814 107.242684,146.77224 L107.242684,146.77224 C104.135255,150.342932 98.7150109,150.718415 95.1428634,147.616667 L58.7675642,116.031453 C55.1924467,112.927125 54.8196333,107.508687 57.9207393,103.945261 L57.9207393,103.945261 C61.0281683,100.374569 66.4484127,99.9990856 70.0205602,103.100834 L106.395859,134.686048 L106.395859,134.686048 Z" id="Rectangle-15"></path>
            <rect id="Rectangle-15" x="92.1913043" y="134.647059" width="17.1524138" height="60.3913714" rx="8.5762069"></rect>
        </g>
        <g id="wands" transform="translate(71.000000, 235.000000)" fill="#000000">
            <path d="M53.8501796,24.182558 L57.3039066,28.5011992 L52.3485592,33.8622711 L49.4954804,30.8838978 L42.1375403,33.2665964 L41.2365681,30.2137639 L34.9297623,32.9687591 L30.8753871,30.2137639 L25.6197157,32.0752471 L15.2585347,30.2137639 L8.20091873,32.9687591 L4.8973538,30.2137639 L0.0921684453,30.2137639 L3.24557134,26.1185006 C3.24557134,26.1185006 8.5125765,25.7097908 11.0539975,26.1185006 C12.2165735,26.3054654 19.0125858,27.9055246 19.0125858,27.9055246 L25.6197157,23.1401274 L29.9744149,27.9055246 L36.8818688,25.2249887 L44.2398089,27.9055246 L48.7446702,26.1185006 L53.8501796,24.182558 L53.8501796,24.182558 Z" id="Path-115"></path>
            <path d="M54.9612907,47.3226854 L58.4150177,51.6413266 L53.4596703,57.0023985 L50.6065915,54.0240252 L43.2486514,56.4067238 L42.3476792,53.3538912 L36.0408734,56.1088865 L31.9864982,53.3538912 L26.7308268,55.2153745 L16.3696458,53.3538912 L9.31202985,56.1088865 L6.00846491,53.3538912 L1.20327956,53.3538912 L4.35668245,49.258628 C4.35668245,49.258628 9.62368761,48.8499182 12.1651087,49.258628 C13.3276847,49.4455928 20.1236969,51.045652 20.1236969,51.045652 L26.7308268,46.2802548 L31.085526,51.045652 L37.9929799,48.3651161 L45.35092,51.045652 L49.8557813,49.258628 L54.9612907,47.3226854 L54.9612907,47.3226854 Z" id="Path-115"></path>
            <path d="M54.9802334,70.4628128 L58.4339604,74.781454 L53.478613,80.1425259 L50.6255342,77.1641526 L43.2675941,79.5468512 L42.3666218,76.4940186 L36.0598161,79.2490139 L32.0054409,76.4940186 L26.7497694,78.3555019 L16.3885885,76.4940186 L9.33097251,79.2490139 L6.02740758,76.4940186 L1.22222222,76.4940186 L4.37562511,72.3987554 C4.37562511,72.3987554 9.64263028,71.9900456 12.1840513,72.3987554 C13.3466273,72.5857202 20.1426396,74.1857794 20.1426396,74.1857794 L26.7497694,69.4203822 L31.1044687,74.1857794 L38.0119226,71.5052434 L45.3698627,74.1857794 L49.874724,72.3987554 L54.9802334,70.4628128 L54.9802334,70.4628128 Z" id="Path-115"></path>
            <path d="M53.8501796,93.6029402 L57.3039066,97.9215814 L52.3485592,103.282653 L49.4954804,100.30428 L42.1375403,102.686979 L41.2365681,99.634146 L34.9297623,102.389141 L30.8753871,99.634146 L25.6197157,101.495629 L15.2585347,99.634146 L8.20091873,102.389141 L4.8973538,99.634146 L0.0921684453,99.634146 L3.24557134,95.5388828 C3.24557134,95.5388828 8.5125765,95.1301729 11.0539975,95.5388828 C12.2165735,95.7258476 19.0125858,97.3259068 19.0125858,97.3259068 L25.6197157,92.5605096 L29.9744149,97.3259068 L36.8818688,94.6453708 L44.2398089,97.3259068 L48.7446702,95.5388828 L53.8501796,93.6029402 L53.8501796,93.6029402 Z" id="Path-115"></path>
            <path d="M53.8501796,116.743068 L57.3039066,121.061709 L52.3485592,126.422781 L49.4954804,123.444407 L42.1375403,125.827106 L41.2365681,122.774273 L34.9297623,125.529269 L30.8753871,122.774273 L25.6197157,124.635757 L15.2585347,122.774273 L8.20091873,125.529269 L4.8973538,122.774273 L0.0921684453,122.774273 L3.24557134,118.67901 C3.24557134,118.67901 8.5125765,118.2703 11.0539975,118.67901 C12.2165735,118.865975 19.0125858,120.466034 19.0125858,120.466034 L25.6197157,115.700637 L29.9744149,120.466034 L36.8818688,117.785498 L44.2398089,120.466034 L48.7446702,118.67901 L53.8501796,116.743068 L53.8501796,116.743068 Z" id="Path-115"></path>
            <path d="M53.8501796,1.04243064 L57.3039066,5.36107185 L52.3485592,10.7221437 L49.4954804,7.74377045 L42.1375403,10.126469 L41.2365681,7.07363646 L34.9297623,9.82863172 L30.8753871,7.07363646 L25.6197157,8.93511975 L15.2585347,7.07363646 L8.20091873,9.82863172 L4.8973538,7.07363646 L0.0921684453,7.07363646 L3.24557134,2.97837325 C3.24557134,2.97837325 8.5125765,2.5696634 11.0539975,2.97837325 C12.2165735,3.16533805 19.0125858,4.7653972 19.0125858,4.7653972 L25.6197157,0 L29.9744149,4.7653972 L36.8818688,2.08486127 L44.2398089,4.7653972 L48.7446702,2.97837325 L53.8501796,1.04243064 L53.8501796,1.04243064 Z" id="Path-115"></path>
            <path d="M53.8501796,139.883195 L57.3039066,144.201836 L52.3485592,149.562908 L49.4954804,146.584535 L42.1375403,148.967233 L41.2365681,145.914401 L34.9297623,148.669396 L30.8753871,145.914401 L25.6197157,147.775884 L15.2585347,145.914401 L8.20091873,148.669396 L4.8973538,145.914401 L0.0921684453,145.914401 L3.24557134,141.819138 C3.24557134,141.819138 8.5125765,141.410428 11.0539975,141.819138 C12.2165735,142.006102 19.0125858,143.606162 19.0125858,143.606162 L25.6197157,138.840764 L29.9744149,143.606162 L36.8818688,140.925626 L44.2398089,143.606162 L48.7446702,141.819138 L53.8501796,139.883195 L53.8501796,139.883195 Z" id="Path-115"></path>
            <path d="M53.8501796,163.023322 L57.3039066,167.341964 L52.3485592,172.703035 L49.4954804,169.724662 L42.1375403,172.107361 L41.2365681,169.054528 L34.9297623,171.809523 L30.8753871,169.054528 L25.6197157,170.916011 L15.2585347,169.054528 L8.20091873,171.809523 L4.8973538,169.054528 L0.0921684453,169.054528 L3.24557134,164.959265 C3.24557134,164.959265 8.5125765,164.550555 11.0539975,164.959265 C12.2165735,165.14623 19.0125858,166.746289 19.0125858,166.746289 L25.6197157,161.980892 L29.9744149,166.746289 L36.8818688,164.065753 L44.2398089,166.746289 L48.7446702,164.959265 L53.8501796,163.023322 L53.8501796,163.023322 Z" id="Path-115"></path>
        </g>
    </g>
</svg>