<?xml version="1.0" encoding="UTF-8"?>
<svg width="360px" height="640px" viewBox="0 0 360 640" version="1.1" xmlns="http://www.w3.org/2000/svg" xmlns:xlink="http://www.w3.org/1999/xlink">
    <!-- Generator: Sketch 52.3 (67297) - http://www.bohemiancoding.com/sketch -->
    <title>9 Coins</title>
    <desc>Created with Sketch.</desc>
    <g id="9-Coins" stroke="none" stroke-width="1" fill="none" fill-rule="evenodd">
        <rect id="Rectangle-9" stroke="#000000" stroke-width="10" fill="#DD7500" x="15" y="26" width="330" height="589" rx="25"></rect>
        <g id="Group" transform="translate(109.000000, 188.000000)" fill="#000000">
            <g id="princess">
                <g id="bathroom-woman" transform="translate(16.000000, 0.078062)">
                    <rect id="Rectangle-15" x="19.1138926" y="59.6279932" width="70.6164391" height="119.424768"></rect>
                    <rect id="Rectangle-15" x="0.500827836" y="58.7924992" width="108.245626" height="33.6839088" rx="16.8419544"></rect>
                    <path d="M19.1138926,179.022124 C19.1138926,171.936039 24.8607074,166.191632 31.9532451,166.191632 L31.9532451,166.191632 C39.0442237,166.191632 44.7925977,171.937415 44.7925977,179.022124 L44.7925977,250.738259 C44.7925977,257.824344 39.0457828,263.56875 31.9532451,263.56875 L31.9532451,263.56875 C24.8622665,263.56875 19.1138926,257.822968 19.1138926,250.738259 L19.1138926,179.022124 Z" id="Rectangle-15"></path>
                    <rect id="Rectangle-15" x="64.0516265" y="166.191632" width="25.6787051" height="97.3771183" rx="12.8393526"></rect>
                    <polygon id="Path-42" points="7.10736286 250.950485 57.0814436 250.950485 57.0814436 73.8415821 21.1265478 110.06659"></polygon>
                    <polygon id="Path-42" points="52.669714 251.051417 102.643795 251.051417 102.643795 73.9425142 66.6888989 110.167522"></polygon>
                </g>
                <g id="arm" transform="translate(21.500000, 96.000000) scale(-1, 1) translate(-21.500000, -96.000000) translate(4.000000, 67.000000)">
                    <path d="M25.7899434,0.0759942019 C31.7428558,0.603132974 35.8030224,3.73308362 34.8604601,7.06029614 L22.064449,52.2297717 C21.1210447,55.5599563 15.5317842,57.8323899 9.57756297,57.3051352 C3.62465059,56.7779965 -0.435516071,53.6480458 0.507046305,50.3208333 L13.3030574,5.15135778 C14.2464617,1.8211731 19.8357221,-0.451260473 25.7899434,0.0759942019 Z" id="Rectangle-15" transform="translate(17.683753, 28.690565) scale(-1, 1) translate(-17.683753, -28.690565) "></path>
                </g>
                <rect id="Rectangle-17" transform="translate(23.686542, 127.127875) rotate(-323.000000) translate(-23.686542, -127.127875) " x="1.1865417" y="117.627875" width="45" height="19" rx="9.5"></rect>
            </g>
        </g>
        <g id="coin" transform="translate(153.000000, 195.000000)" stroke="#000000">
            <circle id="Oval-31" stroke-width="3" cx="23" cy="23" r="23"></circle>
            <circle id="Oval-31" stroke-width="2" cx="23" cy="23" r="15.8444444"></circle>
            <circle id="Oval-31" cx="23" cy="23" r="8.68888889"></circle>
            <circle id="Oval-31" stroke-width="0.5" cx="23" cy="23" r="3.57777778"></circle>
        </g>
        <g id="coin" transform="translate(30.000000, 222.000000)" stroke="#000000">
            <circle id="Oval-31" stroke-width="3" cx="13.5" cy="13.5" r="13.5"></circle>
            <circle id="Oval-31" stroke-width="2" cx="13.5" cy="13.5" r="9.3"></circle>
            <circle id="Oval-31" cx="13.5" cy="13.5" r="5.1"></circle>
            <circle id="Oval-31" stroke-width="0.5" cx="13.5" cy="13.5" r="2.1"></circle>
        </g>
        <g id="coin" transform="translate(30.000000, 268.000000)" stroke="#000000">
            <circle id="Oval-31" stroke-width="3" cx="13.5" cy="13.5" r="13.5"></circle>
            <circle id="Oval-31" stroke-width="2" cx="13.5" cy="13.5" r="9.3"></circle>
            <circle id="Oval-31" cx="13.5" cy="13.5" r="5.1"></circle>
            <circle id="Oval-31" stroke-width="0.5" cx="13.5" cy="13.5" r="2.1"></circle>
        </g>
        <g id="coin" transform="translate(30.000000, 316.000000)" stroke="#000000">
            <circle id="Oval-31" stroke-width="3" cx="13.5" cy="13.5" r="13.5"></circle>
            <circle id="Oval-31" stroke-width="2" cx="13.5" cy="13.5" r="9.3"></circle>
            <circle id="Oval-31" cx="13.5" cy="13.5" r="5.1"></circle>
            <circle id="Oval-31" stroke-width="0.5" cx="13.5" cy="13.5" r="2.1"></circle>
        </g>
        <g id="coin" transform="translate(30.000000, 362.000000)" stroke="#000000">
            <circle id="Oval-31" stroke-width="3" cx="13.5" cy="13.5" r="13.5"></circle>
            <circle id="Oval-31" stroke-width="2" cx="13.5" cy="13.5" r="9.3"></circle>
            <circle id="Oval-31" cx="13.5" cy="13.5" r="5.1"></circle>
            <circle id="Oval-31" stroke-width="0.5" cx="13.5" cy="13.5" r="2.1"></circle>
        </g>
        <g id="coin" transform="translate(305.000000, 222.000000)" stroke="#000000">
            <circle id="Oval-31" stroke-width="3" cx="13.5" cy="13.5" r="13.5"></circle>
            <circle id="Oval-31" stroke-width="2" cx="13.5" cy="13.5" r="9.3"></circle>
            <circle id="Oval-31" cx="13.5" cy="13.5" r="5.1"></circle>
            <circle id="Oval-31" stroke-width="0.5" cx="13.5" cy="13.5" r="2.1"></circle>
        </g>
        <g id="coin" transform="translate(305.000000, 268.000000)" stroke="#000000">
            <circle id="Oval-31" stroke-width="3" cx="13.5" cy="13.5" r="13.5"></circle>
            <circle id="Oval-31" stroke-width="2" cx="13.5" cy="13.5" r="9.3"></circle>
            <circle id="Oval-31" cx="13.5" cy="13.5" r="5.1"></circle>
            <circle id="Oval-31" stroke-width="0.5" cx="13.5" cy="13.5" r="2.1"></circle>
        </g>
        <g id="coin" transform="translate(305.000000, 316.000000)" stroke="#000000">
            <circle id="Oval-31" stroke-width="3" cx="13.5" cy="13.5" r="13.5"></circle>
            <circle id="Oval-31" stroke-width="2" cx="13.5" cy="13.5" r="9.3"></circle>
            <circle id="Oval-31" cx="13.5" cy="13.5" r="5.1"></circle>
            <circle id="Oval-31" stroke-width="0.5" cx="13.5" cy="13.5" r="2.1"></circle>
        </g>
        <g id="coin" transform="translate(305.000000, 362.000000)" stroke="#000000">
            <circle id="Oval-31" stroke-width="3" cx="13.5" cy="13.5" r="13.5"></circle>
            <circle id="Oval-31" stroke-width="2" cx="13.5" cy="13.5" r="9.3"></circle>
            <circle id="Oval-31" cx="13.5" cy="13.5" r="5.1"></circle>
            <circle id="Oval-31" stroke-width="0.5" cx="13.5" cy="13.5" r="2.1"></circle>
        </g>
        <path d="M18,533 L342,533" id="Line" stroke="#000000" stroke-width="10" stroke-linecap="square"></path>
        <text id="ACE" font-family="HighwayGothicExpanded, Highway Gothic Expanded" font-size="24" font-style="expanded" font-weight="normal" line-spacing="20" fill="#FFFFFF">
            <tspan x="147.5" y="587.830952">GAIN</tspan>
        </text>
        <g id="Label" transform="translate(166.000000, 40.000000)" fill="#FFFFFF" font-weight="normal" line-spacing="20">
            <text id="COINS" font-family="HighwayGothicCondensed, Highway Gothic Condensed" font-size="14.3661972" font-style="condensed">
                <tspan x="1.75" y="12.6785714">COINS</tspan>
            </text>
            <text id="2" font-family="HighwayGothicExpanded, Highway Gothic Expanded" font-size="34.4788732" font-style="expanded">
                <tspan x="0.759259259" y="62.0535714">9</tspan>
            </text>
        </g>
        <rect id="Rectangle-480" fill="#000000" transform="translate(237.526912, 249.526912) rotate(-45.000000) translate(-237.526912, -249.526912) " x="203.526912" y="237.526912" width="68" height="24" rx="12"></rect>
        <g id="Group-2" transform="translate(238.000000, 202.000000)" fill="#000000">
            <path d="M0.333658854,12.9070065 C-0.276082357,12.9070065 5.92549642,18.6113969 6.69189453,18.8147145 C7.45829264,19.018032 19.5548503,19.018032 20.2059325,18.8147145 C20.8570148,18.6113969 18.0196126,14.0052611 17.3225911,13.6533753 C16.6255697,13.3014895 0.943400065,12.9070065 0.333658854,12.9070065 Z" id="Path-514"></path>
            <path d="M21.7858887,18.3895246 C21.1232471,18.0931723 15.1066081,7.15374671 15.1066081,6.56653004 C15.806071,6.38072185 21.1525472,6.56653004 21.7858887,6.56653004 C22.4257421,6.70216217 29.7848384,12.1669097 29.790446,12.6890542 C29.7960536,13.2111988 22.4485302,18.685877 21.7858887,18.3895246 Z" id="Path-515"></path>
            <path d="M15.008138,5.46472277 C14.6520996,5.16494855 18.3127848,0.136868939 19.325765,0.131712148 C20.3387451,0.126555356 29.6854657,5.32245152 29.4287109,5.48382482 C29.1719562,5.64519813 15.3641764,5.76449699 15.008138,5.46472277 Z" id="Path-516"></path>
            <path d="M0.899251302,10.3635997 C0.55511475,10.5069952 3.81429032,12.0400762 4.26350911,12.1924465 C4.71272791,12.3448168 16.7707322,13.1004161 16.8766276,12.8652556 C16.982523,12.6300951 1.24338785,10.2202042 0.899251302,10.3635997 Z" id="Path-517"></path>
        </g>
    </g>
</svg>