<?xml version="1.0" encoding="UTF-8"?>
<svg width="360px" height="640px" viewBox="0 0 360 640" version="1.1" xmlns="http://www.w3.org/2000/svg" xmlns:xlink="http://www.w3.org/1999/xlink">
    <!-- Generator: Sketch 52.3 (67297) - http://www.bohemiancoding.com/sketch -->
    <title>9 Cups</title>
    <desc>Created with Sketch.</desc>
    <g id="9-Cups" stroke="none" stroke-width="1" fill="none" fill-rule="evenodd">
        <rect id="Rectangle-9" stroke="#000000" stroke-width="10" fill="#FCD116" x="15" y="26" width="330" height="589" rx="25"></rect>
        <path d="M18,533 L342,533" id="Line" stroke="#000000" stroke-width="10" stroke-linecap="square"></path>
        <g id="Label" transform="translate(166.000000, 40.000000)" fill="#000000" font-weight="normal" line-spacing="20">
            <text id="CUPS" font-family="HighwayGothicCondensed, Highway Gothic Condensed" font-size="14.3661972" font-style="condensed">
                <tspan x="3.43802817" y="12.6785714">CUPS</tspan>
            </text>
            <text id="2" font-family="HighwayGothicExpanded, Highway Gothic Expanded" font-size="34.4788732" font-style="expanded">
                <tspan x="0.759259259" y="62.0535714">9</tspan>
            </text>
        </g>
        <text id="ACE" font-family="HighwayGothicExpanded, Highway Gothic Expanded" font-size="24" font-style="expanded" font-weight="normal" line-spacing="20" fill="#000000">
            <tspan x="100.788" y="581.070821">HAPPINESS </tspan>
        </text>
        <g id="Group" transform="translate(36.000000, 193.000000)">
            <circle id="Oval-203" fill="#000000" cx="151" cy="114" r="114"></circle>
            <rect id="Rectangle-385" stroke="#FCD116" fill="#FCD116" x="42.5" y="202.5" width="216" height="52"></rect>
            <path d="M34.9980469,185 L269.017277,185" id="Path-328" stroke="#FCD116" stroke-width="8" fill="#FCD116"></path>
            <path d="M35.9980469,167.5 L270.017277,167.5" id="Path-328" stroke="#FCD116" stroke-width="7" fill="#FCD116"></path>
            <path d="M34.9980469,151.5 L269.017277,151.5" id="Path-328" stroke="#FCD116" stroke-width="5" fill="#FCD116"></path>
            <path d="M34.9980469,136.5 L269.017277,136.5" id="Path-328" stroke="#FCD116" stroke-width="5" fill="#FCD116"></path>
            <path d="M35,122 L269.01923,122" id="Path-328" stroke="#FCD116" stroke-width="4" fill="#FCD116"></path>
            <path d="M34,107.5 L268.01923,107.5" id="Path-328" stroke="#FCD116" stroke-width="3" fill="#FCD116"></path>
            <path d="M34,96 L268.01923,96" id="Path-328" stroke="#FCD116" stroke-width="2" fill="#FCD116"></path>
        </g>
        <g id="Group-2" transform="translate(66.000000, 420.000000)" fill="#000000" stroke="#000000">
            <g id="cup">
                <path d="M12.4394499,1.30315164e-08 C12.4394499,1.30315164e-08 11.2204276,6.36547187 14.7511017,11.4791152 C18.2817759,16.5927585 24.7682594,17.856402 24.7682594,17.856402 L24.7682594,0 L12.4394499,1.30315164e-08 Z" id="Path-95" transform="translate(18.502159, 8.928201) scale(-1, 1) translate(-18.502159, -8.928201) "></path>
                <path d="M0.203391446,1.30315164e-08 C0.203391446,1.30315164e-08 -1.01563081,6.36547187 2.5150433,11.4791152 C6.04571742,16.5927585 12.5322009,17.856402 12.5322009,17.856402 L12.5322009,0 L0.203391446,1.30315164e-08 Z" id="Path-95"></path>
                <path d="M4.19522004,26.8592639 C4.19522004,26.8592639 6.32586001,26.466529 9.58907437,23.2879835 C12.8522887,20.109438 12.4144266,13.8495996 12.4144266,13.8495996 L12.4144266,26.8592639 L4.19522004,26.8592639 Z" id="Path-97"></path>
                <path d="M12.2360584,26.8592639 C12.2360584,26.8592639 14.3666984,26.466529 17.6299128,23.2879835 C20.8931271,20.109438 20.455265,13.8495996 20.455265,13.8495996 L20.455265,26.8592639 L12.2360584,26.8592639 Z" id="Path-97" transform="translate(16.355463, 20.354432) scale(-1, 1) translate(-16.355463, -20.354432) "></path>
            </g>
            <g id="cup" transform="translate(26.461165, 0.000000)">
                <path d="M12.4394499,1.30315164e-08 C12.4394499,1.30315164e-08 11.2204276,6.36547187 14.7511017,11.4791152 C18.2817759,16.5927585 24.7682594,17.856402 24.7682594,17.856402 L24.7682594,0 L12.4394499,1.30315164e-08 Z" id="Path-95" transform="translate(18.502159, 8.928201) scale(-1, 1) translate(-18.502159, -8.928201) "></path>
                <path d="M0.203391446,1.30315164e-08 C0.203391446,1.30315164e-08 -1.01563081,6.36547187 2.5150433,11.4791152 C6.04571742,16.5927585 12.5322009,17.856402 12.5322009,17.856402 L12.5322009,0 L0.203391446,1.30315164e-08 Z" id="Path-95"></path>
                <path d="M4.19522004,26.8592639 C4.19522004,26.8592639 6.32586001,26.466529 9.58907437,23.2879835 C12.8522887,20.109438 12.4144266,13.8495996 12.4144266,13.8495996 L12.4144266,26.8592639 L4.19522004,26.8592639 Z" id="Path-97"></path>
                <path d="M12.2360584,26.8592639 C12.2360584,26.8592639 14.3666984,26.466529 17.6299128,23.2879835 C20.8931271,20.109438 20.455265,13.8495996 20.455265,13.8495996 L20.455265,26.8592639 L12.2360584,26.8592639 Z" id="Path-97" transform="translate(16.355463, 20.354432) scale(-1, 1) translate(-16.355463, -20.354432) "></path>
            </g>
            <g id="cup" transform="translate(52.922330, 0.000000)">
                <path d="M12.4394499,1.30315164e-08 C12.4394499,1.30315164e-08 11.2204276,6.36547187 14.7511017,11.4791152 C18.2817759,16.5927585 24.7682594,17.856402 24.7682594,17.856402 L24.7682594,0 L12.4394499,1.30315164e-08 Z" id="Path-95" transform="translate(18.502159, 8.928201) scale(-1, 1) translate(-18.502159, -8.928201) "></path>
                <path d="M0.203391446,1.30315164e-08 C0.203391446,1.30315164e-08 -1.01563081,6.36547187 2.5150433,11.4791152 C6.04571742,16.5927585 12.5322009,17.856402 12.5322009,17.856402 L12.5322009,0 L0.203391446,1.30315164e-08 Z" id="Path-95"></path>
                <path d="M4.19522004,26.8592639 C4.19522004,26.8592639 6.32586001,26.466529 9.58907437,23.2879835 C12.8522887,20.109438 12.4144266,13.8495996 12.4144266,13.8495996 L12.4144266,26.8592639 L4.19522004,26.8592639 Z" id="Path-97"></path>
                <path d="M12.2360584,26.8592639 C12.2360584,26.8592639 14.3666984,26.466529 17.6299128,23.2879835 C20.8931271,20.109438 20.455265,13.8495996 20.455265,13.8495996 L20.455265,26.8592639 L12.2360584,26.8592639 Z" id="Path-97" transform="translate(16.355463, 20.354432) scale(-1, 1) translate(-16.355463, -20.354432) "></path>
            </g>
            <g id="cup" transform="translate(158.766990, 0.000000)">
                <path d="M12.4394499,1.30315164e-08 C12.4394499,1.30315164e-08 11.2204276,6.36547187 14.7511017,11.4791152 C18.2817759,16.5927585 24.7682594,17.856402 24.7682594,17.856402 L24.7682594,0 L12.4394499,1.30315164e-08 Z" id="Path-95" transform="translate(18.502159, 8.928201) scale(-1, 1) translate(-18.502159, -8.928201) "></path>
                <path d="M0.203391446,1.30315164e-08 C0.203391446,1.30315164e-08 -1.01563081,6.36547187 2.5150433,11.4791152 C6.04571742,16.5927585 12.5322009,17.856402 12.5322009,17.856402 L12.5322009,0 L0.203391446,1.30315164e-08 Z" id="Path-95"></path>
                <path d="M4.19522004,26.8592639 C4.19522004,26.8592639 6.32586001,26.466529 9.58907437,23.2879835 C12.8522887,20.109438 12.4144266,13.8495996 12.4144266,13.8495996 L12.4144266,26.8592639 L4.19522004,26.8592639 Z" id="Path-97"></path>
                <path d="M12.2360584,26.8592639 C12.2360584,26.8592639 14.3666984,26.466529 17.6299128,23.2879835 C20.8931271,20.109438 20.455265,13.8495996 20.455265,13.8495996 L20.455265,26.8592639 L12.2360584,26.8592639 Z" id="Path-97" transform="translate(16.355463, 20.354432) scale(-1, 1) translate(-16.355463, -20.354432) "></path>
            </g>
            <g id="cup" transform="translate(79.383495, 0.000000)">
                <path d="M12.4394499,1.30315164e-08 C12.4394499,1.30315164e-08 11.2204276,6.36547187 14.7511017,11.4791152 C18.2817759,16.5927585 24.7682594,17.856402 24.7682594,17.856402 L24.7682594,0 L12.4394499,1.30315164e-08 Z" id="Path-95" transform="translate(18.502159, 8.928201) scale(-1, 1) translate(-18.502159, -8.928201) "></path>
                <path d="M0.203391446,1.30315164e-08 C0.203391446,1.30315164e-08 -1.01563081,6.36547187 2.5150433,11.4791152 C6.04571742,16.5927585 12.5322009,17.856402 12.5322009,17.856402 L12.5322009,0 L0.203391446,1.30315164e-08 Z" id="Path-95"></path>
                <path d="M4.19522004,26.8592639 C4.19522004,26.8592639 6.32586001,26.466529 9.58907437,23.2879835 C12.8522887,20.109438 12.4144266,13.8495996 12.4144266,13.8495996 L12.4144266,26.8592639 L4.19522004,26.8592639 Z" id="Path-97"></path>
                <path d="M12.2360584,26.8592639 C12.2360584,26.8592639 14.3666984,26.466529 17.6299128,23.2879835 C20.8931271,20.109438 20.455265,13.8495996 20.455265,13.8495996 L20.455265,26.8592639 L12.2360584,26.8592639 Z" id="Path-97" transform="translate(16.355463, 20.354432) scale(-1, 1) translate(-16.355463, -20.354432) "></path>
            </g>
            <g id="cup" transform="translate(105.844660, 0.000000)">
                <path d="M12.4394499,1.30315164e-08 C12.4394499,1.30315164e-08 11.2204276,6.36547187 14.7511017,11.4791152 C18.2817759,16.5927585 24.7682594,17.856402 24.7682594,17.856402 L24.7682594,0 L12.4394499,1.30315164e-08 Z" id="Path-95" transform="translate(18.502159, 8.928201) scale(-1, 1) translate(-18.502159, -8.928201) "></path>
                <path d="M0.203391446,1.30315164e-08 C0.203391446,1.30315164e-08 -1.01563081,6.36547187 2.5150433,11.4791152 C6.04571742,16.5927585 12.5322009,17.856402 12.5322009,17.856402 L12.5322009,0 L0.203391446,1.30315164e-08 Z" id="Path-95"></path>
                <path d="M4.19522004,26.8592639 C4.19522004,26.8592639 6.32586001,26.466529 9.58907437,23.2879835 C12.8522887,20.109438 12.4144266,13.8495996 12.4144266,13.8495996 L12.4144266,26.8592639 L4.19522004,26.8592639 Z" id="Path-97"></path>
                <path d="M12.2360584,26.8592639 C12.2360584,26.8592639 14.3666984,26.466529 17.6299128,23.2879835 C20.8931271,20.109438 20.455265,13.8495996 20.455265,13.8495996 L20.455265,26.8592639 L12.2360584,26.8592639 Z" id="Path-97" transform="translate(16.355463, 20.354432) scale(-1, 1) translate(-16.355463, -20.354432) "></path>
            </g>
            <g id="cup" transform="translate(132.305825, 0.000000)">
                <path d="M12.4394499,1.30315164e-08 C12.4394499,1.30315164e-08 11.2204276,6.36547187 14.7511017,11.4791152 C18.2817759,16.5927585 24.7682594,17.856402 24.7682594,17.856402 L24.7682594,0 L12.4394499,1.30315164e-08 Z" id="Path-95" transform="translate(18.502159, 8.928201) scale(-1, 1) translate(-18.502159, -8.928201) "></path>
                <path d="M0.203391446,1.30315164e-08 C0.203391446,1.30315164e-08 -1.01563081,6.36547187 2.5150433,11.4791152 C6.04571742,16.5927585 12.5322009,17.856402 12.5322009,17.856402 L12.5322009,0 L0.203391446,1.30315164e-08 Z" id="Path-95"></path>
                <path d="M4.19522004,26.8592639 C4.19522004,26.8592639 6.32586001,26.466529 9.58907437,23.2879835 C12.8522887,20.109438 12.4144266,13.8495996 12.4144266,13.8495996 L12.4144266,26.8592639 L4.19522004,26.8592639 Z" id="Path-97"></path>
                <path d="M12.2360584,26.8592639 C12.2360584,26.8592639 14.3666984,26.466529 17.6299128,23.2879835 C20.8931271,20.109438 20.455265,13.8495996 20.455265,13.8495996 L20.455265,26.8592639 L12.2360584,26.8592639 Z" id="Path-97" transform="translate(16.355463, 20.354432) scale(-1, 1) translate(-16.355463, -20.354432) "></path>
            </g>
            <g id="cup" transform="translate(185.228155, 0.000000)">
                <path d="M12.4394499,1.30315164e-08 C12.4394499,1.30315164e-08 11.2204276,6.36547187 14.7511017,11.4791152 C18.2817759,16.5927585 24.7682594,17.856402 24.7682594,17.856402 L24.7682594,0 L12.4394499,1.30315164e-08 Z" id="Path-95" transform="translate(18.502159, 8.928201) scale(-1, 1) translate(-18.502159, -8.928201) "></path>
                <path d="M0.203391446,1.30315164e-08 C0.203391446,1.30315164e-08 -1.01563081,6.36547187 2.5150433,11.4791152 C6.04571742,16.5927585 12.5322009,17.856402 12.5322009,17.856402 L12.5322009,0 L0.203391446,1.30315164e-08 Z" id="Path-95"></path>
                <path d="M4.19522004,26.8592639 C4.19522004,26.8592639 6.32586001,26.466529 9.58907437,23.2879835 C12.8522887,20.109438 12.4144266,13.8495996 12.4144266,13.8495996 L12.4144266,26.8592639 L4.19522004,26.8592639 Z" id="Path-97"></path>
                <path d="M12.2360584,26.8592639 C12.2360584,26.8592639 14.3666984,26.466529 17.6299128,23.2879835 C20.8931271,20.109438 20.455265,13.8495996 20.455265,13.8495996 L20.455265,26.8592639 L12.2360584,26.8592639 Z" id="Path-97" transform="translate(16.355463, 20.354432) scale(-1, 1) translate(-16.355463, -20.354432) "></path>
            </g>
            <g id="cup" transform="translate(211.689320, 0.000000)">
                <path d="M12.4394499,1.30315164e-08 C12.4394499,1.30315164e-08 11.2204276,6.36547187 14.7511017,11.4791152 C18.2817759,16.5927585 24.7682594,17.856402 24.7682594,17.856402 L24.7682594,0 L12.4394499,1.30315164e-08 Z" id="Path-95" transform="translate(18.502159, 8.928201) scale(-1, 1) translate(-18.502159, -8.928201) "></path>
                <path d="M0.203391446,1.30315164e-08 C0.203391446,1.30315164e-08 -1.01563081,6.36547187 2.5150433,11.4791152 C6.04571742,16.5927585 12.5322009,17.856402 12.5322009,17.856402 L12.5322009,0 L0.203391446,1.30315164e-08 Z" id="Path-95"></path>
                <path d="M4.19522004,26.8592639 C4.19522004,26.8592639 6.32586001,26.466529 9.58907437,23.2879835 C12.8522887,20.109438 12.4144266,13.8495996 12.4144266,13.8495996 L12.4144266,26.8592639 L4.19522004,26.8592639 Z" id="Path-97"></path>
                <path d="M12.2360584,26.8592639 C12.2360584,26.8592639 14.3666984,26.466529 17.6299128,23.2879835 C20.8931271,20.109438 20.455265,13.8495996 20.455265,13.8495996 L20.455265,26.8592639 L12.2360584,26.8592639 Z" id="Path-97" transform="translate(16.355463, 20.354432) scale(-1, 1) translate(-16.355463, -20.354432) "></path>
            </g>
        </g>
    </g>
</svg>