<?xml version="1.0" encoding="UTF-8"?>
<svg width="360px" height="640px" viewBox="0 0 360 640" version="1.1" xmlns="http://www.w3.org/2000/svg" xmlns:xlink="http://www.w3.org/1999/xlink">
    <!-- Generator: Sketch 52.3 (67297) - http://www.bohemiancoding.com/sketch -->
    <title>9 Swords</title>
    <desc>Created with Sketch.</desc>
    <g id="9-Swords" stroke="none" stroke-width="1" fill="none" fill-rule="evenodd">
        <rect id="Rectangle-9" stroke="#000000" stroke-width="10" fill="#AF1E2D" x="15" y="26" width="330" height="589" rx="25"></rect>
        <g id="Group" transform="translate(127.000000, 125.000000)">
            <g id="sword" transform="translate(53.000000, 168.389087) scale(-1, -1) rotate(-270.000000) translate(-53.000000, -168.389087) translate(43.610913, 115.389087)">
                <rect id="Rectangle-65" x="2.88894994" y="22.111708" width="12.3502613" height="83.4532813"></rect>
                <rect id="Rectangle-63" fill="#000000" x="0" y="17.1187417" width="18.7781746" height="4.99296633" rx="2.49648316"></rect>
                <g id="Rectangle-61-+-Triangle-7" transform="translate(5.055662, 22.111708)" fill="#000000">
                    <rect id="Rectangle-61" x="0" y="0" width="3.61118742" height="76.3210567"></rect>
                    <polygon id="Triangle-7" transform="translate(1.805594, 79.887461) scale(1, -1) translate(-1.805594, -79.887461) " points="3.61118742 76.3210567 3.61118742 83.4538658 0 83.4538658"></polygon>
                </g>
                <g id="Rectangle-61-+-Triangle-7" transform="translate(11.194681, 63.838641) scale(-1, 1) translate(-11.194681, -63.838641) translate(9.389087, 22.111708)" fill="#000000">
                    <rect id="Rectangle-61" x="0" y="0" width="3.61118742" height="76.3210567"></rect>
                    <polygon id="Triangle-7" transform="translate(1.805594, 79.887461) scale(1, -1) translate(-1.805594, -79.887461) " points="3.61118742 76.3210567 3.61118742 83.4538658 0 83.4538658"></polygon>
                </g>
                <rect id="Rectangle-63" fill="#000000" x="5.05566239" y="0" width="7.94461233" height="19.9718653" rx="3.97230616"></rect>
            </g>
            <g id="sword" transform="translate(53.000000, 9.389087) scale(-1, -1) rotate(-270.000000) translate(-53.000000, -9.389087) translate(43.610913, -43.610913)">
                <rect id="Rectangle-65" x="2.88894994" y="22.111708" width="12.3502613" height="83.4532813"></rect>
                <rect id="Rectangle-63" fill="#000000" x="0" y="17.1187417" width="18.7781746" height="4.99296633" rx="2.49648316"></rect>
                <g id="Rectangle-61-+-Triangle-7" transform="translate(5.055662, 22.111708)" fill="#000000">
                    <rect id="Rectangle-61" x="0" y="0" width="3.61118742" height="76.3210567"></rect>
                    <polygon id="Triangle-7" transform="translate(1.805594, 79.887461) scale(1, -1) translate(-1.805594, -79.887461) " points="3.61118742 76.3210567 3.61118742 83.4538658 0 83.4538658"></polygon>
                </g>
                <g id="Rectangle-61-+-Triangle-7" transform="translate(11.194681, 63.838641) scale(-1, 1) translate(-11.194681, -63.838641) translate(9.389087, 22.111708)" fill="#000000">
                    <rect id="Rectangle-61" x="0" y="0" width="3.61118742" height="76.3210567"></rect>
                    <polygon id="Triangle-7" transform="translate(1.805594, 79.887461) scale(1, -1) translate(-1.805594, -79.887461) " points="3.61118742 76.3210567 3.61118742 83.4538658 0 83.4538658"></polygon>
                </g>
                <rect id="Rectangle-63" fill="#000000" x="5.05566239" y="0" width="7.94461233" height="19.9718653" rx="3.97230616"></rect>
            </g>
            <g id="sword" transform="translate(53.000000, 90.389087) scale(-1, -1) rotate(-270.000000) translate(-53.000000, -90.389087) translate(43.610913, 37.389087)">
                <rect id="Rectangle-65" x="2.88894994" y="22.111708" width="12.3502613" height="83.4532813"></rect>
                <rect id="Rectangle-63" fill="#000000" x="0" y="17.1187417" width="18.7781746" height="4.99296633" rx="2.49648316"></rect>
                <g id="Rectangle-61-+-Triangle-7" transform="translate(5.055662, 22.111708)" fill="#000000">
                    <rect id="Rectangle-61" x="0" y="0" width="3.61118742" height="76.3210567"></rect>
                    <polygon id="Triangle-7" transform="translate(1.805594, 79.887461) scale(1, -1) translate(-1.805594, -79.887461) " points="3.61118742 76.3210567 3.61118742 83.4538658 0 83.4538658"></polygon>
                </g>
                <g id="Rectangle-61-+-Triangle-7" transform="translate(11.194681, 63.838641) scale(-1, 1) translate(-11.194681, -63.838641) translate(9.389087, 22.111708)" fill="#000000">
                    <rect id="Rectangle-61" x="0" y="0" width="3.61118742" height="76.3210567"></rect>
                    <polygon id="Triangle-7" transform="translate(1.805594, 79.887461) scale(1, -1) translate(-1.805594, -79.887461) " points="3.61118742 76.3210567 3.61118742 83.4538658 0 83.4538658"></polygon>
                </g>
                <rect id="Rectangle-63" fill="#000000" x="5.05566239" y="0" width="7.94461233" height="19.9718653" rx="3.97230616"></rect>
            </g>
            <g id="sword" transform="translate(53.000000, 51.389087) scale(-1, -1) rotate(-270.000000) translate(-53.000000, -51.389087) translate(43.610913, -1.610913)">
                <rect id="Rectangle-65" x="2.88894994" y="22.111708" width="12.3502613" height="83.4532813"></rect>
                <rect id="Rectangle-63" fill="#000000" x="0" y="17.1187417" width="18.7781746" height="4.99296633" rx="2.49648316"></rect>
                <g id="Rectangle-61-+-Triangle-7" transform="translate(5.055662, 22.111708)" fill="#000000">
                    <rect id="Rectangle-61" x="0" y="0" width="3.61118742" height="76.3210567"></rect>
                    <polygon id="Triangle-7" transform="translate(1.805594, 79.887461) scale(1, -1) translate(-1.805594, -79.887461) " points="3.61118742 76.3210567 3.61118742 83.4538658 0 83.4538658"></polygon>
                </g>
                <g id="Rectangle-61-+-Triangle-7" transform="translate(11.194681, 63.838641) scale(-1, 1) translate(-11.194681, -63.838641) translate(9.389087, 22.111708)" fill="#000000">
                    <rect id="Rectangle-61" x="0" y="0" width="3.61118742" height="76.3210567"></rect>
                    <polygon id="Triangle-7" transform="translate(1.805594, 79.887461) scale(1, -1) translate(-1.805594, -79.887461) " points="3.61118742 76.3210567 3.61118742 83.4538658 0 83.4538658"></polygon>
                </g>
                <rect id="Rectangle-63" fill="#000000" x="5.05566239" y="0" width="7.94461233" height="19.9718653" rx="3.97230616"></rect>
            </g>
            <g id="sword" transform="translate(53.000000, 71.389087) scale(1, -1) rotate(-270.000000) translate(-53.000000, -71.389087) translate(43.610913, 18.389087)">
                <rect id="Rectangle-65" x="2.88894994" y="22.111708" width="12.3502613" height="83.4532813"></rect>
                <rect id="Rectangle-63" fill="#000000" x="0" y="17.1187417" width="18.7781746" height="4.99296633" rx="2.49648316"></rect>
                <g id="Rectangle-61-+-Triangle-7" transform="translate(5.055662, 22.111708)" fill="#000000">
                    <rect id="Rectangle-61" x="0" y="0" width="3.61118742" height="76.3210567"></rect>
                    <polygon id="Triangle-7" transform="translate(1.805594, 79.887461) scale(1, -1) translate(-1.805594, -79.887461) " points="3.61118742 76.3210567 3.61118742 83.4538658 0 83.4538658"></polygon>
                </g>
                <g id="Rectangle-61-+-Triangle-7" transform="translate(11.194681, 63.838641) scale(-1, 1) translate(-11.194681, -63.838641) translate(9.389087, 22.111708)" fill="#000000">
                    <rect id="Rectangle-61" x="0" y="0" width="3.61118742" height="76.3210567"></rect>
                    <polygon id="Triangle-7" transform="translate(1.805594, 79.887461) scale(1, -1) translate(-1.805594, -79.887461) " points="3.61118742 76.3210567 3.61118742 83.4538658 0 83.4538658"></polygon>
                </g>
                <rect id="Rectangle-63" fill="#000000" x="5.05566239" y="0" width="7.94461233" height="19.9718653" rx="3.97230616"></rect>
            </g>
            <g id="sword" transform="translate(53.000000, 31.610913) scale(1, -1) rotate(-270.000000) translate(-53.000000, -31.610913) translate(43.610913, -21.389087)">
                <rect id="Rectangle-65" x="2.88894994" y="22.111708" width="12.3502613" height="83.4532813"></rect>
                <rect id="Rectangle-63" fill="#000000" x="0" y="17.1187417" width="18.7781746" height="4.99296633" rx="2.49648316"></rect>
                <g id="Rectangle-61-+-Triangle-7" transform="translate(5.055662, 22.111708)" fill="#000000">
                    <rect id="Rectangle-61" x="0" y="0" width="3.61118742" height="76.3210567"></rect>
                    <polygon id="Triangle-7" transform="translate(1.805594, 79.887461) scale(1, -1) translate(-1.805594, -79.887461) " points="3.61118742 76.3210567 3.61118742 83.4538658 0 83.4538658"></polygon>
                </g>
                <g id="Rectangle-61-+-Triangle-7" transform="translate(11.194681, 63.838641) scale(-1, 1) translate(-11.194681, -63.838641) translate(9.389087, 22.111708)" fill="#000000">
                    <rect id="Rectangle-61" x="0" y="0" width="3.61118742" height="76.3210567"></rect>
                    <polygon id="Triangle-7" transform="translate(1.805594, 79.887461) scale(1, -1) translate(-1.805594, -79.887461) " points="3.61118742 76.3210567 3.61118742 83.4538658 0 83.4538658"></polygon>
                </g>
                <rect id="Rectangle-63" fill="#000000" x="5.05566239" y="0" width="7.94461233" height="19.9718653" rx="3.97230616"></rect>
            </g>
            <g id="sword" transform="translate(53.000000, 129.389087) scale(-1, -1) rotate(-270.000000) translate(-53.000000, -129.389087) translate(43.610913, 76.389087)">
                <rect id="Rectangle-65" x="2.88894994" y="22.111708" width="12.3502613" height="83.4532813"></rect>
                <rect id="Rectangle-63" fill="#000000" x="0" y="17.1187417" width="18.7781746" height="4.99296633" rx="2.49648316"></rect>
                <g id="Rectangle-61-+-Triangle-7" transform="translate(5.055662, 22.111708)" fill="#000000">
                    <rect id="Rectangle-61" x="0" y="0" width="3.61118742" height="76.3210567"></rect>
                    <polygon id="Triangle-7" transform="translate(1.805594, 79.887461) scale(1, -1) translate(-1.805594, -79.887461) " points="3.61118742 76.3210567 3.61118742 83.4538658 0 83.4538658"></polygon>
                </g>
                <g id="Rectangle-61-+-Triangle-7" transform="translate(11.194681, 63.838641) scale(-1, 1) translate(-11.194681, -63.838641) translate(9.389087, 22.111708)" fill="#000000">
                    <rect id="Rectangle-61" x="0" y="0" width="3.61118742" height="76.3210567"></rect>
                    <polygon id="Triangle-7" transform="translate(1.805594, 79.887461) scale(1, -1) translate(-1.805594, -79.887461) " points="3.61118742 76.3210567 3.61118742 83.4538658 0 83.4538658"></polygon>
                </g>
                <rect id="Rectangle-63" fill="#000000" x="5.05566239" y="0" width="7.94461233" height="19.9718653" rx="3.97230616"></rect>
            </g>
            <g id="sword" transform="translate(53.000000, 149.389087) scale(1, -1) rotate(-270.000000) translate(-53.000000, -149.389087) translate(43.610913, 96.389087)">
                <rect id="Rectangle-65" x="2.88894994" y="22.111708" width="12.3502613" height="83.4532813"></rect>
                <rect id="Rectangle-63" fill="#000000" x="0" y="17.1187417" width="18.7781746" height="4.99296633" rx="2.49648316"></rect>
                <g id="Rectangle-61-+-Triangle-7" transform="translate(5.055662, 22.111708)" fill="#000000">
                    <rect id="Rectangle-61" x="0" y="0" width="3.61118742" height="76.3210567"></rect>
                    <polygon id="Triangle-7" transform="translate(1.805594, 79.887461) scale(1, -1) translate(-1.805594, -79.887461) " points="3.61118742 76.3210567 3.61118742 83.4538658 0 83.4538658"></polygon>
                </g>
                <g id="Rectangle-61-+-Triangle-7" transform="translate(11.194681, 63.838641) scale(-1, 1) translate(-11.194681, -63.838641) translate(9.389087, 22.111708)" fill="#000000">
                    <rect id="Rectangle-61" x="0" y="0" width="3.61118742" height="76.3210567"></rect>
                    <polygon id="Triangle-7" transform="translate(1.805594, 79.887461) scale(1, -1) translate(-1.805594, -79.887461) " points="3.61118742 76.3210567 3.61118742 83.4538658 0 83.4538658"></polygon>
                </g>
                <rect id="Rectangle-63" fill="#000000" x="5.05566239" y="0" width="7.94461233" height="19.9718653" rx="3.97230616"></rect>
            </g>
            <g id="sword" transform="translate(53.000000, 109.610913) scale(1, -1) rotate(-270.000000) translate(-53.000000, -109.610913) translate(43.610913, 56.610913)">
                <rect id="Rectangle-65" x="2.88894994" y="22.111708" width="12.3502613" height="83.4532813"></rect>
                <rect id="Rectangle-63" fill="#000000" x="0" y="17.1187417" width="18.7781746" height="4.99296633" rx="2.49648316"></rect>
                <g id="Rectangle-61-+-Triangle-7" transform="translate(5.055662, 22.111708)" fill="#000000">
                    <rect id="Rectangle-61" x="0" y="0" width="3.61118742" height="76.3210567"></rect>
                    <polygon id="Triangle-7" transform="translate(1.805594, 79.887461) scale(1, -1) translate(-1.805594, -79.887461) " points="3.61118742 76.3210567 3.61118742 83.4538658 0 83.4538658"></polygon>
                </g>
                <g id="Rectangle-61-+-Triangle-7" transform="translate(11.194681, 63.838641) scale(-1, 1) translate(-11.194681, -63.838641) translate(9.389087, 22.111708)" fill="#000000">
                    <rect id="Rectangle-61" x="0" y="0" width="3.61118742" height="76.3210567"></rect>
                    <polygon id="Triangle-7" transform="translate(1.805594, 79.887461) scale(1, -1) translate(-1.805594, -79.887461) " points="3.61118742 76.3210567 3.61118742 83.4538658 0 83.4538658"></polygon>
                </g>
                <rect id="Rectangle-63" fill="#000000" x="5.05566239" y="0" width="7.94461233" height="19.9718653" rx="3.97230616"></rect>
            </g>
        </g>
        <path d="M18,533 L342,533" id="Line" stroke="#000000" stroke-width="10" stroke-linecap="square"></path>
        <g id="Label" transform="translate(116.000000, 40.000000)" fill="#FFFFFF" font-weight="normal" line-spacing="20">
            <text id="ACE" font-family="HighwayGothicExpanded, Highway Gothic Expanded" font-size="24" font-style="expanded">
                <tspan x="0.5" y="547.830952">CRUELTY</tspan>
            </text>
            <text id="SWORDS" font-family="HighwayGothicCondensed, Highway Gothic Condensed" font-size="14.3661972" font-style="condensed">
                <tspan x="47.5478873" y="12.6785714">SWORDS</tspan>
            </text>
            <text id="2" font-family="HighwayGothicExpanded, Highway Gothic Expanded" font-size="34.4788732" font-style="expanded">
                <tspan x="50.7592593" y="62.0535714">9</tspan>
            </text>
        </g>
        <g id="Group-2" transform="translate(130.000000, 323.000000)">
            <rect id="Rectangle-383" fill="#000000" x="2" y="35" width="29" height="73" rx="14.5"></rect>
            <rect id="Rectangle-383" fill="#000000" transform="translate(52.000000, 97.500000) rotate(-270.000000) translate(-52.000000, -97.500000) " x="41" y="49" width="22" height="97" rx="11"></rect>
            <path d="M12.9255161,54.2213032 C12.9255161,48.1982169 20.5412383,43.3155408 29.9301216,43.3155408 L39.4994535,43.3155408 C48.8908378,43.3155408 56.504059,50.9196193 56.504059,54.2213032 L56.504059,43.3155408 C56.504059,49.3386271 48.8883369,54.2213032 39.4994535,54.2213032 L29.9301216,54.2213032 C20.5387373,54.2213032 12.9255161,46.6172247 12.9255161,43.3155408 L12.9255161,54.2213032 Z" id="Rectangle-386" fill="#000000"></path>
            <circle id="Oval-202" fill="#000000" cx="17" cy="17" r="17"></circle>
            <path d="M26.8214645,24.6783667 C26.9063658,24.2183481 27.034512,23.7734411 27.2015148,23.3480303 L27.7003202,23.3480303 L27.7003202,26.0077904 L27.2009158,26.0077904 C27.0341975,25.5826774 26.9062604,25.1380801 26.8214645,24.6783667 Z M27.2015148,23.3480303 C28.2637612,20.6421421 30.8980647,18.7250291 33.9751653,18.7250291 L35.0913308,18.7250291 C38.1711659,18.7250291 40.8042287,20.6417022 41.8655803,23.3480303 L42.366176,23.3480303 C42.366176,23.8020359 42.3245909,24.2463798 42.2450316,24.6774539 C42.324594,25.1087944 42.366176,25.5534426 42.366176,26.0077904 L41.8649813,26.0077904 C40.802735,28.7136786 38.1684314,30.6307915 35.0913308,30.6307915 L33.9751653,30.6307915 C30.8953303,30.6307915 28.2622674,28.7141185 27.2009158,26.0077904 L26.7003202,26.0077904 C26.7003202,25.5537847 26.7419053,25.1094408 26.8214645,24.6783667 C26.7419022,24.2470263 26.7003202,23.802378 26.7003202,23.3480303 L27.2015148,23.3480303 Z M41.8655803,23.3480303 C42.0322986,23.7731432 42.1602358,24.2177405 42.2450316,24.6774539 C42.1601303,25.1374725 42.0319842,25.5823796 41.8649813,26.0077904 L41.366176,26.0077904 L41.366176,23.3480303 L41.8655803,23.3480303 Z" id="Rectangle-386" stroke="#AF1E2D"></path>
            <path d="M25.0525553,35.3212502 C25.0525553,29.2981639 30.4153806,24.4154878 37.0251907,24.4154878 L42.4116315,24.4154878 C49.0239354,24.4154878 54.3842669,29.7725219 54.3842669,35.3212502 L54.3842669,24.4154878 C54.3842669,30.438574 49.0214416,35.3212502 42.4116315,35.3212502 L37.0251907,35.3212502 C30.4128868,35.3212502 25.0525553,29.964216 25.0525553,24.4154878 L25.0525553,35.3212502 Z" id="Rectangle-386" fill="#000000"></path>
        </g>
        <rect id="Rectangle-389" fill="#000000" x="91" y="434" width="181" height="8" rx="4"></rect>
    </g>
</svg>