<?xml version="1.0" encoding="UTF-8"?>
<svg width="360px" height="640px" viewBox="0 0 360 640" version="1.1" xmlns="http://www.w3.org/2000/svg" xmlns:xlink="http://www.w3.org/1999/xlink">
    <!-- Generator: Sketch 52.3 (67297) - http://www.bohemiancoding.com/sketch -->
    <title>9 Wands</title>
    <desc>Created with Sketch.</desc>
    <defs>
        <ellipse id="path-1" cx="21.7549505" cy="21.6978923" rx="21.6707921" ry="21.6978923"></ellipse>
    </defs>
    <g id="9-Wands" stroke="none" stroke-width="1" fill="none" fill-rule="evenodd">
        <rect id="Rectangle-9" stroke="#000000" stroke-width="10" fill="#003F87" x="15" y="26" width="330" height="589" rx="25"></rect>
        <path d="M18,533 L342,533" id="Line" stroke="#000000" stroke-width="10" stroke-linecap="square"></path>
        <g id="Label" transform="translate(58.000000, 40.000000)" fill="#FFFFFF" font-weight="normal" line-spacing="20">
            <text id="WANDS" font-family="HighwayGothicCondensed, Highway Gothic Condensed" font-size="14.3661972" font-style="condensed">
                <tspan x="108.026056" y="12.6785714">WANDS</tspan>
            </text>
            <text id="ACE" font-family="HighwayGothicExpanded, Highway Gothic Expanded" font-size="24" font-style="expanded">
                <tspan x="0.5" y="547.830952">GREAT STRENGTH</tspan>
            </text>
            <text id="2" font-family="HighwayGothicExpanded, Highway Gothic Expanded" font-size="34.4788732" font-style="expanded">
                <tspan x="108.759259" y="62.0535714">9</tspan>
            </text>
        </g>
        <g id="dude" transform="translate(136.000000, 221.000000)">
            <rect id="Rectangle-15" fill="#000000" x="23.4554455" y="47.9906323" width="56.0891089" height="99.5550351"></rect>
            <rect id="Rectangle-15" fill="#000000" transform="translate(105.233156, 43.233156) rotate(-330.000000) translate(-105.233156, -43.233156) " x="96.5648389" y="9.1453337" width="17.3366337" height="68.175644" rx="8.66831683"></rect>
            <rect id="Rectangle-15" fill="#000000" x="0" y="47.9906323" width="102.490099" height="28.0796253" rx="14.0398126"></rect>
            <rect id="Rectangle-15" fill="#000000" x="23.4554455" y="136.824356" width="20.3960396" height="81.175644" rx="10.1980198"></rect>
            <rect id="Rectangle-15" fill="#000000" x="59.1485149" y="136.824356" width="20.3960396" height="81.175644" rx="10.1980198"></rect>
            <rect id="Rectangle-15" fill="#000000" x="0" y="55.7188498" width="17.3366337" height="81.175644" rx="8.66831683"></rect>
            <g id="Oval-7-+-Rectangle-263" transform="translate(30.000000, 0.000000)">
                <mask id="mask-2" fill="white">
                    <use xlink:href="#path-1"></use>
                </mask>
                <use id="Mask" fill="#000000" xlink:href="#path-1"></use>
                <rect id="Rectangle-263" fill="#FFFFFF" mask="url(#mask-2)" transform="translate(11.000000, 11.000000) rotate(-321.000000) translate(-11.000000, -11.000000) " x="8" y="-8" width="6" height="38"></rect>
            </g>
        </g>
        <g id="wands" transform="translate(229.000000, 67.000000)" fill="#000000">
            <path d="M30.991199,107.231023 L26.9634212,104.036579 L21.9634212,108.619912 L24.741199,111.258801 L22.5189768,118.064357 L25.366199,118.89769 L22.7967546,124.731023 L25.366199,128.481023 L23.6300879,133.342134 L25.366199,142.925468 L22.7967546,149.453245 L25.366199,152.508801 L25.366199,156.953245 L29.1856435,154.036579 C29.1856435,154.036579 29.5668264,149.164985 29.1856435,146.814357 C29.0112709,145.739059 27.5189768,139.453245 27.5189768,139.453245 L31.9634212,133.342134 L27.5189768,129.314357 L30.0189768,122.925468 L27.5189768,116.119912 L29.1856435,111.953245 L30.991199,107.231023 Z" id="wand" transform="translate(26.963421, 131.000000) scale(1, -1) rotate(-270.000000) translate(-26.963421, -131.000000) "></path>
            <path d="M30.991199,89.2310232 L26.9634212,86.0365788 L21.9634212,90.6199121 L24.741199,93.258801 L22.5189768,100.064357 L25.366199,100.89769 L22.7967546,106.731023 L25.366199,110.481023 L23.6300879,115.342134 L25.366199,124.925468 L22.7967546,131.453245 L25.366199,134.508801 L25.366199,138.953245 L29.1856435,136.036579 C29.1856435,136.036579 29.5668264,131.164985 29.1856435,128.814357 C29.0112709,127.739059 27.5189768,121.453245 27.5189768,121.453245 L31.9634212,115.342134 L27.5189768,111.314357 L30.0189768,104.925468 L27.5189768,98.1199121 L29.1856435,93.9532454 L30.991199,89.2310232 Z" id="wand" transform="translate(26.963421, 113.000000) scale(1, -1) rotate(-270.000000) translate(-26.963421, -113.000000) "></path>
            <path d="M30.991199,125.231023 L26.9634212,122.036579 L21.9634212,126.619912 L24.741199,129.258801 L22.5189768,136.064357 L25.366199,136.89769 L22.7967546,142.731023 L25.366199,146.481023 L23.6300879,151.342134 L25.366199,160.925468 L22.7967546,167.453245 L25.366199,170.508801 L25.366199,174.953245 L29.1856435,172.036579 C29.1856435,172.036579 29.5668264,167.164985 29.1856435,164.814357 C29.0112709,163.739059 27.5189768,157.453245 27.5189768,157.453245 L31.9634212,151.342134 L27.5189768,147.314357 L30.0189768,140.925468 L27.5189768,134.119912 L29.1856435,129.953245 L30.991199,125.231023 Z" id="wand" transform="translate(26.963421, 149.000000) scale(1, -1) rotate(-270.000000) translate(-26.963421, -149.000000) "></path>
            <path d="M30.991199,71.2310232 L26.9634212,68.0365788 L21.9634212,72.6199121 L24.741199,75.258801 L22.5189768,82.0643565 L25.366199,82.8976899 L22.7967546,88.7310232 L25.366199,92.4810232 L23.6300879,97.3421343 L25.366199,106.925468 L22.7967546,113.453245 L25.366199,116.508801 L25.366199,120.953245 L29.1856435,118.036579 C29.1856435,118.036579 29.5668264,113.164985 29.1856435,110.814357 C29.0112709,109.739059 27.5189768,103.453245 27.5189768,103.453245 L31.9634212,97.3421343 L27.5189768,93.3143565 L30.0189768,86.9254677 L27.5189768,80.1199121 L29.1856435,75.9532454 L30.991199,71.2310232 Z" id="wand" transform="translate(26.963421, 95.000000) scale(1, -1) rotate(-270.000000) translate(-26.963421, -95.000000) "></path>
            <path d="M30.991199,54.2310232 L26.9634212,51.0365788 L21.9634212,55.6199121 L24.741199,58.258801 L22.5189768,65.0643565 L25.366199,65.8976899 L22.7967546,71.7310232 L25.366199,75.4810232 L23.6300879,80.3421343 L25.366199,89.9254677 L22.7967546,96.4532454 L25.366199,99.508801 L25.366199,103.953245 L29.1856435,101.036579 C29.1856435,101.036579 29.5668264,96.1649848 29.1856435,93.8143565 C29.0112709,92.7390589 27.5189768,86.4532454 27.5189768,86.4532454 L31.9634212,80.3421343 L27.5189768,76.3143565 L30.0189768,69.9254677 L27.5189768,63.1199121 L29.1856435,58.9532454 L30.991199,54.2310232 Z" id="wand" transform="translate(26.963421, 78.000000) scale(1, -1) rotate(-270.000000) translate(-26.963421, -78.000000) "></path>
            <path d="M30.991199,34.2310232 L26.9634212,31.0365788 L21.9634212,35.6199121 L24.741199,38.258801 L22.5189768,45.0643565 L25.366199,45.8976899 L22.7967546,51.7310232 L25.366199,55.4810232 L23.6300879,60.3421343 L25.366199,69.9254677 L22.7967546,76.4532454 L25.366199,79.508801 L25.366199,83.9532454 L29.1856435,81.0365788 C29.1856435,81.0365788 29.5668264,76.1649848 29.1856435,73.8143565 C29.0112709,72.7390589 27.5189768,66.4532454 27.5189768,66.4532454 L31.9634212,60.3421343 L27.5189768,56.3143565 L30.0189768,49.9254677 L27.5189768,43.1199121 L29.1856435,38.9532454 L30.991199,34.2310232 Z" id="wand" transform="translate(26.963421, 58.000000) scale(1, -1) rotate(-270.000000) translate(-26.963421, -58.000000) "></path>
            <path d="M30.991199,16.2310232 L26.9634212,13.0365788 L21.9634212,17.6199121 L24.741199,20.258801 L22.5189768,27.0643565 L25.366199,27.8976899 L22.7967546,33.7310232 L25.366199,37.4810232 L23.6300879,42.3421343 L25.366199,51.9254677 L22.7967546,58.4532454 L25.366199,61.508801 L25.366199,65.9532454 L29.1856435,63.0365788 C29.1856435,63.0365788 29.5668264,58.1649848 29.1856435,55.8143565 C29.0112709,54.7390589 27.5189768,48.4532454 27.5189768,48.4532454 L31.9634212,42.3421343 L27.5189768,38.3143565 L30.0189768,31.9254677 L27.5189768,25.1199121 L29.1856435,20.9532454 L30.991199,16.2310232 Z" id="wand" transform="translate(26.963421, 40.000000) scale(1, -1) rotate(-270.000000) translate(-26.963421, -40.000000) "></path>
            <path d="M30.991199,-0.768976791 L26.9634212,-3.96342124 L21.9634212,0.619912098 L24.741199,3.25880099 L22.5189768,10.0643565 L25.366199,10.8976899 L22.7967546,16.7310232 L25.366199,20.4810232 L23.6300879,25.3421343 L25.366199,34.9254677 L22.7967546,41.4532454 L25.366199,44.508801 L25.366199,48.9532454 L29.1856435,46.0365788 C29.1856435,46.0365788 29.5668264,41.1649848 29.1856435,38.8143565 C29.0112709,37.7390589 27.5189768,31.4532454 27.5189768,31.4532454 L31.9634212,25.3421343 L27.5189768,21.3143565 L30.0189768,14.9254677 L27.5189768,8.1199121 L29.1856435,3.95324543 L30.991199,-0.768976791 Z" id="wand" transform="translate(26.963421, 23.000000) scale(1, -1) rotate(-270.000000) translate(-26.963421, -23.000000) "></path>
            <path d="M30.991199,-18.7689768 L26.9634212,-21.9634212 L21.9634212,-17.3800879 L24.741199,-14.741199 L22.5189768,-7.93564346 L25.366199,-7.10231012 L22.7967546,-1.26897679 L25.366199,2.48102321 L23.6300879,7.34213432 L25.366199,16.9254677 L22.7967546,23.4532454 L25.366199,26.508801 L25.366199,30.9532454 L29.1856435,28.0365788 C29.1856435,28.0365788 29.5668264,23.1649848 29.1856435,20.8143565 C29.0112709,19.7390589 27.5189768,13.4532454 27.5189768,13.4532454 L31.9634212,7.34213432 L27.5189768,3.31435654 L30.0189768,-3.07453235 L27.5189768,-9.8800879 L29.1856435,-14.0467546 L30.991199,-18.7689768 Z" id="wand" transform="translate(26.963421, 5.000000) scale(1, -1) rotate(-270.000000) translate(-26.963421, -5.000000) "></path>
        </g>
        <g id="infinity" transform="translate(170.000000, 193.000000)" stroke="#FFFFFF" stroke-width="4">
            <ellipse id="Oval-8" cx="9.25" cy="6" rx="9.25" ry="6"></ellipse>
            <ellipse id="Oval-8" cx="27.75" cy="6" rx="9.25" ry="6"></ellipse>
        </g>
    </g>
</svg>