<?xml version="1.0" encoding="UTF-8"?>
<svg width="360px" height="640px" viewBox="0 0 360 640" version="1.1" xmlns="http://www.w3.org/2000/svg" xmlns:xlink="http://www.w3.org/1999/xlink">
    <!-- Generator: Sketch 52.3 (67297) - http://www.bohemiancoding.com/sketch -->
    <title>Ace Wands</title>
    <desc>Created with Sketch.</desc>
    <g id="Ace-Wands" stroke="none" stroke-width="1" fill="none" fill-rule="evenodd">
        <rect id="Rectangle-9" stroke="#000000" stroke-width="10" fill="#003F87" x="15" y="26" width="330" height="589" rx="25"></rect>
        <text id="ACE" font-family="HighwayGothicExpanded, Highway Gothic Expanded" font-size="24" font-style="expanded" font-weight="normal" line-spacing="20" fill="#FFFFFF">
            <tspan x="149" y="591">FIRE</tspan>
        </text>
        <g id="Oval-69-+-Oval-70" transform="translate(80.500000, 321.000000) scale(-1, 1) translate(-80.500000, -321.000000) translate(44.000000, 267.000000)">
            <path d="M41.3484278,102.39746 C58.7665449,102.39746 72.8867187,87.6170972 72.8867187,69.3845957 C72.8867187,61.1340323 65.2152211,47.8033506 65.2152211,47.8033506 C65.2152211,47.8033506 61.3483177,37.1394736 45.1945618,15.6427233 C29.0408059,-5.85402707 57.3563891,3.97123439 55.1945048,2.59112604 C52.3758018,0.791716335 22.117762,-5.08628545 23.6562153,14.1072411 C25.1946685,33.3007677 33.2912397,31.5501294 30.5792539,30.9975435 C8.3820605,26.4747112 -4.31057165,37.1394727 2.11787067,37.1394727 C24.8400789,37.1394727 20.2247191,47.8033508 20.2247186,44.870205 C20.2247191,50.1910698 9.81013676,59.6569746 9.81013676,69.3845957 C9.81013676,87.6170972 23.9303106,102.39746 41.3484278,102.39746 Z" id="Oval-69" fill="#FFFFFF"></path>
            <path d="M40.5792011,107.003906 C50.7751722,107.003906 59.8098664,98.5587549 58.2714132,83.2039343 C61.3483196,74.7587829 48.2714672,88.5781215 48.2714672,83.2039343 C55.1945067,74.7587829 52.8868269,70.9200778 50.5791471,64.7781495 C48.10294,56.9836557 38.2715213,51.726552 38.2715213,51.726552 C38.2715213,51.726552 45.9637874,64.7781495 34.4253883,70.1523367 C26.7331222,74.7587829 22.1177625,78.4018416 22.1177625,88.5781215 C22.1177625,98.7544014 30.3832301,107.003906 40.5792011,107.003906 Z" id="Oval-70" fill="#003F87"></path>
        </g>
        <g id="WANDS-+-2" transform="translate(165.000000, 43.000000)" fill="#FFFFFF" font-weight="normal" line-spacing="20">
            <text id="WANDS" font-family="HighwayGothicCondensed, Highway Gothic Condensed" font-size="14.3661972" font-style="condensed">
                <tspan x="5.02605634" y="12.6785714">WANDS</tspan>
            </text>
            <text id="2" font-family="HighwayGothicExpanded, Highway Gothic Expanded" font-size="34.4788732" font-style="expanded">
                <tspan x="4.75925926" y="62.0535714">A</tspan>
            </text>
        </g>
        <path d="M18,529 L342,529" id="Line" stroke="#000000" stroke-width="10" stroke-linecap="square"></path>
        <g id="Oval-69-+-Oval-70" transform="translate(177.386719, 321.000000) scale(-1, 1) translate(-177.386719, -321.000000) translate(140.886719, 267.000000)">
            <path d="M41.3484278,102.39746 C58.7665449,102.39746 72.8867187,87.6170972 72.8867187,69.3845957 C72.8867187,61.1340323 65.2152211,47.8033506 65.2152211,47.8033506 C65.2152211,47.8033506 61.3483177,37.1394736 45.1945618,15.6427233 C29.0408059,-5.85402707 57.3563891,3.97123439 55.1945048,2.59112604 C52.3758018,0.791716335 22.117762,-5.08628545 23.6562153,14.1072411 C25.1946685,33.3007677 33.2912397,31.5501294 30.5792539,30.9975435 C8.3820605,26.4747112 -4.31057165,37.1394727 2.11787067,37.1394727 C24.8400789,37.1394727 20.2247191,47.8033508 20.2247186,44.870205 C20.2247191,50.1910698 9.81013676,59.6569746 9.81013676,69.3845957 C9.81013676,87.6170972 23.9303106,102.39746 41.3484278,102.39746 Z" id="Oval-69" fill="#FFFFFF"></path>
            <path d="M40.5792011,107.003906 C50.7751722,107.003906 59.8098664,98.5587549 58.2714132,83.2039343 C61.3483196,74.7587829 48.2714672,88.5781215 48.2714672,83.2039343 C55.1945067,74.7587829 52.8868269,70.9200778 50.5791471,64.7781495 C48.10294,56.9836557 38.2715213,51.726552 38.2715213,51.726552 C38.2715213,51.726552 45.9637874,64.7781495 34.4253883,70.1523367 C26.7331222,74.7587829 22.1177625,78.4018416 22.1177625,88.5781215 C22.1177625,98.7544014 30.3832301,107.003906 40.5792011,107.003906 Z" id="Oval-70" fill="#003F87"></path>
        </g>
        <g id="Oval-69-+-Oval-70" transform="translate(279.273438, 321.000000) scale(-1, 1) translate(-279.273438, -321.000000) translate(242.773438, 267.000000)">
            <path d="M41.3484278,102.39746 C58.7665449,102.39746 72.8867187,87.6170972 72.8867187,69.3845957 C72.8867187,61.1340323 65.2152211,47.8033506 65.2152211,47.8033506 C65.2152211,47.8033506 61.3483177,37.1394736 45.1945618,15.6427233 C29.0408059,-5.85402707 57.3563891,3.97123439 55.1945048,2.59112604 C52.3758018,0.791716335 22.117762,-5.08628545 23.6562153,14.1072411 C25.1946685,33.3007677 33.2912397,31.5501294 30.5792539,30.9975435 C8.3820605,26.4747112 -4.31057165,37.1394727 2.11787067,37.1394727 C24.8400789,37.1394727 20.2247191,47.8033508 20.2247186,44.870205 C20.2247191,50.1910698 9.81013676,59.6569746 9.81013676,69.3845957 C9.81013676,87.6170972 23.9303106,102.39746 41.3484278,102.39746 Z" id="Oval-69" fill="#FFFFFF"></path>
            <path d="M40.5792011,107.003906 C50.7751722,107.003906 59.8098664,98.5587549 58.2714132,83.2039343 C61.3483196,74.7587829 48.2714672,88.5781215 48.2714672,83.2039343 C55.1945067,74.7587829 52.8868269,70.9200778 50.5791471,64.7781495 C48.10294,56.9836557 38.2715213,51.726552 38.2715213,51.726552 C38.2715213,51.726552 45.9637874,64.7781495 34.4253883,70.1523367 C26.7331222,74.7587829 22.1177625,78.4018416 22.1177625,88.5781215 C22.1177625,98.7544014 30.3832301,107.003906 40.5792011,107.003906 Z" id="Oval-70" fill="#003F87"></path>
        </g>
    </g>
</svg>