<?xml version="1.0" encoding="UTF-8"?>
<svg width="360px" height="640px" viewBox="0 0 360 640" version="1.1" xmlns="http://www.w3.org/2000/svg" xmlns:xlink="http://www.w3.org/1999/xlink">
    <!-- Generator: Sketch 52.3 (67297) - http://www.bohemiancoding.com/sketch -->
    <title>Ace Swords</title>
    <desc>Created with Sketch.</desc>
    <g id="Ace-Swords" stroke="none" stroke-width="1" fill="none" fill-rule="evenodd">
        <rect id="Rectangle-9" stroke="#000000" stroke-width="10" fill="#003F87" x="15" y="28" width="330" height="589" rx="25"></rect>
        <text id="ACE" font-family="HighwayGothicExpanded, Highway Gothic Expanded" font-size="24" font-style="expanded" font-weight="normal" line-spacing="20" fill="#FFFFFF">
            <tspan x="156.5" y="591">AIR</tspan>
        </text>
        <g id="WANDS-+-2" transform="translate(165.000000, 43.000000)" fill="#FFFFFF" font-weight="normal" line-spacing="20">
            <text id="SWORDS" font-family="HighwayGothicCondensed, Highway Gothic Condensed" font-size="14.3661972" font-style="condensed">
                <tspan x="2.54788732" y="12.6785714">SWORDS</tspan>
            </text>
            <text id="2" font-family="HighwayGothicExpanded, Highway Gothic Expanded" font-size="34.4788732" font-style="expanded">
                <tspan x="4.75925926" y="62.0535714">A</tspan>
            </text>
        </g>
        <path d="M18,529 L342,529" id="Line" stroke="#000000" stroke-width="10" stroke-linecap="square"></path>
        <g id="wind" transform="translate(141.000000, 282.000000)" stroke="#FFFFFF" stroke-linecap="square">
            <path d="M1.69565217,40.661157 C14.2434783,40.661157 25.4453435,41.9549593 40.3574711,35.6513322 C55.2695987,29.3477051 59.4755805,11.0098711 50.87243,2.98707038 C42.2692795,-5.03573029 36.4629211,5.07646341 35.5779431,10.2457953 C34.692965,15.4151273 43.0340069,19.164779 43.0340069,19.164779" id="Line" stroke-width="9"></path>
            <path d="M0,40.8453983 C6.74902984,40.8453983 12.7741152,41.5412886 20.7948188,38.1507916 C28.8155224,34.7602945 31.0777706,24.8970251 26.4504416,20.5818456 C21.8231126,16.2666662 18.7000787,21.7056559 18.2240805,24.4860559 C17.7480822,27.2664559 22.2344323,29.2832603 22.2344323,29.2832603" id="Line" stroke-width="3"></path>
            <path d="M14.2434783,81.322314 C26.7913043,81.322314 37.9931696,82.6161164 52.9052972,76.3124893 C67.8174248,70.0088621 72.0234066,51.6710281 63.4202561,43.6482274 C54.8171055,35.6254267 49.0107472,45.7376204 48.1257691,50.9069524 C47.2407911,56.0762843 55.5818329,59.825936 55.5818329,59.825936" id="Line" stroke-width="9" transform="translate(41.040272, 61.046527) scale(1, -1) translate(-41.040272, -61.046527) "></path>
            <path d="M40.6956522,38.1182614 C49.3217971,38.1182614 57.022646,39.0077004 67.2741567,34.6742007 C77.5256674,30.3407009 80.4171172,17.7341496 74.5027841,12.2187846 C68.588451,6.70341953 64.5968043,13.6551614 63.9884161,17.2088771 C63.3800279,20.7625928 69.1141715,23.3403333 69.1141715,23.3403333" id="Line" stroke-width="5"></path>
        </g>
        <g id="wind" transform="translate(43.000000, 282.000000)" stroke="#FFFFFF" stroke-linecap="square">
            <path d="M1.69565217,40.661157 C14.2434783,40.661157 25.4453435,41.9549593 40.3574711,35.6513322 C55.2695987,29.3477051 59.4755805,11.0098711 50.87243,2.98707038 C42.2692795,-5.03573029 36.4629211,5.07646341 35.5779431,10.2457953 C34.692965,15.4151273 43.0340069,19.164779 43.0340069,19.164779" id="Line" stroke-width="9"></path>
            <path d="M0,40.8453983 C6.74902984,40.8453983 12.7741152,41.5412886 20.7948188,38.1507916 C28.8155224,34.7602945 31.0777706,24.8970251 26.4504416,20.5818456 C21.8231126,16.2666662 18.7000787,21.7056559 18.2240805,24.4860559 C17.7480822,27.2664559 22.2344323,29.2832603 22.2344323,29.2832603" id="Line" stroke-width="3"></path>
            <path d="M14.2434783,81.322314 C26.7913043,81.322314 37.9931696,82.6161164 52.9052972,76.3124893 C67.8174248,70.0088621 72.0234066,51.6710281 63.4202561,43.6482274 C54.8171055,35.6254267 49.0107472,45.7376204 48.1257691,50.9069524 C47.2407911,56.0762843 55.5818329,59.825936 55.5818329,59.825936" id="Line" stroke-width="9" transform="translate(41.040272, 61.046527) scale(1, -1) translate(-41.040272, -61.046527) "></path>
            <path d="M40.6956522,38.1182614 C49.3217971,38.1182614 57.022646,39.0077004 67.2741567,34.6742007 C77.5256674,30.3407009 80.4171172,17.7341496 74.5027841,12.2187846 C68.588451,6.70341953 64.5968043,13.6551614 63.9884161,17.2088771 C63.3800279,20.7625928 69.1141715,23.3403333 69.1141715,23.3403333" id="Line" stroke-width="5"></path>
        </g>
        <g id="wind" transform="translate(239.000000, 282.000000)" stroke="#FFFFFF" stroke-linecap="square">
            <path d="M1.69565217,40.661157 C14.2434783,40.661157 25.4453435,41.9549593 40.3574711,35.6513322 C55.2695987,29.3477051 59.4755805,11.0098711 50.87243,2.98707038 C42.2692795,-5.03573029 36.4629211,5.07646341 35.5779431,10.2457953 C34.692965,15.4151273 43.0340069,19.164779 43.0340069,19.164779" id="Line" stroke-width="9"></path>
            <path d="M0,40.8453983 C6.74902984,40.8453983 12.7741152,41.5412886 20.7948188,38.1507916 C28.8155224,34.7602945 31.0777706,24.8970251 26.4504416,20.5818456 C21.8231126,16.2666662 18.7000787,21.7056559 18.2240805,24.4860559 C17.7480822,27.2664559 22.2344323,29.2832603 22.2344323,29.2832603" id="Line" stroke-width="3"></path>
            <path d="M14.2434783,81.322314 C26.7913043,81.322314 37.9931696,82.6161164 52.9052972,76.3124893 C67.8174248,70.0088621 72.0234066,51.6710281 63.4202561,43.6482274 C54.8171055,35.6254267 49.0107472,45.7376204 48.1257691,50.9069524 C47.2407911,56.0762843 55.5818329,59.825936 55.5818329,59.825936" id="Line" stroke-width="9" transform="translate(41.040272, 61.046527) scale(1, -1) translate(-41.040272, -61.046527) "></path>
            <path d="M40.6956522,38.1182614 C49.3217971,38.1182614 57.022646,39.0077004 67.2741567,34.6742007 C77.5256674,30.3407009 80.4171172,17.7341496 74.5027841,12.2187846 C68.588451,6.70341953 64.5968043,13.6551614 63.9884161,17.2088771 C63.3800279,20.7625928 69.1141715,23.3403333 69.1141715,23.3403333" id="Line" stroke-width="5"></path>
        </g>
    </g>
</svg>