<?xml version="1.0" encoding="UTF-8"?>
<svg width="360px" height="640px" viewBox="0 0 360 640" version="1.1" xmlns="http://www.w3.org/2000/svg" xmlns:xlink="http://www.w3.org/1999/xlink">
    <!-- Generator: Sketch 52.3 (67297) - http://www.bohemiancoding.com/sketch -->
    <title>Ace Cups</title>
    <desc>Created with Sketch.</desc>
    <g id="Ace-Cups" stroke="none" stroke-width="1" fill="none" fill-rule="evenodd">
        <rect id="Rectangle-9" stroke="#000000" stroke-width="10" fill="#003F87" x="15" y="26" width="330" height="589" rx="25"></rect>
        <text id="ACE" font-family="HighwayGothicExpanded, Highway Gothic Expanded" font-size="24" font-style="expanded" font-weight="normal" line-spacing="20" fill="#FFFFFF">
            <tspan x="133" y="591">WATER</tspan>
        </text>
        <g id="WANDS-+-2" transform="translate(165.000000, 43.000000)" fill="#FFFFFF" font-weight="normal" line-spacing="20">
            <text id="CUPS" font-family="HighwayGothicCondensed, Highway Gothic Condensed" font-size="14.3661972" font-style="condensed">
                <tspan x="8.43802817" y="12.6785714">CUPS</tspan>
            </text>
            <text id="2" font-family="HighwayGothicExpanded, Highway Gothic Expanded" font-size="34.4788732" font-style="expanded">
                <tspan x="4.75925926" y="62.0535714">A</tspan>
            </text>
        </g>
        <path d="M18,529 L342,529" id="Line" stroke="#000000" stroke-width="10" stroke-linecap="square"></path>
        <g id="Oval-18-+-Path-104" transform="translate(44.000000, 270.000000)">
            <path d="M36.4939196,100.908659 C56.6489549,100.908659 73.5178822,84.6014667 72.9878392,64.5153725 C72.158432,33.0848064 36.4939196,0 36.4939196,0 C36.4939196,0 1.45803017e-09,33.0848064 0,64.5153725 C0,84.6148299 16.3388843,100.908659 36.4939196,100.908659 Z" id="Oval-18" stroke="#FFFFFF" stroke-width="14"></path>
            <path d="M20.0899879,56.388758 C22.1109064,43.7525831 25.3186472,31.4805195 25.3198194,31.4805195 C27.8832756,31.480517 9.73373507,43.2387953 11.3040191,68.294059 C11.9616768,78.7875655 23.8177958,89.0558768 25.3198194,88.211039 C26.8218431,87.3662011 19.466123,78.8195389 19.466123,63.7031499 C19.466123,61.2735069 19.7029611,58.8087162 20.0899879,56.388758 Z" id="Path-104" fill="#FFFFFF"></path>
        </g>
        <g id="Oval-18-+-Path-104" transform="translate(144.000000, 270.000000)">
            <path d="M36.4939196,100.908659 C56.6489549,100.908659 73.5178822,84.6014667 72.9878392,64.5153725 C72.158432,33.0848064 36.4939196,0 36.4939196,0 C36.4939196,0 1.45803017e-09,33.0848064 0,64.5153725 C0,84.6148299 16.3388843,100.908659 36.4939196,100.908659 Z" id="Oval-18" stroke="#FFFFFF" stroke-width="14"></path>
            <path d="M20.0899879,56.388758 C22.1109064,43.7525831 25.3186472,31.4805195 25.3198194,31.4805195 C27.8832756,31.480517 9.73373507,43.2387953 11.3040191,68.294059 C11.9616768,78.7875655 23.8177958,89.0558768 25.3198194,88.211039 C26.8218431,87.3662011 19.466123,78.8195389 19.466123,63.7031499 C19.466123,61.2735069 19.7029611,58.8087162 20.0899879,56.388758 Z" id="Path-104" fill="#FFFFFF"></path>
        </g>
        <g id="Oval-18-+-Path-104" transform="translate(244.000000, 270.000000)">
            <path d="M36.4939196,100.908659 C56.6489549,100.908659 73.5178822,84.6014667 72.9878392,64.5153725 C72.158432,33.0848064 36.4939196,0 36.4939196,0 C36.4939196,0 1.45803017e-09,33.0848064 0,64.5153725 C0,84.6148299 16.3388843,100.908659 36.4939196,100.908659 Z" id="Oval-18" stroke="#FFFFFF" stroke-width="14"></path>
            <path d="M20.0899879,56.388758 C22.1109064,43.7525831 25.3186472,31.4805195 25.3198194,31.4805195 C27.8832756,31.480517 9.73373507,43.2387953 11.3040191,68.294059 C11.9616768,78.7875655 23.8177958,89.0558768 25.3198194,88.211039 C26.8218431,87.3662011 19.466123,78.8195389 19.466123,63.7031499 C19.466123,61.2735069 19.7029611,58.8087162 20.0899879,56.388758 Z" id="Path-104" fill="#FFFFFF"></path>
        </g>
    </g>
</svg>