<?xml version="1.0" encoding="UTF-8"?>
<svg width="360px" height="640px" viewBox="0 0 360 640" version="1.1" xmlns="http://www.w3.org/2000/svg" xmlns:xlink="http://www.w3.org/1999/xlink">
    <!-- Generator: Sketch 52.3 (67297) - http://www.bohemiancoding.com/sketch -->
    <title>Color Palate</title>
    <desc>Created with Sketch.</desc>
    <g id="Color-Palate" stroke="none" stroke-width="1" fill="none" fill-rule="evenodd">
        <rect id="Rectangle-9" stroke="#000000" stroke-width="10" fill="#E2D6B5" x="15" y="26" width="330" height="589" rx="25"></rect>
        <g id="colors" transform="translate(181.500000, 287.500000) rotate(-270.000000) translate(-181.500000, -287.500000) translate(-82.000000, 123.000000)">
            <rect id="Rectangle-1" fill="#FCD116" x="148.25" y="0" width="63.125" height="329"></rect>
            <rect id="Rectangle-1" fill="#AF1E2D" x="85.125" y="5.68434189e-14" width="63.125" height="329"></rect>
            <rect id="Rectangle-1" fill="#603311" x="2.48689958e-14" y="5.68434189e-14" width="85.125" height="329"></rect>
            <rect id="Rectangle-1" fill="#006B54" x="211.375" y="0" width="63.125" height="329"></rect>
            <rect id="Rectangle-1" fill="#003F87" x="274.5" y="0" width="63.125" height="329"></rect>
            <rect id="Rectangle-1" fill="#DD7500" x="337.625" y="0" width="63.125" height="329"></rect>
            <rect id="Rectangle-1" fill="#E0AA0F" x="400.75" y="0" width="63.125" height="329"></rect>
            <rect id="Rectangle-1" fill="#E2D6B5" x="463.875" y="-5.68434189e-14" width="63.125" height="329"></rect>
        </g>
        <g id="Group" transform="translate(28.000000, 89.000000)" font-family="HighwayGothic, Highway Gothic" font-size="48" font-weight="normal" line-spacing="20">
            <text id="COLOR-PALATE">
                <tspan x="0" y="42" fill="#FFFFFF">COLOR </tspan>
                <tspan x="144.48" y="42" fill="#000000">PALATE</tspan>
            </text>
            <text id="COLOR-PALATE">
                <tspan x="0" y="102" fill="#FFFFFF">COLOR</tspan>
                <tspan x="132.24" y="102" fill="#000000"> PALATE</tspan>
            </text>
            <text id="COLOR-PALATE">
                <tspan x="0" y="165" fill="#FFFFFF">COLOR</tspan>
                <tspan x="132.24" y="165" fill="#000000"> PALATE</tspan>
            </text>
            <text id="COLOR-PALATE">
                <tspan x="0" y="234" fill="#FFFFFF">COLOR</tspan>
                <tspan x="132.24" y="234" fill="#000000"> PALATE</tspan>
            </text>
            <text id="COLOR-PALATE">
                <tspan x="0" y="293" fill="#FFFFFF">COLOR</tspan>
                <tspan x="132.24" y="293" fill="#000000"> PALATE</tspan>
            </text>
            <text id="COLOR-PALATE">
                <tspan x="0" y="356" fill="#FFFFFF">COLOR</tspan>
                <tspan x="132.24" y="356" fill="#000000"> PALATE</tspan>
            </text>
            <text id="COLOR-PALATE">
                <tspan x="0" y="419" fill="#FFFFFF">COLOR</tspan>
                <tspan x="132.24" y="419" fill="#000000"> PALATE</tspan>
            </text>
            <text id="COLOR-PALATE">
                <tspan x="1" y="484" fill="#FFFFFF">COLOR</tspan>
                <tspan x="133.24" y="484" fill="#000000"> PALATE</tspan>
            </text>
        </g>
        <rect id="Rectangle-9" stroke="#000000" stroke-width="10" x="15" y="26" width="330" height="589" rx="25"></rect>
    </g>
</svg>