<?xml version="1.0" encoding="UTF-8"?>
<svg width="360px" height="640px" viewBox="0 0 360 640" version="1.1" xmlns="http://www.w3.org/2000/svg" xmlns:xlink="http://www.w3.org/1999/xlink">
    <!-- Generator: Sketch 52.3 (67297) - http://www.bohemiancoding.com/sketch -->
    <title>King Cups</title>
    <desc>Created with Sketch.</desc>
    <g id="King-Cups" stroke="none" stroke-width="1" fill="none" fill-rule="evenodd">
        <g id="WANDS-+-2" transform="translate(10.000000, 21.000000)">
            <rect id="Rectangle-9" stroke="#000000" stroke-width="10" fill="#DD7500" x="5" y="5" width="330" height="589" rx="25"></rect>
            <path d="M8,508 L332,508" id="Line" stroke="#000000" stroke-width="10" stroke-linecap="square"></path>
            <text id="ACE" font-family="HighwayGothicExpanded, Highway Gothic Expanded" font-size="24" font-style="expanded" font-weight="normal" line-spacing="20" fill="#000000">
                <tspan x="61.58" y="556">MASTER OF THE </tspan>
                <tspan x="32" y="576">WAVES AND WATERS</tspan>
            </text>
            <text id="CUPS" font-family="HighwayGothicCondensed, Highway Gothic Condensed" font-size="14.3661972" font-style="condensed" font-weight="normal" line-spacing="20" fill="#000000">
                <tspan x="163.438028" y="58.6785714">CUPS</tspan>
            </text>
            <text id="2" font-family="HighwayGothicExpanded, Highway Gothic Expanded" font-size="34.4788732" font-style="expanded" font-weight="normal" line-spacing="20" fill="#000000">
                <tspan x="128.759259" y="68.0535714">KING</tspan>
            </text>
        </g>
        <g id="water-droplet" transform="translate(275.000000, 39.000000)">
            <path d="M16.997168,39.9638255 C26.3844447,39.9638255 34.2412054,33.5055314 33.9943361,25.5506426 C33.6080368,13.1028936 16.997168,0 16.997168,0 C16.997168,0 6.79082545e-10,13.1028936 0,25.5506426 C0,33.5108237 7.60989134,39.9638255 16.997168,39.9638255 Z" id="Oval-18" fill="#000000"></path>
            <path d="M17.0517102,38.019802 C24.8660172,38.019802 31.4062675,32.6436855 31.2007646,26.0217497 C30.8791952,15.6597955 17.0517102,4.75247525 17.0517102,4.75247525 C17.0517102,4.75247525 2.90265574,15.6597955 2.90265574,26.0217497 C2.90265574,32.648091 9.23740318,38.019802 17.0517102,38.019802 Z" id="Oval-18" fill="#DD7500"></path>
            <path d="M8.79457599,23.3299955 C9.7358257,18.3255698 11.7022822,13.4653465 11.230388,13.4653465 C10.7584937,13.4653465 3.97111578,18.1220894 4.70248097,28.0449661 C5.00878727,32.2008103 10.5308153,36.2674682 11.230388,35.932879 C11.9299606,35.5982898 8.50400881,32.213473 8.50400881,26.2267843 C8.50400881,25.2645495 8.61431694,24.2883947 8.79457599,23.3299955 Z" id="Path-104" fill="#000000"></path>
        </g>
        <g id="cup" transform="translate(52.000000, 41.000000)" fill="#000000" stroke="#000000">
            <path d="M15.535707,1.82834027e-08 C15.535707,1.82834027e-08 14.0132625,8.93086136 18.4227435,16.1053867 C22.8322245,23.2799121 30.9332345,25.0528247 30.9332345,25.0528247 L30.9332345,-2.84217094e-14 L15.535707,1.82834027e-08 Z" id="Path-95" transform="translate(23.107462, 12.526412) scale(-1, 1) translate(-23.107462, -12.526412) "></path>
            <path d="M0.254016852,1.82834027e-08 C0.254016852,1.82834027e-08 -1.26842769,8.93086136 3.14105336,16.1053867 C7.5505344,23.2799121 15.6515443,25.0528247 15.6515443,25.0528247 L15.6515443,-2.84217094e-14 L0.254016852,1.82834027e-08 Z" id="Path-95"></path>
            <path d="M5.23943662,37.6839875 C5.23943662,37.6839875 7.90040624,37.132974 11.9758551,32.6734226 C16.051304,28.2138711 15.5044553,19.4312152 15.5044553,19.4312152 L15.5044553,37.6839875 L5.23943662,37.6839875 Z" id="Path-97"></path>
            <path d="M15.2816901,37.6839875 C15.2816901,37.6839875 17.9426598,37.132974 22.0181087,32.6734226 C26.0935575,28.2138711 25.5467088,19.4312152 25.5467088,19.4312152 L25.5467088,37.6839875 L15.2816901,37.6839875 Z" id="Path-97" transform="translate(20.426440, 28.557601) scale(-1, 1) translate(-20.426440, -28.557601) "></path>
        </g>
        <g id="Group" transform="translate(147.000000, 177.000000)" fill="#000000">
            <path d="M90.2753906,79 C90.2753906,79 84.9499798,100.621879 84.9499798,101.765625 C84.9499798,177.400848 64,317 64,317 L105.899959,317 L105.899959,83.741991 L90.2753906,79 Z" id="Path-141"></path>
            <path d="M98.0625,77.2011719 C98.0625,77.2011719 82.2096655,67.7271523 59.2998047,84.5214844 C47.3333367,93.2936388 24.1396274,130.270892 18.951172,138.62402 C13.7627166,146.977149 18.9511723,158.87695 18.9511723,158.87695 C18.9511723,158.87695 21.9904058,146.012508 25.3027344,144.169922 C28.615063,142.327336 31.1855469,154.044922 31.1855469,154.044922 C31.1855469,154.044922 33.0013416,134.610757 34.984375,132.382812 C36.9674084,130.154868 42.6035156,141.216797 42.6035156,141.216797 C42.6035156,141.216797 47.240977,122.02027 49.6171875,119.921875 C51.993398,117.82348 56.7363281,128.736328 56.7363281,128.736328 C56.7363281,128.736328 61.5966017,108.211775 64.640625,105.490234 C67.6846483,102.768693 74.8222656,112.566406 74.8222656,112.566406 C74.8222656,112.566406 75.3326163,101.746142 78.96875,98.5859375 C82.6048837,95.4257329 87.0419922,103.344727 87.0419922,103.344727 C87.0419922,103.344727 87.121088,90.3473269 88.4199219,88.8613278 C89.7187557,87.3753288 98.0625,93.6728522 98.0625,93.6728522 L98.0625,77.2011719 Z" id="Path-142"></path>
            <path d="M173.417308,77.6625398 C173.417308,77.6625398 157.564474,68.1885202 134.654613,84.9828523 C122.688145,93.7550067 99.4944355,130.73226 94.3059801,139.085388 C89.1175247,147.438517 94.3059805,159.338318 94.3059805,159.338318 C94.3059805,159.338318 97.3452139,146.473876 100.657542,144.63129 C103.969871,142.788704 106.540355,154.50629 106.540355,154.50629 C106.540355,154.50629 108.35615,135.072125 110.339183,132.84418 C112.322217,130.616236 117.958324,141.678165 117.958324,141.678165 C117.958324,141.678165 122.595785,122.481638 124.971996,120.383243 C127.348206,118.284848 132.091136,129.197696 132.091136,129.197696 C132.091136,129.197696 136.95141,108.673143 139.995433,105.951602 C143.039456,103.230061 150.177074,113.027774 150.177074,113.027774 C150.177074,113.027774 150.687424,102.20751 154.323558,99.0473054 C157.959692,95.8871008 162.3968,103.806095 162.3968,103.806095 C162.3968,103.806095 162.475896,90.8086948 163.77473,89.3226957 C165.073564,87.8366967 173.417308,94.1342201 173.417308,94.1342201 L173.417308,77.6625398 Z" id="Path-142" transform="translate(132.708654, 117.169159) scale(-1, 1) translate(-132.708654, -117.169159) "></path>
            <path d="M174.047962,50.3672708 C174.047962,50.3672708 158.195128,40.8932512 135.285267,57.6875833 C123.318799,66.4597377 100.125089,103.436991 94.9366341,111.790119 C89.7481787,120.143248 94.9366344,132.043049 94.9366344,132.043049 C94.9366344,132.043049 97.9758679,119.178607 101.288196,117.336021 C104.600525,115.493435 107.171009,127.211021 107.171009,127.211021 C107.171009,127.211021 108.986804,107.776856 110.969837,105.548911 C112.952871,103.320967 118.588978,114.382896 118.588978,114.382896 C118.588978,114.382896 123.226439,95.1863687 125.60265,93.0879739 C127.97886,90.989579 132.72179,101.902427 132.72179,101.902427 C132.72179,101.902427 137.582064,81.3778742 140.626087,78.6563333 C143.67011,75.9347924 150.807728,85.7325051 150.807728,85.7325051 C150.807728,85.7325051 151.318078,74.912241 154.954212,71.7520364 C158.590346,68.5918318 163.027454,76.5108261 163.027454,76.5108261 C163.027454,76.5108261 163.10655,63.5134257 164.405384,62.0274267 C165.704218,60.5414277 174.047962,66.8389511 174.047962,66.8389511 L174.047962,50.3672708 Z" id="Path-142" transform="translate(133.339308, 89.873890) scale(-1, 1) rotate(-330.000000) translate(-133.339308, -89.873890) "></path>
            <path d="M97.0479621,44.3672708 C97.0479621,44.3672708 81.1951276,34.8932512 58.2852668,51.6875833 C46.3187988,60.4597377 23.1250895,97.4369907 17.9366341,105.790119 C12.7481787,114.143248 17.9366344,126.043049 17.9366344,126.043049 C17.9366344,126.043049 20.9758679,113.178607 24.2881965,111.336021 C27.6005251,109.493435 30.171009,121.211021 30.171009,121.211021 C30.171009,121.211021 31.9868037,101.776856 33.9698371,99.5489114 C35.9528705,97.3209669 41.5889777,108.382896 41.5889777,108.382896 C41.5889777,108.382896 46.2264391,89.1863687 48.6026496,87.0879739 C50.9788601,84.989579 55.7217902,95.902427 55.7217902,95.902427 C55.7217902,95.902427 60.5820638,75.3778742 63.6260871,72.6563333 C66.6701104,69.9347924 73.8077277,79.7325051 73.8077277,79.7325051 C73.8077277,79.7325051 74.3180784,68.912241 77.9542121,65.7520364 C81.5903458,62.5918318 86.0274543,70.5108261 86.0274543,70.5108261 C86.0274543,70.5108261 86.1065501,57.5134257 87.405384,56.0274267 C88.7042178,54.5414277 97.0479621,60.8389511 97.0479621,60.8389511 L97.0479621,44.3672708 Z" id="Path-142" transform="translate(56.339308, 83.873890) rotate(-330.000000) translate(-56.339308, -83.873890) "></path>
            <path d="M100.582544,19.8326889 C100.582544,19.8326889 84.7297095,10.3586693 61.8198487,27.1530014 C49.8533807,35.9251558 26.6596713,72.9024088 21.4712159,81.2555373 C16.2827605,89.6086658 21.4712163,101.508467 21.4712163,101.508467 C21.4712163,101.508467 24.5104498,88.6440248 27.8227784,86.8014389 C31.1351069,84.9588529 33.7055909,96.6764389 33.7055909,96.6764389 C33.7055909,96.6764389 35.5213855,77.242274 37.504419,75.0143295 C39.4874524,72.786385 45.1235596,83.8483139 45.1235596,83.8483139 C45.1235596,83.8483139 49.761021,64.6517868 52.1372315,62.553392 C54.513442,60.4549972 59.2563721,71.3678451 59.2563721,71.3678451 C59.2563721,71.3678451 64.1166457,50.8432923 67.160669,48.1217514 C70.2046923,45.4002105 77.3423096,55.1979232 77.3423096,55.1979232 C77.3423096,55.1979232 77.8526603,44.3776591 81.488794,41.2174545 C85.1249277,38.0572499 89.5620362,45.9762442 89.5620362,45.9762442 C89.5620362,45.9762442 89.641132,32.9788439 90.9399659,31.4928448 C92.2387997,30.0068458 100.582544,36.3043692 100.582544,36.3043692 L100.582544,19.8326889 Z" id="Path-142" transform="translate(59.873890, 59.339308) rotate(-312.000000) translate(-59.873890, -59.339308) "></path>
            <path d="M187.047962,24.3672708 C187.047962,24.3672708 171.195128,14.8932512 148.285267,31.6875833 C136.318799,40.4597377 113.125089,77.4369907 107.936634,85.7901192 C102.748179,94.1432477 107.936634,106.043049 107.936634,106.043049 C107.936634,106.043049 110.975868,93.1786067 114.288196,91.3360208 C117.600525,89.4934348 120.171009,101.211021 120.171009,101.211021 C120.171009,101.211021 121.986804,81.7768559 123.969837,79.5489114 C125.952871,77.3209669 131.588978,88.3828958 131.588978,88.3828958 C131.588978,88.3828958 136.226439,69.1863687 138.60265,67.0879739 C140.97886,64.989579 145.72179,75.902427 145.72179,75.902427 C145.72179,75.902427 150.582064,55.3778742 153.626087,52.6563333 C156.67011,49.9347924 163.807728,59.7325051 163.807728,59.7325051 C163.807728,59.7325051 164.318078,48.912241 167.954212,45.7520364 C171.590346,42.5918318 176.027454,50.5108261 176.027454,50.5108261 C176.027454,50.5108261 176.10655,37.5134257 177.405384,36.0274267 C178.704218,34.5414277 187.047962,40.8389511 187.047962,40.8389511 L187.047962,24.3672708 Z" id="Path-142" transform="translate(146.339308, 63.873890) scale(-1, 1) rotate(-330.000000) translate(-146.339308, -63.873890) "></path>
        </g>
        <circle id="Oval-48" fill="#000000" cx="228" cy="292" r="13"></circle>
        <circle id="Oval-48" fill="#000000" cx="262" cy="284" r="13"></circle>
    </g>
</svg>