<?xml version="1.0" encoding="UTF-8"?>
<svg width="360px" height="640px" viewBox="0 0 360 640" version="1.1" xmlns="http://www.w3.org/2000/svg" xmlns:xlink="http://www.w3.org/1999/xlink">
    <!-- Generator: Sketch 52.3 (67297) - http://www.bohemiancoding.com/sketch -->
    <title>Knight Coins</title>
    <desc>Created with Sketch.</desc>
    <g id="Knight-Coins" stroke="none" stroke-width="1" fill="none" fill-rule="evenodd">
        <g id="WANDS-+-2" transform="translate(10.000000, 21.000000)">
            <rect id="Rectangle-9" stroke="#000000" stroke-width="10" fill="#FCD116" x="5" y="5" width="330" height="589" rx="25"></rect>
            <path d="M8,508 L332,508" id="Line" stroke="#000000" stroke-width="10" stroke-linecap="square"></path>
            <text id="ACE" font-family="HighwayGothicExpanded, Highway Gothic Expanded" font-size="24" font-style="expanded" font-weight="normal" line-spacing="20" fill="#000000">
                <tspan x="80.12" y="559">RIDER OF THE</tspan>
                <tspan x="33.5" y="579">ENVELOPING PLAINS</tspan>
            </text>
            <text id="COINS" font-family="HighwayGothicCondensed, Highway Gothic Condensed" font-size="14.3661972" font-style="condensed" font-weight="normal" line-spacing="20" fill="#000000">
                <tspan x="161.75" y="58.6785714">COINS</tspan>
            </text>
            <text id="2" font-family="HighwayGothicExpanded, Highway Gothic Expanded" font-size="34.4788732" font-style="expanded" font-weight="normal" line-spacing="20" fill="#000000">
                <tspan x="102.759259" y="68.0535714">KNIGHT</tspan>
            </text>
        </g>
        <g id="coin" transform="translate(174.000000, 271.000000)" stroke="#000000">
            <circle id="Oval-31" stroke-width="3" cx="23.2692308" cy="23.2692308" r="23.2692308"></circle>
            <circle id="Oval-31" stroke-width="2" cx="23.2692308" cy="23.2692308" r="16.0299145"></circle>
            <circle id="Oval-31" stroke-width="1" cx="23.2692308" cy="23.2692308" r="8.79059829"></circle>
            <path d="M23.2692308,26.8888889 C25.2683127,26.8888889 26.8888889,25.2683127 26.8888889,23.2692308 C26.8888889,21.2701488 25.2683127,19.6495726 23.2692308,19.6495726 C21.2701488,19.6495726 19.6495726,21.2701488 19.6495726,23.2692308 C19.6495726,25.2683127 21.2701488,26.8888889 23.2692308,26.8888889 Z" id="Oval-31" stroke-width="0.5"></path>
        </g>
        <g id="Group-2" transform="translate(26.000000, 292.000000)" fill="#000000" stroke="#FCD116">
            <path d="M111,35.9989151 L264.090365,35.998916 C264.090365,35.998916 240.565071,3.95712668 216.29908,0.549533443 C192.033088,-2.85805979 178.027795,10.3054181 138.974024,20.0873296 C116.006319,25.8401173 111,35.9989151 111,35.9989151 Z" id="Path-86"></path>
            <path d="M58,25.9989154 L195.84138,25.998916 C195.84138,25.998916 174.659387,4.63804473 152.810476,2.36635011 C130.961565,0.0946554924 118.351308,8.87017532 83.1875946,15.3913514 C62.5076508,19.2264855 58,25.9989154 58,25.9989154 Z" id="Path-86"></path>
            <path d="M117.992873,32.4943613 C109.705646,33.8767448 111.086228,35.998916 111.086228,35.998916 L307.586084,35.998916 C307.586084,35.998916 286.404092,14.6380447 264.55518,12.3663501 C242.706269,10.0946555 230.096012,18.8701753 194.932299,25.3913514 C174.252355,29.2264855 126.2801,31.1119779 117.992873,32.4943613 Z" id="Path-86"></path>
            <path d="M7.72639177e-15,35.9989154 L137.84138,35.998916 C137.84138,35.998916 116.659387,14.6380447 94.8104761,12.3663501 C72.9615648,10.0946555 60.3513077,18.8701753 25.1875946,25.3913514 C4.50765081,29.2264855 7.72639177e-15,35.9989154 7.72639177e-15,35.9989154 Z" id="Path-86"></path>
            <path d="M33.9928727,32.4943613 C25.7056457,33.8767448 27.0862281,35.998916 27.0862281,35.998916 L223.586084,35.998916 C223.586084,35.998916 202.404092,14.6380447 180.55518,12.3663501 C158.706269,10.0946555 146.096012,18.8701753 110.932299,25.3913514 C90.252355,29.2264855 42.2800998,31.1119779 33.9928727,32.4943613 Z" id="Path-86"></path>
        </g>
        <g id="Group" transform="translate(238.000000, 279.000000)">
            <path d="M2.00111121,3.86797343 L2.00111119,3.29407931 L1.78011508,2.15720114 L3.16214866,1.42760108 L4.94552365,1.15516577 L6.4547878,1.13686838e-13 C6.4547878,1.13686838e-13 6.78371043,0.808703178 7,0.842624682 C7.29351124,0.888657151 7.98419024,0.239861919 7.98419024,0.239861919 L9.05678861,1.15516573 L10.2444837,0.581921103 L11.5796707,0.842624682 L11.8934704,2.51672193 L13.2860192,3.66339374 L13.3566395,4.70350929 L11.8934702,6.03813857 C11.8934702,6.03813857 13.0329039,6.16840306 13.3566396,6.55342251 C13.5773961,6.81596867 13.5269468,7.9808354 13.5269468,7.9808354 L14,9.57696208 L12.8644954,10.75684 L11.2126502,10.4463245 L9.96236512,9.37663603 L8.63593298,9.32275663 L6.01991403,9.49837107 L5.53590958,9.49837107 L4.609147,10.4463245 L3.16214873,10.8765495 L1.16697371,10.75684 L1.20320496,9.71672444 L0.109307834,8.38412071 L0.696274527,7.09273674 L0,5.99134856 C0,5.99134856 0.552986777,5.70251768 0.696274527,5.48435553 C0.862828771,5.23076907 0.929525982,4.57610273 0.929525982,4.57610273 L2.00111121,3.86797343 Z" id="Path-97" fill="#000000"></path>
            <polygon id="Path-98" fill="#000000" points="6.10781778 9.41238645 6.70716322 10.306384 6.69016575 14.3482036 5.67567568 15.5756677 10.6468803 15.9449673 9.10990287 14.6185967 8.81632707 10.2191781 9.45484058 8.98604651"></polygon>
            <polygon id="Path-99" fill="#FCD116" points="6.81081081 9.16283498 7.31999578 10.0222793 7.28710938 8.98604651"></polygon>
            <polygon id="Path-99" fill="#FCD116" transform="translate(8.578917, 9.504163) scale(-1, 1) translate(-8.578917, -9.504163) " points="8.32432432 9.16283498 8.83350929 10.0222793 8.80062289 8.98604651"></polygon>
        </g>
    </g>
</svg>