<?xml version="1.0" encoding="UTF-8"?>
<svg width="360px" height="640px" viewBox="0 0 360 640" version="1.1" xmlns="http://www.w3.org/2000/svg" xmlns:xlink="http://www.w3.org/1999/xlink">
    <!-- Generator: Sketch 52.3 (67297) - http://www.bohemiancoding.com/sketch -->
    <title>Knight Wands</title>
    <desc>Created with Sketch.</desc>
    <g id="Knight-Wands" stroke="none" stroke-width="1" fill="none" fill-rule="evenodd">
        <g id="WANDS-+-2" transform="translate(10.000000, 21.000000)">
            <rect id="Rectangle-9" stroke="#000000" stroke-width="10" fill="#DD7500" x="5" y="5" width="330" height="589" rx="25"></rect>
            <path d="M8,508 L332,508" id="Line" stroke="#000000" stroke-width="10" stroke-linecap="square"></path>
            <text id="ACE" font-family="HighwayGothicExpanded, Highway Gothic Expanded" font-size="24" font-style="expanded" font-weight="normal" line-spacing="20" fill="#000000">
                <tspan x="79.76" y="559">RIDER OF THE</tspan>
                <tspan x="38" y="579">UNBRIDLED DESERT</tspan>
            </text>
            <text id="WANDS" font-family="HighwayGothicCondensed, Highway Gothic Condensed" font-size="14.3661972" font-style="condensed" font-weight="normal" line-spacing="20" fill="#000000">
                <tspan x="160.026056" y="58.6785714">WANDS</tspan>
            </text>
            <text id="2" font-family="HighwayGothicExpanded, Highway Gothic Expanded" font-size="34.4788732" font-style="expanded" font-weight="normal" line-spacing="20" fill="#000000">
                <tspan x="102.759259" y="68.0535714">KNIGHT</tspan>
            </text>
        </g>
        <g id="Group-4" transform="translate(125.000000, 274.000000)" fill="#000000">
            <g id="Group-3" transform="translate(0.000000, 31.000000)">
                <path d="M4.23667229,62.1790758 L23.6810464,62.1790771 L221.607766,62.1790774 C221.607766,62.1790774 169.491204,9.6223976 115.733741,4.03307844 C61.9762785,-1.55624072 110.198492,-1.04482139 23.6810469,15 C-13.5232208,21.8996007 4.23667229,62.1790758 4.23667229,62.1790758 Z" id="Path-86"></path>
            </g>
            <g id="Group-2" transform="translate(129.992719, 19.683347) scale(-1, 1) translate(-129.992719, -19.683347) translate(114.000000, 0.000000)">
                <path d="M12.9864153,3.6505492 C12.9864153,1.63440655 14.6249076,0 16.6369274,0 L16.6369274,0 C18.6530495,0 20.2874394,1.6414183 20.2874394,3.6505492 L20.2874394,35.7161446 C20.2874394,37.7322873 18.6489471,39.3666938 16.6369274,39.3666938 L16.6369274,39.3666938 C14.6208052,39.3666938 12.9864153,37.7252755 12.9864153,35.7161446 L12.9864153,3.6505492 Z" id="Rectangle-66"></path>
                <g id="Group" transform="translate(0.000000, 10.060377)">
                    <path d="M1.39067125,2.20952764 C1.39067125,0.98923922 2.37269178,0 3.60310278,0 L3.60310278,0 C4.82499498,0 5.81553431,0.995356829 5.81553431,2.20952764 L5.81553431,10.4752959 C5.81553431,11.6955843 4.83351378,12.6848236 3.60310278,12.6848236 L3.60310278,12.6848236 C2.38121059,12.6848236 1.39067125,11.6894667 1.39067125,10.4752959 L1.39067125,2.20952764 Z" id="Rectangle-66"></path>
                    <path d="M7.76767978,3.92673132 C7.76767978,2.70673718 8.74970031,1.71773652 9.98011132,1.71773652 L9.98011132,1.71773652 C11.2020035,1.71773652 12.1925428,2.70544812 12.1925428,3.92673132 L12.1925428,16.9503741 C12.1925428,18.1703683 11.2105223,19.1593689 9.98011132,19.1593689 L9.98011132,19.1593689 C8.75821912,19.1593689 7.76767978,18.1716573 7.76767978,16.9503741 L7.76767978,3.92673132 Z" id="Rectangle-66"></path>
                </g>
                <g id="Group" transform="translate(22.143765, 10.443109) scale(-1, 1) translate(-22.143765, -10.443109) translate(12.302092, 3.061854)">
                    <path d="M1.39067125,2.20952764 C1.39067125,0.98923922 2.37269178,0 3.60310278,0 L3.60310278,0 C4.82499498,0 5.81553431,0.995356829 5.81553431,2.20952764 L5.81553431,10.4752959 C5.81553431,11.6955843 4.83351378,12.6848236 3.60310278,12.6848236 L3.60310278,12.6848236 C2.38121059,12.6848236 1.39067125,11.6894667 1.39067125,10.4752959 L1.39067125,2.20952764 Z" id="Rectangle-66"></path>
                    <path d="M7.76767978,3.92673132 C7.76767978,2.70673718 8.74970031,1.71773652 9.98011132,1.71773652 L9.98011132,1.71773652 C11.2020035,1.71773652 12.1925428,2.70544812 12.1925428,3.92673132 L12.1925428,16.9503741 C12.1925428,18.1703683 11.2105223,19.1593689 9.98011132,19.1593689 L9.98011132,19.1593689 C8.75821912,19.1593689 7.76767978,18.1716573 7.76767978,16.9503741 L7.76767978,3.92673132 Z" id="Rectangle-66"></path>
                </g>
            </g>
            <g id="Group-2" transform="translate(58.000000, 7.000000)">
                <path d="M12.9864153,3.6505492 C12.9864153,1.63440655 14.6249076,0 16.6369274,0 L16.6369274,0 C18.6530495,0 20.2874394,1.6414183 20.2874394,3.6505492 L20.2874394,35.7161446 C20.2874394,37.7322873 18.6489471,39.3666938 16.6369274,39.3666938 L16.6369274,39.3666938 C14.6208052,39.3666938 12.9864153,37.7252755 12.9864153,35.7161446 L12.9864153,3.6505492 Z" id="Rectangle-66"></path>
                <g id="Group" transform="translate(0.000000, 10.060377)">
                    <path d="M1.39067125,2.20952764 C1.39067125,0.98923922 2.37269178,0 3.60310278,0 L3.60310278,0 C4.82499498,0 5.81553431,0.995356829 5.81553431,2.20952764 L5.81553431,10.4752959 C5.81553431,11.6955843 4.83351378,12.6848236 3.60310278,12.6848236 L3.60310278,12.6848236 C2.38121059,12.6848236 1.39067125,11.6894667 1.39067125,10.4752959 L1.39067125,2.20952764 Z" id="Rectangle-66"></path>
                    <path d="M7.76767978,3.92673132 C7.76767978,2.70673718 8.74970031,1.71773652 9.98011132,1.71773652 L9.98011132,1.71773652 C11.2020035,1.71773652 12.1925428,2.70544812 12.1925428,3.92673132 L12.1925428,16.9503741 C12.1925428,18.1703683 11.2105223,19.1593689 9.98011132,19.1593689 L9.98011132,19.1593689 C8.75821912,19.1593689 7.76767978,18.1716573 7.76767978,16.9503741 L7.76767978,3.92673132 Z" id="Rectangle-66"></path>
                </g>
                <g id="Group" transform="translate(22.143765, 10.443109) scale(-1, 1) translate(-22.143765, -10.443109) translate(12.302092, 3.061854)">
                    <path d="M1.39067125,2.20952764 C1.39067125,0.98923922 2.37269178,0 3.60310278,0 L3.60310278,0 C4.82499498,0 5.81553431,0.995356829 5.81553431,2.20952764 L5.81553431,10.4752959 C5.81553431,11.6955843 4.83351378,12.6848236 3.60310278,12.6848236 L3.60310278,12.6848236 C2.38121059,12.6848236 1.39067125,11.6894667 1.39067125,10.4752959 L1.39067125,2.20952764 Z" id="Rectangle-66"></path>
                    <path d="M7.76767978,3.92673132 C7.76767978,2.70673718 8.74970031,1.71773652 9.98011132,1.71773652 L9.98011132,1.71773652 C11.2020035,1.71773652 12.1925428,2.70544812 12.1925428,3.92673132 L12.1925428,16.9503741 C12.1925428,18.1703683 11.2105223,19.1593689 9.98011132,19.1593689 L9.98011132,19.1593689 C8.75821912,19.1593689 7.76767978,18.1716573 7.76767978,16.9503741 L7.76767978,3.92673132 Z" id="Rectangle-66"></path>
                </g>
            </g>
            <g id="Group-2" transform="translate(26.000000, 27.000000)">
                <path d="M12.9864153,3.6505492 C12.9864153,1.63440655 14.6249076,0 16.6369274,0 L16.6369274,0 C18.6530495,0 20.2874394,1.6414183 20.2874394,3.6505492 L20.2874394,35.7161446 C20.2874394,37.7322873 18.6489471,39.3666938 16.6369274,39.3666938 L16.6369274,39.3666938 C14.6208052,39.3666938 12.9864153,37.7252755 12.9864153,35.7161446 L12.9864153,3.6505492 Z" id="Rectangle-66"></path>
                <g id="Group" transform="translate(0.000000, 10.060377)">
                    <path d="M1.39067125,2.20952764 C1.39067125,0.98923922 2.37269178,0 3.60310278,0 L3.60310278,0 C4.82499498,0 5.81553431,0.995356829 5.81553431,2.20952764 L5.81553431,10.4752959 C5.81553431,11.6955843 4.83351378,12.6848236 3.60310278,12.6848236 L3.60310278,12.6848236 C2.38121059,12.6848236 1.39067125,11.6894667 1.39067125,10.4752959 L1.39067125,2.20952764 Z" id="Rectangle-66"></path>
                    <path d="M7.76767978,3.92673132 C7.76767978,2.70673718 8.74970031,1.71773652 9.98011132,1.71773652 L9.98011132,1.71773652 C11.2020035,1.71773652 12.1925428,2.70544812 12.1925428,3.92673132 L12.1925428,16.9503741 C12.1925428,18.1703683 11.2105223,19.1593689 9.98011132,19.1593689 L9.98011132,19.1593689 C8.75821912,19.1593689 7.76767978,18.1716573 7.76767978,16.9503741 L7.76767978,3.92673132 Z" id="Rectangle-66"></path>
                </g>
                <g id="Group" transform="translate(22.143765, 10.443109) scale(-1, 1) translate(-22.143765, -10.443109) translate(12.302092, 3.061854)">
                    <path d="M1.39067125,2.20952764 C1.39067125,0.98923922 2.37269178,0 3.60310278,0 L3.60310278,0 C4.82499498,0 5.81553431,0.995356829 5.81553431,2.20952764 L5.81553431,10.4752959 C5.81553431,11.6955843 4.83351378,12.6848236 3.60310278,12.6848236 L3.60310278,12.6848236 C2.38121059,12.6848236 1.39067125,11.6894667 1.39067125,10.4752959 L1.39067125,2.20952764 Z" id="Rectangle-66"></path>
                    <path d="M7.76767978,3.92673132 C7.76767978,2.70673718 8.74970031,1.71773652 9.98011132,1.71773652 L9.98011132,1.71773652 C11.2020035,1.71773652 12.1925428,2.70544812 12.1925428,3.92673132 L12.1925428,16.9503741 C12.1925428,18.1703683 11.2105223,19.1593689 9.98011132,19.1593689 L9.98011132,19.1593689 C8.75821912,19.1593689 7.76767978,18.1716573 7.76767978,16.9503741 L7.76767978,3.92673132 Z" id="Rectangle-66"></path>
                </g>
            </g>
            <g id="Group-2" transform="translate(90.000000, 12.000000)">
                <path d="M7.99164021,2.24868231 C7.99164021,1.00676937 8.98876875,0 10.2381091,0 L10.2381091,0 C11.4787997,0 12.4845781,1.01038322 12.4845781,2.24868231 L12.4845781,22.3555013 C12.4845781,23.5974143 11.4874496,24.6041836 10.2381091,24.6041836 L10.2381091,24.6041836 C8.99741861,24.6041836 7.99164021,23.5938004 7.99164021,22.3555013 L7.99164021,2.24868231 Z" id="Rectangle-66"></path>
                <g id="Group" transform="translate(0.000000, 6.287736)">
                    <path d="M0.855797692,1.36287432 C0.855797692,0.610179616 1.46011802,0 2.21729402,0 L2.21729402,0 C2.96922768,0 3.57879035,0.608933936 3.57879035,1.36287432 L3.57879035,6.56514041 C3.57879035,7.31783511 2.97447002,7.92801473 2.21729402,7.92801473 L2.21729402,7.92801473 C1.46536036,7.92801473 0.855797692,7.31908079 0.855797692,6.56514041 L0.855797692,1.36287432 Z" id="Rectangle-66"></path>
                    <path d="M4.78011064,2.43216604 C4.78011064,1.68184263 5.38443096,1.07358533 6.14160696,1.07358533 L6.14160696,1.07358533 C6.89354062,1.07358533 7.50310329,1.69090507 7.50310329,2.43216604 L7.50310329,10.6160249 C7.50310329,11.3663483 6.89878297,11.9746056 6.14160696,11.9746056 L6.14160696,11.9746056 C5.3896733,11.9746056 4.78011064,11.3572858 4.78011064,10.6160249 L4.78011064,2.43216604 Z" id="Rectangle-66"></path>
                </g>
                <g id="Group" transform="translate(13.532301, 6.834495) scale(-1, 1) translate(-13.532301, -6.834495) translate(7.381255, 1.913659)">
                    <path d="M0.855797692,1.36287432 C0.855797692,0.610179616 1.46011802,0 2.21729402,0 L2.21729402,0 C2.96922768,0 3.57879035,0.608933936 3.57879035,1.36287432 L3.57879035,6.56514041 C3.57879035,7.31783511 2.97447002,7.92801473 2.21729402,7.92801473 L2.21729402,7.92801473 C1.46536036,7.92801473 0.855797692,7.31908079 0.855797692,6.56514041 L0.855797692,1.36287432 Z" id="Rectangle-66"></path>
                    <path d="M4.78011064,2.43216604 C4.78011064,1.68184263 5.38443096,1.07358533 6.14160696,1.07358533 L6.14160696,1.07358533 C6.89354062,1.07358533 7.50310329,1.69090507 7.50310329,2.43216604 L7.50310329,10.6160249 C7.50310329,11.3663483 6.89878297,11.9746056 6.14160696,11.9746056 L6.14160696,11.9746056 C5.3896733,11.9746056 4.78011064,11.3572858 4.78011064,10.6160249 L4.78011064,2.43216604 Z" id="Rectangle-66"></path>
                </g>
            </g>
        </g>
        <path d="M283.988715,309.396551 L279.960938,309.039062 L274.960938,309.551981 L277.738715,309.847297 L275.516493,310.608903 L278.363715,310.702161 L275.794271,311.354966 L278.363715,311.774627 L276.627604,312.318631 L278.363715,313.391097 L275.794271,314.121617 L278.363715,314.463562 L278.363715,314.960937 L282.18316,314.634535 C282.18316,314.634535 282.564343,314.089358 282.18316,313.8263 C282.008787,313.705964 280.516493,313.002522 280.516493,313.002522 L284.960938,312.318631 L280.516493,311.867885 L283.016493,311.152908 L280.516493,310.391302 L282.18316,309.925012 L283.988715,309.396551 Z" id="Path-115" fill="#000000" transform="translate(279.960938, 312.000000) scale(-1, 1) rotate(-270.000000) translate(-279.960938, -312.000000) "></path>
        <path d="M285.708333,307.357489 L284.5,307 L283,307.512918 L283.833333,307.808235 L283.166667,308.569841 L284.020833,308.663099 L283.25,309.315904 L284.020833,309.735564 L283.5,310.279569 L284.020833,311.352034 L283.25,312.082554 L284.020833,312.4245 L284.020833,312.921875 L285.166667,312.595472 C285.166667,312.595472 285.281022,312.050295 285.166667,311.787238 C285.114355,311.666902 284.666667,310.96346 284.666667,310.96346 L286,310.279569 L284.666667,309.828822 L285.416667,309.113845 L284.666667,308.352239 L285.166667,307.88595 L285.708333,307.357489 Z" id="Path-115" fill="#000000" transform="translate(284.500000, 309.960938) scale(-1, 1) translate(-284.500000, -309.960938) "></path>
        <path d="M276.708333,306.357489 L275.5,306 L274,306.512918 L274.833333,306.808235 L274.166667,307.569841 L275.020833,307.663099 L274.25,308.315904 L275.020833,308.735564 L274.5,309.279569 L275.020833,310.352034 L274.25,311.082554 L275.020833,311.4245 L275.020833,311.921875 L276.166667,311.595472 C276.166667,311.595472 276.281022,311.050295 276.166667,310.787238 C276.114355,310.666902 275.666667,309.96346 275.666667,309.96346 L277,309.279569 L275.666667,308.828822 L276.416667,308.113845 L275.666667,307.352239 L276.166667,306.88595 L276.708333,306.357489 Z" id="Path-115" fill="#000000" transform="translate(275.500000, 308.960938) scale(-1, 1) translate(-275.500000, -308.960938) "></path>
    </g>
</svg>