<?xml version="1.0" encoding="UTF-8"?>
<svg width="360px" height="640px" viewBox="0 0 360 640" version="1.1" xmlns="http://www.w3.org/2000/svg" xmlns:xlink="http://www.w3.org/1999/xlink">
    <!-- Generator: Sketch 52.3 (67297) - http://www.bohemiancoding.com/sketch -->
    <title>Princess Coins</title>
    <desc>Created with Sketch.</desc>
    <g id="Princess-Coins" stroke="none" stroke-width="1" fill="none" fill-rule="evenodd">
        <g id="WANDS-+-2" transform="translate(10.000000, 21.000000)">
            <rect id="Rectangle-9" stroke="#000000" stroke-width="10" fill="#DD7500" x="5" y="5" width="330" height="589" rx="25"></rect>
            <path d="M8,508 L332,508" id="Line" stroke="#000000" stroke-width="10" stroke-linecap="square"></path>
            <text id="ACE" font-family="HighwayGothicExpanded, Highway Gothic Expanded" font-size="24" font-style="expanded" font-weight="normal" line-spacing="20" fill="#000000">
                <tspan x="83.7" y="559">ROSE OF THE </tspan>
                <tspan x="46.5" y="579">PALACE OF EARTH</tspan>
            </text>
            <text id="COINS" font-family="HighwayGothicCondensed, Highway Gothic Condensed" font-size="14.3661972" font-style="condensed" font-weight="normal" line-spacing="20" fill="#000000">
                <tspan x="161.75" y="58.6785714">COINS</tspan>
            </text>
            <text id="2" font-family="HighwayGothicExpanded, Highway Gothic Expanded" font-size="34.4788732" font-style="expanded" font-weight="normal" line-spacing="20" fill="#000000">
                <tspan x="73" y="69.6785714">PRINCESS</tspan>
            </text>
        </g>
        <g id="cheesy-earth" transform="translate(230.000000, 332.000000)" stroke="#000000">
            <ellipse id="Oval-21" stroke-width="8" cx="28" cy="28.8392857" rx="28" ry="28.1607143"></ellipse>
            <ellipse id="Oval-22" stroke-width="4" cx="28.2333333" cy="28.8392857" rx="11.9" ry="28.1607143"></ellipse>
            <path d="M4.9,15.4629464 L53.4333333,15.4629464" id="Line" stroke-width="3" stroke-linecap="square"></path>
            <path d="M1.63333333,29.5433036 L54.3687317,29.5433036" id="Line" stroke-width="3" stroke-linecap="square"></path>
            <path d="M3.96666667,41.7462798 L52.5,41.7462798" id="Line" stroke-width="3" stroke-linecap="square"></path>
            <path d="M28.3373494,0.339285714 L28.3373494,55.9862794" id="Line" stroke-width="4" stroke-linecap="square"></path>
        </g>
        <g id="princess" transform="translate(94.000000, 185.000000)" fill="#000000">
            <g id="bathroom-woman" transform="translate(29.000000, 7.078062)">
                <rect id="Rectangle-15" x="19.1138926" y="59.6279932" width="70.6164391" height="119.424768"></rect>
                <rect id="Rectangle-15" x="0.500827836" y="58.7924992" width="108.245626" height="33.6839088" rx="16.8419544"></rect>
                <path d="M19.1138926,179.022124 C19.1138926,171.936039 24.8607074,166.191632 31.9532451,166.191632 L31.9532451,166.191632 C39.0442237,166.191632 44.7925977,171.937415 44.7925977,179.022124 L44.7925977,250.738259 C44.7925977,257.824344 39.0457828,263.56875 31.9532451,263.56875 L31.9532451,263.56875 C24.8622665,263.56875 19.1138926,257.822968 19.1138926,250.738259 L19.1138926,179.022124 Z" id="Rectangle-15"></path>
                <rect id="Rectangle-15" x="64.0516265" y="166.191632" width="25.6787051" height="97.3771183" rx="12.8393526"></rect>
                <polygon id="Path-42" points="7.10736286 250.950485 57.0814436 250.950485 57.0814436 73.8415821 21.1265478 110.06659"></polygon>
                <polygon id="Path-42" points="52.669714 251.051417 102.643795 251.051417 102.643795 73.9425142 66.6888989 110.167522"></polygon>
            </g>
            <g id="arm" transform="translate(114.855670, 72.187780)">
                <path d="M25.7899434,0.0759942019 C31.7428558,0.603132974 35.8030224,3.73308362 34.8604601,7.06029614 L22.064449,52.2297717 C21.1210447,55.5599563 15.5317842,57.8323899 9.57756297,57.3051352 C3.62465059,56.7779965 -0.435516071,53.6480458 0.507046305,50.3208333 L13.3030574,5.15135778 C14.2464617,1.8211731 19.8357221,-0.451260473 25.7899434,0.0759942019 Z" id="Rectangle-15" transform="translate(17.683753, 28.690565) scale(-1, 1) translate(-17.683753, -28.690565) "></path>
            </g>
            <rect id="Rectangle-17" transform="translate(148.686542, 129.127875) rotate(-323.000000) translate(-148.686542, -129.127875) " x="126.186542" y="119.627875" width="45" height="19" rx="9.5"></rect>
            <rect id="Rectangle-17" transform="translate(27.714701, 51.443131) scale(-1, -1) rotate(-290.000000) translate(-27.714701, -51.443131) " x="-22.5302982" y="41.1031313" width="100.489998" height="20.6800003" rx="10.3400002"></rect>
        </g>
        <g id="coin" transform="translate(153.000000, 195.000000)" stroke="#000000">
            <circle id="Oval-31" stroke-width="3" cx="23" cy="23" r="23"></circle>
            <circle id="Oval-31" stroke-width="2" cx="23" cy="23" r="15.8444444"></circle>
            <circle id="Oval-31" cx="23" cy="23" r="8.68888889"></circle>
            <circle id="Oval-31" stroke-width="0.5" cx="23" cy="23" r="3.57777778"></circle>
        </g>
        <g id="rose" transform="translate(93.000000, 141.000000)">
            <path d="M0.0826748935,8.77404501 C0.0826748935,8.77404501 0.749270785,17.3609012 2.96556877,22.4001578 C5.18186676,27.4394144 10.2130312,29.3279064 11.7875533,29.3279064 C13.3620753,29.3279064 16.3227127,29.9929169 20.4238429,23.2263978 C24.5249732,16.4598788 24.2618445,8.44461414 24.2618445,8.44461414 L0.0826748935,8.77404501 Z" id="Path-15" stroke="#000000" stroke-width="3"></path>
            <ellipse id="Oval-31" stroke="#000000" stroke-width="3" fill="#DD7500" cx="12.1212121" cy="7.40116279" rx="12.1212121" ry="7.40116279"></ellipse>
            <ellipse id="Oval-31" stroke="#000000" stroke-width="2" cx="12.1212121" cy="7.40116279" rx="8.35016835" ry="5.09857881"></ellipse>
            <ellipse id="Oval-31" stroke="#000000" cx="12.1212121" cy="7.40116279" rx="4.57912458" ry="2.79599483"></ellipse>
            <ellipse id="Oval-31" stroke="#000000" stroke-width="0.5" cx="12.1212121" cy="7.40116279" rx="1.88552189" ry="1.15129199"></ellipse>
            <path d="M14.3199574,15.143549 C14.3199574,15.143549 16.8664389,16.2012619 17.39317,19.6640937 C17.919901,23.1269256 15.9097774,26.6586884 16.4889249,27.7509368 C17.0680724,28.8431853 19.8867335,24.3668525 19.8867335,24.3668525 L22.6261023,18.833164 L24.1553104,12.282712 L24.4421757,9.74369777 L21.5886896,11.6590377 L14.3199574,15.143549 Z" id="Path-16" stroke="#000000" stroke-width="2"></path>
            <path d="M15.1556079,50.6826993 C13.8433448,42.7527064 13.7519515,30.2823387 13.7519515,30.2823387 C13.7316052,29.0394308 12.7788818,28.2077572 11.6237664,28.4247847 L13.5682568,28.0594464 C12.4132389,28.2764556 11.4964014,29.4641761 11.5276171,30.7201519 C11.5276171,30.7201519 11.6773408,42.670579 13.0680976,51.0749087 C14.4588545,59.4792384 16.7217365,64.3545173 17.626989,65.6172304 C18.5322415,66.8799434 19.4045561,65.72559 19.2968657,65.0748179 C19.1891753,64.4240458 16.467871,58.6126921 15.1556079,50.6826993 L15.1556079,50.6826993 Z" id="Rectangle-25" fill="#000000"></path>
            <polygon id="Path-17" fill="#000000" points="13.6025169 36.1499023 14.868534 38.3777452 13.4012858 41.2503747"></polygon>
            <polygon id="Path-17" fill="#000000" points="14.4295143 45.2318307 15.8382948 47.3601455 14.5626795 50.3348358"></polygon>
            <polygon id="Path-17" fill="#000000" points="12.2089342 30.4759199 10.8001538 32.6042347 12.0757691 35.5789249"></polygon>
        </g>
    </g>
</svg>