<?xml version="1.0" encoding="UTF-8"?>
<svg width="360px" height="640px" viewBox="0 0 360 640" version="1.1" xmlns="http://www.w3.org/2000/svg" xmlns:xlink="http://www.w3.org/1999/xlink">
    <!-- Generator: Sketch 52.3 (67297) - http://www.bohemiancoding.com/sketch -->
    <title>Princess Cups</title>
    <desc>Created with Sketch.</desc>
    <g id="Princess-Cups" stroke="none" stroke-width="1" fill="none" fill-rule="evenodd">
        <g id="WANDS-+-2" transform="translate(10.000000, 21.000000)">
            <rect id="Rectangle-9" stroke="#000000" stroke-width="10" fill="#FCD116" x="5" y="5" width="330" height="589" rx="25"></rect>
            <path d="M8,508 L332,508" id="Line" stroke="#000000" stroke-width="10" stroke-linecap="square"></path>
            <text id="ACE" font-family="HighwayGothicExpanded, Highway Gothic Expanded" font-size="24" font-style="expanded" font-weight="normal" line-spacing="20" fill="#000000">
                <tspan x="75.18" y="559">LOTUS OF THE </tspan>
                <tspan x="37.5" y="579">PALACE OF WATERS</tspan>
            </text>
            <text id="CUPS" font-family="HighwayGothicCondensed, Highway Gothic Condensed" font-size="14.3661972" font-style="condensed" font-weight="normal" line-spacing="20" fill="#000000">
                <tspan x="163.438028" y="58.6785714">CUPS</tspan>
            </text>
            <text id="2" font-family="HighwayGothicExpanded, Highway Gothic Expanded" font-size="34.4788732" font-style="expanded" font-weight="normal" line-spacing="20" fill="#000000">
                <tspan x="73" y="69.6785714">PRINCESS</tspan>
            </text>
        </g>
        <g id="cup" transform="translate(66.000000, 390.000000)" fill="#000000" stroke="#000000">
            <path d="M25.3752793,2.98632802e-08 C25.3752793,2.98632802e-08 22.8885913,14.587241 30.0908264,26.3057669 C37.2930614,38.0242928 50.5248628,40.9200832 50.5248628,40.9200832 L50.5248628,0 L25.3752793,2.98632802e-08 Z" id="Path-95" transform="translate(37.742622, 20.460042) scale(-1, 1) translate(-37.742622, -20.460042) "></path>
            <path d="M0.414898953,2.98632802e-08 C0.414898953,2.98632802e-08 -2.071789,14.587241 5.13044603,26.3057669 C12.3326811,38.0242928 25.5644825,40.9200832 25.5644825,40.9200832 L25.5644825,0 L0.414898953,2.98632802e-08 Z" id="Path-95"></path>
            <path d="M8.55784469,61.5512193 C8.55784469,61.5512193 12.904145,60.6512202 19.5607879,53.3672026 C26.2174308,46.0831851 25.3242343,31.7380158 25.3242343,31.7380158 L25.3242343,61.5512193 L8.55784469,61.5512193 Z" id="Path-97"></path>
            <path d="M24.9603803,61.5512193 C24.9603803,61.5512193 29.3066806,60.6512202 35.9633235,53.3672026 C42.6199664,46.0831851 41.7267699,31.7380158 41.7267699,31.7380158 L41.7267699,61.5512193 L24.9603803,61.5512193 Z" id="Path-97" transform="translate(33.363568, 46.644618) scale(-1, 1) translate(-33.363568, -46.644618) "></path>
        </g>
        <g id="cup" transform="translate(244.000000, 390.000000)" fill="#000000" stroke="#000000">
            <path d="M25.3752793,2.98632802e-08 C25.3752793,2.98632802e-08 22.8885913,14.587241 30.0908264,26.3057669 C37.2930614,38.0242928 50.5248628,40.9200832 50.5248628,40.9200832 L50.5248628,0 L25.3752793,2.98632802e-08 Z" id="Path-95" transform="translate(37.742622, 20.460042) scale(-1, 1) translate(-37.742622, -20.460042) "></path>
            <path d="M0.414898953,2.98632802e-08 C0.414898953,2.98632802e-08 -2.071789,14.587241 5.13044603,26.3057669 C12.3326811,38.0242928 25.5644825,40.9200832 25.5644825,40.9200832 L25.5644825,0 L0.414898953,2.98632802e-08 Z" id="Path-95"></path>
            <path d="M8.55784469,61.5512193 C8.55784469,61.5512193 12.904145,60.6512202 19.5607879,53.3672026 C26.2174308,46.0831851 25.3242343,31.7380158 25.3242343,31.7380158 L25.3242343,61.5512193 L8.55784469,61.5512193 Z" id="Path-97"></path>
            <path d="M24.9603803,61.5512193 C24.9603803,61.5512193 29.3066806,60.6512202 35.9633235,53.3672026 C42.6199664,46.0831851 41.7267699,31.7380158 41.7267699,31.7380158 L41.7267699,61.5512193 L24.9603803,61.5512193 Z" id="Path-97" transform="translate(33.363568, 46.644618) scale(-1, 1) translate(-33.363568, -46.644618) "></path>
        </g>
        <g id="Group" transform="translate(91.000000, 161.000000)">
            <g id="lotus" transform="translate(31.000000, 0.000000)" fill="#000000" stroke="#FCD116">
                <path d="M30,81 C30,81 44,67.5685425 44,51 C44,34.4314575 30,21 30,21 C30,21 16,34.4314575 16,51 C16,67.5685425 30,81 30,81 Z" id="Oval-19" transform="translate(30.000000, 51.000000) rotate(-270.000000) translate(-30.000000, -51.000000) "></path>
                <path d="M81,82 C81,82 95,68.5685425 95,52 C95,35.4314575 81,22 81,22 C81,22 67,35.4314575 67,52 C67,68.5685425 81,82 81,82 Z" id="Oval-19" transform="translate(81.000000, 52.000000) rotate(-270.000000) translate(-81.000000, -52.000000) "></path>
                <path d="M76.1126984,64.1126984 C76.1126984,64.1126984 90.1126984,50.6812409 90.1126984,34.1126984 C90.1126984,17.5441559 76.1126984,4.11269837 76.1126984,4.11269837 C76.1126984,4.11269837 62.1126984,17.5441559 62.1126984,34.1126984 C62.1126984,50.6812409 76.1126984,64.1126984 76.1126984,64.1126984 Z" id="Oval-19" transform="translate(76.112698, 34.112698) rotate(-315.000000) translate(-76.112698, -34.112698) "></path>
                <path d="M33.1126984,64.1126984 C33.1126984,64.1126984 47.1126984,50.6812409 47.1126984,34.1126984 C47.1126984,17.5441559 33.1126984,4.11269837 33.1126984,4.11269837 C33.1126984,4.11269837 19.1126984,17.5441559 19.1126984,34.1126984 C19.1126984,50.6812409 33.1126984,64.1126984 33.1126984,64.1126984 Z" id="Oval-19" transform="translate(33.112698, 34.112698) scale(-1, 1) rotate(-315.000000) translate(-33.112698, -34.112698) "></path>
                <path d="M55,60 C55,60 69,46.5685425 69,30 C69,13.4314575 55,0 55,0 C55,0 41,13.4314575 41,30 C41,46.5685425 55,60 55,60 Z" id="Oval-19"></path>
            </g>
            <g id="water-droplet" transform="translate(63.000000, 24.000000)">
                <path d="M23.9960019,56.9484514 C37.2486279,56.9484514 48.3405253,47.7453822 47.9920039,36.4096656 C47.4466402,18.6716234 23.9960019,0 23.9960019,0 C23.9960019,0 9.58704769e-10,18.6716234 0,36.4096656 C0,47.7529238 10.743376,56.9484514 23.9960019,56.9484514 Z" id="Oval-18" fill="#000000"></path>
                <path d="M24.0730026,54.1782178 C35.1049654,54.1782178 44.33826,46.5172518 44.0481383,37.0809933 C43.5941579,22.3152086 24.0730026,6.77227723 24.0730026,6.77227723 C24.0730026,6.77227723 4.09786693,22.3152086 4.09786693,37.0809933 C4.09786693,46.5235297 13.0410398,54.1782178 24.0730026,54.1782178 Z" id="Oval-18" fill="#FCD116"></path>
                <path d="M12.415872,33.2452435 C13.7446951,26.1139369 16.520869,19.1881188 15.8546653,19.1881188 C15.1884617,19.1881188 5.60628111,25.8239774 6.63879666,39.9640768 C7.07122909,45.8861547 14.8670334,51.6811422 15.8546653,51.2043526 C16.8422973,50.7275629 12.0056595,45.9041991 12.0056595,37.3731677 C12.0056595,36.001983 12.1613886,34.6109625 12.415872,33.2452435 Z" id="Path-104" fill="#000000"></path>
            </g>
            <g id="princess" transform="translate(0.000000, 27.000000)" fill="#000000">
                <g id="bathroom-woman" transform="translate(34.000000, 0.078062)">
                    <rect id="Rectangle-15" x="19.1138926" y="59.6279932" width="70.6164391" height="119.424768"></rect>
                    <rect id="Rectangle-15" x="0.500827836" y="58.7924992" width="108.245626" height="33.6839088" rx="16.8419544"></rect>
                    <path d="M19.1138926,179.022124 C19.1138926,171.936039 24.8607074,166.191632 31.9532451,166.191632 L31.9532451,166.191632 C39.0442237,166.191632 44.7925977,171.937415 44.7925977,179.022124 L44.7925977,250.738259 C44.7925977,257.824344 39.0457828,263.56875 31.9532451,263.56875 L31.9532451,263.56875 C24.8622665,263.56875 19.1138926,257.822968 19.1138926,250.738259 L19.1138926,179.022124 Z" id="Rectangle-15"></path>
                    <rect id="Rectangle-15" x="64.0516265" y="166.191632" width="25.6787051" height="97.3771183" rx="12.8393526"></rect>
                    <polygon id="Path-42" points="7.10736286 250.950485 57.0814436 250.950485 57.0814436 73.8415821 21.1265478 110.06659"></polygon>
                    <polygon id="Path-42" points="52.669714 251.051417 102.643795 251.051417 102.643795 73.9425142 66.6888989 110.167522"></polygon>
                </g>
                <g id="arm" transform="translate(119.855670, 65.187780)">
                    <path d="M25.7899434,0.0759942019 C31.7428558,0.603132974 35.8030224,3.73308362 34.8604601,7.06029614 L22.064449,52.2297717 C21.1210447,55.5599563 15.5317842,57.8323899 9.57756297,57.3051352 C3.62465059,56.7779965 -0.435516071,53.6480458 0.507046305,50.3208333 L13.3030574,5.15135778 C14.2464617,1.8211731 19.8357221,-0.451260473 25.7899434,0.0759942019 Z" id="Rectangle-15" transform="translate(17.683753, 28.690565) scale(-1, 1) translate(-17.683753, -28.690565) "></path>
                </g>
                <g id="arm" transform="translate(39.500000, 96.000000) scale(-1, 1) translate(-39.500000, -96.000000) translate(22.000000, 67.000000)">
                    <path d="M25.7899434,0.0759942019 C31.7428558,0.603132974 35.8030224,3.73308362 34.8604601,7.06029614 L22.064449,52.2297717 C21.1210447,55.5599563 15.5317842,57.8323899 9.57756297,57.3051352 C3.62465059,56.7779965 -0.435516071,53.6480458 0.507046305,50.3208333 L13.3030574,5.15135778 C14.2464617,1.8211731 19.8357221,-0.451260473 25.7899434,0.0759942019 Z" id="Rectangle-15" transform="translate(17.683753, 28.690565) scale(-1, 1) translate(-17.683753, -28.690565) "></path>
                </g>
                <rect id="Rectangle-17" transform="translate(153.686542, 122.127875) rotate(-323.000000) translate(-153.686542, -122.127875) " x="131.186542" y="112.627875" width="45" height="19" rx="9.5"></rect>
                <rect id="Rectangle-17" transform="translate(23.686542, 125.127875) scale(-1, 1) rotate(-323.000000) translate(-23.686542, -125.127875) " x="1.1865417" y="115.627875" width="45" height="19" rx="9.5"></rect>
            </g>
        </g>
    </g>
</svg>