<?xml version="1.0" encoding="UTF-8"?>
<svg width="360px" height="640px" viewBox="0 0 360 640" version="1.1" xmlns="http://www.w3.org/2000/svg" xmlns:xlink="http://www.w3.org/1999/xlink">
    <!-- Generator: Sketch 52.3 (67297) - http://www.bohemiancoding.com/sketch -->
    <title>Princess Wands</title>
    <desc>Created with Sketch.</desc>
    <defs>
        <ellipse id="path-1" cx="26.07019" cy="25.4397927" rx="26.0393997" ry="25.4397927"></ellipse>
    </defs>
    <g id="Princess-Wands" stroke="none" stroke-width="1" fill="none" fill-rule="evenodd">
        <g id="WANDS-+-2" transform="translate(10.000000, 21.000000)">
            <rect id="Rectangle-9" stroke="#000000" stroke-width="10" fill="#AF1E2D" x="5" y="5" width="330" height="589" rx="25"></rect>
            <path d="M8,508 L332,508" id="Line" stroke="#000000" stroke-width="10" stroke-linecap="square"></path>
            <text id="ACE" font-family="HighwayGothicExpanded, Highway Gothic Expanded" font-size="24" font-style="expanded" font-weight="normal" line-spacing="20" fill="#FFFFFF">
                <tspan x="83.92" y="559">ROSE OF THE </tspan>
                <tspan x="62.5" y="579">PALACE OF FIRE</tspan>
            </text>
            <text id="WANDS" font-family="HighwayGothicCondensed, Highway Gothic Condensed" font-size="14.3661972" font-style="condensed" font-weight="normal" line-spacing="20" fill="#FFFFFF">
                <tspan x="160.026056" y="58.6785714">WANDS</tspan>
            </text>
            <text id="2" font-family="HighwayGothicExpanded, Highway Gothic Expanded" font-size="34.4788732" font-style="expanded" font-weight="normal" line-spacing="20" fill="#FFFFFF">
                <tspan x="76.7592593" y="68.0535714">PRINCESS</tspan>
            </text>
        </g>
        <g id="princess" transform="translate(91.000000, 188.000000)">
            <g id="bathroom-woman" transform="translate(34.000000, 0.078062)">
                <rect id="Rectangle-15" fill="#000000" x="19.1138926" y="59.6279932" width="70.6164391" height="119.424768"></rect>
                <rect id="Rectangle-15" fill="#000000" x="0.500827836" y="58.7924992" width="108.245626" height="33.6839088" rx="16.8419544"></rect>
                <path d="M19.1138926,179.022124 C19.1138926,171.936039 24.8607074,166.191632 31.9532451,166.191632 L31.9532451,166.191632 C39.0442237,166.191632 44.7925977,171.937415 44.7925977,179.022124 L44.7925977,250.738259 C44.7925977,257.824344 39.0457828,263.56875 31.9532451,263.56875 L31.9532451,263.56875 C24.8622665,263.56875 19.1138926,257.822968 19.1138926,250.738259 L19.1138926,179.022124 Z" id="Rectangle-15" fill="#000000"></path>
                <rect id="Rectangle-15" fill="#000000" x="64.0516265" y="166.191632" width="25.6787051" height="97.3771183" rx="12.8393526"></rect>
                <polygon id="Path-42" fill="#000000" points="7.10736286 250.950485 57.0814436 250.950485 57.0814436 73.8415821 21.1265478 110.06659"></polygon>
                <polygon id="Path-42" fill="#000000" points="52.669714 251.051417 102.643795 251.051417 102.643795 73.9425142 66.6888989 110.167522"></polygon>
                <g id="Mask-+-Rectangle-100" transform="translate(27.804124, 0.751583)">
                    <mask id="mask-2" fill="white">
                        <use xlink:href="#path-1"></use>
                    </mask>
                    <use id="Mask" fill="#000000" xlink:href="#path-1"></use>
                </g>
            </g>
            <g id="arm" transform="translate(119.855670, 65.187780)" fill="#000000">
                <path d="M25.7899434,0.0759942019 C31.7428558,0.603132974 35.8030224,3.73308362 34.8604601,7.06029614 L22.064449,52.2297717 C21.1210447,55.5599563 15.5317842,57.8323899 9.57756297,57.3051352 C3.62465059,56.7779965 -0.435516071,53.6480458 0.507046305,50.3208333 L13.3030574,5.15135778 C14.2464617,1.8211731 19.8357221,-0.451260473 25.7899434,0.0759942019 Z" id="Rectangle-15" transform="translate(17.683753, 28.690565) scale(-1, 1) translate(-17.683753, -28.690565) "></path>
            </g>
            <g id="arm" transform="translate(39.500000, 96.000000) scale(-1, 1) translate(-39.500000, -96.000000) translate(22.000000, 67.000000)" fill="#000000">
                <path d="M25.7899434,0.0759942019 C31.7428558,0.603132974 35.8030224,3.73308362 34.8604601,7.06029614 L22.064449,52.2297717 C21.1210447,55.5599563 15.5317842,57.8323899 9.57756297,57.3051352 C3.62465059,56.7779965 -0.435516071,53.6480458 0.507046305,50.3208333 L13.3030574,5.15135778 C14.2464617,1.8211731 19.8357221,-0.451260473 25.7899434,0.0759942019 Z" id="Rectangle-15" transform="translate(17.683753, 28.690565) scale(-1, 1) translate(-17.683753, -28.690565) "></path>
            </g>
            <rect id="Rectangle-17" fill="#000000" transform="translate(153.686542, 122.127875) rotate(-323.000000) translate(-153.686542, -122.127875) " x="131.186542" y="112.627875" width="45" height="19" rx="9.5"></rect>
            <rect id="Rectangle-17" fill="#000000" transform="translate(23.686542, 125.127875) scale(-1, 1) rotate(-323.000000) translate(-23.686542, -125.127875) " x="1.1865417" y="115.627875" width="45" height="19" rx="9.5"></rect>
        </g>
        <g id="rose" transform="translate(266.000000, 363.000000)">
            <path d="M16.7361111,23.1527778 L11.5,19 L5,24.9583333 L8.61111111,28.3888889 L5.72222222,37.2361111 L9.42361111,38.3194444 L6.08333333,45.9027778 L9.42361111,50.7777778 L7.16666667,57.0972222 L9.42361111,69.5555556 L6.08333333,78.0416667 L9.42361111,82.0138889 L9.42361111,87.7916667 L14.3888889,84 C14.3888889,84 14.8844267,77.6669279 14.3888889,74.6111111 C14.1622045,73.2132242 12.2222222,65.0416667 12.2222222,65.0416667 L18,57.0972222 L12.2222222,51.8611111 L15.4722222,43.5555556 L12.2222222,34.7083333 L14.3888889,29.2916667 L16.7361111,23.1527778 Z" id="Path-115" fill="#000000" transform="translate(11.500000, 53.395833) scale(-1, 1) translate(-11.500000, -53.395833) "></path>
            <path d="M0.0215938936,2.26650616 C0.355738754,2.71223477 2.65351519,2.78955504 3.22598839,6.80717683 C3.79846159,10.8247986 0.897283835,15.746044 0.897283835,19.0829065 C0.897283835,22.419769 2.50979045,25.6657419 3.79846159,27.1281562 C5.08713273,28.5905705 9.37074335,30.9532375 12.3479608,30.9486871 C15.3251782,30.9441367 19.0135743,29.1263545 21.1618649,27.1281562 C23.3101555,25.1299579 24.4936088,21.4879736 24.4936104,19.5986782 C24.4936121,17.7093827 23.6296127,7.65583483 23.9814774,5.0042501 C24.333342,2.35266537 27,0.711004296 27,0.711004296 C27,0.711004296 20.9104232,0.380881637 19.783138,1.79773302 C19.1855252,2.54885495 21.1618657,8.75473772 21.1618657,8.75473772 C21.1618657,8.75473772 18.4893119,3.27500489 15.9616975,1.79773302 C13.4340831,0.320461143 12.1064984,-0.0647820457 7.69115781,0.0639397445 C3.27581724,0.192661535 -0.312550967,1.82077756 0.0215938936,2.26650616 Z" id="Path-6" fill="#000000"></path>
            <path d="M12.9750996,29.824698 C15.7630532,29.824698 18.0231362,27.4608496 18.0231362,24.5448948 C18.0231362,23.2253683 16.795232,21.0933698 16.795232,21.0933698 C16.795232,21.0933698 16.1762932,19.387878 13.590714,15.9498663 C11.0051347,12.5118547 15.5373429,14.0832254 15.1913105,13.8625023 C14.7401473,13.5747197 9.89702839,12.6346409 10.1432741,15.7042941 C10.3895198,18.7739472 11.6854615,18.4939647 11.2513795,18.4055887 C7.69848426,17.6822445 5.66689441,19.3878778 6.69583451,19.3878778 C10.332764,19.3878778 9.59402687,21.0933699 9.59402678,20.6242669 C9.59402687,21.4752418 7.92706295,22.98914 7.92706295,24.5448948 C7.92706295,27.4608496 10.1871459,29.824698 12.9750996,29.824698 Z" id="Oval-69" fill="#AF1E2D"></path>
            <path d="M12.8887864,30.2773104 C15.0365038,30.2773104 16.9396055,28.4998245 16.61554,25.2680319 C17.263671,23.490546 14.509114,26.3991593 14.509114,25.2680319 C15.9674089,23.490546 15.4813106,22.6825979 14.9952123,21.3898808 C14.4736148,19.7493415 12.4026881,18.6428571 12.4026881,18.6428571 C12.4026881,18.6428571 14.0230157,21.3898808 11.5925243,22.5210082 C9.97219659,23.490546 9,24.2573156 9,26.3991593 C9,28.541003 10.741069,30.2773104 12.8887864,30.2773104 Z" id="Oval-70" fill="#000000"></path>
        </g>
        <g id="rose" transform="translate(233.000000, 363.000000)">
            <path d="M16.7361111,23.1527778 L11.5,19 L5,24.9583333 L8.61111111,28.3888889 L5.72222222,37.2361111 L9.42361111,38.3194444 L6.08333333,45.9027778 L9.42361111,50.7777778 L7.16666667,57.0972222 L9.42361111,69.5555556 L6.08333333,78.0416667 L9.42361111,82.0138889 L9.42361111,87.7916667 L14.3888889,84 C14.3888889,84 14.8844267,77.6669279 14.3888889,74.6111111 C14.1622045,73.2132242 12.2222222,65.0416667 12.2222222,65.0416667 L18,57.0972222 L12.2222222,51.8611111 L15.4722222,43.5555556 L12.2222222,34.7083333 L14.3888889,29.2916667 L16.7361111,23.1527778 Z" id="Path-115" fill="#000000" transform="translate(11.500000, 53.395833) scale(-1, 1) translate(-11.500000, -53.395833) "></path>
            <path d="M0.0215938936,2.26650616 C0.355738754,2.71223477 2.65351519,2.78955504 3.22598839,6.80717683 C3.79846159,10.8247986 0.897283835,15.746044 0.897283835,19.0829065 C0.897283835,22.419769 2.50979045,25.6657419 3.79846159,27.1281562 C5.08713273,28.5905705 9.37074335,30.9532375 12.3479608,30.9486871 C15.3251782,30.9441367 19.0135743,29.1263545 21.1618649,27.1281562 C23.3101555,25.1299579 24.4936088,21.4879736 24.4936104,19.5986782 C24.4936121,17.7093827 23.6296127,7.65583483 23.9814774,5.0042501 C24.333342,2.35266537 27,0.711004296 27,0.711004296 C27,0.711004296 20.9104232,0.380881637 19.783138,1.79773302 C19.1855252,2.54885495 21.1618657,8.75473772 21.1618657,8.75473772 C21.1618657,8.75473772 18.4893119,3.27500489 15.9616975,1.79773302 C13.4340831,0.320461143 12.1064984,-0.0647820457 7.69115781,0.0639397445 C3.27581724,0.192661535 -0.312550967,1.82077756 0.0215938936,2.26650616 Z" id="Path-6" fill="#000000"></path>
            <path d="M12.9750996,29.824698 C15.7630532,29.824698 18.0231362,27.4608496 18.0231362,24.5448948 C18.0231362,23.2253683 16.795232,21.0933698 16.795232,21.0933698 C16.795232,21.0933698 16.1762932,19.387878 13.590714,15.9498663 C11.0051347,12.5118547 15.5373429,14.0832254 15.1913105,13.8625023 C14.7401473,13.5747197 9.89702839,12.6346409 10.1432741,15.7042941 C10.3895198,18.7739472 11.6854615,18.4939647 11.2513795,18.4055887 C7.69848426,17.6822445 5.66689441,19.3878778 6.69583451,19.3878778 C10.332764,19.3878778 9.59402687,21.0933699 9.59402678,20.6242669 C9.59402687,21.4752418 7.92706295,22.98914 7.92706295,24.5448948 C7.92706295,27.4608496 10.1871459,29.824698 12.9750996,29.824698 Z" id="Oval-69" fill="#AF1E2D"></path>
            <path d="M12.8887864,30.2773104 C15.0365038,30.2773104 16.9396055,28.4998245 16.61554,25.2680319 C17.263671,23.490546 14.509114,26.3991593 14.509114,25.2680319 C15.9674089,23.490546 15.4813106,22.6825979 14.9952123,21.3898808 C14.4736148,19.7493415 12.4026881,18.6428571 12.4026881,18.6428571 C12.4026881,18.6428571 14.0230157,21.3898808 11.5925243,22.5210082 C9.97219659,23.490546 9,24.2573156 9,26.3991593 C9,28.541003 10.741069,30.2773104 12.8887864,30.2773104 Z" id="Oval-70" fill="#000000"></path>
        </g>
        <g id="rose" transform="translate(91.000000, 363.000000)">
            <path d="M16.7361111,23.1527778 L11.5,19 L5,24.9583333 L8.61111111,28.3888889 L5.72222222,37.2361111 L9.42361111,38.3194444 L6.08333333,45.9027778 L9.42361111,50.7777778 L7.16666667,57.0972222 L9.42361111,69.5555556 L6.08333333,78.0416667 L9.42361111,82.0138889 L9.42361111,87.7916667 L14.3888889,84 C14.3888889,84 14.8844267,77.6669279 14.3888889,74.6111111 C14.1622045,73.2132242 12.2222222,65.0416667 12.2222222,65.0416667 L18,57.0972222 L12.2222222,51.8611111 L15.4722222,43.5555556 L12.2222222,34.7083333 L14.3888889,29.2916667 L16.7361111,23.1527778 Z" id="Path-115" fill="#000000" transform="translate(11.500000, 53.395833) scale(-1, 1) translate(-11.500000, -53.395833) "></path>
            <path d="M0.0215938936,2.26650616 C0.355738754,2.71223477 2.65351519,2.78955504 3.22598839,6.80717683 C3.79846159,10.8247986 0.897283835,15.746044 0.897283835,19.0829065 C0.897283835,22.419769 2.50979045,25.6657419 3.79846159,27.1281562 C5.08713273,28.5905705 9.37074335,30.9532375 12.3479608,30.9486871 C15.3251782,30.9441367 19.0135743,29.1263545 21.1618649,27.1281562 C23.3101555,25.1299579 24.4936088,21.4879736 24.4936104,19.5986782 C24.4936121,17.7093827 23.6296127,7.65583483 23.9814774,5.0042501 C24.333342,2.35266537 27,0.711004296 27,0.711004296 C27,0.711004296 20.9104232,0.380881637 19.783138,1.79773302 C19.1855252,2.54885495 21.1618657,8.75473772 21.1618657,8.75473772 C21.1618657,8.75473772 18.4893119,3.27500489 15.9616975,1.79773302 C13.4340831,0.320461143 12.1064984,-0.0647820457 7.69115781,0.0639397445 C3.27581724,0.192661535 -0.312550967,1.82077756 0.0215938936,2.26650616 Z" id="Path-6" fill="#000000"></path>
            <path d="M12.9750996,29.824698 C15.7630532,29.824698 18.0231362,27.4608496 18.0231362,24.5448948 C18.0231362,23.2253683 16.795232,21.0933698 16.795232,21.0933698 C16.795232,21.0933698 16.1762932,19.387878 13.590714,15.9498663 C11.0051347,12.5118547 15.5373429,14.0832254 15.1913105,13.8625023 C14.7401473,13.5747197 9.89702839,12.6346409 10.1432741,15.7042941 C10.3895198,18.7739472 11.6854615,18.4939647 11.2513795,18.4055887 C7.69848426,17.6822445 5.66689441,19.3878778 6.69583451,19.3878778 C10.332764,19.3878778 9.59402687,21.0933699 9.59402678,20.6242669 C9.59402687,21.4752418 7.92706295,22.98914 7.92706295,24.5448948 C7.92706295,27.4608496 10.1871459,29.824698 12.9750996,29.824698 Z" id="Oval-69" fill="#AF1E2D"></path>
            <path d="M12.8887864,30.2773104 C15.0365038,30.2773104 16.9396055,28.4998245 16.61554,25.2680319 C17.263671,23.490546 14.509114,26.3991593 14.509114,25.2680319 C15.9674089,23.490546 15.4813106,22.6825979 14.9952123,21.3898808 C14.4736148,19.7493415 12.4026881,18.6428571 12.4026881,18.6428571 C12.4026881,18.6428571 14.0230157,21.3898808 11.5925243,22.5210082 C9.97219659,23.490546 9,24.2573156 9,26.3991593 C9,28.541003 10.741069,30.2773104 12.8887864,30.2773104 Z" id="Oval-70" fill="#000000"></path>
        </g>
        <g id="rose" transform="translate(58.000000, 363.000000)">
            <path d="M16.7361111,23.1527778 L11.5,19 L5,24.9583333 L8.61111111,28.3888889 L5.72222222,37.2361111 L9.42361111,38.3194444 L6.08333333,45.9027778 L9.42361111,50.7777778 L7.16666667,57.0972222 L9.42361111,69.5555556 L6.08333333,78.0416667 L9.42361111,82.0138889 L9.42361111,87.7916667 L14.3888889,84 C14.3888889,84 14.8844267,77.6669279 14.3888889,74.6111111 C14.1622045,73.2132242 12.2222222,65.0416667 12.2222222,65.0416667 L18,57.0972222 L12.2222222,51.8611111 L15.4722222,43.5555556 L12.2222222,34.7083333 L14.3888889,29.2916667 L16.7361111,23.1527778 Z" id="Path-115" fill="#000000" transform="translate(11.500000, 53.395833) scale(-1, 1) translate(-11.500000, -53.395833) "></path>
            <path d="M0.0215938936,2.26650616 C0.355738754,2.71223477 2.65351519,2.78955504 3.22598839,6.80717683 C3.79846159,10.8247986 0.897283835,15.746044 0.897283835,19.0829065 C0.897283835,22.419769 2.50979045,25.6657419 3.79846159,27.1281562 C5.08713273,28.5905705 9.37074335,30.9532375 12.3479608,30.9486871 C15.3251782,30.9441367 19.0135743,29.1263545 21.1618649,27.1281562 C23.3101555,25.1299579 24.4936088,21.4879736 24.4936104,19.5986782 C24.4936121,17.7093827 23.6296127,7.65583483 23.9814774,5.0042501 C24.333342,2.35266537 27,0.711004296 27,0.711004296 C27,0.711004296 20.9104232,0.380881637 19.783138,1.79773302 C19.1855252,2.54885495 21.1618657,8.75473772 21.1618657,8.75473772 C21.1618657,8.75473772 18.4893119,3.27500489 15.9616975,1.79773302 C13.4340831,0.320461143 12.1064984,-0.0647820457 7.69115781,0.0639397445 C3.27581724,0.192661535 -0.312550967,1.82077756 0.0215938936,2.26650616 Z" id="Path-6" fill="#000000"></path>
            <path d="M12.9750996,29.824698 C15.7630532,29.824698 18.0231362,27.4608496 18.0231362,24.5448948 C18.0231362,23.2253683 16.795232,21.0933698 16.795232,21.0933698 C16.795232,21.0933698 16.1762932,19.387878 13.590714,15.9498663 C11.0051347,12.5118547 15.5373429,14.0832254 15.1913105,13.8625023 C14.7401473,13.5747197 9.89702839,12.6346409 10.1432741,15.7042941 C10.3895198,18.7739472 11.6854615,18.4939647 11.2513795,18.4055887 C7.69848426,17.6822445 5.66689441,19.3878778 6.69583451,19.3878778 C10.332764,19.3878778 9.59402687,21.0933699 9.59402678,20.6242669 C9.59402687,21.4752418 7.92706295,22.98914 7.92706295,24.5448948 C7.92706295,27.4608496 10.1871459,29.824698 12.9750996,29.824698 Z" id="Oval-69" fill="#AF1E2D"></path>
            <path d="M12.8887864,30.2773104 C15.0365038,30.2773104 16.9396055,28.4998245 16.61554,25.2680319 C17.263671,23.490546 14.509114,26.3991593 14.509114,25.2680319 C15.9674089,23.490546 15.4813106,22.6825979 14.9952123,21.3898808 C14.4736148,19.7493415 12.4026881,18.6428571 12.4026881,18.6428571 C12.4026881,18.6428571 14.0230157,21.3898808 11.5925243,22.5210082 C9.97219659,23.490546 9,24.2573156 9,26.3991593 C9,28.541003 10.741069,30.2773104 12.8887864,30.2773104 Z" id="Oval-70" fill="#000000"></path>
        </g>
    </g>
</svg>