<?xml version="1.0" encoding="UTF-8"?>
<svg width="360px" height="640px" viewBox="0 0 360 640" version="1.1" xmlns="http://www.w3.org/2000/svg" xmlns:xlink="http://www.w3.org/1999/xlink">
    <!-- Generator: Sketch 52.3 (67297) - http://www.bohemiancoding.com/sketch -->
    <title>Princess Swords</title>
    <desc>Created with Sketch.</desc>
    <defs>
        <ellipse id="path-1" cx="26.07019" cy="25.4397927" rx="26.0393997" ry="25.4397927"></ellipse>
    </defs>
    <g id="Princess-Swords" stroke="none" stroke-width="1" fill="none" fill-rule="evenodd">
        <g id="WANDS-+-2" transform="translate(10.000000, 21.000000)">
            <rect id="Rectangle-9" stroke="#000000" stroke-width="10" fill="#003F87" x="5" y="5" width="330" height="589" rx="25"></rect>
            <path d="M8,508 L332,508" id="Line" stroke="#000000" stroke-width="10" stroke-linecap="square"></path>
            <text id="ACE" font-family="HighwayGothicExpanded, Highway Gothic Expanded" font-size="24" font-style="expanded" font-weight="normal" line-spacing="20" fill="#FFFFFF">
                <tspan x="74.96" y="559">LOTUS OF THE </tspan>
                <tspan x="69.5" y="579">PALACE OF AIR</tspan>
            </text>
            <text id="SWORDS" font-family="HighwayGothicCondensed, Highway Gothic Condensed" font-size="14.3661972" font-style="condensed" font-weight="normal" line-spacing="20" fill="#FFFFFF">
                <tspan x="157.547887" y="58.6785714">SWORDS</tspan>
            </text>
            <text id="2" font-family="HighwayGothicExpanded, Highway Gothic Expanded" font-size="34.4788732" font-style="expanded" font-weight="normal" line-spacing="20" fill="#FFFFFF">
                <tspan x="76.7592593" y="68.0535714">PRINCESS</tspan>
            </text>
        </g>
        <g id="lotus" transform="translate(39.000000, 408.000000)" fill="#000000" stroke="#003F87">
            <path d="M0,34 C0,34 8.954305,43.3333333 20,43.3333333 C31.045695,43.3333333 40,34 40,34 C40,34 31.045695,24.6666667 20,24.6666667 C8.954305,24.6666667 0,34 0,34 L0,34 Z" id="Oval-19"></path>
            <path d="M34,34.6666667 C34,34.6666667 42.954305,44 54,44 C65.045695,44 74,34.6666667 74,34.6666667 C74,34.6666667 65.045695,25.3333333 54,25.3333333 C42.954305,25.3333333 34,34.6666667 34,34.6666667 L34,34.6666667 Z" id="Oval-19"></path>
            <path d="M36.5996633,36.8839345 C36.5996633,36.8839345 49.5309764,37.151948 57.3414622,29.3414622 C65.151948,21.5309764 64.8839345,8.59966329 64.8839345,8.59966329 C64.8839345,8.59966329 51.9526215,8.33164979 44.1421356,16.1421356 C36.3316498,23.9526215 36.5996633,36.8839345 36.5996633,36.8839345 L36.5996633,36.8839345 Z" id="Oval-19"></path>
            <path d="M36.2172679,36.8839345 C36.2172679,36.8839345 23.2859548,37.151948 15.475469,29.3414622 C7.66498312,21.5309764 7.93299662,8.59966329 7.93299662,8.59966329 C7.93299662,8.59966329 20.8643097,8.33164979 28.6747955,16.1421356 C36.4852814,23.9526215 36.2172679,36.8839345 36.2172679,36.8839345 L36.2172679,36.8839345 Z" id="Oval-19"></path>
            <path d="M36.6666667,40 C36.6666667,40 46,31.045695 46,20 C46,8.954305 36.6666667,0 36.6666667,0 C36.6666667,0 27.3333333,8.954305 27.3333333,20 C27.3333333,31.045695 36.6666667,40 36.6666667,40 Z" id="Oval-19"></path>
        </g>
        <g id="lotus" transform="translate(248.000000, 408.000000)" fill="#000000" stroke="#003F87">
            <path d="M0,34 C0,34 8.954305,43.3333333 20,43.3333333 C31.045695,43.3333333 40,34 40,34 C40,34 31.045695,24.6666667 20,24.6666667 C8.954305,24.6666667 0,34 0,34 L0,34 Z" id="Oval-19"></path>
            <path d="M34,34.6666667 C34,34.6666667 42.954305,44 54,44 C65.045695,44 74,34.6666667 74,34.6666667 C74,34.6666667 65.045695,25.3333333 54,25.3333333 C42.954305,25.3333333 34,34.6666667 34,34.6666667 L34,34.6666667 Z" id="Oval-19"></path>
            <path d="M36.5996633,36.8839345 C36.5996633,36.8839345 49.5309764,37.151948 57.3414622,29.3414622 C65.151948,21.5309764 64.8839345,8.59966329 64.8839345,8.59966329 C64.8839345,8.59966329 51.9526215,8.33164979 44.1421356,16.1421356 C36.3316498,23.9526215 36.5996633,36.8839345 36.5996633,36.8839345 L36.5996633,36.8839345 Z" id="Oval-19"></path>
            <path d="M36.2172679,36.8839345 C36.2172679,36.8839345 23.2859548,37.151948 15.475469,29.3414622 C7.66498312,21.5309764 7.93299662,8.59966329 7.93299662,8.59966329 C7.93299662,8.59966329 20.8643097,8.33164979 28.6747955,16.1421356 C36.4852814,23.9526215 36.2172679,36.8839345 36.2172679,36.8839345 L36.2172679,36.8839345 Z" id="Oval-19"></path>
            <path d="M36.6666667,40 C36.6666667,40 46,31.045695 46,20 C46,8.954305 36.6666667,0 36.6666667,0 C36.6666667,0 27.3333333,8.954305 27.3333333,20 C27.3333333,31.045695 36.6666667,40 36.6666667,40 Z" id="Oval-19"></path>
        </g>
        <g id="princess" transform="translate(94.000000, 185.000000)">
            <g id="bathroom-woman" transform="translate(29.000000, 7.078062)">
                <rect id="Rectangle-15" fill="#000000" x="19.1138926" y="59.6279932" width="70.6164391" height="119.424768"></rect>
                <rect id="Rectangle-15" fill="#000000" x="0.500827836" y="58.7924992" width="108.245626" height="33.6839088" rx="16.8419544"></rect>
                <path d="M19.1138926,179.022124 C19.1138926,171.936039 24.8607074,166.191632 31.9532451,166.191632 L31.9532451,166.191632 C39.0442237,166.191632 44.7925977,171.937415 44.7925977,179.022124 L44.7925977,250.738259 C44.7925977,257.824344 39.0457828,263.56875 31.9532451,263.56875 L31.9532451,263.56875 C24.8622665,263.56875 19.1138926,257.822968 19.1138926,250.738259 L19.1138926,179.022124 Z" id="Rectangle-15" fill="#000000"></path>
                <rect id="Rectangle-15" fill="#000000" x="64.0516265" y="166.191632" width="25.6787051" height="97.3771183" rx="12.8393526"></rect>
                <polygon id="Path-42" fill="#000000" points="7.10736286 250.950485 57.0814436 250.950485 57.0814436 73.8415821 21.1265478 110.06659"></polygon>
                <polygon id="Path-42" fill="#000000" points="52.669714 251.051417 102.643795 251.051417 102.643795 73.9425142 66.6888989 110.167522"></polygon>
                <g id="Mask-+-Rectangle-100" transform="translate(27.804124, 0.751583)">
                    <mask id="mask-2" fill="white">
                        <use xlink:href="#path-1"></use>
                    </mask>
                    <use id="Mask" fill="#000000" xlink:href="#path-1"></use>
                </g>
            </g>
            <g id="arm" transform="translate(114.855670, 72.187780)" fill="#000000">
                <path d="M25.7899434,0.0759942019 C31.7428558,0.603132974 35.8030224,3.73308362 34.8604601,7.06029614 L22.064449,52.2297717 C21.1210447,55.5599563 15.5317842,57.8323899 9.57756297,57.3051352 C3.62465059,56.7779965 -0.435516071,53.6480458 0.507046305,50.3208333 L13.3030574,5.15135778 C14.2464617,1.8211731 19.8357221,-0.451260473 25.7899434,0.0759942019 Z" id="Rectangle-15" transform="translate(17.683753, 28.690565) scale(-1, 1) translate(-17.683753, -28.690565) "></path>
            </g>
            <rect id="Rectangle-17" fill="#000000" transform="translate(129.686542, 134.127875) scale(-1, 1) rotate(-323.000000) translate(-129.686542, -134.127875) " x="107.186542" y="124.627875" width="45" height="19" rx="9.5"></rect>
            <rect id="Rectangle-17" fill="#000000" transform="translate(27.714701, 51.443131) scale(-1, -1) rotate(-290.000000) translate(-27.714701, -51.443131) " x="-22.5302982" y="41.1031313" width="100.489998" height="20.6800003" rx="10.3400002"></rect>
        </g>
        <g id="wind" transform="translate(82.500000, 181.000000) scale(-1, 1) translate(-82.500000, -181.000000) translate(63.000000, 168.000000)" stroke="#000000" stroke-linecap="square">
            <path d="M0.506493506,12.8381997 C6.86188594,12.8381997 12.535558,13.2466999 20.0884538,11.2564166 C27.6413496,9.26613324 29.771652,3.47621498 25.4142121,0.943126286 C21.0567723,-1.58996241 18.1158895,1.60282333 17.6676538,3.23496861 C17.2194182,4.86711389 21.4441017,6.05101473 21.4441017,6.05101473" id="Line" stroke-width="3"></path>
            <path d="M0,12.9041995 C3.41833979,12.9041995 6.47000639,13.1239173 10.5324407,12.0534146 C14.594875,10.9829119 15.740689,7.86872055 13.3969769,6.50626215 C11.0532648,5.14380374 9.47146844,6.86108974 9.23037841,7.7389627 C8.98928838,8.61683566 11.2615956,9.25361386 11.2615956,9.25361386" id="Line"></path>
            <path d="M7.09090909,25.7833844 C13.4463015,25.7833844 19.1199735,26.1918846 26.6728693,24.2016013 C34.2257651,22.2113179 36.3560676,16.4213997 31.9986277,13.888311 C27.6411878,11.3552223 24.7003051,14.548008 24.2520694,16.1801533 C23.8038338,17.8122986 28.0285173,18.9961994 28.0285173,18.9961994" id="Line" stroke-width="2" transform="translate(20.663311, 19.381584) scale(1, -1) translate(-20.663311, -19.381584) "></path>
            <path d="M20.2597403,11.9831276 C24.6288266,11.9831276 28.5292566,12.2639558 33.7215802,10.895713 C38.9139038,9.52747018 40.3784044,5.54712541 37.382833,3.80572495 C34.3872617,2.06432449 32.3655186,4.25924113 32.0573739,5.38127786 C31.7492293,6.50331459 34.6535357,7.3172006 34.6535357,7.3172006" id="Line" stroke-width="3"></path>
        </g>
        <g id="wind" transform="translate(113.000000, 168.000000)" stroke="#000000" stroke-linecap="square">
            <path d="M0.506493506,12.8381997 C6.86188594,12.8381997 12.535558,13.2466999 20.0884538,11.2564166 C27.6413496,9.26613324 29.771652,3.47621498 25.4142121,0.943126286 C21.0567723,-1.58996241 18.1158895,1.60282333 17.6676538,3.23496861 C17.2194182,4.86711389 21.4441017,6.05101473 21.4441017,6.05101473" id="Line" stroke-width="3"></path>
            <path d="M0,12.9041995 C3.41833979,12.9041995 6.47000639,13.1239173 10.5324407,12.0534146 C14.594875,10.9829119 15.740689,7.86872055 13.3969769,6.50626215 C11.0532648,5.14380374 9.47146844,6.86108974 9.23037841,7.7389627 C8.98928838,8.61683566 11.2615956,9.25361386 11.2615956,9.25361386" id="Line"></path>
            <path d="M7.09090909,25.7833844 C13.4463015,25.7833844 19.1199735,26.1918846 26.6728693,24.2016013 C34.2257651,22.2113179 36.3560676,16.4213997 31.9986277,13.888311 C27.6411878,11.3552223 24.7003051,14.548008 24.2520694,16.1801533 C23.8038338,17.8122986 28.0285173,18.9961994 28.0285173,18.9961994" id="Line" stroke-width="2" transform="translate(20.663311, 19.381584) scale(1, -1) translate(-20.663311, -19.381584) "></path>
            <path d="M20.2597403,11.9831276 C24.6288266,11.9831276 28.5292566,12.2639558 33.7215802,10.895713 C38.9139038,9.52747018 40.3784044,5.54712541 37.382833,3.80572495 C34.3872617,2.06432449 32.3655186,4.25924113 32.0573739,5.38127786 C31.7492293,6.50331459 34.6535357,7.3172006 34.6535357,7.3172006" id="Line" stroke-width="3"></path>
        </g>
        <g id="sword" transform="translate(107.286444, 137.000000) scale(-1, -1) translate(-107.286444, -137.000000) translate(94.000000, 68.000000)">
            <rect id="Rectangle-65" x="4.0881367" y="28.7869406" width="17.4767848" height="108.646725"></rect>
            <rect id="Rectangle-63" fill="#000000" x="0" y="22.2866637" width="26.5728886" height="6.50027692" rx="3.25013846"></rect>
            <g id="Rectangle-61-+-Triangle-7" transform="translate(7.154239, 28.786941)" fill="#000000">
                <rect id="Rectangle-61" x="0" y="0" width="5.11017088" height="99.3613757"></rect>
                <polygon id="Triangle-7" transform="translate(2.555085, 104.004431) scale(1, -1) translate(-2.555085, -104.004431) " points="5.11017088 99.3613757 5.11017088 108.647486 0 108.647486"></polygon>
            </g>
            <g id="Rectangle-61-+-Triangle-7" transform="translate(15.841530, 83.110683) scale(-1, 1) translate(-15.841530, -83.110683) translate(13.286444, 28.786941)" fill="#000000">
                <rect id="Rectangle-61" x="0" y="0" width="5.11017088" height="99.3613757"></rect>
                <polygon id="Triangle-7" transform="translate(2.555085, 104.004431) scale(1, -1) translate(-2.555085, -104.004431) " points="5.11017088 99.3613757 5.11017088 108.647486 0 108.647486"></polygon>
            </g>
            <rect id="Rectangle-63" fill="#000000" x="7.15423923" y="0" width="11.2423759" height="26.0011077" rx="4"></rect>
        </g>
    </g>
</svg>