<?xml version="1.0" encoding="UTF-8"?>
<svg width="360px" height="640px" viewBox="0 0 360 640" version="1.1" xmlns="http://www.w3.org/2000/svg" xmlns:xlink="http://www.w3.org/1999/xlink">
    <!-- Generator: Sketch 52.3 (67297) - http://www.bohemiancoding.com/sketch -->
    <title>Queen Swords</title>
    <desc>Created with Sketch.</desc>
    <g id="Queen-Swords" stroke="none" stroke-width="1" fill="none" fill-rule="evenodd">
        <g id="WANDS-+-2" transform="translate(10.000000, 21.000000)">
            <rect id="Rectangle-9" stroke="#000000" stroke-width="10" fill="#DD7500" x="5" y="5" width="330" height="589" rx="25"></rect>
            <path d="M8,508 L332,508" id="Line" stroke="#000000" stroke-width="10" stroke-linecap="square"></path>
            <text id="ACE" font-family="HighwayGothicExpanded, Highway Gothic Expanded" font-size="24" font-style="expanded" font-weight="normal" line-spacing="20" fill="#000000">
                <tspan x="62.5" y="559">MATRON OF THE</tspan>
                <tspan x="63.1" y="579">HOUSE OF HOPE</tspan>
            </text>
            <text id="SWORDS" font-family="HighwayGothicCondensed, Highway Gothic Condensed" font-size="14.3661972" font-style="condensed" font-weight="normal" line-spacing="20" fill="#000000">
                <tspan x="157.547887" y="58.6785714">SWORDS</tspan>
            </text>
            <text id="2" font-family="HighwayGothicExpanded, Highway Gothic Expanded" font-size="34.4788732" font-style="expanded" font-weight="normal" line-spacing="20" fill="#000000">
                <tspan x="107.259259" y="68.0535714">QUEEN</tspan>
            </text>
        </g>
        <g id="Group-3" transform="translate(52.000000, 213.000000)">
            <g id="Group" transform="translate(0.000000, 40.849057)">
                <rect id="Rectangle-100" fill="#000000" x="115" y="16.6792453" width="27" height="131.471698"></rect>
                <polygon id="Path-113" fill="#000000" points="0.662109375 0.321933962 34.5566406 27.7974646 128 27.7974646 128 0.321933962"></polygon>
                <path d="M34,23.5471698 L124.585938,96.827388" id="Path-114" stroke="#000000" stroke-width="6"></path>
            </g>
            <g id="Group" transform="translate(185.000000, 115.349057) scale(-1, 1) translate(-185.000000, -115.349057) translate(114.000000, 40.849057)">
                <rect id="Rectangle-100" fill="#000000" x="115" y="16.6792453" width="27" height="131.471698"></rect>
                <polygon id="Path-113" fill="#000000" points="0.662109375 0.321933962 34.5566406 27.7974646 128 27.7974646 128 0.321933962"></polygon>
                <path d="M34,23.5471698 L124.585938,96.827388" id="Path-114" stroke="#000000" stroke-width="6"></path>
            </g>
            <g id="Group-2" transform="translate(9.000000, 0.000000)" stroke="#000000">
                <path d="M31,16.2780968 L2.24101534,39.2422285 C1.16067689,40.1048819 0.080078125,41.1135021 0.080078125,41.1135021 L15.3828125,48.5630159" id="Path-121" stroke-width="8" stroke-linecap="square"></path>
                <polyline id="Path-121" stroke-width="8" stroke-linecap="square" transform="translate(225.079590, 29.929172) scale(-1, 1) translate(-225.079590, -29.929172) " points="236.919922 15.1125442 213.239258 41.15616 216.396484 44.7457989"></polyline>
                <path d="M96.1894531,11.7990156 L85,42.7220474" id="Path-123" stroke-width="8" stroke-linecap="square"></path>
                <path d="M164.189453,12.4388843 L153,43.3619161" id="Path-123" stroke-width="8" stroke-linecap="square" transform="translate(158.594727, 27.900400) scale(-1, 1) translate(-158.594727, -27.900400) "></path>
                <polygon id="Path-121" stroke-width="5" fill="#000000" points="29.5080566 15.9342613 216.356445 15.9342613 203.517578 0.180090579 47.2880859 0.180090579"></polygon>
            </g>
        </g>
        <g id="sword" transform="translate(218.000000, 204.000000) scale(-1, -1) translate(-218.000000, -204.000000) translate(211.000000, 195.000000)">
            <rect id="Rectangle-65" x="2.11977459" y="3.64753782" width="9.06203656" height="13.7664173"></rect>
            <path d="M0,3.23571903 C0,3.0082778 0.18435852,2.82390025 0.412364179,2.82390025 L13.3661706,2.82390025 C13.5939131,2.82390025 13.7785348,3.01492947 13.7785348,3.23571903 L13.7785348,3.23571903 C13.7785348,3.46316027 13.5941763,3.64753782 13.3661706,3.64753782 L0.412364179,3.64753782 C0.184621731,3.64753782 0,3.4565086 0,3.23571903 L0,3.23571903 Z" id="Rectangle-63" fill="#000000"></path>
            <g id="Rectangle-61-+-Triangle-7" transform="translate(3.709606, 3.647538)" fill="#000000">
                <rect id="Rectangle-61" x="0" y="0" width="2.64971823" height="12.5898886"></rect>
                <polygon id="Triangle-7" transform="translate(1.324859, 13.178201) scale(1, -1) translate(-1.324859, -13.178201) " points="2.64971823 12.5898886 2.64971823 13.7665137 0 13.7665137"></polygon>
            </g>
            <g id="Rectangle-61-+-Triangle-7" transform="translate(8.038986, 10.647538) scale(-1, 1) translate(-8.038986, -10.647538) translate(6.538986, 3.647538)" fill="#000000">
                <polygon id="Rectangle-61" points="1.65645275e-13 0 2.64971823 0 2.64971823 12.5898886 1.65645275e-13 12.5898886"></polygon>
                <polygon id="Triangle-7" transform="translate(1.324859, 13.178201) scale(1, -1) translate(-1.324859, -13.178201) " points="2.64971823 12.5898886 2.64971823 13.7665137 -3.68594044e-14 13.7665137"></polygon>
            </g>
            <rect id="Rectangle-63" fill="#000000" x="3.70960553" y="0" width="5.82938011" height="3.29455029" rx="1.64727514"></rect>
        </g>
    </g>
</svg>